M48
; DRILL file {KiCad 8.0.2} date 2025-05-01T13:08:43+0100
; FORMAT={-:-/ absolute / metric / decimal}
; #@! TF.CreationDate,2025-05-01T13:08:43+01:00
; #@! TF.GenerationSoftware,Kicad,Pcbnew,8.0.2
; #@! TF.FileFunction,NonPlated,1,2,NPTH
FMAT,2
METRIC
; #@! TA.AperFunction,NonPlated,NPTH,ComponentDrill
T1C1.702
; #@! TA.AperFunction,NonPlated,NPTH,ComponentDrill
T2C2.200
; #@! TA.AperFunction,NonPlated,NPTH,ComponentDrill
T3C3.000
; #@! TA.AperFunction,NonPlated,NPTH,ComponentDrill
T4C3.048
; #@! TA.AperFunction,NonPlated,NPTH,ComponentDrill
T5C3.200
; #@! TA.AperFunction,NonPlated,NPTH,ComponentDrill
T6C3.988
; #@! TA.AperFunction,NonPlated,NPTH,ComponentDrill
T7C4.300
%
G90
G05
T1
X94.182Y-143.875
X98.945Y-162.925
X101.326Y-181.975
X104.343Y-143.875
X106.089Y-201.025
X109.105Y-162.925
X111.486Y-181.975
X113.233Y-143.875
X116.249Y-201.025
X122.757Y-162.925
X123.392Y-143.875
X127.52Y-181.975
X132.282Y-143.875
X132.917Y-162.925
X137.045Y-201.025
X137.68Y-181.975
X141.808Y-162.925
X142.442Y-143.875
X146.57Y-181.975
X147.205Y-201.025
X151.332Y-143.875
X151.968Y-162.925
X156.095Y-201.025
X156.095Y-220.075
X156.73Y-181.975
X160.857Y-162.925
X161.493Y-143.875
X165.62Y-181.975
X166.255Y-201.025
X166.255Y-220.075
X170.382Y-143.875
X171.017Y-162.925
X175.145Y-201.025
X175.78Y-181.975
X179.907Y-162.925
X180.542Y-143.875
X184.67Y-181.975
X185.305Y-201.025
X189.433Y-143.875
X190.067Y-162.925
X194.195Y-201.025
X194.83Y-181.975
X198.957Y-162.925
X199.593Y-143.875
X203.72Y-181.975
X204.355Y-201.025
X208.482Y-143.875
X209.117Y-162.925
X213.245Y-201.025
X213.88Y-181.975
X218.007Y-162.925
X218.642Y-143.875
X222.77Y-181.975
X223.405Y-201.025
X227.532Y-143.875
X228.167Y-162.925
X232.295Y-201.025
X232.295Y-220.075
X232.93Y-181.975
X237.057Y-162.925
X237.692Y-143.875
X241.82Y-181.975
X242.455Y-201.025
X242.455Y-220.075
X246.582Y-143.875
X247.218Y-162.925
X251.345Y-201.025
X251.98Y-181.975
X256.108Y-162.925
X256.743Y-143.875
X260.87Y-181.975
X261.505Y-201.025
X265.632Y-143.875
X266.267Y-162.925
X270.395Y-201.025
X271.03Y-181.975
X275.157Y-162.925
X275.792Y-143.875
X279.92Y-181.975
X280.555Y-201.025
X284.683Y-143.875
X285.317Y-162.925
X289.445Y-201.025
X290.08Y-181.975
X294.207Y-162.925
X294.842Y-143.875
X298.97Y-181.975
X299.605Y-201.025
X303.732Y-143.875
X304.368Y-162.925
X308.495Y-201.025
X308.495Y-220.075
X309.13Y-181.975
X313.257Y-162.925
X313.892Y-143.875
X318.02Y-181.975
X318.655Y-201.025
X318.655Y-220.075
X322.782Y-143.875
X323.417Y-162.925
X327.545Y-201.025
X327.545Y-220.075
X328.18Y-181.975
X332.308Y-162.925
X332.942Y-143.875
X337.07Y-181.975
X337.705Y-201.025
X337.705Y-220.075
X341.832Y-143.875
X342.467Y-162.925
X347.23Y-181.975
X351.993Y-143.875
X353.739Y-201.025
X358.501Y-172.45
X360.882Y-143.875
X363.899Y-201.025
X368.661Y-172.45
X371.042Y-143.875
X408.507Y-119.062
X408.507Y-162.925
X408.507Y-181.975
X408.507Y-201.025
X408.507Y-220.075
X418.667Y-119.062
X418.667Y-162.925
X418.667Y-181.975
X418.667Y-201.025
X418.667Y-220.075
X427.558Y-100.012
X427.558Y-119.062
X427.558Y-138.112
X427.558Y-162.925
X427.558Y-181.975
X427.558Y-201.025
X427.558Y-220.075
X437.717Y-100.012
X437.717Y-119.062
X437.717Y-138.112
X437.717Y-162.925
X437.717Y-181.975
X437.717Y-201.025
X437.717Y-220.075
X446.607Y-119.062
X446.607Y-162.925
X446.607Y-181.975
X446.607Y-201.025
X446.607Y-220.075
X456.767Y-119.062
X456.767Y-162.925
X456.767Y-181.975
X456.767Y-201.025
X456.767Y-220.075
T2
X108.585Y-153.035
X120.015Y-187.325
X146.05Y-220.345
X199.39Y-191.135
X203.835Y-153.035
X275.59Y-191.135
X280.035Y-153.035
X345.44Y-192.405
X345.44Y-220.345
X356.235Y-153.035
X413.385Y-99.695
X413.385Y-150.495
X422.91Y-210.82
X441.96Y-210.82
X451.485Y-99.695
X451.485Y-150.495
T3
X95.453Y-141.335
X100.215Y-160.385
X101.802Y-138.795
X102.596Y-179.435
X106.565Y-157.845
X107.359Y-198.485
X108.946Y-176.895
X113.709Y-195.945
X114.502Y-141.335
X120.852Y-138.795
X124.027Y-160.385
X128.79Y-179.435
X130.377Y-157.845
X133.552Y-141.335
X135.14Y-176.895
X138.315Y-198.485
X139.903Y-138.795
X143.077Y-160.385
X144.665Y-195.945
X147.84Y-179.435
X149.427Y-157.845
X152.602Y-141.335
X154.19Y-176.895
X157.365Y-198.485
X157.365Y-217.535
X158.952Y-138.795
X162.127Y-160.385
X163.715Y-195.945
X163.715Y-214.995
X166.89Y-179.435
X168.477Y-157.845
X171.653Y-141.335
X173.24Y-176.895
X176.415Y-198.485
X178.002Y-138.795
X181.177Y-160.385
X182.765Y-195.945
X185.94Y-179.435
X187.528Y-157.845
X190.702Y-141.335
X192.29Y-176.895
X195.465Y-198.485
X197.052Y-138.795
X200.227Y-160.385
X201.815Y-195.945
X204.99Y-179.435
X206.577Y-157.845
X209.752Y-141.335
X211.34Y-176.895
X214.515Y-198.485
X216.102Y-138.795
X219.278Y-160.385
X220.865Y-195.945
X224.04Y-179.435
X225.627Y-157.845
X228.802Y-141.335
X230.39Y-176.895
X233.565Y-198.485
X233.565Y-217.535
X235.153Y-138.795
X238.327Y-160.385
X239.915Y-195.945
X239.915Y-214.995
X243.09Y-179.435
X244.677Y-157.845
X247.852Y-141.335
X249.44Y-176.895
X252.615Y-198.485
X254.202Y-138.795
X257.377Y-160.385
X258.965Y-195.945
X262.14Y-179.435
X263.727Y-157.845
X266.902Y-141.335
X268.49Y-176.895
X271.665Y-198.485
X273.252Y-138.795
X276.428Y-160.385
X278.015Y-195.945
X281.19Y-179.435
X282.777Y-157.845
X285.952Y-141.335
X287.54Y-176.895
X290.715Y-198.485
X292.303Y-138.795
X295.477Y-160.385
X297.065Y-195.945
X300.24Y-179.435
X301.827Y-157.845
X305.002Y-141.335
X306.59Y-176.895
X309.765Y-198.485
X309.765Y-217.535
X311.352Y-138.795
X314.527Y-160.385
X316.115Y-195.945
X316.115Y-214.995
X319.29Y-179.435
X320.877Y-157.845
X324.053Y-141.335
X325.64Y-176.895
X328.815Y-198.485
X328.815Y-217.535
X330.402Y-138.795
X333.577Y-160.385
X335.165Y-195.945
X335.165Y-214.995
X338.34Y-179.435
X339.928Y-157.845
X343.102Y-141.335
X344.69Y-176.895
X349.452Y-138.795
X355.009Y-198.485
X359.771Y-169.91
X361.359Y-195.945
X362.152Y-141.335
X366.121Y-167.37
X368.502Y-138.795
X409.777Y-116.522
X409.777Y-160.385
X409.777Y-179.435
X409.777Y-198.485
X409.777Y-217.535
X416.127Y-113.983
X416.127Y-157.845
X416.127Y-176.895
X416.127Y-195.945
X416.127Y-214.995
X428.827Y-97.472
X428.827Y-116.522
X428.827Y-135.572
X428.827Y-160.385
X428.827Y-179.435
X428.827Y-198.485
X428.827Y-217.535
X435.177Y-94.932
X435.177Y-113.983
X435.177Y-133.032
X435.177Y-157.845
X435.177Y-176.895
X435.177Y-195.945
X435.177Y-214.995
X447.877Y-116.522
X447.877Y-160.385
X447.877Y-179.435
X447.877Y-198.485
X447.877Y-217.535
X454.227Y-113.983
X454.227Y-157.845
X454.227Y-176.895
X454.227Y-195.945
X454.227Y-214.995
T4
X99.269Y-194.04
X123.069Y-194.04
X180.225Y-213.09
X294.525Y-213.09
X356.596Y-160.55
X356.596Y-184.35
T5
X350.012Y-234.575
T6
X99.262Y-143.875
X99.269Y-209.28
X104.025Y-162.925
X106.406Y-181.975
X111.169Y-201.025
X118.312Y-143.875
X123.069Y-209.28
X127.837Y-162.925
X132.6Y-181.975
X137.362Y-143.875
X142.125Y-201.025
X146.887Y-162.925
X151.65Y-181.975
X156.412Y-143.875
X161.175Y-201.025
X161.175Y-220.075
X165.938Y-162.925
X170.7Y-181.975
X175.463Y-143.875
X180.225Y-201.025
X180.225Y-228.33
X184.987Y-162.925
X189.75Y-181.975
X194.512Y-143.875
X199.275Y-201.025
X204.037Y-162.925
X208.8Y-181.975
X213.562Y-143.875
X218.325Y-201.025
X223.087Y-162.925
X227.85Y-181.975
X232.612Y-143.875
X237.375Y-201.025
X237.375Y-220.075
X242.137Y-162.925
X246.9Y-181.975
X251.662Y-143.875
X256.425Y-201.025
X261.188Y-162.925
X265.95Y-181.975
X270.712Y-143.875
X275.475Y-201.025
X280.238Y-162.925
X285.0Y-181.975
X289.762Y-143.875
X294.525Y-201.025
X294.525Y-228.33
X299.287Y-162.925
X304.05Y-181.975
X308.812Y-143.875
X313.575Y-201.025
X313.575Y-220.075
X318.337Y-162.925
X323.1Y-181.975
X327.863Y-143.875
X332.625Y-201.025
X332.625Y-220.075
X337.387Y-162.925
X342.15Y-181.975
X346.912Y-143.875
X358.819Y-201.025
X363.581Y-172.45
X365.962Y-143.875
X371.836Y-160.55
X371.836Y-184.35
X413.587Y-119.062
X413.587Y-162.925
X413.587Y-181.975
X413.587Y-201.025
X413.587Y-220.075
X432.637Y-100.012
X432.637Y-119.062
X432.637Y-138.112
X432.637Y-162.925
X432.637Y-181.975
X432.637Y-201.025
X432.637Y-220.075
X451.688Y-119.062
X451.688Y-162.925
X451.688Y-181.975
X451.688Y-201.025
X451.688Y-220.075
T7
X85.013Y-234.075
X280.012Y-118.075
X280.012Y-234.075
X470.012Y-234.075
T7
G00X84.513Y-118.075
M15
G01X85.513Y-118.075
M16
G05
G00X84.513Y-219.075
M15
G01X85.513Y-219.075
M16
G05
G00X469.512Y-118.075
M15
G01X470.512Y-118.075
M16
G05
G00X469.512Y-209.075
M15
G01X470.512Y-209.075
M16
G05
M30
