M48
; DRILL file {KiCad 8.0.2} date 2025-05-01T13:08:43+0100
; FORMAT={-:-/ absolute / metric / decimal}
; #@! TF.CreationDate,2025-05-01T13:08:43+01:00
; #@! TF.GenerationSoftware,Kicad,Pcbnew,8.0.2
; #@! TF.FileFunction,Plated,1,2,PTH
FMAT,2
METRIC
; #@! TA.AperFunction,Plated,PTH,ViaDrill
T1C0.400
; #@! TA.AperFunction,Plated,PTH,ComponentDrill
T2C1.000
; #@! TA.AperFunction,Plated,PTH,ComponentDrill
T3C1.499
%
G90
G05
T1
X85.615Y-187.563
X86.79Y-185.023
X89.86Y-196.881
X89.891Y-182.499
X90.957Y-187.055
X92.151Y-173.507
X93.167Y-189.636
X94.336Y-172.796
X95.555Y-171.967
X96.71Y-154.797
X96.85Y-171.155
X100.711Y-148.768
X100.711Y-152.295
X115.367Y-153.746
X117.394Y-174.35
X118.427Y-151.497
X118.551Y-170.06
X123.825Y-190.246
X128.422Y-193.319
X133.426Y-207.061
X136.918Y-169.961
X140.894Y-233.375
X147.168Y-149.708
X147.193Y-123.546
X151.689Y-211.43
X152.578Y-209.892
X154.559Y-228.295
X154.774Y-208.204
X156.312Y-152.756
X156.337Y-169.987
X160.884Y-189.11
X161.886Y-192.264
X165.202Y-133.08
X168.947Y-227.136
X173.711Y-173.533
X175.743Y-172.755
X175.901Y-174.416
X176.86Y-168.3
X177.851Y-171.967
X184.429Y-154.94
X185.381Y-151.003
X186.575Y-148.955
X187.782Y-152.705
X189.115Y-134.985
X190.348Y-208.153
X192.176Y-189.11
X194.703Y-170.129
X194.787Y-150.944
X229.78Y-209.204
X229.831Y-226.196
X232.778Y-151.079
X232.856Y-169.988
X234.736Y-189.11
X266.433Y-208.128
X271.157Y-151.054
X271.157Y-170.104
X272.807Y-189.063
X280.314Y-128.549
X302.895Y-211.912
X304.634Y-208.1
X308.722Y-169.987
X308.737Y-151.054
X311.021Y-189.05
X323.723Y-206.858
X325.005Y-225.866
X330.733Y-170.104
X332.638Y-233.375
X333.07Y-189.154
X337.998Y-152.019
X355.651Y-130.429
X357.327Y-133.02
X358.038Y-148.187
X405.625Y-209.499
X405.625Y-225.866
X423.291Y-126.543
X423.316Y-206.121
X423.328Y-170.104
X424.649Y-190.449
X424.688Y-108.788
X443.699Y-226.044
X443.75Y-127.584
X443.801Y-171.45
X443.801Y-190.424
X444.983Y-206.197
T2
X81.8Y-141.855
X81.8Y-144.395
X81.8Y-146.935
X81.8Y-149.475
X81.8Y-152.015
X81.8Y-154.555
X81.8Y-157.095
X81.8Y-159.635
X81.8Y-162.175
X81.8Y-164.715
X81.8Y-167.255
X81.8Y-169.795
X81.8Y-172.335
X81.8Y-174.875
X81.8Y-177.415
X81.8Y-179.955
X81.8Y-182.495
X81.8Y-185.035
X81.8Y-187.575
X85.615Y-147.215
X85.615Y-149.755
X85.615Y-152.295
X85.615Y-154.835
X85.615Y-157.375
X85.615Y-159.915
X85.615Y-162.455
X85.615Y-164.995
X85.615Y-167.535
X85.615Y-170.075
X88.155Y-147.215
X88.155Y-149.755
X88.155Y-152.295
X88.155Y-154.835
X88.155Y-157.375
X88.155Y-159.915
X88.155Y-162.455
X88.155Y-164.995
X88.155Y-167.535
X88.155Y-170.075
X97.04Y-123.555
X97.04Y-126.095
X104.66Y-121.015
X104.66Y-123.555
X104.66Y-126.095
X112.28Y-121.015
X112.28Y-123.555
X137.045Y-121.01
X137.045Y-123.55
X139.585Y-121.01
X139.585Y-123.55
X142.125Y-121.01
X142.125Y-123.55
X168.795Y-121.015
X168.795Y-123.555
X171.335Y-121.015
X171.335Y-123.555
X173.875Y-121.015
X173.875Y-123.555
X176.415Y-121.015
X176.415Y-123.555
X178.955Y-121.015
X178.955Y-123.555
X181.495Y-121.015
X181.495Y-123.555
X184.035Y-121.015
X184.035Y-123.555
X186.575Y-121.015
X186.575Y-123.555
X189.115Y-121.015
X189.115Y-123.555
X191.655Y-121.015
X191.655Y-123.555
T3
X96.722Y-148.955
X101.485Y-168.005
X103.072Y-146.415
X103.866Y-187.055
X107.835Y-165.465
X108.629Y-206.105
X110.216Y-184.515
X114.979Y-203.565
X115.772Y-148.955
X122.122Y-146.415
X125.297Y-168.005
X130.06Y-187.055
X131.648Y-165.465
X134.822Y-148.955
X136.41Y-184.515
X139.585Y-206.105
X141.172Y-146.415
X144.347Y-168.005
X145.935Y-203.565
X149.11Y-187.055
X150.697Y-165.465
X153.873Y-148.955
X155.46Y-184.515
X158.635Y-206.105
X158.635Y-225.155
X160.222Y-146.415
X163.397Y-168.005
X164.985Y-203.565
X164.985Y-222.615
X168.16Y-187.055
X169.748Y-165.465
X172.922Y-148.955
X174.51Y-184.515
X177.685Y-206.105
X179.272Y-146.415
X182.447Y-168.005
X184.035Y-203.565
X187.21Y-187.055
X188.797Y-165.465
X191.972Y-148.955
X193.56Y-184.515
X196.735Y-206.105
X198.322Y-146.415
X201.498Y-168.005
X203.085Y-203.565
X206.26Y-187.055
X207.847Y-165.465
X211.022Y-148.955
X212.61Y-184.515
X215.785Y-206.105
X217.373Y-146.415
X220.547Y-168.005
X222.135Y-203.565
X225.31Y-187.055
X226.897Y-165.465
X230.072Y-148.955
X231.66Y-184.515
X234.835Y-206.105
X234.835Y-225.155
X236.422Y-146.415
X239.597Y-168.005
X241.185Y-203.565
X241.185Y-222.615
X244.36Y-187.055
X245.947Y-165.465
X249.123Y-148.955
X250.71Y-184.515
X253.885Y-206.105
X255.472Y-146.415
X258.647Y-168.005
X260.235Y-203.565
X263.41Y-187.055
X264.998Y-165.465
X268.173Y-148.955
X269.76Y-184.515
X272.935Y-206.105
X274.522Y-146.415
X277.697Y-168.005
X279.285Y-203.565
X282.46Y-187.055
X284.048Y-165.465
X287.222Y-148.955
X288.81Y-184.515
X291.985Y-206.105
X293.572Y-146.415
X296.748Y-168.005
X298.335Y-203.565
X301.51Y-187.055
X303.097Y-165.465
X306.272Y-148.955
X307.86Y-184.515
X311.035Y-206.105
X311.035Y-225.155
X312.623Y-146.415
X315.798Y-168.005
X317.385Y-203.565
X317.385Y-222.615
X320.56Y-187.055
X322.147Y-165.465
X325.322Y-148.955
X326.91Y-184.515
X330.085Y-206.105
X330.085Y-225.155
X331.672Y-146.415
X334.847Y-168.005
X336.435Y-203.565
X336.435Y-222.615
X339.61Y-187.055
X341.197Y-165.465
X344.373Y-148.955
X345.96Y-184.515
X350.722Y-146.415
X356.279Y-206.105
X361.041Y-177.53
X362.629Y-203.565
X363.422Y-148.955
X367.391Y-174.99
X369.772Y-146.415
X411.047Y-124.142
X411.047Y-168.005
X411.047Y-187.055
X411.047Y-206.105
X411.047Y-225.155
X417.397Y-121.602
X417.397Y-165.465
X417.397Y-184.515
X417.397Y-203.565
X417.397Y-222.615
X430.097Y-105.093
X430.097Y-124.142
X430.097Y-143.192
X430.097Y-168.005
X430.097Y-187.055
X430.097Y-206.105
X430.097Y-225.155
X436.447Y-102.552
X436.447Y-121.602
X436.447Y-140.653
X436.447Y-165.465
X436.447Y-184.515
X436.447Y-203.565
X436.447Y-222.615
X449.147Y-124.142
X449.147Y-168.005
X449.147Y-187.055
X449.147Y-206.105
X449.147Y-225.155
X455.498Y-121.602
X455.498Y-165.465
X455.498Y-184.515
X455.498Y-203.565
X455.498Y-222.615
M30
