G04 #@! TF.GenerationSoftware,KiCad,Pcbnew,8.0.2*
G04 #@! TF.CreationDate,2025-05-01T13:08:38+01:00*
G04 #@! TF.ProjectId,Keyboard,4b657962-6f61-4726-942e-6b696361645f,rev?*
G04 #@! TF.SameCoordinates,Original*
G04 #@! TF.FileFunction,Copper,L2,Bot*
G04 #@! TF.FilePolarity,Positive*
%FSLAX46Y46*%
G04 Gerber Fmt 4.6, Leading zero omitted, Abs format (unit mm)*
G04 Created by KiCad (PCBNEW 8.0.2) date 2025-05-01 13:08:38*
%MOMM*%
%LPD*%
G01*
G04 APERTURE LIST*
G04 Aperture macros list*
%AMRoundRect*
0 Rectangle with rounded corners*
0 $1 Rounding radius*
0 $2 $3 $4 $5 $6 $7 $8 $9 X,Y pos of 4 corners*
0 Add a 4 corners polygon primitive as box body*
4,1,4,$2,$3,$4,$5,$6,$7,$8,$9,$2,$3,0*
0 Add four circle primitives for the rounded corners*
1,1,$1+$1,$2,$3*
1,1,$1+$1,$4,$5*
1,1,$1+$1,$6,$7*
1,1,$1+$1,$8,$9*
0 Add four rect primitives between the rounded corners*
20,1,$1+$1,$2,$3,$4,$5,0*
20,1,$1+$1,$4,$5,$6,$7,0*
20,1,$1+$1,$6,$7,$8,$9,0*
20,1,$1+$1,$8,$9,$2,$3,0*%
G04 Aperture macros list end*
G04 #@! TA.AperFunction,ComponentPad*
%ADD10RoundRect,0.250000X0.600000X-0.600000X0.600000X0.600000X-0.600000X0.600000X-0.600000X-0.600000X0*%
G04 #@! TD*
G04 #@! TA.AperFunction,ComponentPad*
%ADD11C,1.700000*%
G04 #@! TD*
G04 #@! TA.AperFunction,SMDPad,CuDef*
%ADD12R,2.550000X2.500000*%
G04 #@! TD*
G04 #@! TA.AperFunction,ComponentPad*
%ADD13C,2.286000*%
G04 #@! TD*
G04 #@! TA.AperFunction,ComponentPad*
%ADD14R,1.700000X1.700000*%
G04 #@! TD*
G04 #@! TA.AperFunction,ComponentPad*
%ADD15O,1.700000X1.700000*%
G04 #@! TD*
G04 #@! TA.AperFunction,SMDPad,CuDef*
%ADD16RoundRect,0.300000X0.300000X-0.300000X0.300000X0.300000X-0.300000X0.300000X-0.300000X-0.300000X0*%
G04 #@! TD*
G04 #@! TA.AperFunction,ViaPad*
%ADD17C,0.800000*%
G04 #@! TD*
G04 #@! TA.AperFunction,Conductor*
%ADD18C,0.250000*%
G04 #@! TD*
G04 APERTURE END LIST*
D10*
G04 #@! TO.P,J2,1,Pin_1*
G04 #@! TO.N,unconnected-(J2-Pin_1-Pad1)*
X168795000Y-123555000D03*
D11*
G04 #@! TO.P,J2,2,Pin_2*
G04 #@! TO.N,Y1*
X168795000Y-121015000D03*
G04 #@! TO.P,J2,3,Pin_3*
G04 #@! TO.N,X9*
X171335000Y-123555000D03*
G04 #@! TO.P,J2,4,Pin_4*
G04 #@! TO.N,Y2*
X171335000Y-121015000D03*
G04 #@! TO.P,J2,5,Pin_5*
G04 #@! TO.N,X7*
X173875000Y-123555000D03*
G04 #@! TO.P,J2,6,Pin_6*
G04 #@! TO.N,Y3*
X173875000Y-121015000D03*
G04 #@! TO.P,J2,7,Pin_7*
G04 #@! TO.N,X6*
X176415000Y-123555000D03*
G04 #@! TO.P,J2,8,Pin_8*
G04 #@! TO.N,Y4*
X176415000Y-121015000D03*
G04 #@! TO.P,J2,9,Pin_9*
G04 #@! TO.N,X5*
X178955000Y-123555000D03*
G04 #@! TO.P,J2,10,Pin_10*
G04 #@! TO.N,Y5*
X178955000Y-121015000D03*
G04 #@! TO.P,J2,11,Pin_11*
G04 #@! TO.N,X4*
X181495000Y-123555000D03*
G04 #@! TO.P,J2,12,Pin_12*
G04 #@! TO.N,Y6*
X181495000Y-121015000D03*
G04 #@! TO.P,J2,13,Pin_13*
G04 #@! TO.N,X3*
X184035000Y-123555000D03*
G04 #@! TO.P,J2,14,Pin_14*
G04 #@! TO.N,Y7*
X184035000Y-121015000D03*
G04 #@! TO.P,J2,15,Pin_15*
G04 #@! TO.N,X2*
X186575000Y-123555000D03*
G04 #@! TO.P,J2,16,Pin_16*
G04 #@! TO.N,Y8*
X186575000Y-121015000D03*
G04 #@! TO.P,J2,17,Pin_17*
G04 #@! TO.N,X1*
X189115000Y-123555000D03*
G04 #@! TO.P,J2,18,Pin_18*
G04 #@! TO.N,Y9*
X189115000Y-121015000D03*
G04 #@! TO.P,J2,19,Pin_19*
G04 #@! TO.N,unconnected-(J2-Pin_19-Pad19)*
X191655000Y-123555000D03*
G04 #@! TO.P,J2,20,Pin_20*
G04 #@! TO.N,Net-(J1-Pin_2)*
X191655000Y-121015000D03*
G04 #@! TD*
D12*
G04 #@! TO.P,SW17,1,A*
G04 #@! TO.N,X2*
X343677500Y-157845000D03*
D13*
X334847500Y-168005000D03*
G04 #@! TO.P,SW17,2,B*
G04 #@! TO.N,Net-(D17-A)*
X341197500Y-165465000D03*
D12*
X329827500Y-160385000D03*
G04 #@! TD*
G04 #@! TO.P,SW9,1,A*
G04 #@! TO.N,X2*
X438927500Y-113982500D03*
D13*
X430097500Y-124142500D03*
G04 #@! TO.P,SW9,2,B*
G04 #@! TO.N,Net-(D9-A)*
X436447500Y-121602500D03*
D12*
X425077500Y-116522500D03*
G04 #@! TD*
G04 #@! TO.P,SW60,1,A*
G04 #@! TO.N,X5*
X157940000Y-176895000D03*
D13*
X149110000Y-187055000D03*
G04 #@! TO.P,SW60,2,B*
G04 #@! TO.N,Net-(D60-A)*
X155460000Y-184515000D03*
D12*
X144090000Y-179435000D03*
G04 #@! TD*
G04 #@! TO.P,SW27,1,A*
G04 #@! TO.N,X4*
X305577500Y-157845000D03*
D13*
X296747500Y-168005000D03*
G04 #@! TO.P,SW27,2,B*
G04 #@! TO.N,Net-(D27-A)*
X303097500Y-165465000D03*
D12*
X291727500Y-160385000D03*
G04 #@! TD*
G04 #@! TO.P,SW22,1,A*
G04 #@! TO.N,X7*
X338915000Y-195945000D03*
D13*
X330085000Y-206105000D03*
G04 #@! TO.P,SW22,2,B*
G04 #@! TO.N,Net-(D22-A)*
X336435000Y-203565000D03*
D12*
X325065000Y-198485000D03*
G04 #@! TD*
G04 #@! TO.P,SW69,1,A*
G04 #@! TO.N,X6*
X138890000Y-176895000D03*
D13*
X130060000Y-187055000D03*
G04 #@! TO.P,SW69,2,B*
G04 #@! TO.N,Net-(D69-A)*
X136410000Y-184515000D03*
D12*
X125040000Y-179435000D03*
G04 #@! TD*
G04 #@! TO.P,SW33,1,A*
G04 #@! TO.N,X2*
X277002500Y-138795000D03*
D13*
X268172500Y-148955000D03*
G04 #@! TO.P,SW33,2,B*
G04 #@! TO.N,Net-(D33-A)*
X274522500Y-146415000D03*
D12*
X263152500Y-141335000D03*
G04 #@! TD*
G04 #@! TO.P,SW63,1,A*
G04 #@! TO.N,X8*
X167465000Y-195945000D03*
D13*
X158635000Y-206105000D03*
G04 #@! TO.P,SW63,2,B*
G04 #@! TO.N,Net-(D63-A)*
X164985000Y-203565000D03*
D12*
X153615000Y-198485000D03*
G04 #@! TD*
G04 #@! TO.P,SW7,1,A*
G04 #@! TO.N,X8*
X438927500Y-214995000D03*
D13*
X430097500Y-225155000D03*
G04 #@! TO.P,SW7,2,B*
G04 #@! TO.N,Net-(D7-A)*
X436447500Y-222615000D03*
D12*
X425077500Y-217535000D03*
G04 #@! TD*
G04 #@! TO.P,SW36,1,A*
G04 #@! TO.N,X5*
X291290000Y-176895000D03*
D13*
X282460000Y-187055000D03*
G04 #@! TO.P,SW36,2,B*
G04 #@! TO.N,Net-(D36-A)*
X288810000Y-184515000D03*
D12*
X277440000Y-179435000D03*
G04 #@! TD*
G04 #@! TO.P,SW50,1,A*
G04 #@! TO.N,X3*
X191277500Y-157845000D03*
D13*
X182447500Y-168005000D03*
G04 #@! TO.P,SW50,2,B*
G04 #@! TO.N,Net-(D50-A)*
X188797500Y-165465000D03*
D12*
X177427500Y-160385000D03*
G04 #@! TD*
G04 #@! TO.P,SW10,1,A*
G04 #@! TO.N,X3*
X419877500Y-157845000D03*
D13*
X411047500Y-168005000D03*
G04 #@! TO.P,SW10,2,B*
G04 #@! TO.N,Net-(D10-A)*
X417397500Y-165465000D03*
D12*
X406027500Y-160385000D03*
G04 #@! TD*
G04 #@! TO.P,SW1,1,A*
G04 #@! TO.N,X2*
X457977500Y-113982500D03*
D13*
X449147500Y-124142500D03*
G04 #@! TO.P,SW1,2,B*
G04 #@! TO.N,Net-(D1-A)*
X455497500Y-121602500D03*
D12*
X444127500Y-116522500D03*
G04 #@! TD*
G04 #@! TO.P,SW13,1,A*
G04 #@! TO.N,X6*
X419877500Y-195945000D03*
D13*
X411047500Y-206105000D03*
G04 #@! TO.P,SW13,2,B*
G04 #@! TO.N,Net-(D13-A)*
X417397500Y-203565000D03*
D12*
X406027500Y-198485000D03*
G04 #@! TD*
G04 #@! TO.P,SW42,1,A*
G04 #@! TO.N,X3*
X248427500Y-157845000D03*
D13*
X239597500Y-168005000D03*
G04 #@! TO.P,SW42,2,B*
G04 #@! TO.N,Net-(D42-A)*
X245947500Y-165465000D03*
D12*
X234577500Y-160385000D03*
G04 #@! TD*
G04 #@! TO.P,SW30,1,A*
G04 #@! TO.N,X7*
X319865000Y-195945000D03*
D13*
X311035000Y-206105000D03*
G04 #@! TO.P,SW30,2,B*
G04 #@! TO.N,Net-(D30-A)*
X317385000Y-203565000D03*
D12*
X306015000Y-198485000D03*
G04 #@! TD*
G04 #@! TO.P,SW62,1,A*
G04 #@! TO.N,X7*
X186515000Y-195945000D03*
D13*
X177685000Y-206105000D03*
G04 #@! TO.P,SW62,2,B*
G04 #@! TO.N,Net-(D62-A)*
X184035000Y-203565000D03*
D12*
X172665000Y-198485000D03*
G04 #@! TD*
G04 #@! TO.P,SW53,1,A*
G04 #@! TO.N,X6*
X196040000Y-176895000D03*
D13*
X187210000Y-187055000D03*
G04 #@! TO.P,SW53,2,B*
G04 #@! TO.N,Net-(D53-A)*
X193560000Y-184515000D03*
D12*
X182190000Y-179435000D03*
G04 #@! TD*
G04 #@! TO.P,SW79,1,A*
G04 #@! TO.N,X9*
X372252500Y-138795000D03*
D13*
X363422500Y-148955000D03*
G04 #@! TO.P,SW79,2,B*
G04 #@! TO.N,Net-(D79-A)*
X369772500Y-146415000D03*
D12*
X358402500Y-141335000D03*
G04 #@! TD*
G04 #@! TO.P,SW14,1,A*
G04 #@! TO.N,X7*
X438927500Y-195945000D03*
D13*
X430097500Y-206105000D03*
G04 #@! TO.P,SW14,2,B*
G04 #@! TO.N,Net-(D14-A)*
X436447500Y-203565000D03*
D12*
X425077500Y-198485000D03*
G04 #@! TD*
G04 #@! TO.P,SW65,1,A*
G04 #@! TO.N,X2*
X143652500Y-138795000D03*
D13*
X134822500Y-148955000D03*
G04 #@! TO.P,SW65,2,B*
G04 #@! TO.N,Net-(D65-A)*
X141172500Y-146415000D03*
D12*
X129802500Y-141335000D03*
G04 #@! TD*
G04 #@! TO.P,SW31,1,A*
G04 #@! TO.N,X8*
X300815000Y-195945000D03*
D13*
X291985000Y-206105000D03*
G04 #@! TO.P,SW31,2,B*
G04 #@! TO.N,Net-(D31-A)*
X298335000Y-203565000D03*
D12*
X286965000Y-198485000D03*
G04 #@! TD*
G04 #@! TO.P,SW37,1,A*
G04 #@! TO.N,X6*
X272240000Y-176895000D03*
D13*
X263410000Y-187055000D03*
G04 #@! TO.P,SW37,2,B*
G04 #@! TO.N,Net-(D37-A)*
X269760000Y-184515000D03*
D12*
X258390000Y-179435000D03*
G04 #@! TD*
G04 #@! TO.P,SW70,1,A*
G04 #@! TO.N,X7*
X112696250Y-176895000D03*
D13*
X103866250Y-187055000D03*
G04 #@! TO.P,SW70,2,B*
G04 #@! TO.N,Net-(D70-A)*
X110216250Y-184515000D03*
D12*
X98846250Y-179435000D03*
G04 #@! TD*
G04 #@! TO.P,SW39,1,A*
G04 #@! TO.N,X8*
X281765000Y-195945000D03*
D13*
X272935000Y-206105000D03*
G04 #@! TO.P,SW39,2,B*
G04 #@! TO.N,Net-(D39-A)*
X279285000Y-203565000D03*
D12*
X267915000Y-198485000D03*
G04 #@! TD*
G04 #@! TO.P,SW6,1,A*
G04 #@! TO.N,X7*
X457977500Y-214995000D03*
D13*
X449147500Y-225155000D03*
G04 #@! TO.P,SW6,2,B*
G04 #@! TO.N,Net-(D6-A)*
X455497500Y-222615000D03*
D12*
X444127500Y-217535000D03*
G04 #@! TD*
G04 #@! TO.P,SW20,1,A*
G04 #@! TO.N,X5*
X419877500Y-176895000D03*
D13*
X411047500Y-187055000D03*
G04 #@! TO.P,SW20,2,B*
G04 #@! TO.N,Net-(D20-A)*
X417397500Y-184515000D03*
D12*
X406027500Y-179435000D03*
G04 #@! TD*
G04 #@! TO.P,SW21,1,A*
G04 #@! TO.N,X6*
X117458750Y-195945000D03*
D13*
X108628750Y-206105000D03*
G04 #@! TO.P,SW21,2,B*
G04 #@! TO.N,Net-(D21-A)*
X114978750Y-203565000D03*
D12*
X103608750Y-198485000D03*
G04 #@! TD*
G04 #@! TO.P,SW38,1,A*
G04 #@! TO.N,X7*
X262715000Y-195945000D03*
D13*
X253885000Y-206105000D03*
G04 #@! TO.P,SW38,2,B*
G04 #@! TO.N,Net-(D38-A)*
X260235000Y-203565000D03*
D12*
X248865000Y-198485000D03*
G04 #@! TD*
G04 #@! TO.P,SW68,1,A*
G04 #@! TO.N,X5*
X110315000Y-157845000D03*
D13*
X101485000Y-168005000D03*
G04 #@! TO.P,SW68,2,B*
G04 #@! TO.N,Net-(D68-A)*
X107835000Y-165465000D03*
D12*
X96465000Y-160385000D03*
G04 #@! TD*
G04 #@! TO.P,SW56,1,A*
G04 #@! TO.N,X1*
X181752500Y-138795000D03*
D13*
X172922500Y-148955000D03*
G04 #@! TO.P,SW56,2,B*
G04 #@! TO.N,Net-(D56-A)*
X179272500Y-146415000D03*
D12*
X167902500Y-141335000D03*
G04 #@! TD*
G04 #@! TO.P,SW59,1,A*
G04 #@! TO.N,X4*
X153177500Y-157845000D03*
D13*
X144347500Y-168005000D03*
G04 #@! TO.P,SW59,2,B*
G04 #@! TO.N,Net-(D59-A)*
X150697500Y-165465000D03*
D12*
X139327500Y-160385000D03*
G04 #@! TD*
G04 #@! TO.P,SW902,1,A*
G04 #@! TO.N,Net-(SW902-A)*
X319865000Y-214995000D03*
D13*
X311035000Y-225155000D03*
G04 #@! TO.P,SW902,2,B*
G04 #@! TO.N,Net-(D902-A)*
X317385000Y-222615000D03*
D12*
X306015000Y-217535000D03*
G04 #@! TD*
G04 #@! TO.P,SW43,1,A*
G04 #@! TO.N,X4*
X229377500Y-157845000D03*
D13*
X220547500Y-168005000D03*
G04 #@! TO.P,SW43,2,B*
G04 #@! TO.N,Net-(D43-A)*
X226897500Y-165465000D03*
D12*
X215527500Y-160385000D03*
G04 #@! TD*
G04 #@! TO.P,SW901,1,A*
G04 #@! TO.N,Net-(SW901-A)*
X167465000Y-214995000D03*
D13*
X158635000Y-225155000D03*
G04 #@! TO.P,SW901,2,B*
G04 #@! TO.N,Net-(D901-A)*
X164985000Y-222615000D03*
D12*
X153615000Y-217535000D03*
G04 #@! TD*
G04 #@! TO.P,SW19,1,A*
G04 #@! TO.N,X4*
X348440000Y-176895000D03*
D13*
X339610000Y-187055000D03*
G04 #@! TO.P,SW19,2,B*
G04 #@! TO.N,Net-(D19-A)*
X345960000Y-184515000D03*
D12*
X334590000Y-179435000D03*
G04 #@! TD*
G04 #@! TO.P,SW34,1,A*
G04 #@! TO.N,X3*
X286527500Y-157845000D03*
D13*
X277697500Y-168005000D03*
G04 #@! TO.P,SW34,2,B*
G04 #@! TO.N,Net-(D34-A)*
X284047500Y-165465000D03*
D12*
X272677500Y-160385000D03*
G04 #@! TD*
G04 #@! TO.P,SW23,1,A*
G04 #@! TO.N,X8*
X338915000Y-214995000D03*
D13*
X330085000Y-225155000D03*
G04 #@! TO.P,SW23,2,B*
G04 #@! TO.N,Net-(D23-A)*
X336435000Y-222615000D03*
D12*
X325065000Y-217535000D03*
G04 #@! TD*
G04 #@! TO.P,SW11,1,A*
G04 #@! TO.N,X4*
X438927500Y-157845000D03*
D13*
X430097500Y-168005000D03*
G04 #@! TO.P,SW11,2,B*
G04 #@! TO.N,Net-(D11-A)*
X436447500Y-165465000D03*
D12*
X425077500Y-160385000D03*
G04 #@! TD*
G04 #@! TO.P,SW41,1,A*
G04 #@! TO.N,X2*
X238902500Y-138795000D03*
D13*
X230072500Y-148955000D03*
G04 #@! TO.P,SW41,2,B*
G04 #@! TO.N,Net-(D41-A)*
X236422500Y-146415000D03*
D12*
X225052500Y-141335000D03*
G04 #@! TD*
G04 #@! TO.P,SW45,1,A*
G04 #@! TO.N,X6*
X253190000Y-176895000D03*
D13*
X244360000Y-187055000D03*
G04 #@! TO.P,SW45,2,B*
G04 #@! TO.N,Net-(D45-A)*
X250710000Y-184515000D03*
D12*
X239340000Y-179435000D03*
G04 #@! TD*
G04 #@! TO.P,SW8,1,A*
G04 #@! TO.N,X1*
X419877500Y-113982500D03*
D13*
X411047500Y-124142500D03*
G04 #@! TO.P,SW8,2,B*
G04 #@! TO.N,Net-(D8-A)*
X417397500Y-121602500D03*
D12*
X406027500Y-116522500D03*
G04 #@! TD*
G04 #@! TO.P,SW52,1,A*
G04 #@! TO.N,X5*
X215090000Y-176895000D03*
D13*
X206260000Y-187055000D03*
G04 #@! TO.P,SW52,2,B*
G04 #@! TO.N,Net-(D52-A)*
X212610000Y-184515000D03*
D12*
X201240000Y-179435000D03*
G04 #@! TD*
G04 #@! TO.P,SW5,1,A*
G04 #@! TO.N,X6*
X457977500Y-195945000D03*
D13*
X449147500Y-206105000D03*
G04 #@! TO.P,SW5,2,B*
G04 #@! TO.N,Net-(D5-A)*
X455497500Y-203565000D03*
D12*
X444127500Y-198485000D03*
G04 #@! TD*
G04 #@! TO.P,SW16,1,A*
G04 #@! TO.N,X1*
X353202500Y-138795000D03*
D13*
X344372500Y-148955000D03*
G04 #@! TO.P,SW16,2,B*
G04 #@! TO.N,Net-(D16-A)*
X350722500Y-146415000D03*
D12*
X339352500Y-141335000D03*
G04 #@! TD*
G04 #@! TO.P,SW4,1,A*
G04 #@! TO.N,X5*
X457977500Y-176895000D03*
D13*
X449147500Y-187055000D03*
G04 #@! TO.P,SW4,2,B*
G04 #@! TO.N,Net-(D4-A)*
X455497500Y-184515000D03*
D12*
X444127500Y-179435000D03*
G04 #@! TD*
G04 #@! TO.P,SW67,1,A*
G04 #@! TO.N,X4*
X134127500Y-157845000D03*
D13*
X125297500Y-168005000D03*
G04 #@! TO.P,SW67,2,B*
G04 #@! TO.N,Net-(D67-A)*
X131647500Y-165465000D03*
D12*
X120277500Y-160385000D03*
G04 #@! TD*
G04 #@! TO.P,SW18,1,A*
G04 #@! TO.N,X3*
X369871250Y-167370000D03*
D13*
X361041250Y-177530000D03*
G04 #@! TO.P,SW18,2,B*
G04 #@! TO.N,Net-(D18-A)*
X367391250Y-174990000D03*
D12*
X356021250Y-169910000D03*
G04 #@! TD*
G04 #@! TO.P,SW25,1,A*
G04 #@! TO.N,X2*
X315102500Y-138795000D03*
D13*
X306272500Y-148955000D03*
G04 #@! TO.P,SW25,2,B*
G04 #@! TO.N,Net-(D25-A)*
X312622500Y-146415000D03*
D12*
X301252500Y-141335000D03*
G04 #@! TD*
G04 #@! TO.P,SW24,1,A*
G04 #@! TO.N,X1*
X334152500Y-138795000D03*
D13*
X325322500Y-148955000D03*
G04 #@! TO.P,SW24,2,B*
G04 #@! TO.N,Net-(D24-A)*
X331672500Y-146415000D03*
D12*
X320302500Y-141335000D03*
G04 #@! TD*
G04 #@! TO.P,SW12,1,A*
G04 #@! TO.N,X5*
X438927500Y-176895000D03*
D13*
X430097500Y-187055000D03*
G04 #@! TO.P,SW12,2,B*
G04 #@! TO.N,Net-(D12-A)*
X436447500Y-184515000D03*
D12*
X425077500Y-179435000D03*
G04 #@! TD*
G04 #@! TO.P,SW66,1,A*
G04 #@! TO.N,X3*
X105552500Y-138795000D03*
D13*
X96722500Y-148955000D03*
G04 #@! TO.P,SW66,2,B*
G04 #@! TO.N,Net-(D66-A)*
X103072500Y-146415000D03*
D12*
X91702500Y-141335000D03*
G04 #@! TD*
G04 #@! TO.P,SW28,1,A*
G04 #@! TO.N,X5*
X329390000Y-176895000D03*
D13*
X320560000Y-187055000D03*
G04 #@! TO.P,SW28,2,B*
G04 #@! TO.N,Net-(D28-A)*
X326910000Y-184515000D03*
D12*
X315540000Y-179435000D03*
G04 #@! TD*
G04 #@! TO.P,SW29,1,A*
G04 #@! TO.N,X6*
X310340000Y-176895000D03*
D13*
X301510000Y-187055000D03*
G04 #@! TO.P,SW29,2,B*
G04 #@! TO.N,Net-(D29-A)*
X307860000Y-184515000D03*
D12*
X296490000Y-179435000D03*
G04 #@! TD*
G04 #@! TO.P,SW58,1,A*
G04 #@! TO.N,X3*
X172227500Y-157845000D03*
D13*
X163397500Y-168005000D03*
G04 #@! TO.P,SW58,2,B*
G04 #@! TO.N,Net-(D58-A)*
X169747500Y-165465000D03*
D12*
X158377500Y-160385000D03*
G04 #@! TD*
G04 #@! TO.P,SW15,1,A*
G04 #@! TO.N,X8*
X419877500Y-214995000D03*
D13*
X411047500Y-225155000D03*
G04 #@! TO.P,SW15,2,B*
G04 #@! TO.N,Net-(D15-A)*
X417397500Y-222615000D03*
D12*
X406027500Y-217535000D03*
G04 #@! TD*
G04 #@! TO.P,SW3,1,A*
G04 #@! TO.N,X4*
X457977500Y-157845000D03*
D13*
X449147500Y-168005000D03*
G04 #@! TO.P,SW3,2,B*
G04 #@! TO.N,Net-(D3-A)*
X455497500Y-165465000D03*
D12*
X444127500Y-160385000D03*
G04 #@! TD*
G04 #@! TO.P,SW48,1,A*
G04 #@! TO.N,X1*
X219852500Y-138795000D03*
D13*
X211022500Y-148955000D03*
G04 #@! TO.P,SW48,2,B*
G04 #@! TO.N,Net-(D48-A)*
X217372500Y-146415000D03*
D12*
X206002500Y-141335000D03*
G04 #@! TD*
G04 #@! TO.P,SW57,1,A*
G04 #@! TO.N,X2*
X162702500Y-138795000D03*
D13*
X153872500Y-148955000D03*
G04 #@! TO.P,SW57,2,B*
G04 #@! TO.N,Net-(D57-A)*
X160222500Y-146415000D03*
D12*
X148852500Y-141335000D03*
G04 #@! TD*
G04 #@! TO.P,SW61,1,A*
G04 #@! TO.N,X6*
X176990000Y-176895000D03*
D13*
X168160000Y-187055000D03*
G04 #@! TO.P,SW61,2,B*
G04 #@! TO.N,Net-(D61-A)*
X174510000Y-184515000D03*
D12*
X163140000Y-179435000D03*
G04 #@! TD*
G04 #@! TO.P,SW0,1,A*
G04 #@! TO.N,X1*
X438927500Y-94932500D03*
D13*
X430097500Y-105092500D03*
G04 #@! TO.P,SW0,2,B*
G04 #@! TO.N,Net-(D0-A)*
X436447500Y-102552500D03*
D12*
X425077500Y-97472500D03*
G04 #@! TD*
G04 #@! TO.P,SW47,1,A*
G04 #@! TO.N,X8*
X243665000Y-214995000D03*
D13*
X234835000Y-225155000D03*
G04 #@! TO.P,SW47,2,B*
G04 #@! TO.N,Net-(D47-A)*
X241185000Y-222615000D03*
D12*
X229815000Y-217535000D03*
G04 #@! TD*
G04 #@! TO.P,SW64,1,A*
G04 #@! TO.N,X1*
X124602500Y-138795000D03*
D13*
X115772500Y-148955000D03*
G04 #@! TO.P,SW64,2,B*
G04 #@! TO.N,Net-(D64-A)*
X122122500Y-146415000D03*
D12*
X110752500Y-141335000D03*
G04 #@! TD*
G04 #@! TO.P,SW71,1,A*
G04 #@! TO.N,X8*
X148415000Y-195945000D03*
D13*
X139585000Y-206105000D03*
G04 #@! TO.P,SW71,2,B*
G04 #@! TO.N,Net-(D71-A)*
X145935000Y-203565000D03*
D12*
X134565000Y-198485000D03*
G04 #@! TD*
G04 #@! TO.P,SW35,1,A*
G04 #@! TO.N,X4*
X267477500Y-157845000D03*
D13*
X258647500Y-168005000D03*
G04 #@! TO.P,SW35,2,B*
G04 #@! TO.N,Net-(D35-A)*
X264997500Y-165465000D03*
D12*
X253627500Y-160385000D03*
G04 #@! TD*
G04 #@! TO.P,SW51,1,A*
G04 #@! TO.N,X4*
X210327500Y-157845000D03*
D13*
X201497500Y-168005000D03*
G04 #@! TO.P,SW51,2,B*
G04 #@! TO.N,Net-(D51-A)*
X207847500Y-165465000D03*
D12*
X196477500Y-160385000D03*
G04 #@! TD*
G04 #@! TO.P,SW54,1,A*
G04 #@! TO.N,X7*
X224615000Y-195945000D03*
D13*
X215785000Y-206105000D03*
G04 #@! TO.P,SW54,2,B*
G04 #@! TO.N,Net-(D54-A)*
X222135000Y-203565000D03*
D12*
X210765000Y-198485000D03*
G04 #@! TD*
G04 #@! TO.P,SW46,1,A*
G04 #@! TO.N,X7*
X243665000Y-195945000D03*
D13*
X234835000Y-206105000D03*
G04 #@! TO.P,SW46,2,B*
G04 #@! TO.N,Net-(D46-A)*
X241185000Y-203565000D03*
D12*
X229815000Y-198485000D03*
G04 #@! TD*
G04 #@! TO.P,SW49,1,A*
G04 #@! TO.N,X2*
X200802500Y-138795000D03*
D13*
X191972500Y-148955000D03*
G04 #@! TO.P,SW49,2,B*
G04 #@! TO.N,Net-(D49-A)*
X198322500Y-146415000D03*
D12*
X186952500Y-141335000D03*
G04 #@! TD*
G04 #@! TO.P,SW26,1,A*
G04 #@! TO.N,X3*
X324627500Y-157845000D03*
D13*
X315797500Y-168005000D03*
G04 #@! TO.P,SW26,2,B*
G04 #@! TO.N,Net-(D26-A)*
X322147500Y-165465000D03*
D12*
X310777500Y-160385000D03*
G04 #@! TD*
G04 #@! TO.P,SW2,1,A*
G04 #@! TO.N,X3*
X438927500Y-133032500D03*
D13*
X430097500Y-143192500D03*
G04 #@! TO.P,SW2,2,B*
G04 #@! TO.N,Net-(D2-A)*
X436447500Y-140652500D03*
D12*
X425077500Y-135572500D03*
G04 #@! TD*
G04 #@! TO.P,SW40,1,A*
G04 #@! TO.N,X1*
X257952500Y-138795000D03*
D13*
X249122500Y-148955000D03*
G04 #@! TO.P,SW40,2,B*
G04 #@! TO.N,Net-(D40-A)*
X255472500Y-146415000D03*
D12*
X244102500Y-141335000D03*
G04 #@! TD*
G04 #@! TO.P,SW32,1,A*
G04 #@! TO.N,X1*
X296052500Y-138795000D03*
D13*
X287222500Y-148955000D03*
G04 #@! TO.P,SW32,2,B*
G04 #@! TO.N,Net-(D32-A)*
X293572500Y-146415000D03*
D12*
X282202500Y-141335000D03*
G04 #@! TD*
G04 #@! TO.P,SW55,1,A*
G04 #@! TO.N,X8*
X205565000Y-195945000D03*
D13*
X196735000Y-206105000D03*
G04 #@! TO.P,SW55,2,B*
G04 #@! TO.N,Net-(D55-A)*
X203085000Y-203565000D03*
D12*
X191715000Y-198485000D03*
G04 #@! TD*
G04 #@! TO.P,SW121,1,A*
G04 #@! TO.N,X6*
X365108750Y-195945000D03*
D13*
X356278750Y-206105000D03*
G04 #@! TO.P,SW121,2,B*
G04 #@! TO.N,Net-(D21-A)*
X362628750Y-203565000D03*
D12*
X351258750Y-198485000D03*
G04 #@! TD*
G04 #@! TO.P,SW44,1,A*
G04 #@! TO.N,X5*
X234140000Y-176895000D03*
D13*
X225310000Y-187055000D03*
G04 #@! TO.P,SW44,2,B*
G04 #@! TO.N,Net-(D44-A)*
X231660000Y-184515000D03*
D12*
X220290000Y-179435000D03*
G04 #@! TD*
D14*
G04 #@! TO.P,LK1,1,A*
G04 #@! TO.N,X8*
X104660000Y-121015000D03*
D15*
G04 #@! TO.P,LK1,2,C*
G04 #@! TO.N,Net-(J1-Pin_2)*
X104660000Y-123555000D03*
G04 #@! TO.P,LK1,3,B*
G04 #@! TO.N,Y10*
X104660000Y-126095000D03*
G04 #@! TD*
D14*
G04 #@! TO.P,J1,1,Pin_1*
G04 #@! TO.N,Net-(J1-Pin_1)*
X88155000Y-147215000D03*
D15*
G04 #@! TO.P,J1,2,Pin_2*
G04 #@! TO.N,Net-(J1-Pin_2)*
X85615000Y-147215000D03*
G04 #@! TO.P,J1,3,Pin_3*
G04 #@! TO.N,X1*
X88155000Y-149755000D03*
G04 #@! TO.P,J1,4,Pin_4*
G04 #@! TO.N,Y9*
X85615000Y-149755000D03*
G04 #@! TO.P,J1,5,Pin_5*
G04 #@! TO.N,X2*
X88155000Y-152295000D03*
G04 #@! TO.P,J1,6,Pin_6*
G04 #@! TO.N,Y8*
X85615000Y-152295000D03*
G04 #@! TO.P,J1,7,Pin_7*
G04 #@! TO.N,X3*
X88155000Y-154835000D03*
G04 #@! TO.P,J1,8,Pin_8*
G04 #@! TO.N,Y7*
X85615000Y-154835000D03*
G04 #@! TO.P,J1,9,Pin_9*
G04 #@! TO.N,X4*
X88155000Y-157375000D03*
G04 #@! TO.P,J1,10,Pin_10*
G04 #@! TO.N,Y6*
X85615000Y-157375000D03*
G04 #@! TO.P,J1,11,Pin_11*
G04 #@! TO.N,X5*
X88155000Y-159915000D03*
G04 #@! TO.P,J1,12,Pin_12*
G04 #@! TO.N,Y5*
X85615000Y-159915000D03*
G04 #@! TO.P,J1,13,Pin_13*
G04 #@! TO.N,X6*
X88155000Y-162455000D03*
G04 #@! TO.P,J1,14,Pin_14*
G04 #@! TO.N,Y4*
X85615000Y-162455000D03*
G04 #@! TO.P,J1,15,Pin_15*
G04 #@! TO.N,X7*
X88155000Y-164995000D03*
G04 #@! TO.P,J1,16,Pin_16*
G04 #@! TO.N,Y3*
X85615000Y-164995000D03*
G04 #@! TO.P,J1,17,Pin_17*
G04 #@! TO.N,X9*
X88155000Y-167535000D03*
G04 #@! TO.P,J1,18,Pin_18*
G04 #@! TO.N,Y2*
X85615000Y-167535000D03*
G04 #@! TO.P,J1,19,Pin_19*
G04 #@! TO.N,unconnected-(J1-Pin_19-Pad19)*
X88155000Y-170075000D03*
G04 #@! TO.P,J1,20,Pin_20*
G04 #@! TO.N,Y1*
X85615000Y-170075000D03*
G04 #@! TD*
D14*
G04 #@! TO.P,LK2,1,1*
G04 #@! TO.N,Y10*
X112280000Y-121015000D03*
D15*
G04 #@! TO.P,LK2,2,2*
G04 #@! TO.N,Net-(J1-Pin_1)*
X112280000Y-123555000D03*
G04 #@! TD*
D14*
G04 #@! TO.P,LK3,1,1*
G04 #@! TO.N,X8*
X97040000Y-123555000D03*
D15*
G04 #@! TO.P,LK3,2,2*
G04 #@! TO.N,X9*
X97040000Y-126095000D03*
G04 #@! TD*
D16*
G04 #@! TO.P,D68,1,K*
G04 #@! TO.N,Y9*
X111645000Y-170060000D03*
G04 #@! TO.P,D68,2,A*
G04 #@! TO.N,Net-(D68-A)*
X111645000Y-166460000D03*
G04 #@! TD*
G04 #@! TO.P,D38,1,K*
G04 #@! TO.N,Y5*
X248805000Y-208160000D03*
G04 #@! TO.P,D38,2,A*
G04 #@! TO.N,Net-(D38-A)*
X248805000Y-204560000D03*
G04 #@! TD*
G04 #@! TO.P,D59,1,K*
G04 #@! TO.N,Y8*
X138950000Y-170060000D03*
G04 #@! TO.P,D59,2,A*
G04 #@! TO.N,Net-(D59-A)*
X138950000Y-166460000D03*
G04 #@! TD*
G04 #@! TO.P,D56,1,K*
G04 #@! TO.N,Y8*
X167525000Y-151010000D03*
G04 #@! TO.P,D56,2,A*
G04 #@! TO.N,Net-(D56-A)*
X167525000Y-147410000D03*
G04 #@! TD*
G04 #@! TO.P,D28,1,K*
G04 #@! TO.N,Y4*
X315480000Y-189110000D03*
G04 #@! TO.P,D28,2,A*
G04 #@! TO.N,Net-(D28-A)*
X315480000Y-185510000D03*
G04 #@! TD*
G04 #@! TO.P,D23,1,K*
G04 #@! TO.N,Y3*
X325005000Y-227210000D03*
G04 #@! TO.P,D23,2,A*
G04 #@! TO.N,Net-(D23-A)*
X325005000Y-223610000D03*
G04 #@! TD*
G04 #@! TO.P,D37,1,K*
G04 #@! TO.N,Y5*
X258330000Y-189110000D03*
G04 #@! TO.P,D37,2,A*
G04 #@! TO.N,Net-(D37-A)*
X258330000Y-185510000D03*
G04 #@! TD*
G04 #@! TO.P,D15,1,K*
G04 #@! TO.N,Y2*
X405650000Y-227210000D03*
G04 #@! TO.P,D15,2,A*
G04 #@! TO.N,Net-(D15-A)*
X405650000Y-223610000D03*
G04 #@! TD*
G04 #@! TO.P,D35,1,K*
G04 #@! TO.N,Y5*
X253250000Y-170060000D03*
G04 #@! TO.P,D35,2,A*
G04 #@! TO.N,Net-(D35-A)*
X253250000Y-166460000D03*
G04 #@! TD*
G04 #@! TO.P,D40,1,K*
G04 #@! TO.N,Y6*
X243725000Y-150920000D03*
G04 #@! TO.P,D40,2,A*
G04 #@! TO.N,Net-(D40-A)*
X243725000Y-147320000D03*
G04 #@! TD*
G04 #@! TO.P,D14,1,K*
G04 #@! TO.N,Y2*
X424700000Y-206165000D03*
G04 #@! TO.P,D14,2,A*
G04 #@! TO.N,Net-(D14-A)*
X424700000Y-202565000D03*
G04 #@! TD*
G04 #@! TO.P,D70,1,K*
G04 #@! TO.N,Y9*
X114300000Y-189110000D03*
G04 #@! TO.P,D70,2,A*
G04 #@! TO.N,Net-(D70-A)*
X114300000Y-185510000D03*
G04 #@! TD*
G04 #@! TO.P,D27,1,K*
G04 #@! TO.N,Y4*
X291350000Y-170060000D03*
G04 #@! TO.P,D27,2,A*
G04 #@! TO.N,Net-(D27-A)*
X291350000Y-166460000D03*
G04 #@! TD*
G04 #@! TO.P,D6,1,K*
G04 #@! TO.N,Y1*
X443750000Y-227210000D03*
G04 #@! TO.P,D6,2,A*
G04 #@! TO.N,Net-(D6-A)*
X443750000Y-223610000D03*
G04 #@! TD*
G04 #@! TO.P,D55,1,K*
G04 #@! TO.N,Y7*
X191655000Y-208160000D03*
G04 #@! TO.P,D55,2,A*
G04 #@! TO.N,Net-(D55-A)*
X191655000Y-204560000D03*
G04 #@! TD*
G04 #@! TO.P,D44,1,K*
G04 #@! TO.N,Y6*
X220230000Y-189110000D03*
G04 #@! TO.P,D44,2,A*
G04 #@! TO.N,Net-(D44-A)*
X220230000Y-185510000D03*
G04 #@! TD*
G04 #@! TO.P,D48,1,K*
G04 #@! TO.N,Y7*
X205625000Y-149015000D03*
G04 #@! TO.P,D48,2,A*
G04 #@! TO.N,Net-(D48-A)*
X205625000Y-145415000D03*
G04 #@! TD*
G04 #@! TO.P,D63,1,K*
G04 #@! TO.N,Y8*
X153555000Y-208160000D03*
G04 #@! TO.P,D63,2,A*
G04 #@! TO.N,Net-(D63-A)*
X153555000Y-204560000D03*
G04 #@! TD*
G04 #@! TO.P,D30,1,K*
G04 #@! TO.N,Y4*
X305955000Y-208160000D03*
G04 #@! TO.P,D30,2,A*
G04 #@! TO.N,Net-(D30-A)*
X305955000Y-204560000D03*
G04 #@! TD*
D14*
G04 #@! TO.P,LK5,1,1*
G04 #@! TO.N,Net-(SW902-A)*
X142125000Y-121010000D03*
D15*
G04 #@! TO.P,LK5,2,2*
G04 #@! TO.N,X6*
X142125000Y-123550000D03*
G04 #@! TD*
D16*
G04 #@! TO.P,D53,1,K*
G04 #@! TO.N,Y7*
X182130000Y-189110000D03*
G04 #@! TO.P,D53,2,A*
G04 #@! TO.N,Net-(D53-A)*
X182130000Y-185510000D03*
G04 #@! TD*
G04 #@! TO.P,D4,1,K*
G04 #@! TO.N,Y1*
X443750000Y-189110000D03*
G04 #@! TO.P,D4,2,A*
G04 #@! TO.N,Net-(D4-A)*
X443750000Y-185510000D03*
G04 #@! TD*
G04 #@! TO.P,D34,1,K*
G04 #@! TO.N,Y5*
X272300000Y-170060000D03*
G04 #@! TO.P,D34,2,A*
G04 #@! TO.N,Net-(D34-A)*
X272300000Y-166460000D03*
G04 #@! TD*
G04 #@! TO.P,D33,1,K*
G04 #@! TO.N,Y5*
X262775000Y-151010000D03*
G04 #@! TO.P,D33,2,A*
G04 #@! TO.N,Net-(D33-A)*
X262775000Y-147410000D03*
G04 #@! TD*
D14*
G04 #@! TO.P,J3,1,Pin_1*
G04 #@! TO.N,X9*
X81800000Y-141855000D03*
D15*
G04 #@! TO.P,J3,2,Pin_2*
G04 #@! TO.N,Y10*
X81800000Y-144395000D03*
G04 #@! TO.P,J3,3,Pin_3*
G04 #@! TO.N,X1*
X81800000Y-146935000D03*
G04 #@! TO.P,J3,4,Pin_4*
G04 #@! TO.N,X2*
X81800000Y-149475000D03*
G04 #@! TO.P,J3,5,Pin_5*
G04 #@! TO.N,X3*
X81800000Y-152015000D03*
G04 #@! TO.P,J3,6,Pin_6*
G04 #@! TO.N,X4*
X81800000Y-154555000D03*
G04 #@! TO.P,J3,7,Pin_7*
G04 #@! TO.N,X5*
X81800000Y-157095000D03*
G04 #@! TO.P,J3,8,Pin_8*
G04 #@! TO.N,X6*
X81800000Y-159635000D03*
G04 #@! TO.P,J3,9,Pin_9*
G04 #@! TO.N,X7*
X81800000Y-162175000D03*
G04 #@! TO.P,J3,10,Pin_10*
G04 #@! TO.N,X8*
X81800000Y-164715000D03*
G04 #@! TO.P,J3,11,Pin_11*
G04 #@! TO.N,Y9*
X81800000Y-167255000D03*
G04 #@! TO.P,J3,12,Pin_12*
G04 #@! TO.N,Y8*
X81800000Y-169795000D03*
G04 #@! TO.P,J3,13,Pin_13*
G04 #@! TO.N,Y7*
X81800000Y-172335000D03*
G04 #@! TO.P,J3,14,Pin_14*
G04 #@! TO.N,Y6*
X81800000Y-174875000D03*
G04 #@! TO.P,J3,15,Pin_15*
G04 #@! TO.N,Y5*
X81800000Y-177415000D03*
G04 #@! TO.P,J3,16,Pin_16*
G04 #@! TO.N,Y4*
X81800000Y-179955000D03*
G04 #@! TO.P,J3,17,Pin_17*
G04 #@! TO.N,Y3*
X81800000Y-182495000D03*
G04 #@! TO.P,J3,18,Pin_18*
G04 #@! TO.N,Y2*
X81800000Y-185035000D03*
G04 #@! TO.P,J3,19,Pin_19*
G04 #@! TO.N,Y1*
X81800000Y-187575000D03*
G04 #@! TD*
D16*
G04 #@! TO.P,D32,1,K*
G04 #@! TO.N,Y5*
X281825000Y-149015000D03*
G04 #@! TO.P,D32,2,A*
G04 #@! TO.N,Net-(D32-A)*
X281825000Y-145415000D03*
G04 #@! TD*
G04 #@! TO.P,D11,1,K*
G04 #@! TO.N,Y2*
X424700000Y-170060000D03*
G04 #@! TO.P,D11,2,A*
G04 #@! TO.N,Net-(D11-A)*
X424700000Y-166460000D03*
G04 #@! TD*
G04 #@! TO.P,D16,1,K*
G04 #@! TO.N,Y3*
X338975000Y-151010000D03*
G04 #@! TO.P,D16,2,A*
G04 #@! TO.N,Net-(D16-A)*
X338975000Y-147410000D03*
G04 #@! TD*
G04 #@! TO.P,D21,1,K*
G04 #@! TO.N,Y3*
X99060000Y-202990000D03*
G04 #@! TO.P,D21,2,A*
G04 #@! TO.N,Net-(D21-A)*
X99060000Y-199390000D03*
G04 #@! TD*
G04 #@! TO.P,D29,1,K*
G04 #@! TO.N,Y4*
X296430000Y-189110000D03*
G04 #@! TO.P,D29,2,A*
G04 #@! TO.N,Net-(D29-A)*
X296430000Y-185510000D03*
G04 #@! TD*
G04 #@! TO.P,D1,1,K*
G04 #@! TO.N,Y1*
X443750000Y-126515000D03*
G04 #@! TO.P,D1,2,A*
G04 #@! TO.N,Net-(D1-A)*
X443750000Y-122915000D03*
G04 #@! TD*
G04 #@! TO.P,D46,1,K*
G04 #@! TO.N,Y6*
X229755000Y-208160000D03*
G04 #@! TO.P,D46,2,A*
G04 #@! TO.N,Net-(D46-A)*
X229755000Y-204560000D03*
G04 #@! TD*
G04 #@! TO.P,D902,1,K*
G04 #@! TO.N,Net-(D901-K)*
X305955000Y-227210000D03*
G04 #@! TO.P,D902,2,A*
G04 #@! TO.N,Net-(D902-A)*
X305955000Y-223610000D03*
G04 #@! TD*
G04 #@! TO.P,D31,1,K*
G04 #@! TO.N,Y4*
X286905000Y-208160000D03*
G04 #@! TO.P,D31,2,A*
G04 #@! TO.N,Net-(D31-A)*
X286905000Y-204560000D03*
G04 #@! TD*
G04 #@! TO.P,D22,1,K*
G04 #@! TO.N,Y3*
X325005000Y-206800000D03*
G04 #@! TO.P,D22,2,A*
G04 #@! TO.N,Net-(D22-A)*
X325005000Y-203200000D03*
G04 #@! TD*
G04 #@! TO.P,D25,1,K*
G04 #@! TO.N,Y4*
X300875000Y-151010000D03*
G04 #@! TO.P,D25,2,A*
G04 #@! TO.N,Net-(D25-A)*
X300875000Y-147410000D03*
G04 #@! TD*
G04 #@! TO.P,D41,1,K*
G04 #@! TO.N,Y6*
X224675000Y-151010000D03*
G04 #@! TO.P,D41,2,A*
G04 #@! TO.N,Net-(D41-A)*
X224675000Y-147410000D03*
G04 #@! TD*
G04 #@! TO.P,D2,1,K*
G04 #@! TO.N,Y1*
X424700000Y-145565000D03*
G04 #@! TO.P,D2,2,A*
G04 #@! TO.N,Net-(D2-A)*
X424700000Y-141965000D03*
G04 #@! TD*
D14*
G04 #@! TO.P,LK4,1,1*
G04 #@! TO.N,Net-(SW901-A)*
X139585000Y-121010000D03*
D15*
G04 #@! TO.P,LK4,2,2*
G04 #@! TO.N,X5*
X139585000Y-123550000D03*
G04 #@! TD*
D16*
G04 #@! TO.P,D58,1,K*
G04 #@! TO.N,Y8*
X158000000Y-170060000D03*
G04 #@! TO.P,D58,2,A*
G04 #@! TO.N,Net-(D58-A)*
X158000000Y-166460000D03*
G04 #@! TD*
G04 #@! TO.P,D64,1,K*
G04 #@! TO.N,Y9*
X111010000Y-149650000D03*
G04 #@! TO.P,D64,2,A*
G04 #@! TO.N,Net-(D64-A)*
X111010000Y-146050000D03*
G04 #@! TD*
G04 #@! TO.P,D19,1,K*
G04 #@! TO.N,Y3*
X334530000Y-189110000D03*
G04 #@! TO.P,D19,2,A*
G04 #@! TO.N,Net-(D19-A)*
X334530000Y-185510000D03*
G04 #@! TD*
G04 #@! TO.P,D20,1,K*
G04 #@! TO.N,Y3*
X405650000Y-189110000D03*
G04 #@! TO.P,D20,2,A*
G04 #@! TO.N,Net-(D20-A)*
X405650000Y-185510000D03*
G04 #@! TD*
D14*
G04 #@! TO.P,LK6,1,1*
G04 #@! TO.N,Net-(D901-K)*
X137045000Y-121010000D03*
D15*
G04 #@! TO.P,LK6,2,2*
G04 #@! TO.N,Y10*
X137045000Y-123550000D03*
G04 #@! TD*
D16*
G04 #@! TO.P,D45,1,K*
G04 #@! TO.N,Y6*
X239280000Y-189110000D03*
G04 #@! TO.P,D45,2,A*
G04 #@! TO.N,Net-(D45-A)*
X239280000Y-185510000D03*
G04 #@! TD*
G04 #@! TO.P,D47,1,K*
G04 #@! TO.N,Y6*
X229755000Y-227210000D03*
G04 #@! TO.P,D47,2,A*
G04 #@! TO.N,Net-(D47-A)*
X229755000Y-223610000D03*
G04 #@! TD*
G04 #@! TO.P,D10,1,K*
G04 #@! TO.N,Y2*
X405650000Y-170060000D03*
G04 #@! TO.P,D10,2,A*
G04 #@! TO.N,Net-(D10-A)*
X405650000Y-166460000D03*
G04 #@! TD*
G04 #@! TO.P,D24,1,K*
G04 #@! TO.N,Y4*
X319925000Y-151010000D03*
G04 #@! TO.P,D24,2,A*
G04 #@! TO.N,Net-(D24-A)*
X319925000Y-147410000D03*
G04 #@! TD*
G04 #@! TO.P,D7,1,K*
G04 #@! TO.N,Y1*
X424700000Y-227210000D03*
G04 #@! TO.P,D7,2,A*
G04 #@! TO.N,Net-(D7-A)*
X424700000Y-223610000D03*
G04 #@! TD*
G04 #@! TO.P,D9,1,K*
G04 #@! TO.N,Y2*
X424700000Y-126515000D03*
G04 #@! TO.P,D9,2,A*
G04 #@! TO.N,Net-(D9-A)*
X424700000Y-122915000D03*
G04 #@! TD*
G04 #@! TO.P,D51,1,K*
G04 #@! TO.N,Y7*
X196100000Y-170060000D03*
G04 #@! TO.P,D51,2,A*
G04 #@! TO.N,Net-(D51-A)*
X196100000Y-166460000D03*
G04 #@! TD*
G04 #@! TO.P,D0,1,K*
G04 #@! TO.N,Y1*
X424700000Y-107465000D03*
G04 #@! TO.P,D0,2,A*
G04 #@! TO.N,Net-(D0-A)*
X424700000Y-103865000D03*
G04 #@! TD*
G04 #@! TO.P,D71,1,K*
G04 #@! TO.N,Y9*
X134505000Y-208070000D03*
G04 #@! TO.P,D71,2,A*
G04 #@! TO.N,Net-(D71-A)*
X134505000Y-204470000D03*
G04 #@! TD*
G04 #@! TO.P,D54,1,K*
G04 #@! TO.N,Y7*
X210705000Y-208160000D03*
G04 #@! TO.P,D54,2,A*
G04 #@! TO.N,Net-(D54-A)*
X210705000Y-204560000D03*
G04 #@! TD*
G04 #@! TO.P,D13,1,K*
G04 #@! TO.N,Y2*
X405650000Y-208160000D03*
G04 #@! TO.P,D13,2,A*
G04 #@! TO.N,Net-(D13-A)*
X405650000Y-204560000D03*
G04 #@! TD*
G04 #@! TO.P,D39,1,K*
G04 #@! TO.N,Y5*
X267855000Y-208160000D03*
G04 #@! TO.P,D39,2,A*
G04 #@! TO.N,Net-(D39-A)*
X267855000Y-204560000D03*
G04 #@! TD*
G04 #@! TO.P,D43,1,K*
G04 #@! TO.N,Y6*
X215150000Y-170060000D03*
G04 #@! TO.P,D43,2,A*
G04 #@! TO.N,Net-(D43-A)*
X215150000Y-166460000D03*
G04 #@! TD*
G04 #@! TO.P,D26,1,K*
G04 #@! TO.N,Y4*
X310400000Y-170060000D03*
G04 #@! TO.P,D26,2,A*
G04 #@! TO.N,Net-(D26-A)*
X310400000Y-166460000D03*
G04 #@! TD*
G04 #@! TO.P,D901,1,K*
G04 #@! TO.N,Net-(D901-K)*
X153555000Y-227210000D03*
G04 #@! TO.P,D901,2,A*
G04 #@! TO.N,Net-(D901-A)*
X153555000Y-223610000D03*
G04 #@! TD*
G04 #@! TO.P,D36,1,K*
G04 #@! TO.N,Y5*
X277380000Y-187115000D03*
G04 #@! TO.P,D36,2,A*
G04 #@! TO.N,Net-(D36-A)*
X277380000Y-183515000D03*
G04 #@! TD*
G04 #@! TO.P,D79,1,K*
G04 #@! TO.N,Y10*
X358025000Y-149650000D03*
G04 #@! TO.P,D79,2,A*
G04 #@! TO.N,Net-(D79-A)*
X358025000Y-146050000D03*
G04 #@! TD*
G04 #@! TO.P,D65,1,K*
G04 #@! TO.N,Y9*
X129425000Y-151010000D03*
G04 #@! TO.P,D65,2,A*
G04 #@! TO.N,Net-(D65-A)*
X129425000Y-147410000D03*
G04 #@! TD*
G04 #@! TO.P,D42,1,K*
G04 #@! TO.N,Y6*
X234200000Y-170060000D03*
G04 #@! TO.P,D42,2,A*
G04 #@! TO.N,Net-(D42-A)*
X234200000Y-166460000D03*
G04 #@! TD*
G04 #@! TO.P,D66,1,K*
G04 #@! TO.N,Y9*
X107200000Y-149650000D03*
G04 #@! TO.P,D66,2,A*
G04 #@! TO.N,Net-(D66-A)*
X107200000Y-146050000D03*
G04 #@! TD*
G04 #@! TO.P,D3,1,K*
G04 #@! TO.N,Y1*
X443750000Y-170060000D03*
G04 #@! TO.P,D3,2,A*
G04 #@! TO.N,Net-(D3-A)*
X443750000Y-166460000D03*
G04 #@! TD*
G04 #@! TO.P,D69,1,K*
G04 #@! TO.N,Y9*
X124980000Y-189110000D03*
G04 #@! TO.P,D69,2,A*
G04 #@! TO.N,Net-(D69-A)*
X124980000Y-185510000D03*
G04 #@! TD*
G04 #@! TO.P,D50,1,K*
G04 #@! TO.N,Y7*
X177050000Y-170060000D03*
G04 #@! TO.P,D50,2,A*
G04 #@! TO.N,Net-(D50-A)*
X177050000Y-166460000D03*
G04 #@! TD*
G04 #@! TO.P,D18,1,K*
G04 #@! TO.N,Y3*
X356120000Y-179585000D03*
G04 #@! TO.P,D18,2,A*
G04 #@! TO.N,Net-(D18-A)*
X356120000Y-175985000D03*
G04 #@! TD*
G04 #@! TO.P,D52,1,K*
G04 #@! TO.N,Y7*
X201180000Y-187115000D03*
G04 #@! TO.P,D52,2,A*
G04 #@! TO.N,Net-(D52-A)*
X201180000Y-183515000D03*
G04 #@! TD*
G04 #@! TO.P,D61,1,K*
G04 #@! TO.N,Y8*
X163080000Y-189110000D03*
G04 #@! TO.P,D61,2,A*
G04 #@! TO.N,Net-(D61-A)*
X163080000Y-185510000D03*
G04 #@! TD*
G04 #@! TO.P,D49,1,K*
G04 #@! TO.N,Y7*
X186575000Y-151010000D03*
G04 #@! TO.P,D49,2,A*
G04 #@! TO.N,Net-(D49-A)*
X186575000Y-147410000D03*
G04 #@! TD*
G04 #@! TO.P,D60,1,K*
G04 #@! TO.N,Y8*
X144030000Y-189110000D03*
G04 #@! TO.P,D60,2,A*
G04 #@! TO.N,Net-(D60-A)*
X144030000Y-185510000D03*
G04 #@! TD*
G04 #@! TO.P,D5,1,K*
G04 #@! TO.N,Y1*
X443750000Y-206165000D03*
G04 #@! TO.P,D5,2,A*
G04 #@! TO.N,Net-(D5-A)*
X443750000Y-202565000D03*
G04 #@! TD*
G04 #@! TO.P,D67,1,K*
G04 #@! TO.N,Y9*
X119900000Y-170060000D03*
G04 #@! TO.P,D67,2,A*
G04 #@! TO.N,Net-(D67-A)*
X119900000Y-166460000D03*
G04 #@! TD*
G04 #@! TO.P,D57,1,K*
G04 #@! TO.N,Y8*
X148475000Y-151010000D03*
G04 #@! TO.P,D57,2,A*
G04 #@! TO.N,Net-(D57-A)*
X148475000Y-147410000D03*
G04 #@! TD*
G04 #@! TO.P,D12,1,K*
G04 #@! TO.N,Y2*
X424700000Y-189110000D03*
G04 #@! TO.P,D12,2,A*
G04 #@! TO.N,Net-(D12-A)*
X424700000Y-185510000D03*
G04 #@! TD*
G04 #@! TO.P,D17,1,K*
G04 #@! TO.N,Y3*
X329450000Y-170060000D03*
G04 #@! TO.P,D17,2,A*
G04 #@! TO.N,Net-(D17-A)*
X329450000Y-166460000D03*
G04 #@! TD*
G04 #@! TO.P,D8,1,K*
G04 #@! TO.N,Y2*
X405650000Y-126515000D03*
G04 #@! TO.P,D8,2,A*
G04 #@! TO.N,Net-(D8-A)*
X405650000Y-122915000D03*
G04 #@! TD*
G04 #@! TO.P,D62,1,K*
G04 #@! TO.N,Y8*
X172605000Y-208160000D03*
G04 #@! TO.P,D62,2,A*
G04 #@! TO.N,Net-(D62-A)*
X172605000Y-204560000D03*
G04 #@! TD*
D17*
G04 #@! TO.N,Y10*
X358038400Y-148187216D03*
X355650800Y-130429000D03*
G04 #@! TO.N,Y9*
X147167600Y-149707600D03*
X123825000Y-190246000D03*
X133426200Y-207060800D03*
X118426800Y-151497200D03*
X118551400Y-170060000D03*
X147193000Y-123545600D03*
G04 #@! TO.N,Y8*
X187782200Y-152704800D03*
X160883600Y-189110000D03*
X156311600Y-152755600D03*
X156337400Y-169987500D03*
X154774200Y-208203800D03*
G04 #@! TO.N,Y7*
X96850200Y-171154600D03*
X194703000Y-170129200D03*
X190347600Y-208153000D03*
X194787200Y-150944200D03*
X192176400Y-189110000D03*
X185381200Y-151003000D03*
G04 #@! TO.N,Y6*
X232777600Y-151079200D03*
X232855800Y-169988200D03*
X177850800Y-171967400D03*
X95554800Y-171967400D03*
X229780400Y-209203800D03*
X234735800Y-189110000D03*
X229831200Y-226196400D03*
G04 #@! TO.N,Y5*
X272806700Y-189062900D03*
X271157000Y-151053800D03*
X175742600Y-172754800D03*
X94335600Y-172796200D03*
X271157000Y-170103800D03*
X266432600Y-208127600D03*
G04 #@! TO.N,Y4*
X308737000Y-151053800D03*
X308722300Y-169987500D03*
X92151200Y-173507400D03*
X311021000Y-189050200D03*
X304634200Y-208100200D03*
X173710600Y-173532800D03*
G04 #@! TO.N,Y3*
X337997800Y-152019000D03*
X323723000Y-206857600D03*
X330733400Y-170103800D03*
X89859600Y-196881000D03*
X325005000Y-225866200D03*
X168947400Y-227136200D03*
X89890600Y-182499000D03*
X333070200Y-189153800D03*
G04 #@! TO.N,Y2*
X423291000Y-126542800D03*
X405624600Y-225866200D03*
X423328400Y-170103800D03*
X152577800Y-209891600D03*
X405624600Y-209499200D03*
X86790000Y-185023000D03*
X424649200Y-190449200D03*
X423316400Y-206121000D03*
G04 #@! TO.N,X9*
X357327200Y-133019800D03*
X165201600Y-133080000D03*
G04 #@! TO.N,X8*
X136918000Y-169960800D03*
X302895000Y-211912200D03*
G04 #@! TO.N,X7*
X161886200Y-192264300D03*
X90957400Y-187055000D03*
G04 #@! TO.N,X6*
X128422400Y-193319400D03*
X93167200Y-189636400D03*
G04 #@! TO.N,X5*
X117394100Y-174350300D03*
X175900700Y-174416100D03*
G04 #@! TO.N,X4*
X176860200Y-168300400D03*
G04 #@! TO.N,X3*
X115366800Y-153746200D03*
X184429400Y-154940000D03*
X96709800Y-154797000D03*
G04 #@! TO.N,X2*
X100711000Y-148767800D03*
X100711000Y-152295000D03*
X186575000Y-148955000D03*
G04 #@! TO.N,X1*
X189115000Y-134985000D03*
G04 #@! TO.N,Y1*
X443750000Y-127584200D03*
X424688000Y-108788200D03*
X443800800Y-190423800D03*
X443800800Y-171450000D03*
X443699200Y-226044000D03*
X444982600Y-206197200D03*
X151688800Y-211429600D03*
X85615000Y-187563000D03*
G04 #@! TO.N,Net-(D21-A)*
X140893800Y-233375200D03*
X332638400Y-233375200D03*
G04 #@! TO.N,Net-(SW902-A)*
X280314400Y-128549400D03*
G04 #@! TO.N,Net-(D901-K)*
X154559000Y-228295200D03*
G04 #@! TD*
D18*
G04 #@! TO.N,Y10*
X81800000Y-144395000D02*
X100100000Y-126095000D01*
X355600000Y-130479800D02*
X143974800Y-130479800D01*
X119945800Y-123550000D02*
X119557100Y-123161300D01*
X119557100Y-123161300D02*
X117410800Y-121015000D01*
X355650800Y-130429000D02*
X355600000Y-130479800D01*
X143974800Y-130479800D02*
X137045000Y-123550000D01*
X100100000Y-126095000D02*
X104660000Y-126095000D01*
X117410800Y-121015000D02*
X112280000Y-121015000D01*
X358038400Y-149636600D02*
X358025000Y-149650000D01*
X358038400Y-148187216D02*
X358038400Y-149636600D01*
X137045000Y-123550000D02*
X119945800Y-123550000D01*
X358038400Y-148187216D02*
X358025000Y-148200616D01*
G04 #@! TO.N,Y9*
X83255000Y-168710000D02*
X81800000Y-167255000D01*
X128924000Y-151511000D02*
X129425000Y-151010000D01*
X100482400Y-151010000D02*
X87506396Y-151010000D01*
X86545302Y-150685302D02*
X85615000Y-149755000D01*
X87506396Y-151010000D02*
X87181698Y-150685302D01*
X107200000Y-149650000D02*
X101842400Y-149650000D01*
X107200000Y-149650000D02*
X111010000Y-149650000D01*
X123825000Y-190246000D02*
X115436000Y-190246000D01*
X133495800Y-207060800D02*
X134505000Y-208070000D01*
X101842400Y-149650000D02*
X100482400Y-151010000D01*
X118551400Y-170060000D02*
X119900000Y-170060000D01*
X109158200Y-170060000D02*
X108876400Y-170341800D01*
X137096183Y-149707600D02*
X135793783Y-151010000D01*
X97132800Y-168710000D02*
X83255000Y-168710000D01*
X187940000Y-119840000D02*
X161896800Y-119840000D01*
X111016600Y-149650000D02*
X111010000Y-149650000D01*
X158191200Y-123545600D02*
X147193000Y-123545600D01*
X115436000Y-190246000D02*
X114300000Y-189110000D01*
X118413000Y-151511000D02*
X112877600Y-151511000D01*
X119874600Y-169935400D02*
X119900000Y-169910000D01*
X87181698Y-150685302D02*
X86545302Y-150685302D01*
X123825000Y-190246000D02*
X124961000Y-189110000D01*
X129406800Y-150878200D02*
X129425000Y-150860000D01*
X98764600Y-170341800D02*
X97132800Y-168710000D01*
X124961000Y-189110000D02*
X124980000Y-189110000D01*
X108876400Y-170341800D02*
X98764600Y-170341800D01*
X135793783Y-151010000D02*
X129425000Y-151010000D01*
X189115000Y-121015000D02*
X187940000Y-119840000D01*
X147167600Y-149707600D02*
X137096183Y-149707600D01*
X112877600Y-151511000D02*
X111016600Y-149650000D01*
X111645000Y-170060000D02*
X109158200Y-170060000D01*
X118426800Y-151497200D02*
X118413000Y-151511000D01*
X118551400Y-170060000D02*
X111645000Y-170060000D01*
X133426200Y-207060800D02*
X133495800Y-207060800D01*
X118440600Y-151511000D02*
X128924000Y-151511000D01*
X118551400Y-170060000D02*
X118401400Y-169910000D01*
X118426800Y-151497200D02*
X118440600Y-151511000D01*
X161896800Y-119840000D02*
X158191200Y-123545600D01*
G04 #@! TO.N,Y8*
X165779400Y-152755600D02*
X167525000Y-151010000D01*
X154818000Y-208160000D02*
X172605000Y-208160000D01*
X150220600Y-152755600D02*
X148475000Y-151010000D01*
X160883600Y-189110000D02*
X144030000Y-189110000D01*
X187731400Y-152755600D02*
X169270600Y-152755600D01*
X148475000Y-151041800D02*
X146735800Y-152781000D01*
X86915000Y-153595000D02*
X85615000Y-152295000D01*
X187782200Y-152704800D02*
X187731400Y-152755600D01*
X162572000Y-188833000D02*
X162699000Y-188960000D01*
X146735800Y-152781000D02*
X112191800Y-152781000D01*
X160883600Y-189110000D02*
X163080000Y-189110000D01*
X101573400Y-153595000D02*
X86915000Y-153595000D01*
X167525000Y-151010000D02*
X167607600Y-151010000D01*
X154730400Y-208160000D02*
X153555000Y-208160000D01*
X156337400Y-169987500D02*
X156409900Y-170060000D01*
X148475000Y-150860000D02*
X148957600Y-151342600D01*
X169270600Y-152755600D02*
X167525000Y-151010000D01*
X156311600Y-152755600D02*
X165779400Y-152755600D01*
X156337400Y-169987500D02*
X156264900Y-170060000D01*
X148475000Y-150987000D02*
X148602000Y-150987000D01*
X154774200Y-208203800D02*
X154818000Y-208160000D01*
X154774200Y-208203800D02*
X154730400Y-208160000D01*
X138696000Y-169783000D02*
X138569000Y-169656000D01*
X110083600Y-150672800D02*
X104495600Y-150672800D01*
X112191800Y-152781000D02*
X110083600Y-150672800D01*
X156409900Y-170060000D02*
X158000000Y-170060000D01*
X104495600Y-150672800D02*
X101573400Y-153595000D01*
X156311600Y-152755600D02*
X150220600Y-152755600D01*
X167042400Y-151342600D02*
X167525000Y-150860000D01*
X148475000Y-151010000D02*
X148475000Y-151041800D01*
X156264900Y-170060000D02*
X138950000Y-170060000D01*
G04 #@! TO.N,Y7*
X96850200Y-171154600D02*
X89728800Y-171154600D01*
X199185000Y-189110000D02*
X201180000Y-187115000D01*
X194109400Y-170722800D02*
X180695600Y-170722800D01*
X205625000Y-149015000D02*
X201598600Y-149015000D01*
X194787200Y-150944200D02*
X194721400Y-151010000D01*
X96850200Y-171154600D02*
X175955400Y-171154600D01*
X192176400Y-189110000D02*
X196196600Y-189110000D01*
X175955400Y-171154600D02*
X177050000Y-170060000D01*
X194703000Y-170129200D02*
X194109400Y-170722800D01*
X185381200Y-151003000D02*
X186568000Y-151003000D01*
X186568000Y-151003000D02*
X186575000Y-151010000D01*
X192176400Y-189110000D02*
X199185000Y-189110000D01*
X190347600Y-208153000D02*
X190354600Y-208160000D01*
X185381200Y-151003000D02*
X185524200Y-150860000D01*
X190347600Y-208153000D02*
X191648000Y-208153000D01*
X194703000Y-170129200D02*
X194772200Y-170060000D01*
X194787200Y-150944200D02*
X194853000Y-151010000D01*
X190354600Y-208160000D02*
X210705000Y-208160000D01*
X180695600Y-170722800D02*
X177862800Y-170722800D01*
X191648000Y-208153000D02*
X191655000Y-208160000D01*
X194772200Y-170060000D02*
X196100000Y-170060000D01*
X192176400Y-189110000D02*
X182130000Y-189110000D01*
X201598600Y-149015000D02*
X199669400Y-150944200D01*
X194787200Y-150944200D02*
X199669400Y-150944200D01*
X89728800Y-171154600D02*
X88548400Y-172335000D01*
X177712800Y-170722800D02*
X180695600Y-170722800D01*
X88548400Y-172335000D02*
X81800000Y-172335000D01*
X196100000Y-169656000D02*
X196227000Y-169783000D01*
X177050000Y-170060000D02*
X177712800Y-170722800D01*
X194721400Y-151010000D02*
X186575000Y-151010000D01*
G04 #@! TO.N,Y6*
X229755000Y-209178400D02*
X229780400Y-209203800D01*
X215150000Y-170060000D02*
X198020800Y-170060000D01*
X234735800Y-189110000D02*
X239280000Y-189110000D01*
X198020800Y-170060000D02*
X196113400Y-171967400D01*
X232708400Y-151010000D02*
X224675000Y-151010000D01*
X229780400Y-208035400D02*
X229755000Y-208010000D01*
X232936800Y-150920000D02*
X243725000Y-150920000D01*
X95554800Y-171967400D02*
X196113400Y-171967400D01*
X232777600Y-151079200D02*
X232936800Y-150920000D01*
X95554800Y-171967400D02*
X90541600Y-171967400D01*
X229780400Y-209203800D02*
X229780400Y-208185400D01*
X232784000Y-170060000D02*
X215150000Y-170060000D01*
X232855800Y-169988200D02*
X232784000Y-170060000D01*
X232777600Y-151079200D02*
X232708400Y-151010000D01*
X232855800Y-169988200D02*
X232927600Y-170060000D01*
X229831200Y-226196400D02*
X229831200Y-227133800D01*
X87634000Y-174875000D02*
X81800000Y-174875000D01*
X229831200Y-226983800D02*
X229755000Y-227060000D01*
X229831200Y-227133800D02*
X229755000Y-227210000D01*
X234735800Y-189110000D02*
X220230000Y-189110000D01*
X90541600Y-171967400D02*
X87634000Y-174875000D01*
X232927600Y-170060000D02*
X234200000Y-170060000D01*
X229780400Y-208185400D02*
X229755000Y-208160000D01*
G04 #@! TO.N,Y5*
X271200800Y-151010000D02*
X275894800Y-151010000D01*
X272759600Y-189110000D02*
X258330000Y-189110000D01*
X266465000Y-208160000D02*
X267855000Y-208160000D01*
X266211200Y-208349000D02*
X248994000Y-208349000D01*
X271200800Y-170060000D02*
X272300000Y-170060000D01*
X94335600Y-172796200D02*
X94294200Y-172754800D01*
X91456000Y-172754800D02*
X86795800Y-177415000D01*
X271157000Y-170103800D02*
X271200800Y-170060000D01*
X248805000Y-208010000D02*
X248823200Y-208028200D01*
X274754600Y-187115000D02*
X272806700Y-189062900D01*
X198513600Y-171548400D02*
X197307200Y-172754800D01*
X94377000Y-172754800D02*
X197307200Y-172754800D01*
X267855000Y-208010000D02*
X267448600Y-208416400D01*
X248994000Y-208349000D02*
X248805000Y-208160000D01*
X266432600Y-208127600D02*
X266465000Y-208160000D01*
X94335600Y-172796200D02*
X94377000Y-172754800D01*
X94294200Y-172754800D02*
X91456000Y-172754800D01*
X253250000Y-170060000D02*
X251761600Y-171548400D01*
X271113200Y-170060000D02*
X253250000Y-170060000D01*
X277380000Y-187115000D02*
X274754600Y-187115000D01*
X271157000Y-151053800D02*
X271113200Y-151010000D01*
X263029000Y-150860000D02*
X262775000Y-150606000D01*
X272806700Y-189062900D02*
X272853800Y-189110000D01*
X272806700Y-189062900D02*
X272759600Y-189110000D01*
X86795800Y-177415000D02*
X81800000Y-177415000D01*
X277889800Y-149015000D02*
X275894800Y-151010000D01*
X281825000Y-149015000D02*
X277889800Y-149015000D01*
X251761600Y-171548400D02*
X198513600Y-171548400D01*
X266432600Y-208127600D02*
X266211200Y-208349000D01*
X271113200Y-151010000D02*
X262775000Y-151010000D01*
X271157000Y-151053800D02*
X271200800Y-151010000D01*
X271157000Y-170103800D02*
X271113200Y-170060000D01*
G04 #@! TO.N,Y4*
X300875000Y-150860000D02*
X300621000Y-150606000D01*
X92151200Y-173507400D02*
X85703600Y-179955000D01*
X308649800Y-170060000D02*
X291350000Y-170060000D01*
X304694000Y-208160000D02*
X305955000Y-208160000D01*
X310961200Y-189110000D02*
X296430000Y-189110000D01*
X311080800Y-189110000D02*
X315480000Y-189110000D01*
X291350000Y-170060000D02*
X288893200Y-172516800D01*
X308722300Y-169987500D02*
X308794800Y-170060000D01*
X199186800Y-172516800D02*
X198170800Y-173532800D01*
X304574400Y-208160000D02*
X286905000Y-208160000D01*
X308737000Y-151053800D02*
X308693200Y-151010000D01*
X304634200Y-208100200D02*
X304574400Y-208160000D01*
X304634200Y-208100200D02*
X304694000Y-208160000D01*
X288893200Y-172516800D02*
X199186800Y-172516800D01*
X308780800Y-151010000D02*
X319925000Y-151010000D01*
X308794800Y-170060000D02*
X310400000Y-170060000D01*
X311021000Y-189050200D02*
X310961200Y-189110000D01*
X92165000Y-173521200D02*
X92151200Y-173507400D01*
X308722300Y-169987500D02*
X308649800Y-170060000D01*
X308693200Y-151010000D02*
X300875000Y-151010000D01*
X198170800Y-173532800D02*
X173710600Y-173532800D01*
X173699000Y-173521200D02*
X92165000Y-173521200D01*
X308737000Y-151053800D02*
X308780800Y-151010000D01*
X85703600Y-179955000D02*
X81800000Y-179955000D01*
X173710600Y-173532800D02*
X173699000Y-173521200D01*
X311021000Y-189050200D02*
X311080800Y-189110000D01*
G04 #@! TO.N,Y3*
X323723000Y-206857600D02*
X323780600Y-206800000D01*
X333070200Y-189153800D02*
X333114000Y-189110000D01*
X95968600Y-202990000D02*
X99060000Y-202990000D01*
X183196800Y-223631000D02*
X176114200Y-223631000D01*
X338975000Y-151010000D02*
X338571000Y-151010000D01*
X309203800Y-227210000D02*
X307326600Y-225332800D01*
X99060000Y-202990000D02*
X97097400Y-202990000D01*
X330733400Y-170103800D02*
X330689600Y-170060000D01*
X156831600Y-227136200D02*
X168947400Y-227136200D01*
X89886600Y-182495000D02*
X81800000Y-182495000D01*
X99060000Y-202990000D02*
X121504400Y-225434400D01*
X121504400Y-225434400D02*
X123164600Y-225434400D01*
X259943600Y-231114600D02*
X190680400Y-231114600D01*
X155129800Y-225434400D02*
X156831600Y-227136200D01*
X333114000Y-189110000D02*
X334530000Y-189110000D01*
X333070200Y-189153800D02*
X333070200Y-189048200D01*
X337997800Y-152019000D02*
X337997800Y-151987200D01*
X330689600Y-170060000D02*
X329450000Y-170060000D01*
X172609000Y-227136200D02*
X168947400Y-227136200D01*
X330733400Y-170101200D02*
X330542200Y-169910000D01*
X334530000Y-189110000D02*
X346595000Y-189110000D01*
X356120000Y-179585000D02*
X365216400Y-188681400D01*
X323780600Y-206800000D02*
X325005000Y-206800000D01*
X330733400Y-170103800D02*
X330733400Y-170101200D01*
X190680400Y-231114600D02*
X183196800Y-223631000D01*
X356120000Y-179585000D02*
X347329100Y-188375900D01*
X325005000Y-227210000D02*
X309203800Y-227210000D01*
X123164600Y-225434400D02*
X155129800Y-225434400D01*
X334504600Y-188985400D02*
X334530000Y-188960000D01*
X265725400Y-225332800D02*
X259943600Y-231114600D01*
X89859600Y-196881000D02*
X95968600Y-202990000D01*
X365216400Y-188681400D02*
X365495000Y-188960000D01*
X346595000Y-189110000D02*
X347329100Y-188375900D01*
X176114200Y-223631000D02*
X172609000Y-227136200D01*
X325005000Y-225866200D02*
X325005000Y-227210000D01*
X89890600Y-182499000D02*
X89886600Y-182495000D01*
X347329100Y-188375900D02*
X346745000Y-188960000D01*
X307326600Y-225332800D02*
X265725400Y-225332800D01*
X405650000Y-189110000D02*
X365645000Y-189110000D01*
X337997800Y-151987200D02*
X338975000Y-151010000D01*
X365645000Y-189110000D02*
X365216400Y-188681400D01*
G04 #@! TO.N,Y2*
X120992900Y-205930500D02*
X120978200Y-205915800D01*
X196392800Y-228879400D02*
X254076200Y-228879400D01*
X152577800Y-209891600D02*
X139863800Y-209891600D01*
X423372200Y-170060000D02*
X424700000Y-170060000D01*
X423316400Y-206121000D02*
X424656000Y-206121000D01*
X423318800Y-126515000D02*
X424700000Y-126515000D01*
X424674600Y-126390400D02*
X424700000Y-126365000D01*
X423328400Y-170103800D02*
X423372200Y-170060000D01*
X180009800Y-219075000D02*
X186588400Y-219075000D01*
X424649200Y-189160800D02*
X424700000Y-189110000D01*
X424656000Y-206121000D02*
X424700000Y-206165000D01*
X405624600Y-209499200D02*
X405624600Y-208185400D01*
X97434400Y-200558400D02*
X86790000Y-189914000D01*
X423291000Y-126542800D02*
X423318800Y-126515000D01*
X423291000Y-126542800D02*
X423263200Y-126515000D01*
X315391800Y-209753200D02*
X320040000Y-205105000D01*
X405624600Y-208185400D02*
X405650000Y-208160000D01*
X326085200Y-205130400D02*
X330454000Y-209499200D01*
X421259000Y-206121000D02*
X417880800Y-209499200D01*
X423316400Y-206121000D02*
X421259000Y-206121000D01*
X423263200Y-126515000D02*
X405650000Y-126515000D01*
X405624600Y-225866200D02*
X405624600Y-227184600D01*
X139863800Y-209891600D02*
X135902700Y-205930500D01*
X186588400Y-219075000D02*
X196392800Y-228879400D01*
X152577800Y-209891600D02*
X170826400Y-209891600D01*
X330454000Y-209499200D02*
X405624600Y-209499200D01*
X405624600Y-227034600D02*
X405650000Y-227060000D01*
X86778000Y-185035000D02*
X86790000Y-185023000D01*
X100561200Y-200558400D02*
X97434400Y-200558400D01*
X135902700Y-205930500D02*
X120992900Y-205930500D01*
X320040000Y-205105000D02*
X326085200Y-205105000D01*
X424649200Y-190449200D02*
X424649200Y-189160800D01*
X120978200Y-205915800D02*
X118595231Y-208298769D01*
X423328400Y-170103800D02*
X423284600Y-170060000D01*
X108301569Y-208298769D02*
X100561200Y-200558400D01*
X326085200Y-205105000D02*
X326085200Y-205130400D01*
X170826400Y-209891600D02*
X180009800Y-219075000D01*
X405624600Y-227184600D02*
X405650000Y-227210000D01*
X86790000Y-189914000D02*
X86790000Y-185023000D01*
X417880800Y-209499200D02*
X405624600Y-209499200D01*
X273202400Y-209753200D02*
X315391800Y-209753200D01*
X424649200Y-190449200D02*
X424700000Y-190398400D01*
X81800000Y-185035000D02*
X86778000Y-185035000D01*
X423284600Y-170060000D02*
X405650000Y-170060000D01*
X118595231Y-208298769D02*
X108301569Y-208298769D01*
X254076200Y-228879400D02*
X273202400Y-209753200D01*
X405650000Y-209473800D02*
X405624600Y-209499200D01*
G04 #@! TO.N,X9*
X369308566Y-148955000D02*
X373532400Y-144731166D01*
X106901800Y-124920000D02*
X98215000Y-124920000D01*
X373532400Y-140074900D02*
X372252500Y-138795000D01*
X357267000Y-133080000D02*
X357327200Y-133019800D01*
X109441800Y-122380000D02*
X106901800Y-124920000D01*
X373532400Y-144731166D02*
X373532400Y-140074900D01*
X165201600Y-133080000D02*
X357267000Y-133080000D01*
X124954600Y-133080000D02*
X114254600Y-122380000D01*
X114254600Y-122380000D02*
X109441800Y-122380000D01*
X363422500Y-148955000D02*
X369308566Y-148955000D01*
X98215000Y-124920000D02*
X97040000Y-126095000D01*
X165201600Y-133080000D02*
X124954600Y-133080000D01*
G04 #@! TO.N,X8*
X99673800Y-169473000D02*
X96560800Y-166360000D01*
X302209200Y-197339200D02*
X300830900Y-195960900D01*
X419877500Y-214995000D02*
X425923200Y-214995000D01*
X168732200Y-197212200D02*
X168732200Y-204784200D01*
X291985000Y-206105000D02*
X297871066Y-206105000D01*
X149707600Y-200787000D02*
X149707600Y-197237600D01*
X187581695Y-208899000D02*
X190375695Y-206105000D01*
X206908400Y-206105000D02*
X208190400Y-206105000D01*
X206883000Y-201500900D02*
X206883000Y-206079600D01*
X300830900Y-195960900D02*
X300815000Y-195945000D01*
X435844700Y-211912200D02*
X438927500Y-214995000D01*
X206883000Y-197263000D02*
X205565000Y-195945000D01*
X168732200Y-204784200D02*
X168732200Y-206105000D01*
X416933566Y-225155000D02*
X421081200Y-221007366D01*
X272935000Y-206105000D02*
X283108400Y-206105000D01*
X283083000Y-197263000D02*
X283083000Y-204758800D01*
X283083000Y-206079600D02*
X283108400Y-206105000D01*
X425923200Y-214995000D02*
X429006000Y-211912200D01*
X244906800Y-220969266D02*
X244906800Y-216236800D01*
X149783800Y-206015000D02*
X149682200Y-206015000D01*
X149654800Y-205987600D02*
X149682200Y-206015000D01*
X125177234Y-169960800D02*
X123983434Y-168767000D01*
X177050000Y-208899000D02*
X187581695Y-208899000D01*
X272935000Y-206105000D02*
X272935000Y-206915131D01*
X335971066Y-225155000D02*
X340207600Y-220918466D01*
X416921700Y-212039200D02*
X341870800Y-212039200D01*
X297871066Y-206105000D02*
X300830900Y-203145166D01*
X234835000Y-225155000D02*
X240721066Y-225155000D01*
X149707600Y-200787000D02*
X149707600Y-205938800D01*
X419877500Y-214995000D02*
X416921700Y-212039200D01*
X435983566Y-225155000D02*
X440334400Y-220804166D01*
X149707600Y-201113200D02*
X149707600Y-200787000D01*
X340207600Y-220918466D02*
X340207600Y-216287600D01*
X239693200Y-211023200D02*
X216461400Y-211023200D01*
X281736800Y-206105000D02*
X272935000Y-206105000D01*
X420102600Y-215220100D02*
X419877500Y-214995000D01*
X148475000Y-206015000D02*
X139675000Y-206015000D01*
X240721066Y-225155000D02*
X244906800Y-220969266D01*
X136918000Y-169960800D02*
X125177234Y-169960800D01*
X243665000Y-214995000D02*
X239693200Y-211023200D01*
X104019800Y-168767000D02*
X103313800Y-169473000D01*
X430097500Y-225155000D02*
X435983566Y-225155000D01*
X205625000Y-206105000D02*
X206908400Y-206105000D01*
X300830900Y-203145166D02*
X302209200Y-201766866D01*
X245449600Y-214995000D02*
X243665000Y-214995000D01*
X421081200Y-216198700D02*
X419877500Y-214995000D01*
X206883000Y-201500900D02*
X206883000Y-197263000D01*
X167465000Y-195945000D02*
X168732200Y-197212200D01*
X158635000Y-206105000D02*
X168732200Y-206105000D01*
X244906800Y-216236800D02*
X243665000Y-214995000D01*
X196735000Y-206105000D02*
X211543200Y-206105000D01*
X429006000Y-211912200D02*
X435844700Y-211912200D01*
X283083000Y-204758800D02*
X283083000Y-206079600D01*
X149707600Y-197237600D02*
X148415000Y-195945000D01*
X83445000Y-166360000D02*
X81800000Y-164715000D01*
X206883000Y-206079600D02*
X206908400Y-206105000D01*
X302895000Y-211912200D02*
X335832200Y-211912200D01*
X281765000Y-195945000D02*
X283083000Y-197263000D01*
X190375695Y-206105000D02*
X196735000Y-206105000D01*
X330085000Y-225155000D02*
X335971066Y-225155000D01*
X158545000Y-206015000D02*
X149783800Y-206015000D01*
X335832200Y-211912200D02*
X338915000Y-214995000D01*
X149707600Y-205938800D02*
X149783800Y-206015000D01*
X302209200Y-201766866D02*
X302209200Y-197339200D01*
X440334400Y-216401900D02*
X438927500Y-214995000D01*
X96560800Y-166360000D02*
X83445000Y-166360000D01*
X341870800Y-212039200D02*
X338915000Y-214995000D01*
X211543200Y-206105000D02*
X213564500Y-208126300D01*
X264045000Y-214995000D02*
X272935000Y-206105000D01*
X440334400Y-220804166D02*
X440334400Y-216401900D01*
X149682200Y-206015000D02*
X148475000Y-206015000D01*
X243665000Y-214995000D02*
X264045000Y-214995000D01*
X123983434Y-168767000D02*
X104019800Y-168767000D01*
X216461400Y-211023200D02*
X213564500Y-208126300D01*
X168732200Y-206105000D02*
X174256000Y-206105000D01*
X174256000Y-206105000D02*
X177050000Y-208899000D01*
X411047500Y-225155000D02*
X416933566Y-225155000D01*
X213564500Y-208126300D02*
X213727600Y-208289400D01*
X158635000Y-206105000D02*
X158545000Y-206015000D01*
X103313800Y-169473000D02*
X99673800Y-169473000D01*
X167499600Y-195979600D02*
X167465000Y-195945000D01*
X340207600Y-216287600D02*
X338915000Y-214995000D01*
X139675000Y-206015000D02*
X139585000Y-206105000D01*
X283108400Y-206105000D02*
X291985000Y-206105000D01*
X196735000Y-206105000D02*
X205625000Y-206105000D01*
X421081200Y-221007366D02*
X421081200Y-216198700D01*
G04 #@! TO.N,X7*
X112737200Y-187055000D02*
X114681000Y-187055000D01*
X453594250Y-210611750D02*
X450514750Y-210611750D01*
X126298200Y-187055000D02*
X131507500Y-192264300D01*
X264083800Y-197313800D02*
X262715000Y-195945000D01*
X117195600Y-184505600D02*
X114681000Y-187020200D01*
X316223400Y-192303400D02*
X277850600Y-192303400D01*
X224615000Y-195945000D02*
X227901000Y-192659000D01*
X234835000Y-206105000D02*
X240721066Y-206105000D01*
X245084600Y-201741466D02*
X245084600Y-197364600D01*
X444246000Y-204343000D02*
X440207400Y-204343000D01*
X262740900Y-195945000D02*
X262715000Y-195945000D01*
X88155000Y-164995000D02*
X86980000Y-163820000D01*
X455033566Y-225155000D02*
X459282800Y-220905766D01*
X363956600Y-208051400D02*
X354434200Y-208051400D01*
X340283800Y-206079600D02*
X340258400Y-206105000D01*
X335298800Y-192328800D02*
X323481200Y-192328800D01*
X316921066Y-206105000D02*
X321183000Y-201843066D01*
X438927500Y-195945000D02*
X440232800Y-197250300D01*
X221252800Y-192582800D02*
X201498200Y-192582800D01*
X112696250Y-176895000D02*
X112712150Y-176910900D01*
X277850600Y-192303400D02*
X276250400Y-193903600D01*
X457977500Y-214995000D02*
X453594250Y-210611750D01*
X321183000Y-201843066D02*
X321183000Y-197263000D01*
X340283800Y-204694600D02*
X340283800Y-197313800D01*
X187782200Y-201893866D02*
X187782200Y-197212200D01*
X182834300Y-192264300D02*
X161886200Y-192264300D01*
X421001000Y-204317600D02*
X417181600Y-208137000D01*
X417181600Y-208137000D02*
X408977400Y-208137000D01*
X114681000Y-187020200D02*
X114681000Y-187055000D01*
X215944000Y-205946000D02*
X221887600Y-205946000D01*
X177685000Y-206105000D02*
X183571066Y-206105000D01*
X224615000Y-195945000D02*
X221252800Y-192582800D01*
X112712150Y-187029950D02*
X112737200Y-187055000D01*
X246916200Y-192693800D02*
X243665000Y-195945000D01*
X259463800Y-192693800D02*
X246916200Y-192693800D01*
X200380600Y-193700400D02*
X188759600Y-193700400D01*
X253885000Y-206105000D02*
X259771066Y-206105000D01*
X354434200Y-208051400D02*
X352487800Y-206105000D01*
X86980000Y-163820000D02*
X83445000Y-163820000D01*
X449147500Y-225155000D02*
X455033566Y-225155000D01*
X440232800Y-197250300D02*
X440232800Y-203110400D01*
X264782300Y-193903600D02*
X262740900Y-195945000D01*
X225933000Y-201900600D02*
X225933000Y-197263000D01*
X245084600Y-197364600D02*
X243665000Y-195945000D01*
X187782200Y-197212200D02*
X186515000Y-195945000D01*
X117195600Y-184505600D02*
X121437400Y-184505600D01*
X430097500Y-206105000D02*
X437238200Y-206105000D01*
X90957400Y-187055000D02*
X103866250Y-187055000D01*
X221887600Y-205946000D02*
X225933000Y-201900600D01*
X186515000Y-195945000D02*
X182834300Y-192264300D01*
X201498200Y-192582800D02*
X200380600Y-193700400D01*
X426110400Y-204317600D02*
X421001000Y-204317600D01*
X440232800Y-204317600D02*
X440207400Y-204343000D01*
X429991550Y-205999050D02*
X427791850Y-205999050D01*
X319865000Y-195945000D02*
X316223400Y-192303400D01*
X259771066Y-206105000D02*
X264083800Y-201792266D01*
X121437400Y-184505600D02*
X123986800Y-187055000D01*
X240721066Y-206105000D02*
X245084600Y-201741466D01*
X323481200Y-192328800D02*
X319865000Y-195945000D01*
X459282800Y-216300300D02*
X457977500Y-214995000D01*
X340258400Y-206105000D02*
X338873400Y-206105000D01*
X276250400Y-193903600D02*
X264782300Y-193903600D01*
X83445000Y-163820000D02*
X81800000Y-162175000D01*
X117195600Y-181394350D02*
X117195600Y-184505600D01*
X440232800Y-203110400D02*
X440232800Y-204317600D01*
X338873400Y-206105000D02*
X330085000Y-206105000D01*
X103866250Y-187055000D02*
X112737200Y-187055000D01*
X131507500Y-192264300D02*
X161886200Y-192264300D01*
X450514750Y-210611750D02*
X444246000Y-204343000D01*
X188759600Y-193700400D02*
X186515000Y-195945000D01*
X225933000Y-197263000D02*
X224615000Y-195945000D01*
X112696250Y-176895000D02*
X117195600Y-181394350D01*
X321183000Y-197263000D02*
X319865000Y-195945000D01*
X407342400Y-206502000D02*
X365506000Y-206502000D01*
X440207400Y-204343000D02*
X439000200Y-204343000D01*
X430097500Y-206105000D02*
X429991550Y-205999050D01*
X427791850Y-205999050D02*
X426110400Y-204317600D01*
X352487800Y-206105000D02*
X340258400Y-206105000D01*
X183571066Y-206105000D02*
X187782200Y-201893866D01*
X340283800Y-204694600D02*
X340283800Y-206079600D01*
X340283800Y-197313800D02*
X338915000Y-195945000D01*
X338915000Y-195945000D02*
X335298800Y-192328800D01*
X264083800Y-201792266D02*
X264083800Y-197313800D01*
X227901000Y-192659000D02*
X240379000Y-192659000D01*
X262715000Y-195945000D02*
X259463800Y-192693800D01*
X408977400Y-208137000D02*
X407342400Y-206502000D01*
X459282800Y-220905766D02*
X459282800Y-216300300D01*
X365506000Y-206502000D02*
X363956600Y-208051400D01*
X311035000Y-206105000D02*
X316921066Y-206105000D01*
X123986800Y-187055000D02*
X124409200Y-187055000D01*
X240379000Y-192659000D02*
X243665000Y-195945000D01*
X215785000Y-206105000D02*
X215944000Y-205946000D01*
X437238200Y-206105000D02*
X439000200Y-204343000D01*
X124409200Y-187055000D02*
X126298200Y-187055000D01*
G04 #@! TO.N,X6*
X178358800Y-187055000D02*
X187210000Y-187055000D01*
X365108750Y-195945000D02*
X361594150Y-192430400D01*
X124583000Y-197180200D02*
X118693950Y-197180200D01*
X196046600Y-185267600D02*
X194259200Y-187055000D01*
X367983750Y-193070000D02*
X365108750Y-195945000D01*
X311734200Y-182524400D02*
X311734200Y-178289200D01*
X253173800Y-187055000D02*
X253205900Y-187022900D01*
X175240000Y-124730000D02*
X176415000Y-123555000D01*
X187210000Y-187055000D02*
X194259200Y-187055000D01*
X244360000Y-187055000D02*
X240372200Y-191042800D01*
X196055900Y-185267600D02*
X196062600Y-185267600D01*
X449147500Y-206105000D02*
X455033566Y-206105000D01*
X140131800Y-185873200D02*
X138950000Y-187055000D01*
X263410000Y-187055000D02*
X270535400Y-187055000D01*
X201853800Y-185267600D02*
X196055900Y-185267600D01*
X143305000Y-124730000D02*
X143801400Y-124730000D01*
X93167200Y-189636400D02*
X111150150Y-189636400D01*
X128422400Y-193340800D02*
X124583000Y-197180200D01*
X356278750Y-206105000D02*
X362164816Y-206105000D01*
X143801400Y-124730000D02*
X175240000Y-124730000D01*
X142833600Y-190941200D02*
X164273800Y-190941200D01*
X254482600Y-182273100D02*
X254482600Y-187004200D01*
X422706300Y-193116200D02*
X419877500Y-195945000D01*
X272325400Y-185242200D02*
X272338800Y-185242200D01*
X130060000Y-187055000D02*
X138950000Y-187055000D01*
X177050000Y-187055000D02*
X178358800Y-187055000D01*
X366471200Y-201798616D02*
X366471200Y-197307450D01*
X196062600Y-185267600D02*
X197358000Y-183972200D01*
X254533400Y-187055000D02*
X263410000Y-187055000D01*
X197358000Y-183972200D02*
X197358000Y-178213000D01*
X416933566Y-206105000D02*
X421157400Y-201881166D01*
X168160000Y-187055000D02*
X177050000Y-187055000D01*
X457977500Y-195945000D02*
X455148700Y-193116200D01*
X311734200Y-182524400D02*
X311734200Y-186994800D01*
X118693950Y-197180200D02*
X117458750Y-195945000D01*
X356057200Y-192430400D02*
X352450400Y-196037200D01*
X83255000Y-161090000D02*
X81800000Y-159635000D01*
X118694200Y-201925616D02*
X118694200Y-197180450D01*
X459308200Y-201830366D02*
X459308200Y-197275700D01*
X142125000Y-123550000D02*
X143305000Y-124730000D01*
X178308000Y-182235700D02*
X178308000Y-187004200D01*
X196055900Y-185267600D02*
X196046600Y-185267600D01*
X138890000Y-176895000D02*
X140131800Y-178136800D01*
X277952200Y-185343800D02*
X272427000Y-185343800D01*
X421157400Y-201881166D02*
X421157400Y-197224900D01*
X118694200Y-197180450D02*
X117458750Y-195945000D01*
X273608800Y-183972200D02*
X273608800Y-178263800D01*
X366471200Y-197307450D02*
X365108750Y-195945000D01*
X315490948Y-187055000D02*
X311759600Y-187055000D01*
X281990800Y-189382400D02*
X277952200Y-185343800D01*
X138950000Y-187055000D02*
X138950000Y-187057600D01*
X114514816Y-206105000D02*
X118694200Y-201925616D01*
X455148700Y-193116200D02*
X422706300Y-193116200D01*
X301510000Y-187055000D02*
X293157400Y-187055000D01*
X108628750Y-206105000D02*
X114514816Y-206105000D01*
X178308000Y-187004200D02*
X178358800Y-187055000D01*
X311716800Y-187012200D02*
X311759600Y-187055000D01*
X411047500Y-206105000D02*
X416933566Y-206105000D01*
X319697948Y-191262000D02*
X315490948Y-187055000D01*
X111150150Y-189636400D02*
X117458750Y-195945000D01*
X272338800Y-185242200D02*
X273608800Y-183972200D01*
X362164816Y-206105000D02*
X366471200Y-201798616D01*
X352450400Y-196037200D02*
X342849200Y-196037200D01*
X301510000Y-187055000D02*
X311759600Y-187055000D01*
X240372200Y-191042800D02*
X207629000Y-191042800D01*
X253173800Y-187055000D02*
X254533400Y-187055000D01*
X138950000Y-187057600D02*
X142833600Y-190941200D01*
X128422400Y-193319400D02*
X128422400Y-193340800D01*
X311734200Y-186994800D02*
X311716800Y-187012200D01*
X197358000Y-178213000D02*
X196040000Y-176895000D01*
X338074000Y-191262000D02*
X319697948Y-191262000D01*
X311734200Y-182716866D02*
X311734200Y-182524400D01*
X272325400Y-185265000D02*
X270535400Y-187055000D01*
X311734200Y-178289200D02*
X310340000Y-176895000D01*
X455033566Y-206105000D02*
X459308200Y-201830366D01*
X244360000Y-187055000D02*
X253173800Y-187055000D01*
X342849200Y-196037200D02*
X338074000Y-191262000D01*
X290830000Y-189382400D02*
X281990800Y-189382400D01*
X254482600Y-187004200D02*
X254533400Y-187055000D01*
X140131800Y-178136800D02*
X140131800Y-185873200D01*
X164273800Y-190941200D02*
X168160000Y-187055000D01*
X86790000Y-161090000D02*
X83255000Y-161090000D01*
X417002500Y-193070000D02*
X367983750Y-193070000D01*
X459308200Y-197275700D02*
X457977500Y-195945000D01*
X272325400Y-185242200D02*
X272325400Y-185265000D01*
X176990000Y-176895000D02*
X178308000Y-178213000D01*
X272427000Y-185343800D02*
X272325400Y-185242200D01*
X421157400Y-197224900D02*
X419877500Y-195945000D01*
X254482600Y-178187600D02*
X253190000Y-176895000D01*
X419877500Y-195945000D02*
X417002500Y-193070000D01*
X88155000Y-162455000D02*
X86790000Y-161090000D01*
X273608800Y-178263800D02*
X272240000Y-176895000D01*
X254482600Y-182273100D02*
X254482600Y-178187600D01*
X293157400Y-187055000D02*
X290830000Y-189382400D01*
X361594150Y-192430400D02*
X356057200Y-192430400D01*
X207629000Y-191042800D02*
X201853800Y-185267600D01*
X178308000Y-178213000D02*
X178308000Y-182235700D01*
G04 #@! TO.N,X5*
X430097500Y-187055000D02*
X438924000Y-187055000D01*
X438924000Y-187055000D02*
X440182000Y-187055000D01*
X332777400Y-190382400D02*
X329450000Y-187055000D01*
X420280400Y-187055000D02*
X421182800Y-187055000D01*
X139585000Y-123550000D02*
X142638000Y-126603000D01*
X101485000Y-168005000D02*
X99679000Y-168005000D01*
X159232600Y-182818466D02*
X159232600Y-178187600D01*
X411047500Y-187055000D02*
X419924800Y-187055000D01*
X96621600Y-164947600D02*
X93187600Y-164947600D01*
X175056800Y-174396400D02*
X160438600Y-174396400D01*
X235458000Y-178213000D02*
X234140000Y-176895000D01*
X206260000Y-187055000D02*
X212146066Y-187055000D01*
X329390000Y-176895000D02*
X330708000Y-178213000D01*
X329450000Y-187055000D02*
X326275000Y-187055000D01*
X287978600Y-173583600D02*
X237451400Y-173583600D01*
X292582600Y-182818466D02*
X292582600Y-178187600D01*
X112203800Y-168005000D02*
X113270600Y-166938200D01*
X449147500Y-187055000D02*
X455033566Y-187055000D01*
X109865000Y-158452600D02*
X109865000Y-157845000D01*
X113270600Y-160800600D02*
X110315000Y-157845000D01*
X117394100Y-174350300D02*
X155395300Y-174350300D01*
X142638000Y-126603000D02*
X142810800Y-126603000D01*
X291290000Y-176895000D02*
X287978600Y-173583600D01*
X459282800Y-178200300D02*
X457977500Y-176895000D01*
X110315000Y-157845000D02*
X110315000Y-158902600D01*
X234140000Y-176895000D02*
X230828600Y-173583600D01*
X411047500Y-187055000D02*
X406992900Y-191109600D01*
X282460000Y-187055000D02*
X288346066Y-187055000D01*
X330708000Y-185810350D02*
X329463350Y-187055000D01*
X83445000Y-158740000D02*
X81800000Y-157095000D01*
X294576000Y-173609000D02*
X291290000Y-176895000D01*
X329390000Y-176895000D02*
X326104000Y-173609000D01*
X350681800Y-195173600D02*
X343585800Y-195173600D01*
X215090000Y-176895000D02*
X212591400Y-174396400D01*
X230828600Y-173583600D02*
X218401400Y-173583600D01*
X343585800Y-195173600D02*
X338794600Y-190382400D01*
X438927500Y-176895000D02*
X440182000Y-178149500D01*
X113270600Y-166938200D02*
X113270600Y-160800600D01*
X235458000Y-182793066D02*
X235458000Y-178213000D01*
X419877500Y-176895000D02*
X421182800Y-178200300D01*
X88155000Y-159915000D02*
X86980000Y-158740000D01*
X177012600Y-174396400D02*
X175056800Y-174396400D01*
X419924800Y-187055000D02*
X420280400Y-187055000D01*
X354745800Y-191109600D02*
X350681800Y-195173600D01*
X231196066Y-187055000D02*
X235458000Y-182793066D01*
X292582600Y-178187600D02*
X291290000Y-176895000D01*
X330708000Y-178213000D02*
X330708000Y-185810350D01*
X440182000Y-185267600D02*
X440182000Y-187055000D01*
X149110000Y-187055000D02*
X154996066Y-187055000D01*
X216408000Y-182793066D02*
X216408000Y-178213000D01*
X225310000Y-187055000D02*
X231196066Y-187055000D01*
X421182800Y-178200300D02*
X421182800Y-185797000D01*
X459282800Y-182805766D02*
X459282800Y-178200300D01*
X93187600Y-164947600D02*
X88155000Y-159915000D01*
X455033566Y-187055000D02*
X459282800Y-182805766D01*
X142810800Y-126603000D02*
X175907000Y-126603000D01*
X237451400Y-173583600D02*
X234140000Y-176895000D01*
X421182800Y-185797000D02*
X421182800Y-187055000D01*
X86980000Y-158740000D02*
X83445000Y-158740000D01*
X440182000Y-187055000D02*
X449147500Y-187055000D01*
X154996066Y-187055000D02*
X159232600Y-182818466D01*
X99679000Y-168005000D02*
X96621600Y-164947600D01*
X155395300Y-174350300D02*
X157940000Y-176895000D01*
X159232600Y-178187600D02*
X157940000Y-176895000D01*
X320560000Y-187055000D02*
X326275000Y-187055000D01*
X326104000Y-173609000D02*
X294576000Y-173609000D01*
X288346066Y-187055000D02*
X292582600Y-182818466D01*
X338794600Y-190382400D02*
X332777400Y-190382400D01*
X101485000Y-168005000D02*
X112203800Y-168005000D01*
X175907000Y-126603000D02*
X178955000Y-123555000D01*
X419877500Y-176895000D02*
X420280400Y-177297900D01*
X440182000Y-178149500D02*
X440182000Y-185267600D01*
X212146066Y-187055000D02*
X216408000Y-182793066D01*
X160438600Y-174396400D02*
X157940000Y-176895000D01*
X212591400Y-174396400D02*
X177012600Y-174396400D01*
X440182000Y-185267600D02*
X440182000Y-185797000D01*
X218401400Y-173583600D02*
X215090000Y-176895000D01*
X406992900Y-191109600D02*
X354745800Y-191109600D01*
X216408000Y-178213000D02*
X215090000Y-176895000D01*
X421182800Y-187055000D02*
X430097500Y-187055000D01*
X329463350Y-187055000D02*
X329450000Y-187055000D01*
G04 #@! TO.N,X4*
X161315400Y-170027600D02*
X159292800Y-168005000D01*
X305574000Y-168005000D02*
X296747500Y-168005000D01*
X273747800Y-168005000D02*
X268782800Y-168005000D01*
X350963800Y-176895000D02*
X348440000Y-176895000D01*
X211632800Y-159150300D02*
X211632800Y-161798000D01*
X229377500Y-157845000D02*
X230682800Y-159150300D01*
X154533600Y-161467800D02*
X154533600Y-164818000D01*
X374878600Y-180476400D02*
X360412600Y-180476400D01*
X326233600Y-170357800D02*
X327833800Y-168757600D01*
X455033566Y-168005000D02*
X459384400Y-163654166D01*
X438924000Y-168005000D02*
X430097500Y-168005000D01*
X314124400Y-170357800D02*
X326233600Y-170357800D01*
X360412600Y-180476400D02*
X358244200Y-178308000D01*
X268732000Y-160477200D02*
X268732000Y-161846200D01*
X88155000Y-157375000D02*
X86790000Y-156010000D01*
X230809800Y-168005000D02*
X229450200Y-168005000D01*
X306933600Y-163540600D02*
X306933600Y-163220400D01*
X192700400Y-168005000D02*
X191227200Y-169478200D01*
X113182400Y-155625800D02*
X114071400Y-154736800D01*
X306984400Y-168005000D02*
X311771600Y-168005000D01*
X306933600Y-159201100D02*
X305577500Y-157845000D01*
X211632800Y-161798000D02*
X211632800Y-167979600D01*
X230728900Y-167924100D02*
X230809800Y-168005000D01*
X191227200Y-169478200D02*
X178723800Y-169478200D01*
X305574000Y-168005000D02*
X306984400Y-168005000D01*
X258647500Y-168005000D02*
X267601000Y-168005000D01*
X440258200Y-168005000D02*
X438924000Y-168005000D01*
X349732600Y-178187600D02*
X348440000Y-176895000D01*
X268732000Y-160477200D02*
X268732000Y-167954200D01*
X449147500Y-168005000D02*
X440258200Y-168005000D01*
X211632800Y-167979600D02*
X211658200Y-168005000D01*
X154533600Y-167979600D02*
X154559000Y-168005000D01*
X327833800Y-168757600D02*
X331320200Y-168757600D01*
X358244200Y-178308000D02*
X352376800Y-178308000D01*
X335435000Y-172872400D02*
X344417400Y-172872400D01*
X230682800Y-159150300D02*
X230682800Y-167878000D01*
X137311900Y-154660600D02*
X134127500Y-157845000D01*
X97953800Y-155970000D02*
X99161600Y-154762200D01*
X106730800Y-154762200D02*
X107594400Y-155625800D01*
X344417400Y-172872400D02*
X348440000Y-176895000D01*
X172440600Y-170027600D02*
X161315400Y-170027600D01*
X345496066Y-187055000D02*
X349732600Y-182818466D01*
X352376800Y-178308000D02*
X350963800Y-176895000D01*
X305574000Y-168005000D02*
X305593400Y-167985600D01*
X449147500Y-168005000D02*
X455033566Y-168005000D01*
X154559000Y-168005000D02*
X153250200Y-168005000D01*
X311771600Y-168005000D02*
X314124400Y-170357800D01*
X440182000Y-167928800D02*
X440258200Y-168005000D01*
X174167800Y-168300400D02*
X172440600Y-170027600D01*
X86790000Y-156010000D02*
X83255000Y-156010000D01*
X220547500Y-168005000D02*
X229450200Y-168005000D01*
X230682800Y-167878000D02*
X230728900Y-167924100D01*
X459384400Y-159251900D02*
X457977500Y-157845000D01*
X339610000Y-187055000D02*
X345496066Y-187055000D01*
X144347500Y-168005000D02*
X153250200Y-168005000D01*
X154533600Y-159201100D02*
X154533600Y-161467800D01*
X83255000Y-156010000D02*
X81800000Y-154555000D01*
X250506800Y-168005000D02*
X248357200Y-170154600D01*
X154533600Y-161467800D02*
X154533600Y-167979600D01*
X238051400Y-170154600D02*
X235901800Y-168005000D01*
X331320200Y-168757600D02*
X335435000Y-172872400D01*
X135661400Y-163527166D02*
X135661400Y-159378900D01*
X258647500Y-168005000D02*
X250506800Y-168005000D01*
X125297500Y-168005000D02*
X131183566Y-168005000D01*
X267477500Y-157845000D02*
X268732000Y-159099500D01*
X306933600Y-163220400D02*
X306933600Y-167954200D01*
X248357200Y-170154600D02*
X238051400Y-170154600D01*
X440182000Y-159099500D02*
X440182000Y-161696400D01*
X268732000Y-167954200D02*
X268782800Y-168005000D01*
X220547500Y-168005000D02*
X211658200Y-168005000D01*
X211632800Y-161798000D02*
X211632800Y-164056000D01*
X288220600Y-168005000D02*
X286248800Y-169976800D01*
X114071400Y-154736800D02*
X131019300Y-154736800D01*
X88155000Y-157375000D02*
X89560000Y-155970000D01*
X210327500Y-157845000D02*
X211632800Y-159150300D01*
X131183566Y-168005000D02*
X135661400Y-163527166D01*
X306933600Y-163220400D02*
X306933600Y-159201100D01*
X438927500Y-157845000D02*
X440182000Y-159099500D01*
X89560000Y-155970000D02*
X97953800Y-155970000D01*
X459384400Y-163654166D02*
X459384400Y-159251900D01*
X235901800Y-168005000D02*
X230809800Y-168005000D01*
X178723800Y-169478200D02*
X177546000Y-168300400D01*
X306933600Y-167954200D02*
X306984400Y-168005000D01*
X268732000Y-159099500D02*
X268732000Y-160477200D01*
X201497500Y-168005000D02*
X192700400Y-168005000D01*
X440182000Y-161696400D02*
X440182000Y-167928800D01*
X296747500Y-168005000D02*
X288220600Y-168005000D01*
X131019300Y-154736800D02*
X134127500Y-157845000D01*
X425458700Y-172643800D02*
X382701800Y-172643800D01*
X382701800Y-172643800D02*
X375869200Y-179476400D01*
X153177500Y-157845000D02*
X149993100Y-154660600D01*
X210425600Y-168005000D02*
X201497500Y-168005000D01*
X135661400Y-159378900D02*
X134127500Y-157845000D01*
X159292800Y-168005000D02*
X154559000Y-168005000D01*
X375869200Y-179485800D02*
X374878600Y-180476400D01*
X153177500Y-157845000D02*
X154533600Y-159201100D01*
X349732600Y-182818466D02*
X349732600Y-178187600D01*
X268782800Y-168005000D02*
X267601000Y-168005000D01*
X211658200Y-168005000D02*
X210425600Y-168005000D01*
X286248800Y-169976800D02*
X275719600Y-169976800D01*
X440182000Y-161696400D02*
X440182000Y-165763800D01*
X375869200Y-179476400D02*
X375869200Y-179485800D01*
X430097500Y-168005000D02*
X425458700Y-172643800D01*
X275719600Y-169976800D02*
X273747800Y-168005000D01*
X99161600Y-154762200D02*
X106730800Y-154762200D01*
X107594400Y-155625800D02*
X113182400Y-155625800D01*
X149993100Y-154660600D02*
X137311900Y-154660600D01*
X177546000Y-168300400D02*
X174167800Y-168300400D01*
G04 #@! TO.N,X3*
X325983600Y-165379400D02*
X325983600Y-167979600D01*
X290143700Y-154228800D02*
X286527500Y-157845000D01*
X88155000Y-154835000D02*
X87349800Y-154835000D01*
X168128700Y-153746200D02*
X115366800Y-153746200D01*
X206095600Y-154686000D02*
X205206600Y-155575000D01*
X283438600Y-154787600D02*
X281914600Y-154787600D01*
X277393400Y-155422600D02*
X276631400Y-154660600D01*
X411047500Y-168005000D02*
X416933566Y-168005000D01*
X251611900Y-154660600D02*
X248427500Y-157845000D01*
X325983600Y-159201100D02*
X325983600Y-165379400D01*
X182447500Y-168005000D02*
X188333566Y-168005000D01*
X315797500Y-168005000D02*
X324725600Y-168005000D01*
X96722500Y-148955000D02*
X97794500Y-147883000D01*
X173583600Y-159201100D02*
X172227500Y-157845000D01*
X324627500Y-157845000D02*
X325983600Y-159201100D01*
X248427500Y-157845000D02*
X245268500Y-154686000D01*
X423366500Y-143192500D02*
X430097500Y-143192500D01*
X245483566Y-168005000D02*
X249758200Y-163730366D01*
X192633600Y-163704966D02*
X192633600Y-159201100D01*
X169283566Y-168005000D02*
X173583600Y-163704966D01*
X184404000Y-154965400D02*
X175107100Y-154965400D01*
X325958200Y-168005000D02*
X332650400Y-168005000D01*
X370506250Y-168005000D02*
X411047500Y-168005000D01*
X286527500Y-157845000D02*
X284229050Y-155546550D01*
X369871250Y-167370000D02*
X370506250Y-168005000D01*
X108153200Y-146580686D02*
X108153200Y-141395700D01*
X440182000Y-134287000D02*
X438927500Y-133032500D01*
X324627500Y-157845000D02*
X321011300Y-154228800D01*
X163397500Y-168005000D02*
X169283566Y-168005000D01*
X421132000Y-163806566D02*
X421132000Y-159099500D01*
X324725600Y-168005000D02*
X325958200Y-168005000D01*
X419877500Y-146681500D02*
X423366500Y-143192500D01*
X184429400Y-154940000D02*
X188372500Y-154940000D01*
X108153200Y-141395700D02*
X105552500Y-138795000D01*
X245268500Y-154686000D02*
X206095600Y-154686000D01*
X184429400Y-154940000D02*
X184404000Y-154965400D01*
X287832800Y-159150300D02*
X286527500Y-157845000D01*
X435983566Y-143192500D02*
X440182000Y-138994066D01*
X175107100Y-154965400D02*
X172227500Y-157845000D01*
X106850886Y-147883000D02*
X108153200Y-146580686D01*
X325983600Y-167979600D02*
X325958200Y-168005000D01*
X371170200Y-173287116D02*
X371170200Y-168668950D01*
X239597500Y-168005000D02*
X245483566Y-168005000D01*
X353475800Y-177530000D02*
X361041250Y-177530000D01*
X192633600Y-159201100D02*
X191277500Y-157845000D01*
X277697500Y-168005000D02*
X283583566Y-168005000D01*
X249758200Y-159175700D02*
X248427500Y-157845000D01*
X281355800Y-155346400D02*
X281355800Y-155422600D01*
X276631400Y-154660600D02*
X251611900Y-154660600D01*
X96709800Y-154797000D02*
X96671800Y-154835000D01*
X366927316Y-177530000D02*
X371170200Y-173287116D01*
X191354200Y-157845000D02*
X191277500Y-157845000D01*
X421132000Y-159099500D02*
X419877500Y-157845000D01*
X172227500Y-157845000D02*
X168128700Y-153746200D01*
X332650400Y-168005000D02*
X336120800Y-171475400D01*
X83255000Y-153470000D02*
X81800000Y-152015000D01*
X283583566Y-168005000D02*
X287832800Y-163755766D01*
X416933566Y-168005000D02*
X421132000Y-163806566D01*
X205206600Y-155575000D02*
X193624200Y-155575000D01*
X336120800Y-171475400D02*
X347421200Y-171475400D01*
X430097500Y-143192500D02*
X435983566Y-143192500D01*
X419877500Y-157845000D02*
X419877500Y-146681500D01*
X321011300Y-154228800D02*
X290143700Y-154228800D01*
X249758200Y-163730366D02*
X249758200Y-159175700D01*
X188372500Y-154940000D02*
X191277500Y-157845000D01*
X315797500Y-168005000D02*
X315829500Y-167973000D01*
X97794500Y-147883000D02*
X106850886Y-147883000D01*
X188333566Y-168005000D02*
X192633600Y-163704966D01*
X281355800Y-155422600D02*
X277393400Y-155422600D01*
X325983600Y-165379400D02*
X325983600Y-166747000D01*
X87349800Y-154835000D02*
X85984800Y-153470000D01*
X284229050Y-155546550D02*
X284197550Y-155546550D01*
X371170200Y-168668950D02*
X369871250Y-167370000D01*
X193624200Y-155575000D02*
X191354200Y-157845000D01*
X85984800Y-153470000D02*
X83255000Y-153470000D01*
X361041250Y-177530000D02*
X366927316Y-177530000D01*
X281914600Y-154787600D02*
X281355800Y-155346400D01*
X284197550Y-155546550D02*
X283438600Y-154787600D01*
X287832800Y-163755766D02*
X287832800Y-159150300D01*
X440182000Y-138994066D02*
X440182000Y-134287000D01*
X347421200Y-171475400D02*
X353475800Y-177530000D01*
X173583600Y-163704966D02*
X173583600Y-159201100D01*
X96671800Y-154835000D02*
X88155000Y-154835000D01*
G04 #@! TO.N,X2*
X100753800Y-148725000D02*
X100711000Y-148767800D01*
X286648400Y-151342600D02*
X294748400Y-151342600D01*
X240207800Y-140100300D02*
X240207800Y-145135600D01*
X343677500Y-157845000D02*
X349901000Y-157845000D01*
X182638000Y-148955000D02*
X186575000Y-148955000D01*
X240207800Y-145135600D02*
X240207800Y-148878800D01*
X100711000Y-152295000D02*
X88155000Y-152295000D01*
X88155000Y-152295000D02*
X87305000Y-151445000D01*
X449147500Y-124142500D02*
X455033566Y-124142500D01*
X202133200Y-140125700D02*
X202133200Y-144957800D01*
X339346800Y-153514300D02*
X325678100Y-153514300D01*
X144983200Y-148955000D02*
X153872500Y-148955000D01*
X143750600Y-148955000D02*
X144983200Y-148955000D01*
X397395000Y-156845000D02*
X395224000Y-156845000D01*
X268172500Y-148955000D02*
X275437600Y-148955000D01*
X316382400Y-143941800D02*
X316382400Y-140074900D01*
X278257000Y-147167600D02*
X278333200Y-147243800D01*
X344957400Y-163781166D02*
X344957400Y-159124900D01*
X278257000Y-144471200D02*
X278257000Y-147167600D01*
X210372200Y-151342600D02*
X206146400Y-147116800D01*
X237943800Y-148955000D02*
X238988600Y-148955000D01*
X277151400Y-147243800D02*
X277148800Y-147243800D01*
X114173000Y-150596600D02*
X112301400Y-148725000D01*
X162749800Y-148955000D02*
X163957000Y-148955000D01*
X349901000Y-157845000D02*
X350901000Y-156845000D01*
X344957400Y-159124900D02*
X343677500Y-157845000D01*
X240284000Y-148955000D02*
X245779800Y-148955000D01*
X455033566Y-124142500D02*
X459232000Y-119944066D01*
X238902500Y-138795000D02*
X240207800Y-140100300D01*
X126355600Y-148955000D02*
X124714000Y-150596600D01*
X430097500Y-124142500D02*
X397395000Y-156845000D01*
X438927500Y-113982500D02*
X440207400Y-115262400D01*
X112301400Y-148725000D02*
X100753800Y-148725000D01*
X449147500Y-124142500D02*
X440283600Y-124142500D01*
X440207400Y-118999000D02*
X440207400Y-122935300D01*
X297136000Y-148955000D02*
X306272500Y-148955000D01*
X145008600Y-148929600D02*
X144983200Y-148955000D01*
X240207800Y-145135600D02*
X240207800Y-145268600D01*
X440207400Y-124066300D02*
X440283600Y-124142500D01*
X220529600Y-148955000D02*
X218142000Y-151342600D01*
X277148800Y-147243800D02*
X275437600Y-148955000D01*
X334847500Y-168005000D02*
X340733566Y-168005000D01*
X83255000Y-150930000D02*
X81800000Y-149475000D01*
X343677500Y-157845000D02*
X339346800Y-153514300D01*
X248269000Y-151444200D02*
X257288600Y-151444200D01*
X124714000Y-150596600D02*
X114173000Y-150596600D01*
X277151400Y-147243800D02*
X278333200Y-147243800D01*
X315099000Y-148955000D02*
X316407800Y-148955000D01*
X350901000Y-156845000D02*
X395224000Y-156845000D01*
X199009000Y-148955000D02*
X191972500Y-148955000D01*
X316382400Y-148929600D02*
X316407800Y-148955000D01*
X245779800Y-148955000D02*
X246164100Y-149339300D01*
X202133200Y-147116800D02*
X200818400Y-147116800D01*
X200802500Y-138795000D02*
X202133200Y-140125700D01*
X134822500Y-148955000D02*
X143750600Y-148955000D01*
X162702500Y-138795000D02*
X163957000Y-140049500D01*
X278257000Y-144471200D02*
X278257000Y-140049500D01*
X238988600Y-148955000D02*
X240284000Y-148955000D01*
X145008600Y-140151100D02*
X145008600Y-145161000D01*
X459232000Y-119944066D02*
X459232000Y-115237000D01*
X259777800Y-148955000D02*
X268172500Y-148955000D01*
X143652500Y-138795000D02*
X145008600Y-140151100D01*
X315099000Y-148955000D02*
X315118400Y-148935600D01*
X200849800Y-138842300D02*
X200802500Y-138795000D01*
X321118800Y-148955000D02*
X325678100Y-153514300D01*
X206146400Y-147116800D02*
X202133200Y-147116800D01*
X278333200Y-147243800D02*
X282549600Y-147243800D01*
X316382400Y-140074900D02*
X315102500Y-138795000D01*
X316407800Y-148955000D02*
X321118800Y-148955000D01*
X237943800Y-148955000D02*
X230072500Y-148955000D01*
X143668400Y-138810900D02*
X143652500Y-138795000D01*
X316382400Y-143941800D02*
X316382400Y-148929600D01*
X86449000Y-151445000D02*
X85934000Y-150930000D01*
X202133200Y-144957800D02*
X202133200Y-145802000D01*
X316382400Y-144135000D02*
X316382400Y-143941800D01*
X278257000Y-140049500D02*
X277002500Y-138795000D01*
X294748400Y-151342600D02*
X297136000Y-148955000D01*
X459232000Y-115237000D02*
X457977500Y-113982500D01*
X134822500Y-148955000D02*
X126355600Y-148955000D01*
X202133200Y-144957800D02*
X202133200Y-147116800D01*
X306272500Y-148955000D02*
X315099000Y-148955000D01*
X153872500Y-148955000D02*
X162749800Y-148955000D01*
X440207400Y-115262400D02*
X440207400Y-118999000D01*
X230072500Y-148955000D02*
X220529600Y-148955000D01*
X439000200Y-124142500D02*
X430097500Y-124142500D01*
X171611800Y-151444200D02*
X180148800Y-151444200D01*
X145008600Y-145161000D02*
X145008600Y-148929600D01*
X87305000Y-151445000D02*
X86449000Y-151445000D01*
X163957000Y-144780000D02*
X163957000Y-148955000D01*
X340733566Y-168005000D02*
X344957400Y-163781166D01*
X169122600Y-148955000D02*
X171611800Y-151444200D01*
X440283600Y-124142500D02*
X439000200Y-124142500D01*
X162718400Y-138810900D02*
X162702500Y-138795000D01*
X440207400Y-118999000D02*
X440207400Y-124066300D01*
X186575000Y-148955000D02*
X191972500Y-148955000D01*
X85934000Y-150930000D02*
X83255000Y-150930000D01*
X180148800Y-151444200D02*
X182638000Y-148955000D01*
X163957000Y-140049500D02*
X163957000Y-144780000D01*
X145008600Y-145161000D02*
X145008600Y-147697000D01*
X218142000Y-151342600D02*
X210372200Y-151342600D01*
X200818400Y-147116800D02*
X200818400Y-147145600D01*
X163957000Y-148955000D02*
X169122600Y-148955000D01*
X246164100Y-149339300D02*
X248269000Y-151444200D01*
X163957000Y-144780000D02*
X163957000Y-147747800D01*
X282549600Y-147243800D02*
X286648400Y-151342600D01*
X257288600Y-151444200D02*
X259777800Y-148955000D01*
X200818400Y-147145600D02*
X199009000Y-148955000D01*
X240207800Y-148878800D02*
X240284000Y-148955000D01*
G04 #@! TO.N,X1*
X183032400Y-140074900D02*
X181752500Y-138795000D01*
X88155000Y-149755000D02*
X86790000Y-148390000D01*
X125857000Y-144756566D02*
X125857000Y-140049500D01*
X416933566Y-124142500D02*
X421284400Y-119791666D01*
X178808566Y-148955000D02*
X183032400Y-144731166D01*
X121214900Y-135407400D02*
X124602500Y-138795000D01*
X181752500Y-138795000D02*
X177993300Y-135035800D01*
X344372500Y-148955000D02*
X350258566Y-148955000D01*
X259232400Y-140074900D02*
X257952500Y-138795000D01*
X338064100Y-134883400D02*
X334152500Y-138795000D01*
X421284400Y-115389400D02*
X419877500Y-113982500D01*
X94636400Y-135407400D02*
X121214900Y-135407400D01*
X411797500Y-124142500D02*
X393293600Y-124142500D01*
X353202500Y-138795000D02*
X349290900Y-134883400D01*
X216042500Y-134985000D02*
X219852500Y-138795000D01*
X292090100Y-134832600D02*
X296052500Y-138795000D01*
X249122500Y-148955000D02*
X255008566Y-148955000D01*
X177993300Y-135035800D02*
X128361700Y-135035800D01*
X297484800Y-140227300D02*
X296052500Y-138795000D01*
X221107000Y-140049500D02*
X219852500Y-138795000D01*
X90102500Y-147807500D02*
X90102500Y-139941300D01*
X353202500Y-138795000D02*
X367855000Y-124142500D01*
X430097500Y-105092500D02*
X424091100Y-105092500D01*
X88155000Y-149755000D02*
X90102500Y-147807500D01*
X261914900Y-134832600D02*
X292090100Y-134832600D01*
X223764100Y-134883400D02*
X219852500Y-138795000D01*
X334152500Y-138795000D02*
X330393300Y-135035800D01*
X335381600Y-140024100D02*
X334152500Y-138795000D01*
X440131200Y-100944866D02*
X440131200Y-96136200D01*
X172922500Y-148955000D02*
X178808566Y-148955000D01*
X216908566Y-148955000D02*
X221107000Y-144756566D01*
X424091100Y-105092500D02*
X419877500Y-109306100D01*
X440131200Y-96136200D02*
X438927500Y-94932500D01*
X354457000Y-140049500D02*
X353202500Y-138795000D01*
X259232400Y-144731166D02*
X259232400Y-140074900D01*
X221107000Y-144756566D02*
X221107000Y-140049500D01*
X299811700Y-135035800D02*
X296052500Y-138795000D01*
X115772500Y-148955000D02*
X121658566Y-148955000D01*
X349290900Y-134883400D02*
X338064100Y-134883400D01*
X297484800Y-144578766D02*
X297484800Y-140227300D01*
X354457000Y-144756566D02*
X354457000Y-140049500D01*
X90102500Y-139941300D02*
X94636400Y-135407400D01*
X330393300Y-135035800D02*
X299811700Y-135035800D01*
X411047500Y-124142500D02*
X416933566Y-124142500D01*
X121658566Y-148955000D02*
X125857000Y-144756566D01*
X421284400Y-119791666D02*
X421284400Y-115389400D01*
X325322500Y-148955000D02*
X331208566Y-148955000D01*
X287222500Y-148955000D02*
X293108566Y-148955000D01*
X331208566Y-148955000D02*
X335381600Y-144781966D01*
X125857000Y-140049500D02*
X124602500Y-138795000D01*
X419877500Y-109306100D02*
X419877500Y-113982500D01*
X293108566Y-148955000D02*
X297484800Y-144578766D01*
X185562500Y-134985000D02*
X181752500Y-138795000D01*
X189115000Y-134985000D02*
X185562500Y-134985000D01*
X254040900Y-134883400D02*
X223764100Y-134883400D01*
X393293600Y-124142500D02*
X367605000Y-124142500D01*
X435983566Y-105092500D02*
X440131200Y-100944866D01*
X257952500Y-138795000D02*
X261914900Y-134832600D01*
X367855000Y-124142500D02*
X393293600Y-124142500D01*
X183032400Y-144731166D02*
X183032400Y-140074900D01*
X86790000Y-148390000D02*
X83255000Y-148390000D01*
X350258566Y-148955000D02*
X354457000Y-144756566D01*
X430097500Y-105092500D02*
X435983566Y-105092500D01*
X128361700Y-135035800D02*
X124602500Y-138795000D01*
X335381600Y-144781966D02*
X335381600Y-140024100D01*
X83255000Y-148390000D02*
X81800000Y-146935000D01*
X211022500Y-148955000D02*
X216908566Y-148955000D01*
X257952500Y-138795000D02*
X254040900Y-134883400D01*
X255008566Y-148955000D02*
X259232400Y-144731166D01*
X189115000Y-134985000D02*
X216042500Y-134985000D01*
G04 #@! TO.N,Y1*
X444957200Y-206171800D02*
X439039000Y-206171800D01*
X178511200Y-221208600D02*
X168783000Y-211480400D01*
X151688800Y-211429600D02*
X148869400Y-214249000D01*
X443800800Y-169960800D02*
X443750000Y-169910000D01*
X168783000Y-211480400D02*
X151739600Y-211480400D01*
X99822000Y-201574400D02*
X96697800Y-201574400D01*
X443750000Y-227210000D02*
X443750000Y-226094800D01*
X85615000Y-190491600D02*
X85615000Y-187563000D01*
X443800800Y-189160800D02*
X443750000Y-189110000D01*
X424688000Y-108788200D02*
X424688000Y-107477000D01*
X81800000Y-187575000D02*
X85603000Y-187575000D01*
X257200400Y-229946200D02*
X193751200Y-229946200D01*
X443800800Y-171450000D02*
X443800800Y-170110800D01*
X443750000Y-226094800D02*
X443699200Y-226044000D01*
X444982600Y-206197200D02*
X444950400Y-206165000D01*
X443750000Y-126515000D02*
X443750000Y-127584200D01*
X437235600Y-207975200D02*
X420938200Y-207975200D01*
X185013600Y-221208600D02*
X178511200Y-221208600D01*
X424688000Y-108788200D02*
X424700000Y-108776200D01*
X443750000Y-137783000D02*
X443750000Y-127584200D01*
X444950400Y-206165000D02*
X443750000Y-206165000D01*
X296354500Y-216750900D02*
X270395700Y-216750900D01*
X302361600Y-210743800D02*
X296354500Y-216750900D01*
X443800800Y-189010800D02*
X443750000Y-188960000D01*
X443800800Y-190423800D02*
X443800800Y-189160800D01*
X302421800Y-210804000D02*
X302361600Y-210743800D01*
X443800800Y-170110800D02*
X443750000Y-170060000D01*
X148869400Y-214249000D02*
X112496600Y-214249000D01*
X420938200Y-207975200D02*
X418109400Y-210804000D01*
X418109400Y-210804000D02*
X302421800Y-210804000D01*
X193751200Y-229946200D02*
X185013600Y-221208600D01*
X435968000Y-145565000D02*
X443750000Y-137783000D01*
X85603000Y-187575000D02*
X85615000Y-187563000D01*
X444982600Y-206197200D02*
X444957200Y-206171800D01*
X439039000Y-206171800D02*
X437235600Y-207975200D01*
X96697800Y-201574400D02*
X85615000Y-190491600D01*
X112496600Y-214249000D02*
X99822000Y-201574400D01*
X151739600Y-211480400D02*
X151688800Y-211429600D01*
X424700000Y-145565000D02*
X435968000Y-145565000D01*
X443750000Y-227210000D02*
X424700000Y-227210000D01*
X270395700Y-216750900D02*
X257200400Y-229946200D01*
X424688000Y-107477000D02*
X424700000Y-107465000D01*
G04 #@! TO.N,Net-(J1-Pin_2)*
X118884000Y-118094000D02*
X110121000Y-118094000D01*
X188734000Y-118094000D02*
X159752600Y-118094000D01*
X123125800Y-122335800D02*
X118884000Y-118094000D01*
X155510800Y-122335800D02*
X123125800Y-122335800D01*
X110121000Y-118094000D02*
X104660000Y-123555000D01*
X191655000Y-121015000D02*
X188734000Y-118094000D01*
X159752600Y-118094000D02*
X155510800Y-122335800D01*
G04 #@! TO.N,Net-(J1-Pin_1)*
X103872600Y-131962400D02*
X96205800Y-131962400D01*
X88155000Y-140013200D02*
X88155000Y-147215000D01*
X96205800Y-131962400D02*
X88155000Y-140013200D01*
X112280000Y-123555000D02*
X103872600Y-131962400D01*
G04 #@! TO.N,Net-(SW901-A)*
X168859200Y-220816866D02*
X168859200Y-216389200D01*
X168859200Y-216389200D02*
X167465000Y-214995000D01*
X164521066Y-225155000D02*
X168859200Y-220816866D01*
X158635000Y-225155000D02*
X164521066Y-225155000D01*
G04 #@! TO.N,Net-(D0-A)*
X424700000Y-102434700D02*
X425077500Y-102057200D01*
X424700000Y-104015000D02*
X424700000Y-102434700D01*
X425077500Y-102057200D02*
X425077500Y-97472500D01*
X425932600Y-103865000D02*
X424700000Y-103865000D01*
X424700000Y-103865000D02*
X424700000Y-102434700D01*
X436447500Y-102552500D02*
X435545800Y-103454200D01*
X426343400Y-103454200D02*
X425932600Y-103865000D01*
X435545800Y-103454200D02*
X426343400Y-103454200D01*
G04 #@! TO.N,Net-(D1-A)*
X443750000Y-123065000D02*
X443750000Y-121535500D01*
X454468800Y-122631200D02*
X445616900Y-122631200D01*
X445333100Y-122915000D02*
X443750000Y-122915000D01*
X443750000Y-123065000D02*
X443852600Y-122962400D01*
X445616900Y-122631200D02*
X445333100Y-122915000D01*
X455497500Y-121602500D02*
X454468800Y-122631200D01*
X443750000Y-121535500D02*
X444127500Y-121158000D01*
X443750000Y-122915000D02*
X443750000Y-121535500D01*
X444127500Y-121158000D02*
X444127500Y-116522500D01*
G04 #@! TO.N,Net-(D2-A)*
X425077500Y-140258800D02*
X425077500Y-135572500D01*
X436447500Y-140652500D02*
X435418800Y-141681200D01*
X426795500Y-141681200D02*
X426511700Y-141965000D01*
X424700000Y-142115000D02*
X424700000Y-140636300D01*
X435418800Y-141681200D02*
X426795500Y-141681200D01*
X424700000Y-140636300D02*
X425077500Y-140258800D01*
X426511700Y-141965000D02*
X424700000Y-141965000D01*
X424700000Y-141965000D02*
X424700000Y-140636300D01*
G04 #@! TO.N,Net-(D3-A)*
X443750000Y-166610000D02*
X443750000Y-165283700D01*
X443750000Y-165283700D02*
X444127500Y-164906200D01*
X444127500Y-164906200D02*
X444127500Y-160385000D01*
X443750000Y-166460000D02*
X454502500Y-166460000D01*
X454502500Y-166460000D02*
X455497500Y-165465000D01*
X443750000Y-166460000D02*
X443750000Y-165283700D01*
G04 #@! TO.N,Net-(D4-A)*
X443750000Y-184384500D02*
X444127500Y-184007000D01*
X443750000Y-185660000D02*
X443750000Y-184384500D01*
X444127500Y-184007000D02*
X444127500Y-179435000D01*
X454502500Y-185510000D02*
X455497500Y-184515000D01*
X443750000Y-185510000D02*
X454502500Y-185510000D01*
X443750000Y-185660000D02*
X443839900Y-185570100D01*
X443750000Y-185510000D02*
X443750000Y-184384500D01*
G04 #@! TO.N,Net-(D5-A)*
X448564000Y-204495400D02*
X454567100Y-204495400D01*
X444127500Y-198485000D02*
X444127500Y-200634600D01*
X454567100Y-204495400D02*
X455497500Y-203565000D01*
X443750000Y-202565000D02*
X443750000Y-201012100D01*
X443750000Y-201012100D02*
X444127500Y-200634600D01*
X448056000Y-204495400D02*
X448564000Y-204495400D01*
X443750000Y-202565000D02*
X446024000Y-202565000D01*
X447024000Y-203565000D02*
X446659000Y-203200000D01*
X446024000Y-202565000D02*
X447024000Y-203565000D01*
X447954400Y-204495400D02*
X446024000Y-202565000D01*
X448564000Y-204495400D02*
X447954400Y-204495400D01*
G04 #@! TO.N,Net-(D6-A)*
X443750000Y-223610000D02*
X454502500Y-223610000D01*
X443750000Y-222281300D02*
X444127500Y-221903800D01*
X444127500Y-217535000D02*
X444127500Y-221903800D01*
X443750000Y-223610000D02*
X443750000Y-222281300D01*
X454502500Y-223610000D02*
X455497500Y-222615000D01*
X443750000Y-223760000D02*
X443827200Y-223682800D01*
X443750000Y-223760000D02*
X443750000Y-222281300D01*
G04 #@! TO.N,Net-(D7-A)*
X425077500Y-217535000D02*
X425077500Y-221776800D01*
X424700000Y-222154300D02*
X425077500Y-221776800D01*
X435466300Y-223596200D02*
X436447500Y-222615000D01*
X432587400Y-223596200D02*
X435466300Y-223596200D01*
X432573600Y-223610000D02*
X432587400Y-223596200D01*
X424700000Y-223610000D02*
X432573600Y-223610000D01*
X424700000Y-223610000D02*
X424700000Y-222154300D01*
X424700000Y-223760000D02*
X424700000Y-222154300D01*
G04 #@! TO.N,Net-(D8-A)*
X408253500Y-122478800D02*
X407817300Y-122915000D01*
X406027500Y-121158000D02*
X406027500Y-116522500D01*
X407817300Y-122915000D02*
X405650000Y-122915000D01*
X417397500Y-121602500D02*
X416521200Y-122478800D01*
X405650000Y-121535500D02*
X406027500Y-121158000D01*
X405650000Y-123065000D02*
X405650000Y-121535500D01*
X405650000Y-122915000D02*
X405650000Y-121535500D01*
X416521200Y-122478800D02*
X408253500Y-122478800D01*
G04 #@! TO.N,Net-(D9-A)*
X426435500Y-122915000D02*
X426795500Y-122555000D01*
X424700000Y-121408500D02*
X425077500Y-121031000D01*
X424700000Y-123065000D02*
X424700000Y-121408500D01*
X424700000Y-122915000D02*
X426435500Y-122915000D01*
X435495000Y-122555000D02*
X436447500Y-121602500D01*
X425077500Y-121031000D02*
X425077500Y-116522500D01*
X426795500Y-122555000D02*
X435495000Y-122555000D01*
X424700000Y-122915000D02*
X424700000Y-121408500D01*
G04 #@! TO.N,Net-(D10-A)*
X405650000Y-166610000D02*
X405650000Y-165410700D01*
X416402500Y-166460000D02*
X417397500Y-165465000D01*
X405650000Y-166460000D02*
X405650000Y-165410700D01*
X405650000Y-165410700D02*
X406027500Y-165033200D01*
X405650000Y-166460000D02*
X416402500Y-166460000D01*
X406027500Y-165033200D02*
X406027500Y-160385000D01*
G04 #@! TO.N,Net-(D11-A)*
X424700000Y-166460000D02*
X435452500Y-166460000D01*
X424700000Y-166610000D02*
X424789900Y-166520100D01*
X425077500Y-164880800D02*
X425077500Y-160385000D01*
X424700000Y-166460000D02*
X424700000Y-165258300D01*
X424700000Y-165258300D02*
X425077500Y-164880800D01*
X424700000Y-166610000D02*
X424700000Y-165258300D01*
X435452500Y-166460000D02*
X436447500Y-165465000D01*
G04 #@! TO.N,Net-(D12-A)*
X429451600Y-185510000D02*
X429463200Y-185521600D01*
X435440900Y-185521600D02*
X436447500Y-184515000D01*
X424700000Y-185510000D02*
X429451600Y-185510000D01*
X425077500Y-183727600D02*
X425077500Y-179435000D01*
X424700000Y-184105100D02*
X425077500Y-183727600D01*
X424700000Y-185510000D02*
X424700000Y-184105100D01*
X424700000Y-185660000D02*
X424700000Y-184105100D01*
X429463200Y-185521600D02*
X435440900Y-185521600D01*
G04 #@! TO.N,Net-(D13-A)*
X406027500Y-202930000D02*
X406027500Y-198485000D01*
X405650000Y-204560000D02*
X416402500Y-204560000D01*
X416402500Y-204560000D02*
X417397500Y-203565000D01*
X405650000Y-204710000D02*
X405739900Y-204620100D01*
X405650000Y-204560000D02*
X405650000Y-203307500D01*
X405650000Y-203307500D02*
X406027500Y-202930000D01*
X405650000Y-204710000D02*
X405650000Y-203307500D01*
G04 #@! TO.N,Net-(D14-A)*
X427103600Y-202565000D02*
X429034000Y-204495400D01*
X424700000Y-202565000D02*
X427103600Y-202565000D01*
X424700000Y-202565000D02*
X424700000Y-198862500D01*
X429034000Y-204495400D02*
X435517100Y-204495400D01*
X424700000Y-198862500D02*
X425077500Y-198485000D01*
X435517100Y-204495400D02*
X436447500Y-203565000D01*
G04 #@! TO.N,Net-(D15-A)*
X405650000Y-223610000D02*
X405650000Y-222281300D01*
X416416300Y-223596200D02*
X417397500Y-222615000D01*
X405850150Y-222081150D02*
X406027500Y-221903800D01*
X412521400Y-223596200D02*
X416416300Y-223596200D01*
X406027500Y-217535000D02*
X406027500Y-221903800D01*
X405650000Y-223760000D02*
X405752600Y-223657400D01*
X405650000Y-222281300D02*
X405850150Y-222081150D01*
X405650000Y-223610000D02*
X412507600Y-223610000D01*
X412507600Y-223610000D02*
X412521400Y-223596200D01*
X405752600Y-222178700D02*
X405850150Y-222081150D01*
G04 #@! TO.N,Net-(D16-A)*
X349715900Y-147421600D02*
X350722500Y-146415000D01*
X341917000Y-147410000D02*
X341928600Y-147421600D01*
X338975000Y-147560000D02*
X338975000Y-146182900D01*
X338975000Y-146182900D02*
X339352500Y-145805400D01*
X338975000Y-147410000D02*
X338975000Y-146182900D01*
X339352500Y-145805400D02*
X339352500Y-141335000D01*
X338975000Y-147410000D02*
X341917000Y-147410000D01*
X341928600Y-147421600D02*
X349715900Y-147421600D01*
G04 #@! TO.N,Net-(D17-A)*
X329450000Y-166610000D02*
X329539900Y-166520100D01*
X329827500Y-164757300D02*
X329827500Y-160385000D01*
X329539900Y-165044900D02*
X329664600Y-164920200D01*
X329450000Y-166460000D02*
X340202500Y-166460000D01*
X329664600Y-164920200D02*
X329827500Y-164757300D01*
X340202500Y-166460000D02*
X341197500Y-165465000D01*
X329450000Y-165134800D02*
X329664600Y-164920200D01*
X329450000Y-166460000D02*
X329450000Y-165134800D01*
G04 #@! TO.N,Net-(D18-A)*
X356120000Y-174574200D02*
X356120000Y-173920350D01*
X356120000Y-176135000D02*
X356222600Y-176032400D01*
X356120000Y-176135000D02*
X356120000Y-174574200D01*
X356120000Y-175985000D02*
X356120000Y-174574200D01*
X356021250Y-169910000D02*
X356021250Y-173821600D01*
X356120000Y-173920350D02*
X356021250Y-173821600D01*
X356120000Y-175985000D02*
X366396250Y-175985000D01*
X366396250Y-175985000D02*
X367391250Y-174990000D01*
X356021250Y-176036250D02*
X356120000Y-176135000D01*
G04 #@! TO.N,Net-(D19-A)*
X343941400Y-185470800D02*
X345004200Y-185470800D01*
X334530000Y-185510000D02*
X343902200Y-185510000D01*
X345004200Y-185470800D02*
X345960000Y-184515000D01*
X343902200Y-185510000D02*
X343941400Y-185470800D01*
X334530000Y-179495000D02*
X334590000Y-179435000D01*
X334590000Y-185600000D02*
X334530000Y-185660000D01*
X334530000Y-185510000D02*
X334530000Y-179495000D01*
G04 #@! TO.N,Net-(D20-A)*
X405650000Y-184384500D02*
X406027500Y-184007000D01*
X405650000Y-185510000D02*
X405650000Y-184384500D01*
X405650000Y-185510000D02*
X408109400Y-185510000D01*
X406027500Y-184007000D02*
X406027500Y-179435000D01*
X416390900Y-185521600D02*
X417397500Y-184515000D01*
X408109400Y-185510000D02*
X408121000Y-185521600D01*
X405650000Y-185660000D02*
X405650000Y-184384500D01*
X408121000Y-185521600D02*
X416390900Y-185521600D01*
G04 #@! TO.N,Net-(D21-A)*
X103608750Y-198485000D02*
X103608750Y-201601950D01*
X362628750Y-203565000D02*
X361672950Y-204520800D01*
X332638400Y-233375200D02*
X290550600Y-233375200D01*
X351258750Y-201192950D02*
X351258750Y-198485000D01*
X103608750Y-198485000D02*
X99965000Y-198485000D01*
X103608750Y-198637400D02*
X103390000Y-198856150D01*
X361672950Y-204520800D02*
X354586600Y-204520800D01*
X286156400Y-228981000D02*
X270230600Y-228981000D01*
X354586600Y-204520800D02*
X351258750Y-201192950D01*
X103608750Y-201601950D02*
X106426000Y-204419200D01*
X99965000Y-198485000D02*
X99060000Y-199390000D01*
X106426000Y-204419200D02*
X114124550Y-204419200D01*
X270230600Y-228981000D02*
X265836400Y-233375200D01*
X265836400Y-233375200D02*
X140893800Y-233375200D01*
X103608750Y-198485000D02*
X103608750Y-198637400D01*
X114124550Y-204419200D02*
X114978750Y-203565000D01*
X290550600Y-233375200D02*
X286156400Y-228981000D01*
G04 #@! TO.N,Net-(D22-A)*
X329262800Y-204470000D02*
X335530000Y-204470000D01*
X335530000Y-204470000D02*
X336435000Y-203565000D01*
X325005000Y-203200000D02*
X325005000Y-198545000D01*
X327992800Y-203200000D02*
X329262800Y-204470000D01*
X325005000Y-198545000D02*
X325065000Y-198485000D01*
X325005000Y-203200000D02*
X327992800Y-203200000D01*
G04 #@! TO.N,Net-(D23-A)*
X335305400Y-223570800D02*
X335479200Y-223570800D01*
X325005000Y-223610000D02*
X335266200Y-223610000D01*
X325065000Y-223700000D02*
X325005000Y-223760000D01*
X335266200Y-223610000D02*
X335305400Y-223570800D01*
X325005000Y-223610000D02*
X325005000Y-217595000D01*
X325005000Y-217595000D02*
X325065000Y-217535000D01*
X335479200Y-223570800D02*
X336435000Y-222615000D01*
G04 #@! TO.N,Net-(D24-A)*
X320302500Y-145729200D02*
X320302500Y-141335000D01*
X330665900Y-147421600D02*
X331672500Y-146415000D01*
X319925000Y-147560000D02*
X319925000Y-146106700D01*
X319925000Y-147410000D02*
X319925000Y-146106700D01*
X319925000Y-147410000D02*
X322994000Y-147410000D01*
X322994000Y-147410000D02*
X323005600Y-147421600D01*
X323005600Y-147421600D02*
X330665900Y-147421600D01*
X319925000Y-146106700D02*
X320302500Y-145729200D01*
G04 #@! TO.N,Net-(D25-A)*
X301252500Y-141335000D02*
X301252500Y-145754600D01*
X301049750Y-145957350D02*
X301252500Y-145754600D01*
X312622500Y-146415000D02*
X311641300Y-147396200D01*
X300875000Y-147410000D02*
X300875000Y-146132100D01*
X303493000Y-147396200D02*
X303479200Y-147410000D01*
X303479200Y-147410000D02*
X300875000Y-147410000D01*
X311641300Y-147396200D02*
X303493000Y-147396200D01*
X300875000Y-147560000D02*
X300939500Y-147495500D01*
X300939500Y-146067600D02*
X301049750Y-145957350D01*
X300875000Y-146132100D02*
X301049750Y-145957350D01*
G04 #@! TO.N,Net-(D26-A)*
X321129300Y-166460000D02*
X321140900Y-166471600D01*
X310400000Y-166610000D02*
X310489900Y-166520100D01*
X310600150Y-164829550D02*
X310777500Y-164652200D01*
X310400000Y-166460000D02*
X310400000Y-165029700D01*
X310489900Y-164939800D02*
X310600150Y-164829550D01*
X310400000Y-165029700D02*
X310600150Y-164829550D01*
X310400000Y-166460000D02*
X321129300Y-166460000D01*
X310777500Y-160385000D02*
X310777500Y-164652200D01*
X321140900Y-166471600D02*
X322147500Y-165465000D01*
G04 #@! TO.N,Net-(D27-A)*
X291350000Y-166460000D02*
X291350000Y-165131300D01*
X291350000Y-166610000D02*
X291350000Y-165131300D01*
X291350000Y-165131300D02*
X291727500Y-164753800D01*
X291350000Y-166610000D02*
X291439900Y-166520100D01*
X291727500Y-164753800D02*
X291727500Y-160385000D01*
X302102500Y-166460000D02*
X303097500Y-165465000D01*
X291350000Y-166460000D02*
X302102500Y-166460000D01*
G04 #@! TO.N,Net-(D28-A)*
X325792000Y-185510000D02*
X325831200Y-185470800D01*
X315480000Y-179495000D02*
X315540000Y-179435000D01*
X325954200Y-185470800D02*
X326910000Y-184515000D01*
X315480000Y-185510000D02*
X325792000Y-185510000D01*
X315480000Y-185510000D02*
X315480000Y-179495000D01*
X325831200Y-185470800D02*
X325954200Y-185470800D01*
X315540000Y-185600000D02*
X315480000Y-185660000D01*
G04 #@! TO.N,Net-(D29-A)*
X300493600Y-185510000D02*
X300507400Y-185496200D01*
X306878800Y-185496200D02*
X307860000Y-184515000D01*
X296430000Y-179495000D02*
X296490000Y-179435000D01*
X296430000Y-185510000D02*
X300493600Y-185510000D01*
X300507400Y-185496200D02*
X306878800Y-185496200D01*
X296430000Y-185510000D02*
X296430000Y-179495000D01*
X296430000Y-185660000D02*
X296490000Y-185600000D01*
G04 #@! TO.N,Net-(D30-A)*
X306015000Y-204650000D02*
X305955000Y-204710000D01*
X306015000Y-204396000D02*
X305828000Y-204583000D01*
X305955000Y-204560000D02*
X316390000Y-204560000D01*
X316390000Y-204560000D02*
X317385000Y-203565000D01*
X305955000Y-198545000D02*
X306015000Y-198485000D01*
X305955000Y-204560000D02*
X305955000Y-198545000D01*
G04 #@! TO.N,Net-(D31-A)*
X286905000Y-204560000D02*
X297340000Y-204560000D01*
X286965000Y-204396000D02*
X286778000Y-204583000D01*
X286905000Y-198545000D02*
X286965000Y-198485000D01*
X286965000Y-204650000D02*
X286905000Y-204710000D01*
X286905000Y-204560000D02*
X286905000Y-198545000D01*
X297340000Y-204560000D02*
X298335000Y-203565000D01*
G04 #@! TO.N,Net-(D32-A)*
X286413000Y-147193000D02*
X292794500Y-147193000D01*
X281825000Y-145415000D02*
X284635000Y-145415000D01*
X284635000Y-145415000D02*
X286413000Y-147193000D01*
X282012450Y-145843050D02*
X282202500Y-145653000D01*
X281825000Y-141712500D02*
X282202500Y-141335000D01*
X292794500Y-147193000D02*
X293572500Y-146415000D01*
X281825000Y-145415000D02*
X281825000Y-141712500D01*
G04 #@! TO.N,Net-(D33-A)*
X262775000Y-146380200D02*
X262775000Y-146182900D01*
X262775000Y-147560000D02*
X262775000Y-146380200D01*
X263152500Y-141335000D02*
X263152500Y-145805400D01*
X273527500Y-147410000D02*
X262775000Y-147410000D01*
X262775000Y-147410000D02*
X262775000Y-146380200D01*
X274522500Y-146415000D02*
X273527500Y-147410000D01*
X262775000Y-146182900D02*
X263152500Y-145805400D01*
G04 #@! TO.N,Net-(D34-A)*
X272300000Y-166610000D02*
X272300000Y-165207500D01*
X272300000Y-166610000D02*
X272377200Y-166532800D01*
X283040900Y-166471600D02*
X284047500Y-165465000D01*
X272300000Y-165207500D02*
X272677500Y-164830000D01*
X272300000Y-166460000D02*
X278194600Y-166460000D01*
X272300000Y-166460000D02*
X272300000Y-165207500D01*
X278206200Y-166471600D02*
X283040900Y-166471600D01*
X278194600Y-166460000D02*
X278206200Y-166471600D01*
X272677500Y-164830000D02*
X272677500Y-160385000D01*
G04 #@! TO.N,Net-(D35-A)*
X253250000Y-166460000D02*
X264002500Y-166460000D01*
X253250000Y-166610000D02*
X253250000Y-165080500D01*
X264002500Y-166460000D02*
X264997500Y-165465000D01*
X253250000Y-165080500D02*
X253627500Y-164703000D01*
X253250000Y-166460000D02*
X253250000Y-165080500D01*
X253627500Y-164703000D02*
X253627500Y-160385000D01*
G04 #@! TO.N,Net-(D36-A)*
X277380000Y-183515000D02*
X279402600Y-183515000D01*
X281307600Y-185420000D02*
X287905000Y-185420000D01*
X276745000Y-180130000D02*
X277440000Y-179435000D01*
X287905000Y-185420000D02*
X288810000Y-184515000D01*
X279402600Y-183515000D02*
X281307600Y-185420000D01*
X277380000Y-179495000D02*
X277440000Y-179435000D01*
X277380000Y-183515000D02*
X277380000Y-179495000D01*
G04 #@! TO.N,Net-(D37-A)*
X261760800Y-185510000D02*
X261772400Y-185521600D01*
X258330000Y-179495000D02*
X258390000Y-179435000D01*
X258330000Y-185660000D02*
X258390000Y-185600000D01*
X258330000Y-185510000D02*
X261760800Y-185510000D01*
X268753400Y-185521600D02*
X269760000Y-184515000D01*
X261772400Y-185521600D02*
X268753400Y-185521600D01*
X258330000Y-185510000D02*
X258330000Y-179495000D01*
G04 #@! TO.N,Net-(D38-A)*
X257542200Y-204560000D02*
X257581400Y-204520800D01*
X248805000Y-198545000D02*
X248865000Y-198485000D01*
X257581400Y-204520800D02*
X259279200Y-204520800D01*
X248805000Y-204560000D02*
X257542200Y-204560000D01*
X248805000Y-204560000D02*
X248805000Y-198545000D01*
X248865000Y-204650000D02*
X248805000Y-204710000D01*
X259279200Y-204520800D02*
X260235000Y-203565000D01*
G04 #@! TO.N,Net-(D39-A)*
X267855000Y-204560000D02*
X278290000Y-204560000D01*
X278290000Y-204560000D02*
X279285000Y-203565000D01*
X267915000Y-204650000D02*
X267855000Y-204710000D01*
X267855000Y-204560000D02*
X267855000Y-198545000D01*
X267855000Y-198545000D02*
X267915000Y-198485000D01*
X267915000Y-204396000D02*
X267601000Y-204710000D01*
G04 #@! TO.N,Net-(D40-A)*
X243725000Y-146456400D02*
X243725000Y-146208300D01*
X254567500Y-147320000D02*
X255472500Y-146415000D01*
X243725000Y-146050000D02*
X243725000Y-144344700D01*
X243725000Y-144344700D02*
X244102500Y-143967200D01*
X244102500Y-143967200D02*
X244102500Y-141335000D01*
X243725000Y-147320000D02*
X254567500Y-147320000D01*
X243725000Y-147320000D02*
X243725000Y-144344700D01*
G04 #@! TO.N,Net-(D41-A)*
X224675000Y-146558000D02*
X224675000Y-146208300D01*
X225052500Y-141335000D02*
X225052500Y-145830800D01*
X235427500Y-147410000D02*
X236422500Y-146415000D01*
X224675000Y-147560000D02*
X224675000Y-146558000D01*
X224675000Y-147410000D02*
X235427500Y-147410000D01*
X224675000Y-146208300D02*
X225052500Y-145830800D01*
X224675000Y-147410000D02*
X224675000Y-146558000D01*
G04 #@! TO.N,Net-(D42-A)*
X234577500Y-164753800D02*
X234577500Y-160385000D01*
X234200000Y-166460000D02*
X234200000Y-165131300D01*
X234200000Y-165131300D02*
X234577500Y-164753800D01*
X234200000Y-166610000D02*
X234200000Y-165131300D01*
X244952500Y-166460000D02*
X245947500Y-165465000D01*
X234200000Y-166460000D02*
X244952500Y-166460000D01*
G04 #@! TO.N,Net-(D43-A)*
X215150000Y-165182100D02*
X215527500Y-164804600D01*
X215150000Y-166460000D02*
X215150000Y-165182100D01*
X219698400Y-166460000D02*
X219710000Y-166471600D01*
X215150000Y-166610000D02*
X215150000Y-165182100D01*
X215527500Y-164804600D02*
X215527500Y-160385000D01*
X219710000Y-166471600D02*
X225890900Y-166471600D01*
X215150000Y-166460000D02*
X219698400Y-166460000D01*
X225890900Y-166471600D02*
X226897500Y-165465000D01*
X215527500Y-166358500D02*
X215023000Y-166863000D01*
G04 #@! TO.N,Net-(D44-A)*
X220230000Y-185510000D02*
X230665000Y-185510000D01*
X220290000Y-185283800D02*
X220290000Y-179435000D01*
X220290000Y-185600000D02*
X220230000Y-185660000D01*
X220230000Y-185510000D02*
X220230000Y-185343800D01*
X220230000Y-185343800D02*
X220290000Y-185283800D01*
X230665000Y-185510000D02*
X231660000Y-184515000D01*
G04 #@! TO.N,Net-(D45-A)*
X245375600Y-185510000D02*
X245389400Y-185496200D01*
X239280000Y-179495000D02*
X239340000Y-179435000D01*
X245389400Y-185496200D02*
X249728800Y-185496200D01*
X249728800Y-185496200D02*
X250710000Y-184515000D01*
X239340000Y-185600000D02*
X239280000Y-185660000D01*
X239280000Y-185510000D02*
X245375600Y-185510000D01*
X239280000Y-185510000D02*
X239280000Y-179495000D01*
G04 #@! TO.N,Net-(D46-A)*
X240016200Y-204560000D02*
X240055400Y-204520800D01*
X229755000Y-204560000D02*
X240016200Y-204560000D01*
X240229200Y-204520800D02*
X241185000Y-203565000D01*
X229815000Y-204269000D02*
X229374000Y-204710000D01*
X240055400Y-204520800D02*
X240229200Y-204520800D01*
X229755000Y-204560000D02*
X229755000Y-198545000D01*
X229755000Y-198545000D02*
X229815000Y-198485000D01*
X229815000Y-204650000D02*
X229755000Y-204710000D01*
G04 #@! TO.N,Net-(D47-A)*
X232181400Y-223610000D02*
X232220600Y-223570800D01*
X229755000Y-223610000D02*
X229755000Y-217595000D01*
X232220600Y-223570800D02*
X240229200Y-223570800D01*
X229755000Y-217595000D02*
X229815000Y-217535000D01*
X229755000Y-223610000D02*
X232181400Y-223610000D01*
X240229200Y-223570800D02*
X241185000Y-222615000D01*
X229815000Y-223700000D02*
X229755000Y-223760000D01*
X229815000Y-223312000D02*
X229882000Y-223379000D01*
G04 #@! TO.N,Net-(D48-A)*
X205625000Y-141712500D02*
X206002500Y-141335000D01*
X216442100Y-147345400D02*
X217372500Y-146415000D01*
X208460400Y-145415000D02*
X210390800Y-147345400D01*
X210390800Y-147345400D02*
X216442100Y-147345400D01*
X205625000Y-145415000D02*
X205625000Y-141712500D01*
X205625000Y-145415000D02*
X208460400Y-145415000D01*
G04 #@! TO.N,Net-(D49-A)*
X186575000Y-147560000D02*
X186575000Y-146507200D01*
X186575000Y-147410000D02*
X186575000Y-146507200D01*
X197315900Y-147421600D02*
X198322500Y-146415000D01*
X186575000Y-146182900D02*
X186952500Y-145805400D01*
X189935000Y-147421600D02*
X197315900Y-147421600D01*
X186575000Y-146507200D02*
X186575000Y-146182900D01*
X186952500Y-141335000D02*
X186952500Y-145805400D01*
X186575000Y-147410000D02*
X189923400Y-147410000D01*
X189923400Y-147410000D02*
X189935000Y-147421600D01*
G04 #@! TO.N,Net-(D50-A)*
X187802500Y-166460000D02*
X188797500Y-165465000D01*
X177050000Y-166610000D02*
X177165300Y-166494700D01*
X177050000Y-165131300D02*
X177427500Y-164753800D01*
X177427500Y-164753800D02*
X177427500Y-160385000D01*
X177050000Y-166610000D02*
X177050000Y-165131300D01*
X177050000Y-166460000D02*
X187802500Y-166460000D01*
X177050000Y-166460000D02*
X177050000Y-165131300D01*
G04 #@! TO.N,Net-(D51-A)*
X201726800Y-166471600D02*
X206840900Y-166471600D01*
X196100000Y-166460000D02*
X196100000Y-165182100D01*
X196100000Y-166460000D02*
X201715200Y-166460000D01*
X196477500Y-164804600D02*
X196477500Y-160385000D01*
X196100000Y-166610000D02*
X196100000Y-165182100D01*
X206840900Y-166471600D02*
X207847500Y-165465000D01*
X201715200Y-166460000D02*
X201726800Y-166471600D01*
X196100000Y-165182100D02*
X196477500Y-164804600D01*
G04 #@! TO.N,Net-(D52-A)*
X203304200Y-183515000D02*
X205209200Y-185420000D01*
X201180000Y-183515000D02*
X201180000Y-179495000D01*
X201180000Y-183515000D02*
X203304200Y-183515000D01*
X201180000Y-183667400D02*
X201180000Y-179495000D01*
X211705000Y-185420000D02*
X212610000Y-184515000D01*
X201180000Y-179495000D02*
X201240000Y-179435000D01*
X205209200Y-185420000D02*
X211705000Y-185420000D01*
G04 #@! TO.N,Net-(D53-A)*
X182130000Y-185510000D02*
X182130000Y-179495000D01*
X182190000Y-185600000D02*
X182130000Y-185660000D01*
X182190000Y-179435000D02*
X182190000Y-185346000D01*
X184550200Y-185521600D02*
X192553400Y-185521600D01*
X182190000Y-185346000D02*
X181749000Y-185787000D01*
X192553400Y-185521600D02*
X193560000Y-184515000D01*
X182130000Y-185510000D02*
X184538600Y-185510000D01*
X182130000Y-179495000D02*
X182190000Y-179435000D01*
X184538600Y-185510000D02*
X184550200Y-185521600D01*
G04 #@! TO.N,Net-(D54-A)*
X210705000Y-198545000D02*
X210765000Y-198485000D01*
X210765000Y-204650000D02*
X210705000Y-204710000D01*
X221140000Y-204560000D02*
X222135000Y-203565000D01*
X210705000Y-204560000D02*
X210705000Y-198545000D01*
X210705000Y-204560000D02*
X221140000Y-204560000D01*
G04 #@! TO.N,Net-(D55-A)*
X202090000Y-204560000D02*
X203085000Y-203565000D01*
X191655000Y-198545000D02*
X191715000Y-198485000D01*
X191655000Y-204560000D02*
X202090000Y-204560000D01*
X191655000Y-204560000D02*
X191655000Y-198545000D01*
X191715000Y-204650000D02*
X191655000Y-204710000D01*
G04 #@! TO.N,Net-(D56-A)*
X167525000Y-146507200D02*
X167525000Y-145852700D01*
X167525000Y-145852700D02*
X167902500Y-145475200D01*
X178240500Y-147447000D02*
X179272500Y-146415000D01*
X167525000Y-147410000D02*
X178203500Y-147410000D01*
X167525000Y-147560000D02*
X167525000Y-146507200D01*
X167525000Y-147560000D02*
X167614900Y-147470100D01*
X167902500Y-141335000D02*
X167902500Y-145475200D01*
X167525000Y-147410000D02*
X167525000Y-146507200D01*
X178203500Y-147410000D02*
X178240500Y-147447000D01*
G04 #@! TO.N,Net-(D57-A)*
X148475000Y-147560000D02*
X148475000Y-146608800D01*
X160222500Y-146415000D02*
X160202200Y-146415000D01*
X148475000Y-147410000D02*
X148475000Y-146608800D01*
X148852500Y-147309500D02*
X148475000Y-147687000D01*
X148852500Y-145399000D02*
X148852500Y-141335000D01*
X148475000Y-146608800D02*
X148475000Y-145776500D01*
X160202200Y-146415000D02*
X159207200Y-147410000D01*
X148475000Y-147410000D02*
X159207200Y-147410000D01*
X148475000Y-145776500D02*
X148852500Y-145399000D01*
G04 #@! TO.N,Net-(D58-A)*
X158000000Y-166610000D02*
X158000000Y-165156700D01*
X167005000Y-166497000D02*
X168715500Y-166497000D01*
X158000000Y-166460000D02*
X158000000Y-165156700D01*
X158000000Y-165156700D02*
X158377500Y-164779200D01*
X158377500Y-164779200D02*
X158377500Y-160385000D01*
X166968000Y-166460000D02*
X167005000Y-166497000D01*
X168715500Y-166497000D02*
X169747500Y-165465000D01*
X158000000Y-166460000D02*
X166968000Y-166460000D01*
G04 #@! TO.N,Net-(D59-A)*
X138950000Y-166460000D02*
X138950000Y-164877300D01*
X138950000Y-166460000D02*
X149702500Y-166460000D01*
X138950000Y-166610000D02*
X138950000Y-164877300D01*
X149702500Y-166460000D02*
X150697500Y-165465000D01*
X138950000Y-164877300D02*
X139327500Y-164499800D01*
X139327500Y-164499800D02*
X139327500Y-160385000D01*
G04 #@! TO.N,Net-(D60-A)*
X144030000Y-185510000D02*
X144030000Y-179495000D01*
X144030000Y-185510000D02*
X154465000Y-185510000D01*
X144090000Y-185219000D02*
X143776000Y-185533000D01*
X154465000Y-185510000D02*
X155460000Y-184515000D01*
X144090000Y-179587400D02*
X144030000Y-179647400D01*
X144090000Y-179435000D02*
X144090000Y-179587400D01*
X144030000Y-179495000D02*
X144090000Y-179435000D01*
G04 #@! TO.N,Net-(D61-A)*
X163080000Y-185510000D02*
X165488600Y-185510000D01*
X163080000Y-179495000D02*
X163140000Y-179435000D01*
X163080000Y-185510000D02*
X163080000Y-179495000D01*
X163140000Y-179435000D02*
X163140000Y-179689000D01*
X165500200Y-185521600D02*
X173503400Y-185521600D01*
X163140000Y-185219000D02*
X162699000Y-185660000D01*
X163140000Y-179689000D02*
X163080000Y-179749000D01*
X165488600Y-185510000D02*
X165500200Y-185521600D01*
X173503400Y-185521600D02*
X174510000Y-184515000D01*
G04 #@! TO.N,Net-(D62-A)*
X172605000Y-204560000D02*
X183040000Y-204560000D01*
X172605000Y-204560000D02*
X172605000Y-198545000D01*
X172665000Y-204650000D02*
X172605000Y-204710000D01*
X172605000Y-198545000D02*
X172665000Y-198485000D01*
X183040000Y-204560000D02*
X184035000Y-203565000D01*
G04 #@! TO.N,Net-(D63-A)*
X153555000Y-204560000D02*
X153555000Y-198545000D01*
X153615000Y-198561200D02*
X153555000Y-198621200D01*
X163990000Y-204560000D02*
X164985000Y-203565000D01*
X153555000Y-198545000D02*
X153615000Y-198485000D01*
X153615000Y-198485000D02*
X153615000Y-198561200D01*
X153555000Y-204560000D02*
X163990000Y-204560000D01*
G04 #@! TO.N,Net-(D64-A)*
X114147600Y-146050000D02*
X115417600Y-147320000D01*
X111010000Y-146050000D02*
X111010000Y-144427900D01*
X121217500Y-147320000D02*
X122122500Y-146415000D01*
X111010000Y-144427900D02*
X110752500Y-144170400D01*
X111010000Y-146050000D02*
X114147600Y-146050000D01*
X111010000Y-145812400D02*
X110752500Y-145554900D01*
X111010000Y-146329400D02*
X111010000Y-145812400D01*
X115417600Y-147320000D02*
X121217500Y-147320000D01*
X110752500Y-141335000D02*
X110752500Y-144170400D01*
G04 #@! TO.N,Net-(D65-A)*
X129425000Y-147410000D02*
X132671800Y-147410000D01*
X140140500Y-147447000D02*
X141172500Y-146415000D01*
X129425000Y-145979700D02*
X129802500Y-145602200D01*
X129425000Y-147560000D02*
X129425000Y-146558000D01*
X129802500Y-141335000D02*
X129802500Y-145602200D01*
X132708800Y-147447000D02*
X140140500Y-147447000D01*
X132671800Y-147410000D02*
X132708800Y-147447000D01*
X129425000Y-147410000D02*
X129425000Y-146558000D01*
X129802500Y-147309500D02*
X129679000Y-147433000D01*
X129425000Y-146558000D02*
X129425000Y-145979700D01*
G04 #@! TO.N,Net-(D66-A)*
X103251000Y-146415000D02*
X103616000Y-146050000D01*
X91702500Y-144280500D02*
X91702500Y-141335000D01*
X103072500Y-146415000D02*
X103251000Y-146415000D01*
X94767400Y-147345400D02*
X91702500Y-144280500D01*
X105622600Y-146050000D02*
X105257600Y-146415000D01*
X102142100Y-147345400D02*
X94767400Y-147345400D01*
X103072500Y-146415000D02*
X105257600Y-146415000D01*
X107200000Y-146050000D02*
X105622600Y-146050000D01*
X103072500Y-146415000D02*
X102142100Y-147345400D01*
G04 #@! TO.N,Net-(D67-A)*
X119900000Y-166610000D02*
X119900000Y-164877300D01*
X122638800Y-166460000D02*
X122650400Y-166471600D01*
X130640900Y-166471600D02*
X131647500Y-165465000D01*
X119900000Y-164877300D02*
X120277500Y-164499800D01*
X120277500Y-164499800D02*
X120277500Y-160385000D01*
X122650400Y-166471600D02*
X130640900Y-166471600D01*
X119900000Y-166460000D02*
X119900000Y-164877300D01*
X119900000Y-166460000D02*
X122638800Y-166460000D01*
G04 #@! TO.N,Net-(D68-A)*
X111645000Y-166610000D02*
X111572000Y-166537000D01*
X97599500Y-164452300D02*
X97753842Y-164606642D01*
X99390200Y-166243000D02*
X107057000Y-166243000D01*
X96465000Y-160385000D02*
X96465000Y-163317800D01*
X96405000Y-160445000D02*
X96465000Y-160385000D01*
X107057000Y-166243000D02*
X107835000Y-165465000D01*
X97599500Y-164452300D02*
X99390200Y-166243000D01*
X96465000Y-163317800D02*
X97599500Y-164452300D01*
X110650000Y-165465000D02*
X111645000Y-166460000D01*
X107835000Y-165465000D02*
X110650000Y-165465000D01*
X107835000Y-165465000D02*
X110500000Y-165465000D01*
G04 #@! TO.N,Net-(D69-A)*
X130288200Y-185510000D02*
X130302000Y-185496200D01*
X135428800Y-185496200D02*
X136410000Y-184515000D01*
X124980000Y-185510000D02*
X124980000Y-179495000D01*
X130302000Y-185496200D02*
X135428800Y-185496200D01*
X124980000Y-185510000D02*
X130288200Y-185510000D01*
X125040000Y-185600000D02*
X124980000Y-185660000D01*
X124980000Y-179495000D02*
X125040000Y-179435000D01*
G04 #@! TO.N,Net-(D70-A)*
X109260450Y-185470800D02*
X101701600Y-185470800D01*
X98846250Y-182615450D02*
X98846250Y-179435000D01*
X110216250Y-184515000D02*
X113305000Y-184515000D01*
X101701600Y-185470800D02*
X98846250Y-182615450D01*
X110216250Y-184515000D02*
X109260450Y-185470800D01*
X113305000Y-184515000D02*
X114300000Y-185510000D01*
G04 #@! TO.N,Net-(D71-A)*
X134505000Y-198545000D02*
X134565000Y-198485000D01*
X134505000Y-204470000D02*
X145030000Y-204470000D01*
X145030000Y-204470000D02*
X145935000Y-203565000D01*
X134505000Y-204470000D02*
X134505000Y-198545000D01*
X134505000Y-203200000D02*
X134505000Y-198545000D01*
G04 #@! TO.N,Net-(D79-A)*
X359232200Y-147269200D02*
X368918300Y-147269200D01*
X358025000Y-146062000D02*
X359232200Y-147269200D01*
X368918300Y-147269200D02*
X369772500Y-146415000D01*
X358025000Y-146050000D02*
X358025000Y-146062000D01*
X358025000Y-146050000D02*
X358025000Y-144395500D01*
X358025000Y-146456400D02*
X358025000Y-146132100D01*
X358025000Y-146050000D02*
X358025000Y-144522500D01*
X358025000Y-146132100D02*
X358402500Y-145754600D01*
X358025000Y-144395500D02*
X358402500Y-144018000D01*
X358402500Y-141335000D02*
X358402500Y-144018000D01*
G04 #@! TO.N,Net-(SW902-A)*
X280314400Y-128549400D02*
X280289000Y-128524000D01*
X280289000Y-128524000D02*
X213404200Y-128524000D01*
X144101200Y-119033800D02*
X142125000Y-121010000D01*
X316921066Y-225155000D02*
X321233800Y-220842266D01*
X321233800Y-216363800D02*
X319865000Y-214995000D01*
X311035000Y-225155000D02*
X316921066Y-225155000D01*
X200561200Y-115681000D02*
X147459000Y-115681000D01*
X321233800Y-220842266D02*
X321233800Y-216363800D01*
X147459000Y-115681000D02*
X144106200Y-119033800D01*
X144106200Y-119033800D02*
X144101200Y-119033800D01*
X213404200Y-128524000D02*
X200561200Y-115681000D01*
G04 #@! TO.N,Net-(D901-A)*
X153555000Y-217595000D02*
X153615000Y-217535000D01*
X163978400Y-223621600D02*
X164985000Y-222615000D01*
X163818400Y-223610000D02*
X163830000Y-223621600D01*
X153555000Y-223610000D02*
X153555000Y-217595000D01*
X153615000Y-223700000D02*
X153555000Y-223760000D01*
X163830000Y-223621600D02*
X163978400Y-223621600D01*
X153555000Y-223610000D02*
X163818400Y-223610000D01*
G04 #@! TO.N,Net-(D901-K)*
X288391600Y-227330000D02*
X293243000Y-232181400D01*
X158445200Y-232181400D02*
X263271000Y-232181400D01*
X268122400Y-227330000D02*
X288391600Y-227330000D01*
X154559000Y-228295200D02*
X154559000Y-228214000D01*
X154559000Y-228295200D02*
X158445200Y-232181400D01*
X154559000Y-228214000D02*
X153555000Y-227210000D01*
X293243000Y-232181400D02*
X300983600Y-232181400D01*
X300983600Y-232181400D02*
X305955000Y-227210000D01*
X263271000Y-232181400D02*
X268122400Y-227330000D01*
G04 #@! TO.N,Net-(D902-A)*
X305955000Y-223610000D02*
X316390000Y-223610000D01*
X305955000Y-217595000D02*
X306015000Y-217535000D01*
X316390000Y-223610000D02*
X317385000Y-222615000D01*
X305955000Y-223610000D02*
X305955000Y-217595000D01*
X306015000Y-223700000D02*
X305955000Y-223760000D01*
G04 #@! TD*
M02*
