G04 #@! TF.GenerationSoftware,KiCad,Pcbnew,8.0.2*
G04 #@! TF.CreationDate,2025-05-01T13:08:38+01:00*
G04 #@! TF.ProjectId,Keyboard,4b657962-6f61-4726-942e-6b696361645f,rev?*
G04 #@! TF.SameCoordinates,Original*
G04 #@! TF.FileFunction,Copper,L1,Top*
G04 #@! TF.FilePolarity,Positive*
%FSLAX46Y46*%
G04 Gerber Fmt 4.6, Leading zero omitted, Abs format (unit mm)*
G04 Created by KiCad (PCBNEW 8.0.2) date 2025-05-01 13:08:38*
%MOMM*%
%LPD*%
G01*
G04 APERTURE LIST*
G04 Aperture macros list*
%AMRoundRect*
0 Rectangle with rounded corners*
0 $1 Rounding radius*
0 $2 $3 $4 $5 $6 $7 $8 $9 X,Y pos of 4 corners*
0 Add a 4 corners polygon primitive as box body*
4,1,4,$2,$3,$4,$5,$6,$7,$8,$9,$2,$3,0*
0 Add four circle primitives for the rounded corners*
1,1,$1+$1,$2,$3*
1,1,$1+$1,$4,$5*
1,1,$1+$1,$6,$7*
1,1,$1+$1,$8,$9*
0 Add four rect primitives between the rounded corners*
20,1,$1+$1,$2,$3,$4,$5,0*
20,1,$1+$1,$4,$5,$6,$7,0*
20,1,$1+$1,$6,$7,$8,$9,0*
20,1,$1+$1,$8,$9,$2,$3,0*%
G04 Aperture macros list end*
G04 #@! TA.AperFunction,ComponentPad*
%ADD10RoundRect,0.250000X0.600000X-0.600000X0.600000X0.600000X-0.600000X0.600000X-0.600000X-0.600000X0*%
G04 #@! TD*
G04 #@! TA.AperFunction,ComponentPad*
%ADD11C,1.700000*%
G04 #@! TD*
G04 #@! TA.AperFunction,ComponentPad*
%ADD12C,2.286000*%
G04 #@! TD*
G04 #@! TA.AperFunction,ComponentPad*
%ADD13R,1.700000X1.700000*%
G04 #@! TD*
G04 #@! TA.AperFunction,ComponentPad*
%ADD14O,1.700000X1.700000*%
G04 #@! TD*
G04 #@! TA.AperFunction,ViaPad*
%ADD15C,0.800000*%
G04 #@! TD*
G04 #@! TA.AperFunction,Conductor*
%ADD16C,0.250000*%
G04 #@! TD*
G04 APERTURE END LIST*
D10*
G04 #@! TO.P,J2,1,Pin_1*
G04 #@! TO.N,unconnected-(J2-Pin_1-Pad1)*
X168795000Y-123555000D03*
D11*
G04 #@! TO.P,J2,2,Pin_2*
G04 #@! TO.N,Y1*
X168795000Y-121015000D03*
G04 #@! TO.P,J2,3,Pin_3*
G04 #@! TO.N,X9*
X171335000Y-123555000D03*
G04 #@! TO.P,J2,4,Pin_4*
G04 #@! TO.N,Y2*
X171335000Y-121015000D03*
G04 #@! TO.P,J2,5,Pin_5*
G04 #@! TO.N,X7*
X173875000Y-123555000D03*
G04 #@! TO.P,J2,6,Pin_6*
G04 #@! TO.N,Y3*
X173875000Y-121015000D03*
G04 #@! TO.P,J2,7,Pin_7*
G04 #@! TO.N,X6*
X176415000Y-123555000D03*
G04 #@! TO.P,J2,8,Pin_8*
G04 #@! TO.N,Y4*
X176415000Y-121015000D03*
G04 #@! TO.P,J2,9,Pin_9*
G04 #@! TO.N,X5*
X178955000Y-123555000D03*
G04 #@! TO.P,J2,10,Pin_10*
G04 #@! TO.N,Y5*
X178955000Y-121015000D03*
G04 #@! TO.P,J2,11,Pin_11*
G04 #@! TO.N,X4*
X181495000Y-123555000D03*
G04 #@! TO.P,J2,12,Pin_12*
G04 #@! TO.N,Y6*
X181495000Y-121015000D03*
G04 #@! TO.P,J2,13,Pin_13*
G04 #@! TO.N,X3*
X184035000Y-123555000D03*
G04 #@! TO.P,J2,14,Pin_14*
G04 #@! TO.N,Y7*
X184035000Y-121015000D03*
G04 #@! TO.P,J2,15,Pin_15*
G04 #@! TO.N,X2*
X186575000Y-123555000D03*
G04 #@! TO.P,J2,16,Pin_16*
G04 #@! TO.N,Y8*
X186575000Y-121015000D03*
G04 #@! TO.P,J2,17,Pin_17*
G04 #@! TO.N,X1*
X189115000Y-123555000D03*
G04 #@! TO.P,J2,18,Pin_18*
G04 #@! TO.N,Y9*
X189115000Y-121015000D03*
G04 #@! TO.P,J2,19,Pin_19*
G04 #@! TO.N,unconnected-(J2-Pin_19-Pad19)*
X191655000Y-123555000D03*
G04 #@! TO.P,J2,20,Pin_20*
G04 #@! TO.N,Net-(J1-Pin_2)*
X191655000Y-121015000D03*
G04 #@! TD*
D12*
G04 #@! TO.P,SW17,1,A*
G04 #@! TO.N,X2*
X334847500Y-168005000D03*
G04 #@! TO.P,SW17,2,B*
G04 #@! TO.N,Net-(D17-A)*
X341197500Y-165465000D03*
G04 #@! TD*
G04 #@! TO.P,SW9,1,A*
G04 #@! TO.N,X2*
X430097500Y-124142500D03*
G04 #@! TO.P,SW9,2,B*
G04 #@! TO.N,Net-(D9-A)*
X436447500Y-121602500D03*
G04 #@! TD*
G04 #@! TO.P,SW60,1,A*
G04 #@! TO.N,X5*
X149110000Y-187055000D03*
G04 #@! TO.P,SW60,2,B*
G04 #@! TO.N,Net-(D60-A)*
X155460000Y-184515000D03*
G04 #@! TD*
G04 #@! TO.P,SW27,1,A*
G04 #@! TO.N,X4*
X296747500Y-168005000D03*
G04 #@! TO.P,SW27,2,B*
G04 #@! TO.N,Net-(D27-A)*
X303097500Y-165465000D03*
G04 #@! TD*
G04 #@! TO.P,SW22,1,A*
G04 #@! TO.N,X7*
X330085000Y-206105000D03*
G04 #@! TO.P,SW22,2,B*
G04 #@! TO.N,Net-(D22-A)*
X336435000Y-203565000D03*
G04 #@! TD*
G04 #@! TO.P,SW69,1,A*
G04 #@! TO.N,X6*
X130060000Y-187055000D03*
G04 #@! TO.P,SW69,2,B*
G04 #@! TO.N,Net-(D69-A)*
X136410000Y-184515000D03*
G04 #@! TD*
G04 #@! TO.P,SW33,1,A*
G04 #@! TO.N,X2*
X268172500Y-148955000D03*
G04 #@! TO.P,SW33,2,B*
G04 #@! TO.N,Net-(D33-A)*
X274522500Y-146415000D03*
G04 #@! TD*
G04 #@! TO.P,SW63,1,A*
G04 #@! TO.N,X8*
X158635000Y-206105000D03*
G04 #@! TO.P,SW63,2,B*
G04 #@! TO.N,Net-(D63-A)*
X164985000Y-203565000D03*
G04 #@! TD*
G04 #@! TO.P,SW7,1,A*
G04 #@! TO.N,X8*
X430097500Y-225155000D03*
G04 #@! TO.P,SW7,2,B*
G04 #@! TO.N,Net-(D7-A)*
X436447500Y-222615000D03*
G04 #@! TD*
G04 #@! TO.P,SW36,1,A*
G04 #@! TO.N,X5*
X282460000Y-187055000D03*
G04 #@! TO.P,SW36,2,B*
G04 #@! TO.N,Net-(D36-A)*
X288810000Y-184515000D03*
G04 #@! TD*
G04 #@! TO.P,SW50,1,A*
G04 #@! TO.N,X3*
X182447500Y-168005000D03*
G04 #@! TO.P,SW50,2,B*
G04 #@! TO.N,Net-(D50-A)*
X188797500Y-165465000D03*
G04 #@! TD*
G04 #@! TO.P,SW10,1,A*
G04 #@! TO.N,X3*
X411047500Y-168005000D03*
G04 #@! TO.P,SW10,2,B*
G04 #@! TO.N,Net-(D10-A)*
X417397500Y-165465000D03*
G04 #@! TD*
G04 #@! TO.P,SW1,1,A*
G04 #@! TO.N,X2*
X449147500Y-124142500D03*
G04 #@! TO.P,SW1,2,B*
G04 #@! TO.N,Net-(D1-A)*
X455497500Y-121602500D03*
G04 #@! TD*
G04 #@! TO.P,SW13,1,A*
G04 #@! TO.N,X6*
X411047500Y-206105000D03*
G04 #@! TO.P,SW13,2,B*
G04 #@! TO.N,Net-(D13-A)*
X417397500Y-203565000D03*
G04 #@! TD*
G04 #@! TO.P,SW42,1,A*
G04 #@! TO.N,X3*
X239597500Y-168005000D03*
G04 #@! TO.P,SW42,2,B*
G04 #@! TO.N,Net-(D42-A)*
X245947500Y-165465000D03*
G04 #@! TD*
G04 #@! TO.P,SW30,1,A*
G04 #@! TO.N,X7*
X311035000Y-206105000D03*
G04 #@! TO.P,SW30,2,B*
G04 #@! TO.N,Net-(D30-A)*
X317385000Y-203565000D03*
G04 #@! TD*
G04 #@! TO.P,SW62,1,A*
G04 #@! TO.N,X7*
X177685000Y-206105000D03*
G04 #@! TO.P,SW62,2,B*
G04 #@! TO.N,Net-(D62-A)*
X184035000Y-203565000D03*
G04 #@! TD*
G04 #@! TO.P,SW53,1,A*
G04 #@! TO.N,X6*
X187210000Y-187055000D03*
G04 #@! TO.P,SW53,2,B*
G04 #@! TO.N,Net-(D53-A)*
X193560000Y-184515000D03*
G04 #@! TD*
G04 #@! TO.P,SW79,1,A*
G04 #@! TO.N,X9*
X363422500Y-148955000D03*
G04 #@! TO.P,SW79,2,B*
G04 #@! TO.N,Net-(D79-A)*
X369772500Y-146415000D03*
G04 #@! TD*
G04 #@! TO.P,SW14,1,A*
G04 #@! TO.N,X7*
X430097500Y-206105000D03*
G04 #@! TO.P,SW14,2,B*
G04 #@! TO.N,Net-(D14-A)*
X436447500Y-203565000D03*
G04 #@! TD*
G04 #@! TO.P,SW65,1,A*
G04 #@! TO.N,X2*
X134822500Y-148955000D03*
G04 #@! TO.P,SW65,2,B*
G04 #@! TO.N,Net-(D65-A)*
X141172500Y-146415000D03*
G04 #@! TD*
G04 #@! TO.P,SW31,1,A*
G04 #@! TO.N,X8*
X291985000Y-206105000D03*
G04 #@! TO.P,SW31,2,B*
G04 #@! TO.N,Net-(D31-A)*
X298335000Y-203565000D03*
G04 #@! TD*
G04 #@! TO.P,SW37,1,A*
G04 #@! TO.N,X6*
X263410000Y-187055000D03*
G04 #@! TO.P,SW37,2,B*
G04 #@! TO.N,Net-(D37-A)*
X269760000Y-184515000D03*
G04 #@! TD*
G04 #@! TO.P,SW70,1,A*
G04 #@! TO.N,X7*
X103866250Y-187055000D03*
G04 #@! TO.P,SW70,2,B*
G04 #@! TO.N,Net-(D70-A)*
X110216250Y-184515000D03*
G04 #@! TD*
G04 #@! TO.P,SW39,1,A*
G04 #@! TO.N,X8*
X272935000Y-206105000D03*
G04 #@! TO.P,SW39,2,B*
G04 #@! TO.N,Net-(D39-A)*
X279285000Y-203565000D03*
G04 #@! TD*
G04 #@! TO.P,SW6,1,A*
G04 #@! TO.N,X7*
X449147500Y-225155000D03*
G04 #@! TO.P,SW6,2,B*
G04 #@! TO.N,Net-(D6-A)*
X455497500Y-222615000D03*
G04 #@! TD*
G04 #@! TO.P,SW20,1,A*
G04 #@! TO.N,X5*
X411047500Y-187055000D03*
G04 #@! TO.P,SW20,2,B*
G04 #@! TO.N,Net-(D20-A)*
X417397500Y-184515000D03*
G04 #@! TD*
G04 #@! TO.P,SW21,1,A*
G04 #@! TO.N,X6*
X108628750Y-206105000D03*
G04 #@! TO.P,SW21,2,B*
G04 #@! TO.N,Net-(D21-A)*
X114978750Y-203565000D03*
G04 #@! TD*
G04 #@! TO.P,SW38,1,A*
G04 #@! TO.N,X7*
X253885000Y-206105000D03*
G04 #@! TO.P,SW38,2,B*
G04 #@! TO.N,Net-(D38-A)*
X260235000Y-203565000D03*
G04 #@! TD*
G04 #@! TO.P,SW68,1,A*
G04 #@! TO.N,X5*
X101485000Y-168005000D03*
G04 #@! TO.P,SW68,2,B*
G04 #@! TO.N,Net-(D68-A)*
X107835000Y-165465000D03*
G04 #@! TD*
G04 #@! TO.P,SW56,1,A*
G04 #@! TO.N,X1*
X172922500Y-148955000D03*
G04 #@! TO.P,SW56,2,B*
G04 #@! TO.N,Net-(D56-A)*
X179272500Y-146415000D03*
G04 #@! TD*
G04 #@! TO.P,SW59,1,A*
G04 #@! TO.N,X4*
X144347500Y-168005000D03*
G04 #@! TO.P,SW59,2,B*
G04 #@! TO.N,Net-(D59-A)*
X150697500Y-165465000D03*
G04 #@! TD*
G04 #@! TO.P,SW902,1,A*
G04 #@! TO.N,Net-(SW902-A)*
X311035000Y-225155000D03*
G04 #@! TO.P,SW902,2,B*
G04 #@! TO.N,Net-(D902-A)*
X317385000Y-222615000D03*
G04 #@! TD*
G04 #@! TO.P,SW43,1,A*
G04 #@! TO.N,X4*
X220547500Y-168005000D03*
G04 #@! TO.P,SW43,2,B*
G04 #@! TO.N,Net-(D43-A)*
X226897500Y-165465000D03*
G04 #@! TD*
G04 #@! TO.P,SW901,1,A*
G04 #@! TO.N,Net-(SW901-A)*
X158635000Y-225155000D03*
G04 #@! TO.P,SW901,2,B*
G04 #@! TO.N,Net-(D901-A)*
X164985000Y-222615000D03*
G04 #@! TD*
G04 #@! TO.P,SW19,1,A*
G04 #@! TO.N,X4*
X339610000Y-187055000D03*
G04 #@! TO.P,SW19,2,B*
G04 #@! TO.N,Net-(D19-A)*
X345960000Y-184515000D03*
G04 #@! TD*
G04 #@! TO.P,SW34,1,A*
G04 #@! TO.N,X3*
X277697500Y-168005000D03*
G04 #@! TO.P,SW34,2,B*
G04 #@! TO.N,Net-(D34-A)*
X284047500Y-165465000D03*
G04 #@! TD*
G04 #@! TO.P,SW23,1,A*
G04 #@! TO.N,X8*
X330085000Y-225155000D03*
G04 #@! TO.P,SW23,2,B*
G04 #@! TO.N,Net-(D23-A)*
X336435000Y-222615000D03*
G04 #@! TD*
G04 #@! TO.P,SW11,1,A*
G04 #@! TO.N,X4*
X430097500Y-168005000D03*
G04 #@! TO.P,SW11,2,B*
G04 #@! TO.N,Net-(D11-A)*
X436447500Y-165465000D03*
G04 #@! TD*
G04 #@! TO.P,SW41,1,A*
G04 #@! TO.N,X2*
X230072500Y-148955000D03*
G04 #@! TO.P,SW41,2,B*
G04 #@! TO.N,Net-(D41-A)*
X236422500Y-146415000D03*
G04 #@! TD*
G04 #@! TO.P,SW45,1,A*
G04 #@! TO.N,X6*
X244360000Y-187055000D03*
G04 #@! TO.P,SW45,2,B*
G04 #@! TO.N,Net-(D45-A)*
X250710000Y-184515000D03*
G04 #@! TD*
G04 #@! TO.P,SW8,1,A*
G04 #@! TO.N,X1*
X411047500Y-124142500D03*
G04 #@! TO.P,SW8,2,B*
G04 #@! TO.N,Net-(D8-A)*
X417397500Y-121602500D03*
G04 #@! TD*
G04 #@! TO.P,SW52,1,A*
G04 #@! TO.N,X5*
X206260000Y-187055000D03*
G04 #@! TO.P,SW52,2,B*
G04 #@! TO.N,Net-(D52-A)*
X212610000Y-184515000D03*
G04 #@! TD*
G04 #@! TO.P,SW5,1,A*
G04 #@! TO.N,X6*
X449147500Y-206105000D03*
G04 #@! TO.P,SW5,2,B*
G04 #@! TO.N,Net-(D5-A)*
X455497500Y-203565000D03*
G04 #@! TD*
G04 #@! TO.P,SW16,1,A*
G04 #@! TO.N,X1*
X344372500Y-148955000D03*
G04 #@! TO.P,SW16,2,B*
G04 #@! TO.N,Net-(D16-A)*
X350722500Y-146415000D03*
G04 #@! TD*
G04 #@! TO.P,SW4,1,A*
G04 #@! TO.N,X5*
X449147500Y-187055000D03*
G04 #@! TO.P,SW4,2,B*
G04 #@! TO.N,Net-(D4-A)*
X455497500Y-184515000D03*
G04 #@! TD*
G04 #@! TO.P,SW67,1,A*
G04 #@! TO.N,X4*
X125297500Y-168005000D03*
G04 #@! TO.P,SW67,2,B*
G04 #@! TO.N,Net-(D67-A)*
X131647500Y-165465000D03*
G04 #@! TD*
G04 #@! TO.P,SW18,1,A*
G04 #@! TO.N,X3*
X361041250Y-177530000D03*
G04 #@! TO.P,SW18,2,B*
G04 #@! TO.N,Net-(D18-A)*
X367391250Y-174990000D03*
G04 #@! TD*
G04 #@! TO.P,SW25,1,A*
G04 #@! TO.N,X2*
X306272500Y-148955000D03*
G04 #@! TO.P,SW25,2,B*
G04 #@! TO.N,Net-(D25-A)*
X312622500Y-146415000D03*
G04 #@! TD*
G04 #@! TO.P,SW24,1,A*
G04 #@! TO.N,X1*
X325322500Y-148955000D03*
G04 #@! TO.P,SW24,2,B*
G04 #@! TO.N,Net-(D24-A)*
X331672500Y-146415000D03*
G04 #@! TD*
G04 #@! TO.P,SW12,1,A*
G04 #@! TO.N,X5*
X430097500Y-187055000D03*
G04 #@! TO.P,SW12,2,B*
G04 #@! TO.N,Net-(D12-A)*
X436447500Y-184515000D03*
G04 #@! TD*
G04 #@! TO.P,SW66,1,A*
G04 #@! TO.N,X3*
X96722500Y-148955000D03*
G04 #@! TO.P,SW66,2,B*
G04 #@! TO.N,Net-(D66-A)*
X103072500Y-146415000D03*
G04 #@! TD*
G04 #@! TO.P,SW28,1,A*
G04 #@! TO.N,X5*
X320560000Y-187055000D03*
G04 #@! TO.P,SW28,2,B*
G04 #@! TO.N,Net-(D28-A)*
X326910000Y-184515000D03*
G04 #@! TD*
G04 #@! TO.P,SW29,1,A*
G04 #@! TO.N,X6*
X301510000Y-187055000D03*
G04 #@! TO.P,SW29,2,B*
G04 #@! TO.N,Net-(D29-A)*
X307860000Y-184515000D03*
G04 #@! TD*
G04 #@! TO.P,SW58,1,A*
G04 #@! TO.N,X3*
X163397500Y-168005000D03*
G04 #@! TO.P,SW58,2,B*
G04 #@! TO.N,Net-(D58-A)*
X169747500Y-165465000D03*
G04 #@! TD*
G04 #@! TO.P,SW15,1,A*
G04 #@! TO.N,X8*
X411047500Y-225155000D03*
G04 #@! TO.P,SW15,2,B*
G04 #@! TO.N,Net-(D15-A)*
X417397500Y-222615000D03*
G04 #@! TD*
G04 #@! TO.P,SW3,1,A*
G04 #@! TO.N,X4*
X449147500Y-168005000D03*
G04 #@! TO.P,SW3,2,B*
G04 #@! TO.N,Net-(D3-A)*
X455497500Y-165465000D03*
G04 #@! TD*
G04 #@! TO.P,SW48,1,A*
G04 #@! TO.N,X1*
X211022500Y-148955000D03*
G04 #@! TO.P,SW48,2,B*
G04 #@! TO.N,Net-(D48-A)*
X217372500Y-146415000D03*
G04 #@! TD*
G04 #@! TO.P,SW57,1,A*
G04 #@! TO.N,X2*
X153872500Y-148955000D03*
G04 #@! TO.P,SW57,2,B*
G04 #@! TO.N,Net-(D57-A)*
X160222500Y-146415000D03*
G04 #@! TD*
G04 #@! TO.P,SW61,1,A*
G04 #@! TO.N,X6*
X168160000Y-187055000D03*
G04 #@! TO.P,SW61,2,B*
G04 #@! TO.N,Net-(D61-A)*
X174510000Y-184515000D03*
G04 #@! TD*
G04 #@! TO.P,SW0,1,A*
G04 #@! TO.N,X1*
X430097500Y-105092500D03*
G04 #@! TO.P,SW0,2,B*
G04 #@! TO.N,Net-(D0-A)*
X436447500Y-102552500D03*
G04 #@! TD*
G04 #@! TO.P,SW47,1,A*
G04 #@! TO.N,X8*
X234835000Y-225155000D03*
G04 #@! TO.P,SW47,2,B*
G04 #@! TO.N,Net-(D47-A)*
X241185000Y-222615000D03*
G04 #@! TD*
G04 #@! TO.P,SW64,1,A*
G04 #@! TO.N,X1*
X115772500Y-148955000D03*
G04 #@! TO.P,SW64,2,B*
G04 #@! TO.N,Net-(D64-A)*
X122122500Y-146415000D03*
G04 #@! TD*
G04 #@! TO.P,SW71,1,A*
G04 #@! TO.N,X8*
X139585000Y-206105000D03*
G04 #@! TO.P,SW71,2,B*
G04 #@! TO.N,Net-(D71-A)*
X145935000Y-203565000D03*
G04 #@! TD*
G04 #@! TO.P,SW35,1,A*
G04 #@! TO.N,X4*
X258647500Y-168005000D03*
G04 #@! TO.P,SW35,2,B*
G04 #@! TO.N,Net-(D35-A)*
X264997500Y-165465000D03*
G04 #@! TD*
G04 #@! TO.P,SW51,1,A*
G04 #@! TO.N,X4*
X201497500Y-168005000D03*
G04 #@! TO.P,SW51,2,B*
G04 #@! TO.N,Net-(D51-A)*
X207847500Y-165465000D03*
G04 #@! TD*
G04 #@! TO.P,SW54,1,A*
G04 #@! TO.N,X7*
X215785000Y-206105000D03*
G04 #@! TO.P,SW54,2,B*
G04 #@! TO.N,Net-(D54-A)*
X222135000Y-203565000D03*
G04 #@! TD*
G04 #@! TO.P,SW46,1,A*
G04 #@! TO.N,X7*
X234835000Y-206105000D03*
G04 #@! TO.P,SW46,2,B*
G04 #@! TO.N,Net-(D46-A)*
X241185000Y-203565000D03*
G04 #@! TD*
G04 #@! TO.P,SW49,1,A*
G04 #@! TO.N,X2*
X191972500Y-148955000D03*
G04 #@! TO.P,SW49,2,B*
G04 #@! TO.N,Net-(D49-A)*
X198322500Y-146415000D03*
G04 #@! TD*
G04 #@! TO.P,SW26,1,A*
G04 #@! TO.N,X3*
X315797500Y-168005000D03*
G04 #@! TO.P,SW26,2,B*
G04 #@! TO.N,Net-(D26-A)*
X322147500Y-165465000D03*
G04 #@! TD*
G04 #@! TO.P,SW2,1,A*
G04 #@! TO.N,X3*
X430097500Y-143192500D03*
G04 #@! TO.P,SW2,2,B*
G04 #@! TO.N,Net-(D2-A)*
X436447500Y-140652500D03*
G04 #@! TD*
G04 #@! TO.P,SW40,1,A*
G04 #@! TO.N,X1*
X249122500Y-148955000D03*
G04 #@! TO.P,SW40,2,B*
G04 #@! TO.N,Net-(D40-A)*
X255472500Y-146415000D03*
G04 #@! TD*
G04 #@! TO.P,SW32,1,A*
G04 #@! TO.N,X1*
X287222500Y-148955000D03*
G04 #@! TO.P,SW32,2,B*
G04 #@! TO.N,Net-(D32-A)*
X293572500Y-146415000D03*
G04 #@! TD*
G04 #@! TO.P,SW55,1,A*
G04 #@! TO.N,X8*
X196735000Y-206105000D03*
G04 #@! TO.P,SW55,2,B*
G04 #@! TO.N,Net-(D55-A)*
X203085000Y-203565000D03*
G04 #@! TD*
G04 #@! TO.P,SW121,1,A*
G04 #@! TO.N,X6*
X356278750Y-206105000D03*
G04 #@! TO.P,SW121,2,B*
G04 #@! TO.N,Net-(D21-A)*
X362628750Y-203565000D03*
G04 #@! TD*
G04 #@! TO.P,SW44,1,A*
G04 #@! TO.N,X5*
X225310000Y-187055000D03*
G04 #@! TO.P,SW44,2,B*
G04 #@! TO.N,Net-(D44-A)*
X231660000Y-184515000D03*
G04 #@! TD*
D13*
G04 #@! TO.P,LK1,1,A*
G04 #@! TO.N,X8*
X104660000Y-121015000D03*
D14*
G04 #@! TO.P,LK1,2,C*
G04 #@! TO.N,Net-(J1-Pin_2)*
X104660000Y-123555000D03*
G04 #@! TO.P,LK1,3,B*
G04 #@! TO.N,Y10*
X104660000Y-126095000D03*
G04 #@! TD*
D13*
G04 #@! TO.P,J1,1,Pin_1*
G04 #@! TO.N,Net-(J1-Pin_1)*
X88155000Y-147215000D03*
D14*
G04 #@! TO.P,J1,2,Pin_2*
G04 #@! TO.N,Net-(J1-Pin_2)*
X85615000Y-147215000D03*
G04 #@! TO.P,J1,3,Pin_3*
G04 #@! TO.N,X1*
X88155000Y-149755000D03*
G04 #@! TO.P,J1,4,Pin_4*
G04 #@! TO.N,Y9*
X85615000Y-149755000D03*
G04 #@! TO.P,J1,5,Pin_5*
G04 #@! TO.N,X2*
X88155000Y-152295000D03*
G04 #@! TO.P,J1,6,Pin_6*
G04 #@! TO.N,Y8*
X85615000Y-152295000D03*
G04 #@! TO.P,J1,7,Pin_7*
G04 #@! TO.N,X3*
X88155000Y-154835000D03*
G04 #@! TO.P,J1,8,Pin_8*
G04 #@! TO.N,Y7*
X85615000Y-154835000D03*
G04 #@! TO.P,J1,9,Pin_9*
G04 #@! TO.N,X4*
X88155000Y-157375000D03*
G04 #@! TO.P,J1,10,Pin_10*
G04 #@! TO.N,Y6*
X85615000Y-157375000D03*
G04 #@! TO.P,J1,11,Pin_11*
G04 #@! TO.N,X5*
X88155000Y-159915000D03*
G04 #@! TO.P,J1,12,Pin_12*
G04 #@! TO.N,Y5*
X85615000Y-159915000D03*
G04 #@! TO.P,J1,13,Pin_13*
G04 #@! TO.N,X6*
X88155000Y-162455000D03*
G04 #@! TO.P,J1,14,Pin_14*
G04 #@! TO.N,Y4*
X85615000Y-162455000D03*
G04 #@! TO.P,J1,15,Pin_15*
G04 #@! TO.N,X7*
X88155000Y-164995000D03*
G04 #@! TO.P,J1,16,Pin_16*
G04 #@! TO.N,Y3*
X85615000Y-164995000D03*
G04 #@! TO.P,J1,17,Pin_17*
G04 #@! TO.N,X9*
X88155000Y-167535000D03*
G04 #@! TO.P,J1,18,Pin_18*
G04 #@! TO.N,Y2*
X85615000Y-167535000D03*
G04 #@! TO.P,J1,19,Pin_19*
G04 #@! TO.N,unconnected-(J1-Pin_19-Pad19)*
X88155000Y-170075000D03*
G04 #@! TO.P,J1,20,Pin_20*
G04 #@! TO.N,Y1*
X85615000Y-170075000D03*
G04 #@! TD*
D13*
G04 #@! TO.P,LK2,1,1*
G04 #@! TO.N,Y10*
X112280000Y-121015000D03*
D14*
G04 #@! TO.P,LK2,2,2*
G04 #@! TO.N,Net-(J1-Pin_1)*
X112280000Y-123555000D03*
G04 #@! TD*
D13*
G04 #@! TO.P,LK3,1,1*
G04 #@! TO.N,X8*
X97040000Y-123555000D03*
D14*
G04 #@! TO.P,LK3,2,2*
G04 #@! TO.N,X9*
X97040000Y-126095000D03*
G04 #@! TD*
D13*
G04 #@! TO.P,LK5,1,1*
G04 #@! TO.N,Net-(SW902-A)*
X142125000Y-121010000D03*
D14*
G04 #@! TO.P,LK5,2,2*
G04 #@! TO.N,X6*
X142125000Y-123550000D03*
G04 #@! TD*
D13*
G04 #@! TO.P,J3,1,Pin_1*
G04 #@! TO.N,X9*
X81800000Y-141855000D03*
D14*
G04 #@! TO.P,J3,2,Pin_2*
G04 #@! TO.N,Y10*
X81800000Y-144395000D03*
G04 #@! TO.P,J3,3,Pin_3*
G04 #@! TO.N,X1*
X81800000Y-146935000D03*
G04 #@! TO.P,J3,4,Pin_4*
G04 #@! TO.N,X2*
X81800000Y-149475000D03*
G04 #@! TO.P,J3,5,Pin_5*
G04 #@! TO.N,X3*
X81800000Y-152015000D03*
G04 #@! TO.P,J3,6,Pin_6*
G04 #@! TO.N,X4*
X81800000Y-154555000D03*
G04 #@! TO.P,J3,7,Pin_7*
G04 #@! TO.N,X5*
X81800000Y-157095000D03*
G04 #@! TO.P,J3,8,Pin_8*
G04 #@! TO.N,X6*
X81800000Y-159635000D03*
G04 #@! TO.P,J3,9,Pin_9*
G04 #@! TO.N,X7*
X81800000Y-162175000D03*
G04 #@! TO.P,J3,10,Pin_10*
G04 #@! TO.N,X8*
X81800000Y-164715000D03*
G04 #@! TO.P,J3,11,Pin_11*
G04 #@! TO.N,Y9*
X81800000Y-167255000D03*
G04 #@! TO.P,J3,12,Pin_12*
G04 #@! TO.N,Y8*
X81800000Y-169795000D03*
G04 #@! TO.P,J3,13,Pin_13*
G04 #@! TO.N,Y7*
X81800000Y-172335000D03*
G04 #@! TO.P,J3,14,Pin_14*
G04 #@! TO.N,Y6*
X81800000Y-174875000D03*
G04 #@! TO.P,J3,15,Pin_15*
G04 #@! TO.N,Y5*
X81800000Y-177415000D03*
G04 #@! TO.P,J3,16,Pin_16*
G04 #@! TO.N,Y4*
X81800000Y-179955000D03*
G04 #@! TO.P,J3,17,Pin_17*
G04 #@! TO.N,Y3*
X81800000Y-182495000D03*
G04 #@! TO.P,J3,18,Pin_18*
G04 #@! TO.N,Y2*
X81800000Y-185035000D03*
G04 #@! TO.P,J3,19,Pin_19*
G04 #@! TO.N,Y1*
X81800000Y-187575000D03*
G04 #@! TD*
D13*
G04 #@! TO.P,LK4,1,1*
G04 #@! TO.N,Net-(SW901-A)*
X139585000Y-121010000D03*
D14*
G04 #@! TO.P,LK4,2,2*
G04 #@! TO.N,X5*
X139585000Y-123550000D03*
G04 #@! TD*
D13*
G04 #@! TO.P,LK6,1,1*
G04 #@! TO.N,Net-(D901-K)*
X137045000Y-121010000D03*
D14*
G04 #@! TO.P,LK6,2,2*
G04 #@! TO.N,Y10*
X137045000Y-123550000D03*
G04 #@! TD*
D15*
G04 #@! TO.N,Y10*
X358038400Y-148187216D03*
X355650800Y-130429000D03*
G04 #@! TO.N,Y9*
X147167600Y-149707600D03*
X123825000Y-190246000D03*
X133426200Y-207060800D03*
X118426800Y-151497200D03*
X118551400Y-170060000D03*
X147193000Y-123545600D03*
G04 #@! TO.N,Y8*
X187782200Y-152704800D03*
X160883600Y-189110000D03*
X156311600Y-152755600D03*
X156337400Y-169987500D03*
X154774200Y-208203800D03*
G04 #@! TO.N,Y7*
X96850200Y-171154600D03*
X194703000Y-170129200D03*
X190347600Y-208153000D03*
X194787200Y-150944200D03*
X192176400Y-189110000D03*
X185381200Y-151003000D03*
G04 #@! TO.N,Y6*
X232777600Y-151079200D03*
X232855800Y-169988200D03*
X177850800Y-171967400D03*
X95554800Y-171967400D03*
X229780400Y-209203800D03*
X234735800Y-189110000D03*
X229831200Y-226196400D03*
G04 #@! TO.N,Y5*
X272806700Y-189062900D03*
X271157000Y-151053800D03*
X175742600Y-172754800D03*
X94335600Y-172796200D03*
X271157000Y-170103800D03*
X266432600Y-208127600D03*
G04 #@! TO.N,Y4*
X308737000Y-151053800D03*
X308722300Y-169987500D03*
X92151200Y-173507400D03*
X311021000Y-189050200D03*
X304634200Y-208100200D03*
X173710600Y-173532800D03*
G04 #@! TO.N,Y3*
X337997800Y-152019000D03*
X323723000Y-206857600D03*
X330733400Y-170103800D03*
X89859600Y-196881000D03*
X325005000Y-225866200D03*
X168947400Y-227136200D03*
X89890600Y-182499000D03*
X333070200Y-189153800D03*
G04 #@! TO.N,Y2*
X423291000Y-126542800D03*
X405624600Y-225866200D03*
X423328400Y-170103800D03*
X152577800Y-209891600D03*
X405624600Y-209499200D03*
X86790000Y-185023000D03*
X424649200Y-190449200D03*
X423316400Y-206121000D03*
G04 #@! TO.N,X9*
X357327200Y-133019800D03*
X165201600Y-133080000D03*
G04 #@! TO.N,X8*
X136918000Y-169960800D03*
X302895000Y-211912200D03*
G04 #@! TO.N,X7*
X161886200Y-192264300D03*
X90957400Y-187055000D03*
G04 #@! TO.N,X6*
X128422400Y-193319400D03*
X93167200Y-189636400D03*
G04 #@! TO.N,X5*
X117394100Y-174350300D03*
X175900700Y-174416100D03*
G04 #@! TO.N,X4*
X176860200Y-168300400D03*
G04 #@! TO.N,X3*
X115366800Y-153746200D03*
X184429400Y-154940000D03*
X96709800Y-154797000D03*
G04 #@! TO.N,X2*
X100711000Y-148767800D03*
X100711000Y-152295000D03*
X186575000Y-148955000D03*
G04 #@! TO.N,X1*
X189115000Y-134985000D03*
G04 #@! TO.N,Y1*
X443750000Y-127584200D03*
X424688000Y-108788200D03*
X443800800Y-190423800D03*
X443800800Y-171450000D03*
X443699200Y-226044000D03*
X444982600Y-206197200D03*
X151688800Y-211429600D03*
X85615000Y-187563000D03*
G04 #@! TO.N,Net-(D21-A)*
X140893800Y-233375200D03*
X332638400Y-233375200D03*
G04 #@! TO.N,Net-(SW902-A)*
X280314400Y-128549400D03*
G04 #@! TO.N,Net-(D901-K)*
X154559000Y-228295200D03*
G04 #@! TD*
D16*
G04 #@! TO.N,Y10*
X355650800Y-130429000D02*
X355650800Y-145799616D01*
X109740000Y-121015000D02*
X104660000Y-126095000D01*
X355650800Y-145799616D02*
X358038400Y-148187216D01*
X112280000Y-121015000D02*
X109740000Y-121015000D01*
G04 #@! TO.N,Y9*
X118426800Y-151497200D02*
X118426800Y-169935400D01*
X118426800Y-169935400D02*
X118551400Y-170060000D01*
X123825000Y-190246000D02*
X123825000Y-175333600D01*
X133426200Y-207060800D02*
X133426200Y-207035400D01*
X147193000Y-149682200D02*
X147167600Y-149707600D01*
X133426200Y-207035400D02*
X126898400Y-200507600D01*
X147193000Y-123545600D02*
X147193000Y-149682200D01*
X126898400Y-200507600D02*
X126898400Y-193319400D01*
X126898400Y-193319400D02*
X123825000Y-190246000D01*
X123825000Y-175333600D02*
X118551400Y-170060000D01*
G04 #@! TO.N,Y8*
X156349000Y-169975900D02*
X156337400Y-169987500D01*
X153619200Y-207048800D02*
X154774200Y-208203800D01*
X83489800Y-154420200D02*
X85615000Y-152295000D01*
X81800000Y-169795000D02*
X83489800Y-168105200D01*
X160883600Y-189110000D02*
X153619200Y-196374400D01*
X160883600Y-174536800D02*
X156337400Y-169990600D01*
X156337400Y-169990600D02*
X156337400Y-169987500D01*
X187782200Y-152704800D02*
X187750000Y-152672600D01*
X156311600Y-152755600D02*
X156349000Y-152793000D01*
X156349000Y-152793000D02*
X156349000Y-169975900D01*
X187750000Y-122190000D02*
X186575000Y-121015000D01*
X187750000Y-152672600D02*
X187750000Y-122190000D01*
X83489800Y-168105200D02*
X83489800Y-154420200D01*
X160883600Y-189110000D02*
X160883600Y-174536800D01*
X153619200Y-196374400D02*
X153619200Y-207048800D01*
G04 #@! TO.N,Y7*
X96850200Y-164259200D02*
X88791000Y-156200000D01*
X88791000Y-156200000D02*
X86980000Y-156200000D01*
X194703000Y-170129200D02*
X194703000Y-151028400D01*
X185381200Y-151003000D02*
X185400000Y-150984200D01*
X190347600Y-208153000D02*
X190347600Y-190938800D01*
X185400000Y-150984200D02*
X185400000Y-122380000D01*
X192176400Y-189110000D02*
X197129400Y-184157000D01*
X96850200Y-171154600D02*
X96850200Y-164259200D01*
X194703000Y-151028400D02*
X194787200Y-150944200D01*
X185400000Y-122380000D02*
X184035000Y-121015000D01*
X190347600Y-190938800D02*
X192176400Y-189110000D01*
X197129400Y-172555600D02*
X194703000Y-170129200D01*
X86980000Y-156200000D02*
X85615000Y-154835000D01*
X197129400Y-184157000D02*
X197129400Y-172555600D01*
G04 #@! TO.N,Y6*
X177850800Y-171967400D02*
X177850800Y-155371800D01*
X229780400Y-194065400D02*
X229780400Y-209203800D01*
X182860000Y-124041701D02*
X182860000Y-122380000D01*
X183591200Y-124772901D02*
X182860000Y-124041701D01*
X234735800Y-189110000D02*
X229780400Y-194065400D01*
X229882000Y-226145600D02*
X229831200Y-226196400D01*
X86980000Y-158740000D02*
X85615000Y-157375000D01*
X183591200Y-149631400D02*
X183591200Y-124772901D01*
X232777600Y-151079200D02*
X232777600Y-169910000D01*
X232855800Y-169988200D02*
X234885800Y-172018200D01*
X234885800Y-188960000D02*
X234735800Y-189110000D01*
X88689400Y-158740000D02*
X86980000Y-158740000D01*
X229780400Y-209203800D02*
X229882000Y-209305400D01*
X95554800Y-171967400D02*
X95554800Y-165605400D01*
X232777600Y-169910000D02*
X232855800Y-169988200D01*
X182860000Y-122380000D02*
X181495000Y-121015000D01*
X234885800Y-172018200D02*
X234885800Y-188960000D01*
X229882000Y-209305400D02*
X229882000Y-226145600D01*
X95554800Y-165605400D02*
X88689400Y-158740000D01*
X177850800Y-155371800D02*
X183591200Y-149631400D01*
G04 #@! TO.N,Y5*
X175742600Y-172754800D02*
X175742600Y-154432000D01*
X272909600Y-171856400D02*
X272909600Y-188960000D01*
X168325800Y-140436600D02*
X180130000Y-128632400D01*
X266432600Y-208127600D02*
X266432600Y-195437000D01*
X271157000Y-151053800D02*
X271157000Y-170103800D01*
X94335600Y-166926200D02*
X88689400Y-161280000D01*
X180130000Y-128632400D02*
X180130000Y-122190000D01*
X86980000Y-161280000D02*
X85615000Y-159915000D01*
X180130000Y-122190000D02*
X178955000Y-121015000D01*
X266432600Y-195437000D02*
X272806700Y-189062900D01*
X271157000Y-170103800D02*
X272909600Y-171856400D01*
X168325800Y-147015200D02*
X168325800Y-140436600D01*
X272909600Y-188960000D02*
X272806700Y-189062900D01*
X94335600Y-172796200D02*
X94335600Y-166926200D01*
X88689400Y-161280000D02*
X86980000Y-161280000D01*
X175742600Y-154432000D02*
X168325800Y-147015200D01*
G04 #@! TO.N,Y4*
X304634200Y-195437000D02*
X311021000Y-189050200D01*
X92151200Y-167329500D02*
X89637450Y-164815750D01*
X177590000Y-127946600D02*
X177590000Y-122190000D01*
X88451701Y-163630000D02*
X86790000Y-163630000D01*
X166497000Y-148361400D02*
X166497000Y-139039600D01*
X166497000Y-139039600D02*
X177590000Y-127946600D01*
X173710600Y-173532800D02*
X173710600Y-155575000D01*
X177590000Y-122190000D02*
X176415000Y-121015000D01*
X92151200Y-173507400D02*
X92151200Y-167329500D01*
X86790000Y-163630000D02*
X85615000Y-162455000D01*
X308722300Y-170038300D02*
X312039000Y-173355000D01*
X173710600Y-155575000D02*
X166497000Y-148361400D01*
X304634200Y-208100200D02*
X304634200Y-195437000D01*
X308749000Y-151065800D02*
X308737000Y-151053800D01*
X308722300Y-169987500D02*
X308722300Y-170038300D01*
X312039000Y-188032200D02*
X311021000Y-189050200D01*
X308749000Y-169960800D02*
X308749000Y-151065800D01*
X89637450Y-164815750D02*
X88451701Y-163630000D01*
X308722300Y-169987500D02*
X308749000Y-169960800D01*
X312039000Y-173355000D02*
X312039000Y-188032200D01*
G04 #@! TO.N,Y3*
X162814000Y-172745400D02*
X162814000Y-188236800D01*
X86980000Y-166360000D02*
X85615000Y-164995000D01*
X158648400Y-156616400D02*
X158648400Y-168579800D01*
X164668200Y-150596600D02*
X158648400Y-156616400D01*
X333133000Y-189091000D02*
X333070200Y-189153800D01*
X330733400Y-170103800D02*
X330618400Y-169988800D01*
X175240000Y-122380000D02*
X175240000Y-126867600D01*
X323748400Y-206832200D02*
X323748400Y-198370000D01*
X88641701Y-166360000D02*
X86980000Y-166360000D01*
X333133000Y-172500800D02*
X333133000Y-189091000D01*
X162814000Y-188236800D02*
X168947400Y-194370200D01*
X158648400Y-168579800D02*
X162814000Y-172745400D01*
X89648600Y-167366899D02*
X89080650Y-166798950D01*
X323748400Y-198370000D02*
X332964600Y-189153800D01*
X175240000Y-126867600D02*
X164668200Y-137439400D01*
X332964600Y-189153800D02*
X333070200Y-189153800D01*
X330733400Y-170103800D02*
X330736000Y-170103800D01*
X89890600Y-182499000D02*
X89890600Y-167608900D01*
X164668200Y-137439400D02*
X164668200Y-150596600D01*
X323723000Y-206857600D02*
X323723000Y-224584200D01*
X330618400Y-169988800D02*
X330618400Y-159398400D01*
X89859600Y-196881000D02*
X89890600Y-196850000D01*
X89890600Y-196850000D02*
X89890600Y-182499000D01*
X89080650Y-166798950D02*
X88641701Y-166360000D01*
X89890600Y-167608900D02*
X89080650Y-166798950D01*
X323723000Y-206857600D02*
X323748400Y-206832200D01*
X330618400Y-159398400D02*
X337997800Y-152019000D01*
X323723000Y-224584200D02*
X325005000Y-225866200D01*
X330736000Y-170103800D02*
X333133000Y-172500800D01*
X168947400Y-194370200D02*
X168947400Y-227136200D01*
X173875000Y-121015000D02*
X175240000Y-122380000D01*
G04 #@! TO.N,Y2*
X423316400Y-206121000D02*
X424649200Y-204788200D01*
X155397200Y-170713400D02*
X155397200Y-155016200D01*
X424649200Y-190449200D02*
X424649200Y-171424600D01*
X149402800Y-138049000D02*
X165071800Y-122380000D01*
X154609800Y-190220600D02*
X159893000Y-184937400D01*
X159893000Y-175209200D02*
X155397200Y-170713400D01*
X423328400Y-170103800D02*
X423328400Y-126580200D01*
X424649200Y-171424600D02*
X423328400Y-170103800D01*
X152577800Y-209891600D02*
X152577800Y-192405000D01*
X424649200Y-204788200D02*
X424649200Y-190449200D01*
X169970000Y-122380000D02*
X171335000Y-121015000D01*
X86790000Y-168710000D02*
X86790000Y-185023000D01*
X149402800Y-149021800D02*
X149402800Y-138049000D01*
X171335000Y-121015000D02*
X170160000Y-122190000D01*
X405624600Y-209499200D02*
X405624600Y-225866200D01*
X154609800Y-190373000D02*
X154609800Y-190220600D01*
X152577800Y-192405000D02*
X154609800Y-190373000D01*
X155397200Y-155016200D02*
X149402800Y-149021800D01*
X85615000Y-167535000D02*
X86790000Y-168710000D01*
X423328400Y-126580200D02*
X423291000Y-126542800D01*
X159893000Y-184937400D02*
X159893000Y-175209200D01*
X165071800Y-122380000D02*
X169970000Y-122380000D01*
G04 #@! TO.N,X9*
X85128299Y-150930000D02*
X83718400Y-149520101D01*
X84175600Y-154612699D02*
X85318299Y-153470000D01*
X85128299Y-166170000D02*
X84175600Y-165217301D01*
X165201600Y-132918200D02*
X171335000Y-126784800D01*
X81800000Y-141335000D02*
X97040000Y-126095000D01*
X85914800Y-150930000D02*
X85128299Y-150930000D01*
X171335000Y-126212600D02*
X171335000Y-123555000D01*
X86790000Y-151805200D02*
X85914800Y-150930000D01*
X357327200Y-133019800D02*
X357327200Y-142859700D01*
X357327200Y-142859700D02*
X363422500Y-148955000D01*
X88155000Y-167535000D02*
X87466701Y-167535000D01*
X83718400Y-143773400D02*
X81800000Y-141855000D01*
X86101701Y-166170000D02*
X85128299Y-166170000D01*
X86790000Y-152781701D02*
X86790000Y-151805200D01*
X85318299Y-153470000D02*
X86101701Y-153470000D01*
X88213400Y-167535000D02*
X88226200Y-167547800D01*
X171335000Y-126784800D02*
X171335000Y-126212600D01*
X84175600Y-165217301D02*
X84175600Y-154612699D01*
X81800000Y-141855000D02*
X81800000Y-141335000D01*
X87466701Y-167535000D02*
X86101701Y-166170000D01*
X83718400Y-149520101D02*
X83718400Y-143773400D01*
X165201600Y-133080000D02*
X165201600Y-132918200D01*
X86101701Y-153470000D02*
X86790000Y-152781701D01*
G04 #@! TO.N,X8*
X104660000Y-121015000D02*
X99580000Y-121015000D01*
X135140000Y-193252600D02*
X135140000Y-201660000D01*
X302895000Y-211912200D02*
X302869600Y-211937600D01*
X140716000Y-187676600D02*
X135140000Y-193252600D01*
X99580000Y-121015000D02*
X97040000Y-123555000D01*
X297817600Y-211937600D02*
X291985000Y-206105000D01*
X302869600Y-211937600D02*
X297817600Y-211937600D01*
X81800000Y-164715000D02*
X80625000Y-163540000D01*
X140716000Y-173758800D02*
X140716000Y-187676600D01*
X80625000Y-163540000D02*
X80625000Y-141909800D01*
X80625000Y-139970000D02*
X80625000Y-141909800D01*
X136918000Y-169960800D02*
X140716000Y-173758800D01*
X97040000Y-124265000D02*
X97040000Y-123555000D01*
X135140000Y-201660000D02*
X139585000Y-206105000D01*
X97040000Y-123555000D02*
X80625000Y-139970000D01*
G04 #@! TO.N,X7*
X173875000Y-123555000D02*
X173875000Y-126581600D01*
X90957400Y-187055000D02*
X90957400Y-167797400D01*
X157607000Y-169279000D02*
X161886200Y-173558200D01*
X90957400Y-167797400D02*
X88155000Y-164995000D01*
X161886200Y-173558200D02*
X161886200Y-192264300D01*
X173875000Y-126581600D02*
X163677600Y-136779000D01*
X163677600Y-150266400D02*
X157607000Y-156337000D01*
X163677600Y-136779000D02*
X163677600Y-150266400D01*
X157607000Y-156337000D02*
X157607000Y-169279000D01*
G04 #@! TO.N,X6*
X168160000Y-187055000D02*
X163652200Y-182547200D01*
X93167200Y-167467200D02*
X88155000Y-162455000D01*
X128422400Y-193319400D02*
X128600200Y-193141600D01*
X172948600Y-167528400D02*
X172948600Y-156413200D01*
X163652200Y-182547200D02*
X163652200Y-176824800D01*
X128600200Y-193141600D02*
X128600200Y-188514800D01*
X163652200Y-176824800D02*
X172948600Y-167528400D01*
X165557200Y-149021800D02*
X165557200Y-138303000D01*
X172948600Y-156413200D02*
X165557200Y-149021800D01*
X165557200Y-138303000D02*
X176415000Y-127445200D01*
X128600200Y-188514800D02*
X130060000Y-187055000D01*
X93167200Y-189636400D02*
X93167200Y-167467200D01*
X176415000Y-127445200D02*
X176415000Y-123555000D01*
G04 #@! TO.N,X5*
X174828200Y-155092400D02*
X167436800Y-147701000D01*
X178955000Y-128181800D02*
X178955000Y-123555000D01*
X167436800Y-139700000D02*
X178955000Y-128181800D01*
X174828200Y-173343600D02*
X174828200Y-155092400D01*
X111048800Y-168005000D02*
X101485000Y-168005000D01*
X167436800Y-147701000D02*
X167436800Y-139700000D01*
X117394100Y-174350300D02*
X111048800Y-168005000D01*
X175900700Y-174416100D02*
X174828200Y-173343600D01*
G04 #@! TO.N,X4*
X182612600Y-148955000D02*
X182612600Y-124672600D01*
X176860200Y-168300400D02*
X176885600Y-168275000D01*
X176885600Y-154682000D02*
X182612600Y-148955000D01*
X176885600Y-168275000D02*
X176885600Y-154682000D01*
X182612600Y-124672600D02*
X181495000Y-123555000D01*
G04 #@! TO.N,X3*
X96722500Y-148955000D02*
X97634700Y-148042800D01*
X184429400Y-154940000D02*
X184429400Y-123861101D01*
X96722500Y-154784300D02*
X96722500Y-148955000D01*
X97634700Y-148042800D02*
X109663400Y-148042800D01*
X109663400Y-148042800D02*
X115366800Y-153746200D01*
X96709800Y-154797000D02*
X96722500Y-154784300D01*
X184429400Y-123861101D02*
X184073800Y-123505501D01*
G04 #@! TO.N,X2*
X186575000Y-123555000D02*
X186575000Y-148955000D01*
X100711000Y-148767800D02*
X100711000Y-152295000D01*
G04 #@! TO.N,X1*
X189115000Y-123555000D02*
X189115000Y-134985000D01*
G04 #@! TO.N,Y1*
X164582600Y-121015000D02*
X168795000Y-121015000D01*
X443800800Y-171450000D02*
X443800800Y-190423800D01*
X432634850Y-108788200D02*
X443750000Y-119903350D01*
X444982600Y-206197200D02*
X446684400Y-207899000D01*
X446684400Y-207899000D02*
X446684400Y-212496400D01*
X85615000Y-187563000D02*
X85615000Y-170075000D01*
X443775400Y-127609600D02*
X443750000Y-127584200D01*
X148285200Y-149721000D02*
X148285200Y-137312400D01*
X158572200Y-184734200D02*
X158572200Y-175765400D01*
X443775400Y-171424600D02*
X443775400Y-163791250D01*
X154381200Y-171574400D02*
X154381200Y-155817000D01*
X443775400Y-171424600D02*
X443775400Y-127609600D01*
X151688800Y-211429600D02*
X151688800Y-191617600D01*
X424688000Y-108788200D02*
X432634850Y-108788200D01*
X154381200Y-155817000D02*
X148285200Y-149721000D01*
X444982600Y-206197200D02*
X443800800Y-205015400D01*
X424688000Y-108788200D02*
X424688000Y-108725400D01*
X151688800Y-191617600D02*
X158572200Y-184734200D01*
X424688000Y-108725400D02*
X424598400Y-108635800D01*
X443750000Y-119903350D02*
X443750000Y-127584200D01*
X158572200Y-175765400D02*
X154381200Y-171574400D01*
X443800800Y-171450000D02*
X443775400Y-171424600D01*
X443699200Y-215481600D02*
X443699200Y-226044000D01*
X148285200Y-137312400D02*
X164582600Y-121015000D01*
X443775400Y-163791250D02*
X443750000Y-163765850D01*
X443800800Y-205015400D02*
X443800800Y-190423800D01*
X446684400Y-212496400D02*
X443699200Y-215481600D01*
G04 #@! TO.N,Net-(J1-Pin_2)*
X104660000Y-123555000D02*
X85615000Y-142600000D01*
X85615000Y-142600000D02*
X85615000Y-147215000D01*
G04 #@! TO.N,Net-(SW901-A)*
X139585000Y-121010000D02*
X140950000Y-122375000D01*
X146304000Y-152552400D02*
X139293600Y-159562800D01*
X140950000Y-125532200D02*
X146304000Y-130886200D01*
X143814800Y-186055000D02*
X150545800Y-192786000D01*
X143814800Y-171729400D02*
X143814800Y-186055000D01*
X139293600Y-167208200D02*
X143814800Y-171729400D01*
X140950000Y-122375000D02*
X140950000Y-125532200D01*
X139293600Y-159562800D02*
X139293600Y-167208200D01*
X150545800Y-192786000D02*
X150545800Y-217065800D01*
X146304000Y-130886200D02*
X146304000Y-152552400D01*
X150545800Y-217065800D02*
X158635000Y-225155000D01*
G04 #@! TO.N,Net-(D21-A)*
X114978750Y-207460150D02*
X114978750Y-203565000D01*
X338023200Y-233375200D02*
X362628750Y-208769650D01*
X332638400Y-233375200D02*
X332638400Y-233305350D01*
X332638400Y-233375200D02*
X338023200Y-233375200D01*
X362628750Y-208769650D02*
X362628750Y-203565000D01*
X140893800Y-233375200D02*
X114978750Y-207460150D01*
G04 #@! TO.N,Net-(SW902-A)*
X291769800Y-179524600D02*
X303909200Y-191664000D01*
X280314400Y-146532600D02*
X291769800Y-157988000D01*
X307269100Y-221389100D02*
X311035000Y-225155000D01*
X303909200Y-218029200D02*
X311035000Y-225155000D01*
X303909200Y-191664000D02*
X303909200Y-218029200D01*
X291769800Y-157988000D02*
X291769800Y-179524600D01*
X280314400Y-128549400D02*
X280314400Y-146532600D01*
G04 #@! TO.N,Net-(D901-K)*
X138442000Y-158001400D02*
X138442000Y-168030400D01*
X154559000Y-223680600D02*
X154559000Y-228295200D01*
X138442000Y-168030400D02*
X142328200Y-171916600D01*
X142417800Y-187299600D02*
X149377400Y-194259200D01*
X137045000Y-121010000D02*
X138410000Y-122375000D01*
X138963400Y-125425200D02*
X144957800Y-131419600D01*
X144957800Y-151485600D02*
X138442000Y-158001400D01*
X138410000Y-125425200D02*
X138963400Y-125425200D01*
X142328200Y-171916600D02*
X142328200Y-187299600D01*
X138410000Y-122375000D02*
X138410000Y-125425200D01*
X144957800Y-131419600D02*
X144957800Y-151485600D01*
X149377400Y-218499000D02*
X154559000Y-223680600D01*
X149377400Y-194259200D02*
X149377400Y-218499000D01*
X142328200Y-187299600D02*
X142417800Y-187299600D01*
G04 #@! TD*
M02*
