G04 #@! TF.GenerationSoftware,KiCad,Pcbnew,8.0.2*
G04 #@! TF.CreationDate,2025-05-01T13:08:38+01:00*
G04 #@! TF.ProjectId,Keyboard,4b657962-6f61-4726-942e-6b696361645f,rev?*
G04 #@! TF.SameCoordinates,Original*
G04 #@! TF.FileFunction,Paste,Bot*
G04 #@! TF.FilePolarity,Positive*
%FSLAX46Y46*%
G04 Gerber Fmt 4.6, Leading zero omitted, Abs format (unit mm)*
G04 Created by KiCad (PCBNEW 8.0.2) date 2025-05-01 13:08:38*
%MOMM*%
%LPD*%
G01*
G04 APERTURE LIST*
G04 Aperture macros list*
%AMRoundRect*
0 Rectangle with rounded corners*
0 $1 Rounding radius*
0 $2 $3 $4 $5 $6 $7 $8 $9 X,Y pos of 4 corners*
0 Add a 4 corners polygon primitive as box body*
4,1,4,$2,$3,$4,$5,$6,$7,$8,$9,$2,$3,0*
0 Add four circle primitives for the rounded corners*
1,1,$1+$1,$2,$3*
1,1,$1+$1,$4,$5*
1,1,$1+$1,$6,$7*
1,1,$1+$1,$8,$9*
0 Add four rect primitives between the rounded corners*
20,1,$1+$1,$2,$3,$4,$5,0*
20,1,$1+$1,$4,$5,$6,$7,0*
20,1,$1+$1,$6,$7,$8,$9,0*
20,1,$1+$1,$8,$9,$2,$3,0*%
G04 Aperture macros list end*
%ADD10R,2.550000X2.500000*%
%ADD11RoundRect,0.300000X0.300000X-0.300000X0.300000X0.300000X-0.300000X0.300000X-0.300000X-0.300000X0*%
G04 APERTURE END LIST*
D10*
G04 #@! TO.C,SW17*
X343677500Y-157845000D03*
X329827500Y-160385000D03*
G04 #@! TD*
G04 #@! TO.C,SW9*
X438927500Y-113982500D03*
X425077500Y-116522500D03*
G04 #@! TD*
G04 #@! TO.C,SW60*
X157940000Y-176895000D03*
X144090000Y-179435000D03*
G04 #@! TD*
G04 #@! TO.C,SW27*
X305577500Y-157845000D03*
X291727500Y-160385000D03*
G04 #@! TD*
G04 #@! TO.C,SW22*
X338915000Y-195945000D03*
X325065000Y-198485000D03*
G04 #@! TD*
G04 #@! TO.C,SW69*
X138890000Y-176895000D03*
X125040000Y-179435000D03*
G04 #@! TD*
G04 #@! TO.C,SW33*
X277002500Y-138795000D03*
X263152500Y-141335000D03*
G04 #@! TD*
G04 #@! TO.C,SW63*
X167465000Y-195945000D03*
X153615000Y-198485000D03*
G04 #@! TD*
G04 #@! TO.C,SW7*
X438927500Y-214995000D03*
X425077500Y-217535000D03*
G04 #@! TD*
G04 #@! TO.C,SW36*
X291290000Y-176895000D03*
X277440000Y-179435000D03*
G04 #@! TD*
G04 #@! TO.C,SW50*
X191277500Y-157845000D03*
X177427500Y-160385000D03*
G04 #@! TD*
G04 #@! TO.C,SW10*
X419877500Y-157845000D03*
X406027500Y-160385000D03*
G04 #@! TD*
G04 #@! TO.C,SW1*
X457977500Y-113982500D03*
X444127500Y-116522500D03*
G04 #@! TD*
G04 #@! TO.C,SW13*
X419877500Y-195945000D03*
X406027500Y-198485000D03*
G04 #@! TD*
G04 #@! TO.C,SW42*
X248427500Y-157845000D03*
X234577500Y-160385000D03*
G04 #@! TD*
G04 #@! TO.C,SW30*
X319865000Y-195945000D03*
X306015000Y-198485000D03*
G04 #@! TD*
G04 #@! TO.C,SW62*
X186515000Y-195945000D03*
X172665000Y-198485000D03*
G04 #@! TD*
G04 #@! TO.C,SW53*
X196040000Y-176895000D03*
X182190000Y-179435000D03*
G04 #@! TD*
G04 #@! TO.C,SW79*
X372252500Y-138795000D03*
X358402500Y-141335000D03*
G04 #@! TD*
G04 #@! TO.C,SW14*
X438927500Y-195945000D03*
X425077500Y-198485000D03*
G04 #@! TD*
G04 #@! TO.C,SW65*
X143652500Y-138795000D03*
X129802500Y-141335000D03*
G04 #@! TD*
G04 #@! TO.C,SW31*
X300815000Y-195945000D03*
X286965000Y-198485000D03*
G04 #@! TD*
G04 #@! TO.C,SW37*
X272240000Y-176895000D03*
X258390000Y-179435000D03*
G04 #@! TD*
G04 #@! TO.C,SW70*
X112696250Y-176895000D03*
X98846250Y-179435000D03*
G04 #@! TD*
G04 #@! TO.C,SW39*
X281765000Y-195945000D03*
X267915000Y-198485000D03*
G04 #@! TD*
G04 #@! TO.C,SW6*
X457977500Y-214995000D03*
X444127500Y-217535000D03*
G04 #@! TD*
G04 #@! TO.C,SW20*
X419877500Y-176895000D03*
X406027500Y-179435000D03*
G04 #@! TD*
G04 #@! TO.C,SW21*
X117458750Y-195945000D03*
X103608750Y-198485000D03*
G04 #@! TD*
G04 #@! TO.C,SW38*
X262715000Y-195945000D03*
X248865000Y-198485000D03*
G04 #@! TD*
G04 #@! TO.C,SW68*
X110315000Y-157845000D03*
X96465000Y-160385000D03*
G04 #@! TD*
G04 #@! TO.C,SW56*
X181752500Y-138795000D03*
X167902500Y-141335000D03*
G04 #@! TD*
G04 #@! TO.C,SW59*
X153177500Y-157845000D03*
X139327500Y-160385000D03*
G04 #@! TD*
G04 #@! TO.C,SW902*
X319865000Y-214995000D03*
X306015000Y-217535000D03*
G04 #@! TD*
G04 #@! TO.C,SW43*
X229377500Y-157845000D03*
X215527500Y-160385000D03*
G04 #@! TD*
G04 #@! TO.C,SW901*
X167465000Y-214995000D03*
X153615000Y-217535000D03*
G04 #@! TD*
G04 #@! TO.C,SW19*
X348440000Y-176895000D03*
X334590000Y-179435000D03*
G04 #@! TD*
G04 #@! TO.C,SW34*
X286527500Y-157845000D03*
X272677500Y-160385000D03*
G04 #@! TD*
G04 #@! TO.C,SW23*
X338915000Y-214995000D03*
X325065000Y-217535000D03*
G04 #@! TD*
G04 #@! TO.C,SW11*
X438927500Y-157845000D03*
X425077500Y-160385000D03*
G04 #@! TD*
G04 #@! TO.C,SW41*
X238902500Y-138795000D03*
X225052500Y-141335000D03*
G04 #@! TD*
G04 #@! TO.C,SW45*
X253190000Y-176895000D03*
X239340000Y-179435000D03*
G04 #@! TD*
G04 #@! TO.C,SW8*
X419877500Y-113982500D03*
X406027500Y-116522500D03*
G04 #@! TD*
G04 #@! TO.C,SW52*
X215090000Y-176895000D03*
X201240000Y-179435000D03*
G04 #@! TD*
G04 #@! TO.C,SW5*
X457977500Y-195945000D03*
X444127500Y-198485000D03*
G04 #@! TD*
G04 #@! TO.C,SW16*
X353202500Y-138795000D03*
X339352500Y-141335000D03*
G04 #@! TD*
G04 #@! TO.C,SW4*
X457977500Y-176895000D03*
X444127500Y-179435000D03*
G04 #@! TD*
G04 #@! TO.C,SW67*
X134127500Y-157845000D03*
X120277500Y-160385000D03*
G04 #@! TD*
G04 #@! TO.C,SW18*
X369871250Y-167370000D03*
X356021250Y-169910000D03*
G04 #@! TD*
G04 #@! TO.C,SW25*
X315102500Y-138795000D03*
X301252500Y-141335000D03*
G04 #@! TD*
G04 #@! TO.C,SW24*
X334152500Y-138795000D03*
X320302500Y-141335000D03*
G04 #@! TD*
G04 #@! TO.C,SW12*
X438927500Y-176895000D03*
X425077500Y-179435000D03*
G04 #@! TD*
G04 #@! TO.C,SW66*
X105552500Y-138795000D03*
X91702500Y-141335000D03*
G04 #@! TD*
G04 #@! TO.C,SW28*
X329390000Y-176895000D03*
X315540000Y-179435000D03*
G04 #@! TD*
G04 #@! TO.C,SW29*
X310340000Y-176895000D03*
X296490000Y-179435000D03*
G04 #@! TD*
G04 #@! TO.C,SW58*
X172227500Y-157845000D03*
X158377500Y-160385000D03*
G04 #@! TD*
G04 #@! TO.C,SW15*
X419877500Y-214995000D03*
X406027500Y-217535000D03*
G04 #@! TD*
G04 #@! TO.C,SW3*
X457977500Y-157845000D03*
X444127500Y-160385000D03*
G04 #@! TD*
G04 #@! TO.C,SW48*
X219852500Y-138795000D03*
X206002500Y-141335000D03*
G04 #@! TD*
G04 #@! TO.C,SW57*
X162702500Y-138795000D03*
X148852500Y-141335000D03*
G04 #@! TD*
G04 #@! TO.C,SW61*
X176990000Y-176895000D03*
X163140000Y-179435000D03*
G04 #@! TD*
G04 #@! TO.C,SW0*
X438927500Y-94932500D03*
X425077500Y-97472500D03*
G04 #@! TD*
G04 #@! TO.C,SW47*
X243665000Y-214995000D03*
X229815000Y-217535000D03*
G04 #@! TD*
G04 #@! TO.C,SW64*
X124602500Y-138795000D03*
X110752500Y-141335000D03*
G04 #@! TD*
G04 #@! TO.C,SW71*
X148415000Y-195945000D03*
X134565000Y-198485000D03*
G04 #@! TD*
G04 #@! TO.C,SW35*
X267477500Y-157845000D03*
X253627500Y-160385000D03*
G04 #@! TD*
G04 #@! TO.C,SW51*
X210327500Y-157845000D03*
X196477500Y-160385000D03*
G04 #@! TD*
G04 #@! TO.C,SW54*
X224615000Y-195945000D03*
X210765000Y-198485000D03*
G04 #@! TD*
G04 #@! TO.C,SW46*
X243665000Y-195945000D03*
X229815000Y-198485000D03*
G04 #@! TD*
G04 #@! TO.C,SW49*
X200802500Y-138795000D03*
X186952500Y-141335000D03*
G04 #@! TD*
G04 #@! TO.C,SW26*
X324627500Y-157845000D03*
X310777500Y-160385000D03*
G04 #@! TD*
G04 #@! TO.C,SW2*
X438927500Y-133032500D03*
X425077500Y-135572500D03*
G04 #@! TD*
G04 #@! TO.C,SW40*
X257952500Y-138795000D03*
X244102500Y-141335000D03*
G04 #@! TD*
G04 #@! TO.C,SW32*
X296052500Y-138795000D03*
X282202500Y-141335000D03*
G04 #@! TD*
G04 #@! TO.C,SW55*
X205565000Y-195945000D03*
X191715000Y-198485000D03*
G04 #@! TD*
G04 #@! TO.C,SW121*
X365108750Y-195945000D03*
X351258750Y-198485000D03*
G04 #@! TD*
G04 #@! TO.C,SW44*
X234140000Y-176895000D03*
X220290000Y-179435000D03*
G04 #@! TD*
D11*
G04 #@! TO.C,D68*
X111645000Y-170060000D03*
X111645000Y-166460000D03*
G04 #@! TD*
G04 #@! TO.C,D38*
X248805000Y-208160000D03*
X248805000Y-204560000D03*
G04 #@! TD*
G04 #@! TO.C,D59*
X138950000Y-170060000D03*
X138950000Y-166460000D03*
G04 #@! TD*
G04 #@! TO.C,D56*
X167525000Y-151010000D03*
X167525000Y-147410000D03*
G04 #@! TD*
G04 #@! TO.C,D28*
X315480000Y-189110000D03*
X315480000Y-185510000D03*
G04 #@! TD*
G04 #@! TO.C,D23*
X325005000Y-227210000D03*
X325005000Y-223610000D03*
G04 #@! TD*
G04 #@! TO.C,D37*
X258330000Y-189110000D03*
X258330000Y-185510000D03*
G04 #@! TD*
G04 #@! TO.C,D15*
X405650000Y-227210000D03*
X405650000Y-223610000D03*
G04 #@! TD*
G04 #@! TO.C,D35*
X253250000Y-170060000D03*
X253250000Y-166460000D03*
G04 #@! TD*
G04 #@! TO.C,D40*
X243725000Y-150920000D03*
X243725000Y-147320000D03*
G04 #@! TD*
G04 #@! TO.C,D14*
X424700000Y-206165000D03*
X424700000Y-202565000D03*
G04 #@! TD*
G04 #@! TO.C,D70*
X114300000Y-189110000D03*
X114300000Y-185510000D03*
G04 #@! TD*
G04 #@! TO.C,D27*
X291350000Y-170060000D03*
X291350000Y-166460000D03*
G04 #@! TD*
G04 #@! TO.C,D6*
X443750000Y-227210000D03*
X443750000Y-223610000D03*
G04 #@! TD*
G04 #@! TO.C,D55*
X191655000Y-208160000D03*
X191655000Y-204560000D03*
G04 #@! TD*
G04 #@! TO.C,D44*
X220230000Y-189110000D03*
X220230000Y-185510000D03*
G04 #@! TD*
G04 #@! TO.C,D48*
X205625000Y-149015000D03*
X205625000Y-145415000D03*
G04 #@! TD*
G04 #@! TO.C,D63*
X153555000Y-208160000D03*
X153555000Y-204560000D03*
G04 #@! TD*
G04 #@! TO.C,D30*
X305955000Y-208160000D03*
X305955000Y-204560000D03*
G04 #@! TD*
G04 #@! TO.C,D53*
X182130000Y-189110000D03*
X182130000Y-185510000D03*
G04 #@! TD*
G04 #@! TO.C,D4*
X443750000Y-189110000D03*
X443750000Y-185510000D03*
G04 #@! TD*
G04 #@! TO.C,D34*
X272300000Y-170060000D03*
X272300000Y-166460000D03*
G04 #@! TD*
G04 #@! TO.C,D33*
X262775000Y-151010000D03*
X262775000Y-147410000D03*
G04 #@! TD*
G04 #@! TO.C,D32*
X281825000Y-149015000D03*
X281825000Y-145415000D03*
G04 #@! TD*
G04 #@! TO.C,D11*
X424700000Y-170060000D03*
X424700000Y-166460000D03*
G04 #@! TD*
G04 #@! TO.C,D16*
X338975000Y-151010000D03*
X338975000Y-147410000D03*
G04 #@! TD*
G04 #@! TO.C,D21*
X99060000Y-202990000D03*
X99060000Y-199390000D03*
G04 #@! TD*
G04 #@! TO.C,D29*
X296430000Y-189110000D03*
X296430000Y-185510000D03*
G04 #@! TD*
G04 #@! TO.C,D1*
X443750000Y-126515000D03*
X443750000Y-122915000D03*
G04 #@! TD*
G04 #@! TO.C,D46*
X229755000Y-208160000D03*
X229755000Y-204560000D03*
G04 #@! TD*
G04 #@! TO.C,D902*
X305955000Y-227210000D03*
X305955000Y-223610000D03*
G04 #@! TD*
G04 #@! TO.C,D31*
X286905000Y-208160000D03*
X286905000Y-204560000D03*
G04 #@! TD*
G04 #@! TO.C,D22*
X325005000Y-206800000D03*
X325005000Y-203200000D03*
G04 #@! TD*
G04 #@! TO.C,D25*
X300875000Y-151010000D03*
X300875000Y-147410000D03*
G04 #@! TD*
G04 #@! TO.C,D41*
X224675000Y-151010000D03*
X224675000Y-147410000D03*
G04 #@! TD*
G04 #@! TO.C,D2*
X424700000Y-145565000D03*
X424700000Y-141965000D03*
G04 #@! TD*
G04 #@! TO.C,D58*
X158000000Y-170060000D03*
X158000000Y-166460000D03*
G04 #@! TD*
G04 #@! TO.C,D64*
X111010000Y-149650000D03*
X111010000Y-146050000D03*
G04 #@! TD*
G04 #@! TO.C,D19*
X334530000Y-189110000D03*
X334530000Y-185510000D03*
G04 #@! TD*
G04 #@! TO.C,D20*
X405650000Y-189110000D03*
X405650000Y-185510000D03*
G04 #@! TD*
G04 #@! TO.C,D45*
X239280000Y-189110000D03*
X239280000Y-185510000D03*
G04 #@! TD*
G04 #@! TO.C,D47*
X229755000Y-227210000D03*
X229755000Y-223610000D03*
G04 #@! TD*
G04 #@! TO.C,D10*
X405650000Y-170060000D03*
X405650000Y-166460000D03*
G04 #@! TD*
G04 #@! TO.C,D24*
X319925000Y-151010000D03*
X319925000Y-147410000D03*
G04 #@! TD*
G04 #@! TO.C,D7*
X424700000Y-227210000D03*
X424700000Y-223610000D03*
G04 #@! TD*
G04 #@! TO.C,D9*
X424700000Y-126515000D03*
X424700000Y-122915000D03*
G04 #@! TD*
G04 #@! TO.C,D51*
X196100000Y-170060000D03*
X196100000Y-166460000D03*
G04 #@! TD*
G04 #@! TO.C,D0*
X424700000Y-107465000D03*
X424700000Y-103865000D03*
G04 #@! TD*
G04 #@! TO.C,D71*
X134505000Y-208070000D03*
X134505000Y-204470000D03*
G04 #@! TD*
G04 #@! TO.C,D54*
X210705000Y-208160000D03*
X210705000Y-204560000D03*
G04 #@! TD*
G04 #@! TO.C,D13*
X405650000Y-208160000D03*
X405650000Y-204560000D03*
G04 #@! TD*
G04 #@! TO.C,D39*
X267855000Y-208160000D03*
X267855000Y-204560000D03*
G04 #@! TD*
G04 #@! TO.C,D43*
X215150000Y-170060000D03*
X215150000Y-166460000D03*
G04 #@! TD*
G04 #@! TO.C,D26*
X310400000Y-170060000D03*
X310400000Y-166460000D03*
G04 #@! TD*
G04 #@! TO.C,D901*
X153555000Y-227210000D03*
X153555000Y-223610000D03*
G04 #@! TD*
G04 #@! TO.C,D36*
X277380000Y-187115000D03*
X277380000Y-183515000D03*
G04 #@! TD*
G04 #@! TO.C,D79*
X358025000Y-149650000D03*
X358025000Y-146050000D03*
G04 #@! TD*
G04 #@! TO.C,D65*
X129425000Y-151010000D03*
X129425000Y-147410000D03*
G04 #@! TD*
G04 #@! TO.C,D42*
X234200000Y-170060000D03*
X234200000Y-166460000D03*
G04 #@! TD*
G04 #@! TO.C,D66*
X107200000Y-149650000D03*
X107200000Y-146050000D03*
G04 #@! TD*
G04 #@! TO.C,D3*
X443750000Y-170060000D03*
X443750000Y-166460000D03*
G04 #@! TD*
G04 #@! TO.C,D69*
X124980000Y-189110000D03*
X124980000Y-185510000D03*
G04 #@! TD*
G04 #@! TO.C,D50*
X177050000Y-170060000D03*
X177050000Y-166460000D03*
G04 #@! TD*
G04 #@! TO.C,D18*
X356120000Y-179585000D03*
X356120000Y-175985000D03*
G04 #@! TD*
G04 #@! TO.C,D52*
X201180000Y-187115000D03*
X201180000Y-183515000D03*
G04 #@! TD*
G04 #@! TO.C,D61*
X163080000Y-189110000D03*
X163080000Y-185510000D03*
G04 #@! TD*
G04 #@! TO.C,D49*
X186575000Y-151010000D03*
X186575000Y-147410000D03*
G04 #@! TD*
G04 #@! TO.C,D60*
X144030000Y-189110000D03*
X144030000Y-185510000D03*
G04 #@! TD*
G04 #@! TO.C,D5*
X443750000Y-206165000D03*
X443750000Y-202565000D03*
G04 #@! TD*
G04 #@! TO.C,D67*
X119900000Y-170060000D03*
X119900000Y-166460000D03*
G04 #@! TD*
G04 #@! TO.C,D57*
X148475000Y-151010000D03*
X148475000Y-147410000D03*
G04 #@! TD*
G04 #@! TO.C,D12*
X424700000Y-189110000D03*
X424700000Y-185510000D03*
G04 #@! TD*
G04 #@! TO.C,D17*
X329450000Y-170060000D03*
X329450000Y-166460000D03*
G04 #@! TD*
G04 #@! TO.C,D8*
X405650000Y-126515000D03*
X405650000Y-122915000D03*
G04 #@! TD*
G04 #@! TO.C,D62*
X172605000Y-208160000D03*
X172605000Y-204560000D03*
G04 #@! TD*
M02*
