G04 #@! TF.GenerationSoftware,KiCad,Pcbnew,(5.1.12)-1*
G04 #@! TF.CreationDate,2024-09-28T15:58:51+01:00*
G04 #@! TF.ProjectId,Keyboard,4b657962-6f61-4726-942e-6b696361645f,rev?*
G04 #@! TF.SameCoordinates,Original*
G04 #@! TF.FileFunction,Soldermask,Top*
G04 #@! TF.FilePolarity,Negative*
%FSLAX46Y46*%
G04 Gerber Fmt 4.6, Leading zero omitted, Abs format (unit mm)*
G04 Created by KiCad (PCBNEW (5.1.12)-1) date 2024-09-28 15:58:51*
%MOMM*%
%LPD*%
G01*
G04 APERTURE LIST*
%ADD10C,1.700000*%
%ADD11O,3.048000X1.850000*%
%ADD12C,3.200000*%
%ADD13O,1.700000X1.700000*%
%ADD14R,1.700000X1.700000*%
G04 APERTURE END LIST*
D10*
G04 #@! TO.C,SW59*
X114454000Y-112156000D03*
X114454000Y-103156000D03*
D11*
X108204000Y-110156000D03*
X108204000Y-105156000D03*
X120704000Y-110156000D03*
X120704000Y-105156000D03*
G04 #@! TD*
D10*
G04 #@! TO.C,SW22*
X274474000Y-145176000D03*
X274474000Y-136176000D03*
D11*
X268224000Y-143176000D03*
X268224000Y-138176000D03*
X280724000Y-143176000D03*
X280724000Y-138176000D03*
G04 #@! TD*
D10*
G04 #@! TO.C,SW121*
X290984000Y-145176000D03*
X290984000Y-136176000D03*
D11*
X284734000Y-143176000D03*
X284734000Y-138176000D03*
X297234000Y-143176000D03*
X297234000Y-138176000D03*
G04 #@! TD*
D10*
G04 #@! TO.C,SW79*
X304319000Y-95646000D03*
X304319000Y-86646000D03*
D11*
X298069000Y-93646000D03*
X298069000Y-88646000D03*
X310569000Y-93646000D03*
X310569000Y-88646000D03*
G04 #@! TD*
D10*
G04 #@! TO.C,SW71*
X109374000Y-145176000D03*
X109374000Y-136176000D03*
D11*
X103124000Y-143176000D03*
X103124000Y-138176000D03*
X115624000Y-143176000D03*
X115624000Y-138176000D03*
G04 #@! TD*
D10*
G04 #@! TO.C,SW70*
X85244000Y-128666000D03*
X85244000Y-119666000D03*
D11*
X78994000Y-126666000D03*
X78994000Y-121666000D03*
X91494000Y-126666000D03*
X91494000Y-121666000D03*
G04 #@! TD*
D10*
G04 #@! TO.C,SW69*
X101754000Y-128666000D03*
X101754000Y-119666000D03*
D11*
X95504000Y-126666000D03*
X95504000Y-121666000D03*
X108004000Y-126666000D03*
X108004000Y-121666000D03*
G04 #@! TD*
D10*
G04 #@! TO.C,SW68*
X81434000Y-112156000D03*
X81434000Y-103156000D03*
D11*
X75184000Y-110156000D03*
X75184000Y-105156000D03*
X87684000Y-110156000D03*
X87684000Y-105156000D03*
G04 #@! TD*
D10*
G04 #@! TO.C,SW67*
X97944000Y-112156000D03*
X97944000Y-103156000D03*
D11*
X91694000Y-110156000D03*
X91694000Y-105156000D03*
X104194000Y-110156000D03*
X104194000Y-105156000D03*
G04 #@! TD*
D10*
G04 #@! TO.C,SW66*
X73179000Y-95646000D03*
X73179000Y-86646000D03*
D11*
X66929000Y-93646000D03*
X66929000Y-88646000D03*
X79429000Y-93646000D03*
X79429000Y-88646000D03*
G04 #@! TD*
D10*
G04 #@! TO.C,SW65*
X106199000Y-95646000D03*
X106199000Y-86646000D03*
D11*
X99949000Y-93646000D03*
X99949000Y-88646000D03*
X112449000Y-93646000D03*
X112449000Y-88646000D03*
G04 #@! TD*
D10*
G04 #@! TO.C,SW64*
X89689000Y-95646000D03*
X89689000Y-86646000D03*
D11*
X83439000Y-93646000D03*
X83439000Y-88646000D03*
X95939000Y-93646000D03*
X95939000Y-88646000D03*
G04 #@! TD*
D10*
G04 #@! TO.C,SW63*
X125884000Y-145176000D03*
X125884000Y-136176000D03*
D11*
X119634000Y-143176000D03*
X119634000Y-138176000D03*
X132134000Y-143176000D03*
X132134000Y-138176000D03*
G04 #@! TD*
D10*
G04 #@! TO.C,SW62*
X142394000Y-145176000D03*
X142394000Y-136176000D03*
D11*
X136144000Y-143176000D03*
X136144000Y-138176000D03*
X148644000Y-143176000D03*
X148644000Y-138176000D03*
G04 #@! TD*
D10*
G04 #@! TO.C,SW61*
X134774000Y-128666000D03*
X134774000Y-119666000D03*
D11*
X128524000Y-126666000D03*
X128524000Y-121666000D03*
X141024000Y-126666000D03*
X141024000Y-121666000D03*
G04 #@! TD*
D10*
G04 #@! TO.C,SW60*
X118264000Y-128666000D03*
X118264000Y-119666000D03*
D11*
X112014000Y-126666000D03*
X112014000Y-121666000D03*
X124514000Y-126666000D03*
X124514000Y-121666000D03*
G04 #@! TD*
D10*
G04 #@! TO.C,SW58*
X130964000Y-112156000D03*
X130964000Y-103156000D03*
D11*
X124714000Y-110156000D03*
X124714000Y-105156000D03*
X137214000Y-110156000D03*
X137214000Y-105156000D03*
G04 #@! TD*
D10*
G04 #@! TO.C,SW57*
X122709000Y-95646000D03*
X122709000Y-86646000D03*
D11*
X116459000Y-93646000D03*
X116459000Y-88646000D03*
X128959000Y-93646000D03*
X128959000Y-88646000D03*
G04 #@! TD*
D10*
G04 #@! TO.C,SW56*
X139219000Y-95646000D03*
X139219000Y-86646000D03*
D11*
X132969000Y-93646000D03*
X132969000Y-88646000D03*
X145469000Y-93646000D03*
X145469000Y-88646000D03*
G04 #@! TD*
D10*
G04 #@! TO.C,SW55*
X158904000Y-145176000D03*
X158904000Y-136176000D03*
D11*
X152654000Y-143176000D03*
X152654000Y-138176000D03*
X165154000Y-143176000D03*
X165154000Y-138176000D03*
G04 #@! TD*
D10*
G04 #@! TO.C,SW54*
X175414000Y-145176000D03*
X175414000Y-136176000D03*
D11*
X169164000Y-143176000D03*
X169164000Y-138176000D03*
X181664000Y-143176000D03*
X181664000Y-138176000D03*
G04 #@! TD*
D10*
G04 #@! TO.C,SW53*
X151284000Y-128666000D03*
X151284000Y-119666000D03*
D11*
X145034000Y-126666000D03*
X145034000Y-121666000D03*
X157534000Y-126666000D03*
X157534000Y-121666000D03*
G04 #@! TD*
D10*
G04 #@! TO.C,SW52*
X167794000Y-128666000D03*
X167794000Y-119666000D03*
D11*
X161544000Y-126666000D03*
X161544000Y-121666000D03*
X174044000Y-126666000D03*
X174044000Y-121666000D03*
G04 #@! TD*
D10*
G04 #@! TO.C,SW51*
X163984000Y-112156000D03*
X163984000Y-103156000D03*
D11*
X157734000Y-110156000D03*
X157734000Y-105156000D03*
X170234000Y-110156000D03*
X170234000Y-105156000D03*
G04 #@! TD*
D10*
G04 #@! TO.C,SW50*
X147474000Y-112156000D03*
X147474000Y-103156000D03*
D11*
X141224000Y-110156000D03*
X141224000Y-105156000D03*
X153724000Y-110156000D03*
X153724000Y-105156000D03*
G04 #@! TD*
D10*
G04 #@! TO.C,SW49*
X155729000Y-95646000D03*
X155729000Y-86646000D03*
D11*
X149479000Y-93646000D03*
X149479000Y-88646000D03*
X161979000Y-93646000D03*
X161979000Y-88646000D03*
G04 #@! TD*
D10*
G04 #@! TO.C,SW48*
X172239000Y-95646000D03*
X172239000Y-86646000D03*
D11*
X165989000Y-93646000D03*
X165989000Y-88646000D03*
X178489000Y-93646000D03*
X178489000Y-88646000D03*
G04 #@! TD*
D10*
G04 #@! TO.C,SW47*
X191924000Y-161686000D03*
X191924000Y-152686000D03*
D11*
X185674000Y-159686000D03*
X185674000Y-154686000D03*
X198174000Y-159686000D03*
X198174000Y-154686000D03*
G04 #@! TD*
D10*
G04 #@! TO.C,SW46*
X191924000Y-145176000D03*
X191924000Y-136176000D03*
D11*
X185674000Y-143176000D03*
X185674000Y-138176000D03*
X198174000Y-143176000D03*
X198174000Y-138176000D03*
G04 #@! TD*
D10*
G04 #@! TO.C,SW45*
X200814000Y-128666000D03*
X200814000Y-119666000D03*
D11*
X194564000Y-126666000D03*
X194564000Y-121666000D03*
X207064000Y-126666000D03*
X207064000Y-121666000D03*
G04 #@! TD*
D10*
G04 #@! TO.C,SW44*
X184304000Y-128666000D03*
X184304000Y-119666000D03*
D11*
X178054000Y-126666000D03*
X178054000Y-121666000D03*
X190554000Y-126666000D03*
X190554000Y-121666000D03*
G04 #@! TD*
D10*
G04 #@! TO.C,SW43*
X180494000Y-112156000D03*
X180494000Y-103156000D03*
D11*
X174244000Y-110156000D03*
X174244000Y-105156000D03*
X186744000Y-110156000D03*
X186744000Y-105156000D03*
G04 #@! TD*
D10*
G04 #@! TO.C,SW42*
X197004000Y-112156000D03*
X197004000Y-103156000D03*
D11*
X190754000Y-110156000D03*
X190754000Y-105156000D03*
X203254000Y-110156000D03*
X203254000Y-105156000D03*
G04 #@! TD*
D10*
G04 #@! TO.C,SW41*
X188749000Y-95646000D03*
X188749000Y-86646000D03*
D11*
X182499000Y-93646000D03*
X182499000Y-88646000D03*
X194999000Y-93646000D03*
X194999000Y-88646000D03*
G04 #@! TD*
D10*
G04 #@! TO.C,SW40*
X205259000Y-95646000D03*
X205259000Y-86646000D03*
D11*
X199009000Y-93646000D03*
X199009000Y-88646000D03*
X211509000Y-93646000D03*
X211509000Y-88646000D03*
G04 #@! TD*
D10*
G04 #@! TO.C,SW39*
X224944000Y-145176000D03*
X224944000Y-136176000D03*
D11*
X218694000Y-143176000D03*
X218694000Y-138176000D03*
X231194000Y-143176000D03*
X231194000Y-138176000D03*
G04 #@! TD*
D10*
G04 #@! TO.C,SW38*
X208434000Y-145176000D03*
X208434000Y-136176000D03*
D11*
X202184000Y-143176000D03*
X202184000Y-138176000D03*
X214684000Y-143176000D03*
X214684000Y-138176000D03*
G04 #@! TD*
D10*
G04 #@! TO.C,SW37*
X217324000Y-128666000D03*
X217324000Y-119666000D03*
D11*
X211074000Y-126666000D03*
X211074000Y-121666000D03*
X223574000Y-126666000D03*
X223574000Y-121666000D03*
G04 #@! TD*
D10*
G04 #@! TO.C,SW36*
X233834000Y-128666000D03*
X233834000Y-119666000D03*
D11*
X227584000Y-126666000D03*
X227584000Y-121666000D03*
X240084000Y-126666000D03*
X240084000Y-121666000D03*
G04 #@! TD*
D10*
G04 #@! TO.C,SW35*
X213514000Y-112156000D03*
X213514000Y-103156000D03*
D11*
X207264000Y-110156000D03*
X207264000Y-105156000D03*
X219764000Y-110156000D03*
X219764000Y-105156000D03*
G04 #@! TD*
D10*
G04 #@! TO.C,SW34*
X230024000Y-112156000D03*
X230024000Y-103156000D03*
D11*
X223774000Y-110156000D03*
X223774000Y-105156000D03*
X236274000Y-110156000D03*
X236274000Y-105156000D03*
G04 #@! TD*
D10*
G04 #@! TO.C,SW33*
X221769000Y-95646000D03*
X221769000Y-86646000D03*
D11*
X215519000Y-93646000D03*
X215519000Y-88646000D03*
X228019000Y-93646000D03*
X228019000Y-88646000D03*
G04 #@! TD*
D10*
G04 #@! TO.C,SW32*
X238279000Y-95646000D03*
X238279000Y-86646000D03*
D11*
X232029000Y-93646000D03*
X232029000Y-88646000D03*
X244529000Y-93646000D03*
X244529000Y-88646000D03*
G04 #@! TD*
D10*
G04 #@! TO.C,SW31*
X241454000Y-145176000D03*
X241454000Y-136176000D03*
D11*
X235204000Y-143176000D03*
X235204000Y-138176000D03*
X247704000Y-143176000D03*
X247704000Y-138176000D03*
G04 #@! TD*
D10*
G04 #@! TO.C,SW30*
X257964000Y-145176000D03*
X257964000Y-136176000D03*
D11*
X251714000Y-143176000D03*
X251714000Y-138176000D03*
X264214000Y-143176000D03*
X264214000Y-138176000D03*
G04 #@! TD*
D10*
G04 #@! TO.C,SW29*
X250344000Y-128666000D03*
X250344000Y-119666000D03*
D11*
X244094000Y-126666000D03*
X244094000Y-121666000D03*
X256594000Y-126666000D03*
X256594000Y-121666000D03*
G04 #@! TD*
D10*
G04 #@! TO.C,SW28*
X266854000Y-128666000D03*
X266854000Y-119666000D03*
D11*
X260604000Y-126666000D03*
X260604000Y-121666000D03*
X273104000Y-126666000D03*
X273104000Y-121666000D03*
G04 #@! TD*
D10*
G04 #@! TO.C,SW27*
X246534000Y-112156000D03*
X246534000Y-103156000D03*
D11*
X240284000Y-110156000D03*
X240284000Y-105156000D03*
X252784000Y-110156000D03*
X252784000Y-105156000D03*
G04 #@! TD*
D10*
G04 #@! TO.C,SW26*
X263044000Y-112156000D03*
X263044000Y-103156000D03*
D11*
X256794000Y-110156000D03*
X256794000Y-105156000D03*
X269294000Y-110156000D03*
X269294000Y-105156000D03*
G04 #@! TD*
D10*
G04 #@! TO.C,SW25*
X254789000Y-95646000D03*
X254789000Y-86646000D03*
D11*
X248539000Y-93646000D03*
X248539000Y-88646000D03*
X261039000Y-93646000D03*
X261039000Y-88646000D03*
G04 #@! TD*
D10*
G04 #@! TO.C,SW24*
X271299000Y-95646000D03*
X271299000Y-86646000D03*
D11*
X265049000Y-93646000D03*
X265049000Y-88646000D03*
X277549000Y-93646000D03*
X277549000Y-88646000D03*
G04 #@! TD*
D10*
G04 #@! TO.C,SW23*
X92864000Y-161686000D03*
X92864000Y-152686000D03*
D11*
X86614000Y-159686000D03*
X86614000Y-154686000D03*
X99114000Y-159686000D03*
X99114000Y-154686000D03*
G04 #@! TD*
D10*
G04 #@! TO.C,SW21*
X92864000Y-145176000D03*
X92864000Y-136176000D03*
D11*
X86614000Y-143176000D03*
X86614000Y-138176000D03*
X99114000Y-143176000D03*
X99114000Y-138176000D03*
G04 #@! TD*
D10*
G04 #@! TO.C,SW20*
X320829000Y-112156000D03*
X320829000Y-103156000D03*
D11*
X314579000Y-110156000D03*
X314579000Y-105156000D03*
X327079000Y-110156000D03*
X327079000Y-105156000D03*
G04 #@! TD*
D10*
G04 #@! TO.C,SW19*
X283364000Y-128666000D03*
X283364000Y-119666000D03*
D11*
X277114000Y-126666000D03*
X277114000Y-121666000D03*
X289614000Y-126666000D03*
X289614000Y-121666000D03*
G04 #@! TD*
D10*
G04 #@! TO.C,SW18*
X301779000Y-119776000D03*
X301779000Y-110776000D03*
D11*
X295529000Y-117776000D03*
X295529000Y-112776000D03*
X308029000Y-117776000D03*
X308029000Y-112776000D03*
G04 #@! TD*
D10*
G04 #@! TO.C,SW17*
X279554000Y-112156000D03*
X279554000Y-103156000D03*
D11*
X273304000Y-110156000D03*
X273304000Y-105156000D03*
X285804000Y-110156000D03*
X285804000Y-105156000D03*
G04 #@! TD*
D10*
G04 #@! TO.C,SW16*
X287809000Y-95646000D03*
X287809000Y-86646000D03*
D11*
X281559000Y-93646000D03*
X281559000Y-88646000D03*
X294059000Y-93646000D03*
X294059000Y-88646000D03*
G04 #@! TD*
D10*
G04 #@! TO.C,SW15*
X320829000Y-145176000D03*
X320829000Y-136176000D03*
D11*
X314579000Y-143176000D03*
X314579000Y-138176000D03*
X327079000Y-143176000D03*
X327079000Y-138176000D03*
G04 #@! TD*
D10*
G04 #@! TO.C,SW14*
X337339000Y-128666000D03*
X337339000Y-119666000D03*
D11*
X331089000Y-126666000D03*
X331089000Y-121666000D03*
X343589000Y-126666000D03*
X343589000Y-121666000D03*
G04 #@! TD*
D10*
G04 #@! TO.C,SW13*
X320829000Y-128666000D03*
X320829000Y-119666000D03*
D11*
X314579000Y-126666000D03*
X314579000Y-121666000D03*
X327079000Y-126666000D03*
X327079000Y-121666000D03*
G04 #@! TD*
D10*
G04 #@! TO.C,SW12*
X337339000Y-112156000D03*
X337339000Y-103156000D03*
D11*
X331089000Y-110156000D03*
X331089000Y-105156000D03*
X343589000Y-110156000D03*
X343589000Y-105156000D03*
G04 #@! TD*
D10*
G04 #@! TO.C,SW11*
X337339000Y-95646000D03*
X337339000Y-86646000D03*
D11*
X331089000Y-93646000D03*
X331089000Y-88646000D03*
X343589000Y-93646000D03*
X343589000Y-88646000D03*
G04 #@! TD*
D10*
G04 #@! TO.C,SW10*
X320829000Y-95646000D03*
X320829000Y-86646000D03*
D11*
X314579000Y-93646000D03*
X314579000Y-88646000D03*
X327079000Y-93646000D03*
X327079000Y-88646000D03*
G04 #@! TD*
D10*
G04 #@! TO.C,SW9*
X109374000Y-161686000D03*
X109374000Y-152686000D03*
D11*
X103124000Y-159686000D03*
X103124000Y-154686000D03*
X115624000Y-159686000D03*
X115624000Y-154686000D03*
G04 #@! TD*
D10*
G04 #@! TO.C,SW8*
X320829000Y-161686000D03*
X320829000Y-152686000D03*
D11*
X314579000Y-159686000D03*
X314579000Y-154686000D03*
X327079000Y-159686000D03*
X327079000Y-154686000D03*
G04 #@! TD*
D10*
G04 #@! TO.C,SW7*
X353849000Y-145176000D03*
X353849000Y-136176000D03*
D11*
X347599000Y-143176000D03*
X347599000Y-138176000D03*
X360099000Y-143176000D03*
X360099000Y-138176000D03*
G04 #@! TD*
D10*
G04 #@! TO.C,SW6*
X304319000Y-161686000D03*
X304319000Y-152686000D03*
D11*
X298069000Y-159686000D03*
X298069000Y-154686000D03*
X310569000Y-159686000D03*
X310569000Y-154686000D03*
G04 #@! TD*
D10*
G04 #@! TO.C,SW5*
X353849000Y-128666000D03*
X353849000Y-119666000D03*
D11*
X347599000Y-126666000D03*
X347599000Y-121666000D03*
X360099000Y-126666000D03*
X360099000Y-121666000D03*
G04 #@! TD*
D10*
G04 #@! TO.C,SW4*
X353849000Y-112156000D03*
X353849000Y-103156000D03*
D11*
X347599000Y-110156000D03*
X347599000Y-105156000D03*
X360099000Y-110156000D03*
X360099000Y-105156000D03*
G04 #@! TD*
D10*
G04 #@! TO.C,SW3*
X353849000Y-95646000D03*
X353849000Y-86646000D03*
D11*
X347599000Y-93646000D03*
X347599000Y-88646000D03*
X360099000Y-93646000D03*
X360099000Y-88646000D03*
G04 #@! TD*
D10*
G04 #@! TO.C,SW2*
X337339000Y-161686000D03*
X337339000Y-152686000D03*
D11*
X331089000Y-159686000D03*
X331089000Y-154686000D03*
X343589000Y-159686000D03*
X343589000Y-154686000D03*
G04 #@! TD*
D10*
G04 #@! TO.C,SW1*
X353849000Y-161686000D03*
X353849000Y-152686000D03*
D11*
X347599000Y-159686000D03*
X347599000Y-154686000D03*
X360099000Y-159686000D03*
X360099000Y-154686000D03*
G04 #@! TD*
D10*
G04 #@! TO.C,SW0*
X337339000Y-145176000D03*
X337339000Y-136176000D03*
D11*
X331089000Y-143176000D03*
X331089000Y-138176000D03*
X343589000Y-143176000D03*
X343589000Y-138176000D03*
G04 #@! TD*
D10*
G04 #@! TO.C,J1*
X68580000Y-125730000D03*
X68580000Y-128270000D03*
X68580000Y-130810000D03*
X68580000Y-133350000D03*
X68580000Y-135890000D03*
X68580000Y-138430000D03*
X68580000Y-140970000D03*
X68580000Y-143510000D03*
X68580000Y-146050000D03*
X68580000Y-148590000D03*
X71120000Y-125730000D03*
X71120000Y-128270000D03*
X71120000Y-130810000D03*
X71120000Y-133350000D03*
X71120000Y-135890000D03*
X71120000Y-138430000D03*
X71120000Y-140970000D03*
X71120000Y-143510000D03*
X71120000Y-146050000D03*
G36*
G01*
X71970000Y-147990000D02*
X71970000Y-149190000D01*
G75*
G02*
X71720000Y-149440000I-250000J0D01*
G01*
X70520000Y-149440000D01*
G75*
G02*
X70270000Y-149190000I0J250000D01*
G01*
X70270000Y-147990000D01*
G75*
G02*
X70520000Y-147740000I250000J0D01*
G01*
X71720000Y-147740000D01*
G75*
G02*
X71970000Y-147990000I0J-250000D01*
G01*
G37*
G04 #@! TD*
G04 #@! TO.C,J4*
X58420000Y-91440000D03*
X58420000Y-93980000D03*
X58420000Y-96520000D03*
X58420000Y-99060000D03*
X58420000Y-101600000D03*
X58420000Y-104140000D03*
X58420000Y-106680000D03*
X58420000Y-109220000D03*
X58420000Y-111760000D03*
X58420000Y-114300000D03*
X60960000Y-91440000D03*
X60960000Y-93980000D03*
X60960000Y-96520000D03*
X60960000Y-99060000D03*
X60960000Y-101600000D03*
X60960000Y-104140000D03*
X60960000Y-106680000D03*
X60960000Y-109220000D03*
X60960000Y-111760000D03*
G36*
G01*
X61810000Y-113700000D02*
X61810000Y-114900000D01*
G75*
G02*
X61560000Y-115150000I-250000J0D01*
G01*
X60360000Y-115150000D01*
G75*
G02*
X60110000Y-114900000I0J250000D01*
G01*
X60110000Y-113700000D01*
G75*
G02*
X60360000Y-113450000I250000J0D01*
G01*
X61560000Y-113450000D01*
G75*
G02*
X61810000Y-113700000I0J-250000D01*
G01*
G37*
G04 #@! TD*
G04 #@! TO.C,J3*
X58420000Y-125730000D03*
X58420000Y-128270000D03*
X58420000Y-130810000D03*
X58420000Y-133350000D03*
X58420000Y-135890000D03*
X58420000Y-138430000D03*
X58420000Y-140970000D03*
X58420000Y-143510000D03*
X58420000Y-146050000D03*
X58420000Y-148590000D03*
X60960000Y-125730000D03*
X60960000Y-128270000D03*
X60960000Y-130810000D03*
X60960000Y-133350000D03*
X60960000Y-135890000D03*
X60960000Y-138430000D03*
X60960000Y-140970000D03*
X60960000Y-143510000D03*
X60960000Y-146050000D03*
G36*
G01*
X61810000Y-147990000D02*
X61810000Y-149190000D01*
G75*
G02*
X61560000Y-149440000I-250000J0D01*
G01*
X60360000Y-149440000D01*
G75*
G02*
X60110000Y-149190000I0J250000D01*
G01*
X60110000Y-147990000D01*
G75*
G02*
X60360000Y-147740000I250000J0D01*
G01*
X61560000Y-147740000D01*
G75*
G02*
X61810000Y-147990000I0J-250000D01*
G01*
G37*
G04 #@! TD*
G04 #@! TO.C,J2*
X203200000Y-73660000D03*
X200660000Y-73660000D03*
X198120000Y-73660000D03*
X195580000Y-73660000D03*
X193040000Y-73660000D03*
X190500000Y-73660000D03*
X187960000Y-73660000D03*
X185420000Y-73660000D03*
X182880000Y-73660000D03*
X180340000Y-73660000D03*
X203200000Y-76200000D03*
X200660000Y-76200000D03*
X198120000Y-76200000D03*
X195580000Y-76200000D03*
X193040000Y-76200000D03*
X190500000Y-76200000D03*
X187960000Y-76200000D03*
X185420000Y-76200000D03*
X182880000Y-76200000D03*
G36*
G01*
X180940000Y-77050000D02*
X179740000Y-77050000D01*
G75*
G02*
X179490000Y-76800000I0J250000D01*
G01*
X179490000Y-75600000D01*
G75*
G02*
X179740000Y-75350000I250000J0D01*
G01*
X180940000Y-75350000D01*
G75*
G02*
X181190000Y-75600000I0J-250000D01*
G01*
X181190000Y-76800000D01*
G75*
G02*
X180940000Y-77050000I-250000J0D01*
G01*
G37*
G04 #@! TD*
D12*
G04 #@! TO.C,H15*
X365125000Y-158750000D03*
G04 #@! TD*
G04 #@! TO.C,H14*
X290195000Y-158750000D03*
G04 #@! TD*
G04 #@! TO.C,H13*
X213360000Y-158750000D03*
G04 #@! TD*
G04 #@! TO.C,H12*
X130810000Y-158750000D03*
G04 #@! TD*
G04 #@! TO.C,H11*
X59690000Y-157480000D03*
G04 #@! TD*
G04 #@! TO.C,H5*
X365125000Y-81915000D03*
G04 #@! TD*
G04 #@! TO.C,H4*
X295910000Y-81915000D03*
G04 #@! TD*
G04 #@! TO.C,H3*
X213360000Y-81915000D03*
G04 #@! TD*
G04 #@! TO.C,H2*
X130810000Y-81915000D03*
G04 #@! TD*
G04 #@! TO.C,H1*
X59690000Y-81915000D03*
G04 #@! TD*
D13*
G04 #@! TO.C,JP2*
X116840000Y-78740000D03*
D14*
X114300000Y-78740000D03*
G04 #@! TD*
D13*
G04 #@! TO.C,JP1*
X96520000Y-78740000D03*
X93980000Y-78740000D03*
D14*
X91440000Y-78740000D03*
G04 #@! TD*
D13*
G04 #@! TO.C,JP3*
X71120000Y-78740000D03*
D14*
X73660000Y-78740000D03*
G04 #@! TD*
M02*
