M48
INCH,TZ
T1C0.0669
T2C0.1260
%
G90
G05
T1
X28811Y-34113
X28811Y-37656
X32061Y-40613
X32061Y-44156
X33561Y-47113
X33561Y-50656
X35311Y-34113
X35311Y-37656
X36561Y-53613
X36561Y-57156
X36561Y-60113
X36561Y-63656
X38561Y-40613
X38561Y-44156
X40061Y-47113
X40061Y-50656
X41811Y-34113
X41811Y-37656
X43061Y-53613
X43061Y-57156
X43061Y-60113
X43061Y-63656
X45061Y-40613
X45061Y-44156
X46561Y-47113
X46561Y-50656
X48311Y-34113
X48311Y-37656
X49561Y-53613
X49561Y-57156
X51561Y-40613
X51561Y-44156
X53061Y-47113
X53061Y-50656
X54811Y-34113
X54811Y-37656
X56061Y-53613
X56061Y-57156
X58061Y-40613
X58061Y-44156
X59561Y-47113
X59561Y-50656
X61311Y-34113
X61311Y-37656
X62561Y-53613
X62561Y-57156
X64561Y-40613
X64561Y-44156
X66061Y-47113
X66061Y-50656
X67811Y-34113
X67811Y-37656
X69061Y-53613
X69061Y-57156
X71061Y-40613
X71061Y-44156
X72561Y-47113
X72561Y-50656
X74311Y-34113
X74311Y-37656
X75561Y-53613
X75561Y-57156
X75561Y-60113
X75561Y-63656
X77561Y-40613
X77561Y-44156
X79061Y-47113
X79061Y-50656
X80811Y-34113
X80811Y-37656
X82061Y-53613
X82061Y-57156
X84061Y-40613
X84061Y-44156
X85561Y-47113
X85561Y-50656
X87311Y-34113
X87311Y-37656
X88561Y-53613
X88561Y-57156
X90561Y-40613
X90561Y-44156
X92061Y-47113
X92061Y-50656
X93811Y-34113
X93811Y-37656
X95061Y-53613
X95061Y-57156
X97061Y-40613
X97061Y-44156
X98561Y-47113
X98561Y-50656
X100311Y-34113
X100311Y-37656
X101561Y-53613
X101561Y-57156
X103561Y-40613
X103561Y-44156
X105061Y-47113
X105061Y-50656
X106811Y-34113
X106811Y-37656
X108061Y-53613
X108061Y-57156
X110061Y-40613
X110061Y-44156
X111561Y-47113
X111561Y-50656
X113311Y-34113
X113311Y-37656
X114561Y-53613
X114561Y-57156
X118811Y-43613
X118811Y-47156
X119811Y-34113
X119811Y-37656
X119811Y-60113
X119811Y-63656
X126311Y-34113
X126311Y-37656
X126311Y-40613
X126311Y-44156
X126311Y-47113
X126311Y-50656
X126311Y-53613
X126311Y-57156
X126311Y-60113
X126311Y-63656
X132811Y-34113
X132811Y-37656
X132811Y-40613
X132811Y-44156
X132811Y-47113
X132811Y-50656
X132811Y-53613
X132811Y-57156
X132811Y-60113
X132811Y-63656
X139311Y-34113
X139311Y-37656
X139311Y-40613
X139311Y-44156
X139311Y-47113
X139311Y-50656
X139311Y-53613
X139311Y-57156
X139311Y-60113
X139311Y-63656
T2
X23500Y-32250
X23500Y-62000
X51500Y-32250
X51500Y-62500
X84000Y-32250
X84000Y-62500
X114250Y-62500
X116500Y-32250
X143750Y-32250
X143750Y-62500
T0
M30
