G04 #@! TF.GenerationSoftware,KiCad,Pcbnew,(5.1.12)-1*
G04 #@! TF.CreationDate,2024-09-28T15:58:51+01:00*
G04 #@! TF.ProjectId,Keyboard,4b657962-6f61-4726-942e-6b696361645f,rev?*
G04 #@! TF.SameCoordinates,Original*
G04 #@! TF.FileFunction,Copper,L2,Bot*
G04 #@! TF.FilePolarity,Positive*
%FSLAX46Y46*%
G04 Gerber Fmt 4.6, Leading zero omitted, Abs format (unit mm)*
G04 Created by KiCad (PCBNEW (5.1.12)-1) date 2024-09-28 15:58:51*
%MOMM*%
%LPD*%
G01*
G04 APERTURE LIST*
G04 #@! TA.AperFunction,ComponentPad*
%ADD10O,3.048000X1.850000*%
G04 #@! TD*
G04 #@! TA.AperFunction,ComponentPad*
%ADD11C,1.700000*%
G04 #@! TD*
G04 #@! TA.AperFunction,ComponentPad*
%ADD12O,1.700000X1.700000*%
G04 #@! TD*
G04 #@! TA.AperFunction,ComponentPad*
%ADD13R,1.700000X1.700000*%
G04 #@! TD*
G04 #@! TA.AperFunction,ViaPad*
%ADD14C,0.800000*%
G04 #@! TD*
G04 #@! TA.AperFunction,Conductor*
%ADD15C,0.250000*%
G04 #@! TD*
G04 APERTURE END LIST*
D10*
G04 #@! TO.P,SW59,2*
G04 #@! TO.N,Y8*
X108204000Y-110156000D03*
G04 #@! TO.P,SW59,1*
G04 #@! TO.N,X4*
X108204000Y-105156000D03*
G04 #@! TO.P,SW59,2*
G04 #@! TO.N,Y8*
X120704000Y-110156000D03*
G04 #@! TO.P,SW59,1*
G04 #@! TO.N,X4*
X120704000Y-105156000D03*
G04 #@! TD*
G04 #@! TO.P,SW22,2*
G04 #@! TO.N,Y3*
X268224000Y-143176000D03*
G04 #@! TO.P,SW22,1*
G04 #@! TO.N,X7*
X268224000Y-138176000D03*
G04 #@! TO.P,SW22,2*
G04 #@! TO.N,Y3*
X280724000Y-143176000D03*
G04 #@! TO.P,SW22,1*
G04 #@! TO.N,X7*
X280724000Y-138176000D03*
G04 #@! TD*
G04 #@! TO.P,SW121,2*
G04 #@! TO.N,Y3*
X284734000Y-143176000D03*
G04 #@! TO.P,SW121,1*
G04 #@! TO.N,X6*
X284734000Y-138176000D03*
G04 #@! TO.P,SW121,2*
G04 #@! TO.N,Y3*
X297234000Y-143176000D03*
G04 #@! TO.P,SW121,1*
G04 #@! TO.N,X6*
X297234000Y-138176000D03*
G04 #@! TD*
G04 #@! TO.P,SW79,2*
G04 #@! TO.N,Y10*
X298069000Y-93646000D03*
G04 #@! TO.P,SW79,1*
G04 #@! TO.N,X9*
X298069000Y-88646000D03*
G04 #@! TO.P,SW79,2*
G04 #@! TO.N,Y10*
X310569000Y-93646000D03*
G04 #@! TO.P,SW79,1*
G04 #@! TO.N,X9*
X310569000Y-88646000D03*
G04 #@! TD*
G04 #@! TO.P,SW71,2*
G04 #@! TO.N,Y9*
X103124000Y-143176000D03*
G04 #@! TO.P,SW71,1*
G04 #@! TO.N,X8*
X103124000Y-138176000D03*
G04 #@! TO.P,SW71,2*
G04 #@! TO.N,Y9*
X115624000Y-143176000D03*
G04 #@! TO.P,SW71,1*
G04 #@! TO.N,X8*
X115624000Y-138176000D03*
G04 #@! TD*
G04 #@! TO.P,SW70,2*
G04 #@! TO.N,Y9*
X78994000Y-126666000D03*
G04 #@! TO.P,SW70,1*
G04 #@! TO.N,X7*
X78994000Y-121666000D03*
G04 #@! TO.P,SW70,2*
G04 #@! TO.N,Y9*
X91494000Y-126666000D03*
G04 #@! TO.P,SW70,1*
G04 #@! TO.N,X7*
X91494000Y-121666000D03*
G04 #@! TD*
G04 #@! TO.P,SW69,2*
G04 #@! TO.N,Y9*
X95504000Y-126666000D03*
G04 #@! TO.P,SW69,1*
G04 #@! TO.N,X6*
X95504000Y-121666000D03*
G04 #@! TO.P,SW69,2*
G04 #@! TO.N,Y9*
X108004000Y-126666000D03*
G04 #@! TO.P,SW69,1*
G04 #@! TO.N,X6*
X108004000Y-121666000D03*
G04 #@! TD*
G04 #@! TO.P,SW68,2*
G04 #@! TO.N,Y9*
X75184000Y-110156000D03*
G04 #@! TO.P,SW68,1*
G04 #@! TO.N,X5*
X75184000Y-105156000D03*
G04 #@! TO.P,SW68,2*
G04 #@! TO.N,Y9*
X87684000Y-110156000D03*
G04 #@! TO.P,SW68,1*
G04 #@! TO.N,X5*
X87684000Y-105156000D03*
G04 #@! TD*
G04 #@! TO.P,SW67,2*
G04 #@! TO.N,Y9*
X91694000Y-110156000D03*
G04 #@! TO.P,SW67,1*
G04 #@! TO.N,X4*
X91694000Y-105156000D03*
G04 #@! TO.P,SW67,2*
G04 #@! TO.N,Y9*
X104194000Y-110156000D03*
G04 #@! TO.P,SW67,1*
G04 #@! TO.N,X4*
X104194000Y-105156000D03*
G04 #@! TD*
G04 #@! TO.P,SW66,2*
G04 #@! TO.N,Y9*
X66929000Y-93646000D03*
G04 #@! TO.P,SW66,1*
G04 #@! TO.N,X3*
X66929000Y-88646000D03*
G04 #@! TO.P,SW66,2*
G04 #@! TO.N,Y9*
X79429000Y-93646000D03*
G04 #@! TO.P,SW66,1*
G04 #@! TO.N,X3*
X79429000Y-88646000D03*
G04 #@! TD*
G04 #@! TO.P,SW65,2*
G04 #@! TO.N,Y9*
X99949000Y-93646000D03*
G04 #@! TO.P,SW65,1*
G04 #@! TO.N,X2*
X99949000Y-88646000D03*
G04 #@! TO.P,SW65,2*
G04 #@! TO.N,Y9*
X112449000Y-93646000D03*
G04 #@! TO.P,SW65,1*
G04 #@! TO.N,X2*
X112449000Y-88646000D03*
G04 #@! TD*
G04 #@! TO.P,SW64,2*
G04 #@! TO.N,Y9*
X83439000Y-93646000D03*
G04 #@! TO.P,SW64,1*
G04 #@! TO.N,X1*
X83439000Y-88646000D03*
G04 #@! TO.P,SW64,2*
G04 #@! TO.N,Y9*
X95939000Y-93646000D03*
G04 #@! TO.P,SW64,1*
G04 #@! TO.N,X1*
X95939000Y-88646000D03*
G04 #@! TD*
G04 #@! TO.P,SW63,2*
G04 #@! TO.N,Y8*
X119634000Y-143176000D03*
G04 #@! TO.P,SW63,1*
G04 #@! TO.N,X8*
X119634000Y-138176000D03*
G04 #@! TO.P,SW63,2*
G04 #@! TO.N,Y8*
X132134000Y-143176000D03*
G04 #@! TO.P,SW63,1*
G04 #@! TO.N,X8*
X132134000Y-138176000D03*
G04 #@! TD*
G04 #@! TO.P,SW62,2*
G04 #@! TO.N,Y8*
X136144000Y-143176000D03*
G04 #@! TO.P,SW62,1*
G04 #@! TO.N,X7*
X136144000Y-138176000D03*
G04 #@! TO.P,SW62,2*
G04 #@! TO.N,Y8*
X148644000Y-143176000D03*
G04 #@! TO.P,SW62,1*
G04 #@! TO.N,X7*
X148644000Y-138176000D03*
G04 #@! TD*
G04 #@! TO.P,SW61,2*
G04 #@! TO.N,Y8*
X128524000Y-126666000D03*
G04 #@! TO.P,SW61,1*
G04 #@! TO.N,X6*
X128524000Y-121666000D03*
G04 #@! TO.P,SW61,2*
G04 #@! TO.N,Y8*
X141024000Y-126666000D03*
G04 #@! TO.P,SW61,1*
G04 #@! TO.N,X6*
X141024000Y-121666000D03*
G04 #@! TD*
G04 #@! TO.P,SW60,2*
G04 #@! TO.N,Y8*
X112014000Y-126666000D03*
G04 #@! TO.P,SW60,1*
G04 #@! TO.N,X5*
X112014000Y-121666000D03*
G04 #@! TO.P,SW60,2*
G04 #@! TO.N,Y8*
X124514000Y-126666000D03*
G04 #@! TO.P,SW60,1*
G04 #@! TO.N,X5*
X124514000Y-121666000D03*
G04 #@! TD*
G04 #@! TO.P,SW58,2*
G04 #@! TO.N,Y8*
X124714000Y-110156000D03*
G04 #@! TO.P,SW58,1*
G04 #@! TO.N,X3*
X124714000Y-105156000D03*
G04 #@! TO.P,SW58,2*
G04 #@! TO.N,Y8*
X137214000Y-110156000D03*
G04 #@! TO.P,SW58,1*
G04 #@! TO.N,X3*
X137214000Y-105156000D03*
G04 #@! TD*
G04 #@! TO.P,SW57,2*
G04 #@! TO.N,Y8*
X116459000Y-93646000D03*
G04 #@! TO.P,SW57,1*
G04 #@! TO.N,X2*
X116459000Y-88646000D03*
G04 #@! TO.P,SW57,2*
G04 #@! TO.N,Y8*
X128959000Y-93646000D03*
G04 #@! TO.P,SW57,1*
G04 #@! TO.N,X2*
X128959000Y-88646000D03*
G04 #@! TD*
G04 #@! TO.P,SW56,2*
G04 #@! TO.N,Y8*
X132969000Y-93646000D03*
G04 #@! TO.P,SW56,1*
G04 #@! TO.N,X1*
X132969000Y-88646000D03*
G04 #@! TO.P,SW56,2*
G04 #@! TO.N,Y8*
X145469000Y-93646000D03*
G04 #@! TO.P,SW56,1*
G04 #@! TO.N,X1*
X145469000Y-88646000D03*
G04 #@! TD*
G04 #@! TO.P,SW55,2*
G04 #@! TO.N,Y7*
X152654000Y-143176000D03*
G04 #@! TO.P,SW55,1*
G04 #@! TO.N,X8*
X152654000Y-138176000D03*
G04 #@! TO.P,SW55,2*
G04 #@! TO.N,Y7*
X165154000Y-143176000D03*
G04 #@! TO.P,SW55,1*
G04 #@! TO.N,X8*
X165154000Y-138176000D03*
G04 #@! TD*
G04 #@! TO.P,SW54,2*
G04 #@! TO.N,Y7*
X169164000Y-143176000D03*
G04 #@! TO.P,SW54,1*
G04 #@! TO.N,X7*
X169164000Y-138176000D03*
G04 #@! TO.P,SW54,2*
G04 #@! TO.N,Y7*
X181664000Y-143176000D03*
G04 #@! TO.P,SW54,1*
G04 #@! TO.N,X7*
X181664000Y-138176000D03*
G04 #@! TD*
G04 #@! TO.P,SW53,2*
G04 #@! TO.N,Y7*
X145034000Y-126666000D03*
G04 #@! TO.P,SW53,1*
G04 #@! TO.N,X6*
X145034000Y-121666000D03*
G04 #@! TO.P,SW53,2*
G04 #@! TO.N,Y7*
X157534000Y-126666000D03*
G04 #@! TO.P,SW53,1*
G04 #@! TO.N,X6*
X157534000Y-121666000D03*
G04 #@! TD*
G04 #@! TO.P,SW52,2*
G04 #@! TO.N,Y7*
X161544000Y-126666000D03*
G04 #@! TO.P,SW52,1*
G04 #@! TO.N,X5*
X161544000Y-121666000D03*
G04 #@! TO.P,SW52,2*
G04 #@! TO.N,Y7*
X174044000Y-126666000D03*
G04 #@! TO.P,SW52,1*
G04 #@! TO.N,X5*
X174044000Y-121666000D03*
G04 #@! TD*
G04 #@! TO.P,SW51,2*
G04 #@! TO.N,Y7*
X157734000Y-110156000D03*
G04 #@! TO.P,SW51,1*
G04 #@! TO.N,X4*
X157734000Y-105156000D03*
G04 #@! TO.P,SW51,2*
G04 #@! TO.N,Y7*
X170234000Y-110156000D03*
G04 #@! TO.P,SW51,1*
G04 #@! TO.N,X4*
X170234000Y-105156000D03*
G04 #@! TD*
G04 #@! TO.P,SW50,2*
G04 #@! TO.N,Y7*
X141224000Y-110156000D03*
G04 #@! TO.P,SW50,1*
G04 #@! TO.N,X3*
X141224000Y-105156000D03*
G04 #@! TO.P,SW50,2*
G04 #@! TO.N,Y7*
X153724000Y-110156000D03*
G04 #@! TO.P,SW50,1*
G04 #@! TO.N,X3*
X153724000Y-105156000D03*
G04 #@! TD*
G04 #@! TO.P,SW49,2*
G04 #@! TO.N,Y7*
X149479000Y-93646000D03*
G04 #@! TO.P,SW49,1*
G04 #@! TO.N,X2*
X149479000Y-88646000D03*
G04 #@! TO.P,SW49,2*
G04 #@! TO.N,Y7*
X161979000Y-93646000D03*
G04 #@! TO.P,SW49,1*
G04 #@! TO.N,X2*
X161979000Y-88646000D03*
G04 #@! TD*
G04 #@! TO.P,SW48,2*
G04 #@! TO.N,Y7*
X165989000Y-93646000D03*
G04 #@! TO.P,SW48,1*
G04 #@! TO.N,X1*
X165989000Y-88646000D03*
G04 #@! TO.P,SW48,2*
G04 #@! TO.N,Y7*
X178489000Y-93646000D03*
G04 #@! TO.P,SW48,1*
G04 #@! TO.N,X1*
X178489000Y-88646000D03*
G04 #@! TD*
G04 #@! TO.P,SW47,2*
G04 #@! TO.N,Y6*
X185674000Y-159686000D03*
G04 #@! TO.P,SW47,1*
G04 #@! TO.N,X8*
X185674000Y-154686000D03*
G04 #@! TO.P,SW47,2*
G04 #@! TO.N,Y6*
X198174000Y-159686000D03*
G04 #@! TO.P,SW47,1*
G04 #@! TO.N,X8*
X198174000Y-154686000D03*
G04 #@! TD*
G04 #@! TO.P,SW46,2*
G04 #@! TO.N,Y6*
X185674000Y-143176000D03*
G04 #@! TO.P,SW46,1*
G04 #@! TO.N,X7*
X185674000Y-138176000D03*
G04 #@! TO.P,SW46,2*
G04 #@! TO.N,Y6*
X198174000Y-143176000D03*
G04 #@! TO.P,SW46,1*
G04 #@! TO.N,X7*
X198174000Y-138176000D03*
G04 #@! TD*
G04 #@! TO.P,SW45,2*
G04 #@! TO.N,Y6*
X194564000Y-126666000D03*
G04 #@! TO.P,SW45,1*
G04 #@! TO.N,X6*
X194564000Y-121666000D03*
G04 #@! TO.P,SW45,2*
G04 #@! TO.N,Y6*
X207064000Y-126666000D03*
G04 #@! TO.P,SW45,1*
G04 #@! TO.N,X6*
X207064000Y-121666000D03*
G04 #@! TD*
G04 #@! TO.P,SW44,2*
G04 #@! TO.N,Y6*
X178054000Y-126666000D03*
G04 #@! TO.P,SW44,1*
G04 #@! TO.N,X5*
X178054000Y-121666000D03*
G04 #@! TO.P,SW44,2*
G04 #@! TO.N,Y6*
X190554000Y-126666000D03*
G04 #@! TO.P,SW44,1*
G04 #@! TO.N,X5*
X190554000Y-121666000D03*
G04 #@! TD*
G04 #@! TO.P,SW43,2*
G04 #@! TO.N,Y6*
X174244000Y-110156000D03*
G04 #@! TO.P,SW43,1*
G04 #@! TO.N,X4*
X174244000Y-105156000D03*
G04 #@! TO.P,SW43,2*
G04 #@! TO.N,Y6*
X186744000Y-110156000D03*
G04 #@! TO.P,SW43,1*
G04 #@! TO.N,X4*
X186744000Y-105156000D03*
G04 #@! TD*
G04 #@! TO.P,SW42,2*
G04 #@! TO.N,Y6*
X190754000Y-110156000D03*
G04 #@! TO.P,SW42,1*
G04 #@! TO.N,X3*
X190754000Y-105156000D03*
G04 #@! TO.P,SW42,2*
G04 #@! TO.N,Y6*
X203254000Y-110156000D03*
G04 #@! TO.P,SW42,1*
G04 #@! TO.N,X3*
X203254000Y-105156000D03*
G04 #@! TD*
G04 #@! TO.P,SW41,2*
G04 #@! TO.N,Y6*
X182499000Y-93646000D03*
G04 #@! TO.P,SW41,1*
G04 #@! TO.N,X2*
X182499000Y-88646000D03*
G04 #@! TO.P,SW41,2*
G04 #@! TO.N,Y6*
X194999000Y-93646000D03*
G04 #@! TO.P,SW41,1*
G04 #@! TO.N,X2*
X194999000Y-88646000D03*
G04 #@! TD*
G04 #@! TO.P,SW40,2*
G04 #@! TO.N,Y6*
X199009000Y-93646000D03*
G04 #@! TO.P,SW40,1*
G04 #@! TO.N,X1*
X199009000Y-88646000D03*
G04 #@! TO.P,SW40,2*
G04 #@! TO.N,Y6*
X211509000Y-93646000D03*
G04 #@! TO.P,SW40,1*
G04 #@! TO.N,X1*
X211509000Y-88646000D03*
G04 #@! TD*
G04 #@! TO.P,SW39,2*
G04 #@! TO.N,Y5*
X218694000Y-143176000D03*
G04 #@! TO.P,SW39,1*
G04 #@! TO.N,X8*
X218694000Y-138176000D03*
G04 #@! TO.P,SW39,2*
G04 #@! TO.N,Y5*
X231194000Y-143176000D03*
G04 #@! TO.P,SW39,1*
G04 #@! TO.N,X8*
X231194000Y-138176000D03*
G04 #@! TD*
G04 #@! TO.P,SW38,2*
G04 #@! TO.N,Y5*
X202184000Y-143176000D03*
G04 #@! TO.P,SW38,1*
G04 #@! TO.N,X7*
X202184000Y-138176000D03*
G04 #@! TO.P,SW38,2*
G04 #@! TO.N,Y5*
X214684000Y-143176000D03*
G04 #@! TO.P,SW38,1*
G04 #@! TO.N,X7*
X214684000Y-138176000D03*
G04 #@! TD*
G04 #@! TO.P,SW37,2*
G04 #@! TO.N,Y5*
X211074000Y-126666000D03*
G04 #@! TO.P,SW37,1*
G04 #@! TO.N,X6*
X211074000Y-121666000D03*
G04 #@! TO.P,SW37,2*
G04 #@! TO.N,Y5*
X223574000Y-126666000D03*
G04 #@! TO.P,SW37,1*
G04 #@! TO.N,X6*
X223574000Y-121666000D03*
G04 #@! TD*
G04 #@! TO.P,SW36,2*
G04 #@! TO.N,Y5*
X227584000Y-126666000D03*
G04 #@! TO.P,SW36,1*
G04 #@! TO.N,X5*
X227584000Y-121666000D03*
G04 #@! TO.P,SW36,2*
G04 #@! TO.N,Y5*
X240084000Y-126666000D03*
G04 #@! TO.P,SW36,1*
G04 #@! TO.N,X5*
X240084000Y-121666000D03*
G04 #@! TD*
G04 #@! TO.P,SW35,2*
G04 #@! TO.N,Y5*
X207264000Y-110156000D03*
G04 #@! TO.P,SW35,1*
G04 #@! TO.N,X4*
X207264000Y-105156000D03*
G04 #@! TO.P,SW35,2*
G04 #@! TO.N,Y5*
X219764000Y-110156000D03*
G04 #@! TO.P,SW35,1*
G04 #@! TO.N,X4*
X219764000Y-105156000D03*
G04 #@! TD*
G04 #@! TO.P,SW34,2*
G04 #@! TO.N,Y5*
X223774000Y-110156000D03*
G04 #@! TO.P,SW34,1*
G04 #@! TO.N,X3*
X223774000Y-105156000D03*
G04 #@! TO.P,SW34,2*
G04 #@! TO.N,Y5*
X236274000Y-110156000D03*
G04 #@! TO.P,SW34,1*
G04 #@! TO.N,X3*
X236274000Y-105156000D03*
G04 #@! TD*
G04 #@! TO.P,SW33,2*
G04 #@! TO.N,Y5*
X215519000Y-93646000D03*
G04 #@! TO.P,SW33,1*
G04 #@! TO.N,X2*
X215519000Y-88646000D03*
G04 #@! TO.P,SW33,2*
G04 #@! TO.N,Y5*
X228019000Y-93646000D03*
G04 #@! TO.P,SW33,1*
G04 #@! TO.N,X2*
X228019000Y-88646000D03*
G04 #@! TD*
G04 #@! TO.P,SW32,2*
G04 #@! TO.N,Y5*
X232029000Y-93646000D03*
G04 #@! TO.P,SW32,1*
G04 #@! TO.N,X1*
X232029000Y-88646000D03*
G04 #@! TO.P,SW32,2*
G04 #@! TO.N,Y5*
X244529000Y-93646000D03*
G04 #@! TO.P,SW32,1*
G04 #@! TO.N,X1*
X244529000Y-88646000D03*
G04 #@! TD*
G04 #@! TO.P,SW31,2*
G04 #@! TO.N,Y4*
X235204000Y-143176000D03*
G04 #@! TO.P,SW31,1*
G04 #@! TO.N,X8*
X235204000Y-138176000D03*
G04 #@! TO.P,SW31,2*
G04 #@! TO.N,Y4*
X247704000Y-143176000D03*
G04 #@! TO.P,SW31,1*
G04 #@! TO.N,X8*
X247704000Y-138176000D03*
G04 #@! TD*
G04 #@! TO.P,SW30,2*
G04 #@! TO.N,Y4*
X251714000Y-143176000D03*
G04 #@! TO.P,SW30,1*
G04 #@! TO.N,X7*
X251714000Y-138176000D03*
G04 #@! TO.P,SW30,2*
G04 #@! TO.N,Y4*
X264214000Y-143176000D03*
G04 #@! TO.P,SW30,1*
G04 #@! TO.N,X7*
X264214000Y-138176000D03*
G04 #@! TD*
G04 #@! TO.P,SW29,2*
G04 #@! TO.N,Y4*
X244094000Y-126666000D03*
G04 #@! TO.P,SW29,1*
G04 #@! TO.N,X6*
X244094000Y-121666000D03*
G04 #@! TO.P,SW29,2*
G04 #@! TO.N,Y4*
X256594000Y-126666000D03*
G04 #@! TO.P,SW29,1*
G04 #@! TO.N,X6*
X256594000Y-121666000D03*
G04 #@! TD*
G04 #@! TO.P,SW28,2*
G04 #@! TO.N,Y4*
X260604000Y-126666000D03*
G04 #@! TO.P,SW28,1*
G04 #@! TO.N,X5*
X260604000Y-121666000D03*
G04 #@! TO.P,SW28,2*
G04 #@! TO.N,Y4*
X273104000Y-126666000D03*
G04 #@! TO.P,SW28,1*
G04 #@! TO.N,X5*
X273104000Y-121666000D03*
G04 #@! TD*
G04 #@! TO.P,SW27,2*
G04 #@! TO.N,Y4*
X240284000Y-110156000D03*
G04 #@! TO.P,SW27,1*
G04 #@! TO.N,X4*
X240284000Y-105156000D03*
G04 #@! TO.P,SW27,2*
G04 #@! TO.N,Y4*
X252784000Y-110156000D03*
G04 #@! TO.P,SW27,1*
G04 #@! TO.N,X4*
X252784000Y-105156000D03*
G04 #@! TD*
G04 #@! TO.P,SW26,2*
G04 #@! TO.N,Y4*
X256794000Y-110156000D03*
G04 #@! TO.P,SW26,1*
G04 #@! TO.N,X3*
X256794000Y-105156000D03*
G04 #@! TO.P,SW26,2*
G04 #@! TO.N,Y4*
X269294000Y-110156000D03*
G04 #@! TO.P,SW26,1*
G04 #@! TO.N,X3*
X269294000Y-105156000D03*
G04 #@! TD*
G04 #@! TO.P,SW25,2*
G04 #@! TO.N,Y4*
X248539000Y-93646000D03*
G04 #@! TO.P,SW25,1*
G04 #@! TO.N,X2*
X248539000Y-88646000D03*
G04 #@! TO.P,SW25,2*
G04 #@! TO.N,Y4*
X261039000Y-93646000D03*
G04 #@! TO.P,SW25,1*
G04 #@! TO.N,X2*
X261039000Y-88646000D03*
G04 #@! TD*
G04 #@! TO.P,SW24,2*
G04 #@! TO.N,Y4*
X265049000Y-93646000D03*
G04 #@! TO.P,SW24,1*
G04 #@! TO.N,X1*
X265049000Y-88646000D03*
G04 #@! TO.P,SW24,2*
G04 #@! TO.N,Y4*
X277549000Y-93646000D03*
G04 #@! TO.P,SW24,1*
G04 #@! TO.N,X1*
X277549000Y-88646000D03*
G04 #@! TD*
G04 #@! TO.P,SW23,2*
G04 #@! TO.N,Y3*
X86614000Y-159686000D03*
G04 #@! TO.P,SW23,1*
G04 #@! TO.N,X8*
X86614000Y-154686000D03*
G04 #@! TO.P,SW23,2*
G04 #@! TO.N,Y3*
X99114000Y-159686000D03*
G04 #@! TO.P,SW23,1*
G04 #@! TO.N,X8*
X99114000Y-154686000D03*
G04 #@! TD*
G04 #@! TO.P,SW21,2*
G04 #@! TO.N,Y3*
X86614000Y-143176000D03*
G04 #@! TO.P,SW21,1*
G04 #@! TO.N,X6*
X86614000Y-138176000D03*
G04 #@! TO.P,SW21,2*
G04 #@! TO.N,Y3*
X99114000Y-143176000D03*
G04 #@! TO.P,SW21,1*
G04 #@! TO.N,X6*
X99114000Y-138176000D03*
G04 #@! TD*
G04 #@! TO.P,SW20,2*
G04 #@! TO.N,Y3*
X314579000Y-110156000D03*
G04 #@! TO.P,SW20,1*
G04 #@! TO.N,X5*
X314579000Y-105156000D03*
G04 #@! TO.P,SW20,2*
G04 #@! TO.N,Y3*
X327079000Y-110156000D03*
G04 #@! TO.P,SW20,1*
G04 #@! TO.N,X5*
X327079000Y-105156000D03*
G04 #@! TD*
G04 #@! TO.P,SW19,2*
G04 #@! TO.N,Y3*
X277114000Y-126666000D03*
G04 #@! TO.P,SW19,1*
G04 #@! TO.N,X4*
X277114000Y-121666000D03*
G04 #@! TO.P,SW19,2*
G04 #@! TO.N,Y3*
X289614000Y-126666000D03*
G04 #@! TO.P,SW19,1*
G04 #@! TO.N,X4*
X289614000Y-121666000D03*
G04 #@! TD*
G04 #@! TO.P,SW18,2*
G04 #@! TO.N,Y3*
X295529000Y-117776000D03*
G04 #@! TO.P,SW18,1*
G04 #@! TO.N,X3*
X295529000Y-112776000D03*
G04 #@! TO.P,SW18,2*
G04 #@! TO.N,Y3*
X308029000Y-117776000D03*
G04 #@! TO.P,SW18,1*
G04 #@! TO.N,X3*
X308029000Y-112776000D03*
G04 #@! TD*
G04 #@! TO.P,SW17,2*
G04 #@! TO.N,Y3*
X273304000Y-110156000D03*
G04 #@! TO.P,SW17,1*
G04 #@! TO.N,X2*
X273304000Y-105156000D03*
G04 #@! TO.P,SW17,2*
G04 #@! TO.N,Y3*
X285804000Y-110156000D03*
G04 #@! TO.P,SW17,1*
G04 #@! TO.N,X2*
X285804000Y-105156000D03*
G04 #@! TD*
G04 #@! TO.P,SW16,2*
G04 #@! TO.N,Y3*
X281559000Y-93646000D03*
G04 #@! TO.P,SW16,1*
G04 #@! TO.N,X1*
X281559000Y-88646000D03*
G04 #@! TO.P,SW16,2*
G04 #@! TO.N,Y3*
X294059000Y-93646000D03*
G04 #@! TO.P,SW16,1*
G04 #@! TO.N,X1*
X294059000Y-88646000D03*
G04 #@! TD*
G04 #@! TO.P,SW15,2*
G04 #@! TO.N,Y2*
X314579000Y-143176000D03*
G04 #@! TO.P,SW15,1*
G04 #@! TO.N,X8*
X314579000Y-138176000D03*
G04 #@! TO.P,SW15,2*
G04 #@! TO.N,Y2*
X327079000Y-143176000D03*
G04 #@! TO.P,SW15,1*
G04 #@! TO.N,X8*
X327079000Y-138176000D03*
G04 #@! TD*
G04 #@! TO.P,SW14,2*
G04 #@! TO.N,Y2*
X331089000Y-126666000D03*
G04 #@! TO.P,SW14,1*
G04 #@! TO.N,X7*
X331089000Y-121666000D03*
G04 #@! TO.P,SW14,2*
G04 #@! TO.N,Y2*
X343589000Y-126666000D03*
G04 #@! TO.P,SW14,1*
G04 #@! TO.N,X7*
X343589000Y-121666000D03*
G04 #@! TD*
G04 #@! TO.P,SW13,2*
G04 #@! TO.N,Y2*
X314579000Y-126666000D03*
G04 #@! TO.P,SW13,1*
G04 #@! TO.N,X6*
X314579000Y-121666000D03*
G04 #@! TO.P,SW13,2*
G04 #@! TO.N,Y2*
X327079000Y-126666000D03*
G04 #@! TO.P,SW13,1*
G04 #@! TO.N,X6*
X327079000Y-121666000D03*
G04 #@! TD*
G04 #@! TO.P,SW12,2*
G04 #@! TO.N,Y2*
X331089000Y-110156000D03*
G04 #@! TO.P,SW12,1*
G04 #@! TO.N,X5*
X331089000Y-105156000D03*
G04 #@! TO.P,SW12,2*
G04 #@! TO.N,Y2*
X343589000Y-110156000D03*
G04 #@! TO.P,SW12,1*
G04 #@! TO.N,X5*
X343589000Y-105156000D03*
G04 #@! TD*
G04 #@! TO.P,SW11,2*
G04 #@! TO.N,Y2*
X331089000Y-93646000D03*
G04 #@! TO.P,SW11,1*
G04 #@! TO.N,X4*
X331089000Y-88646000D03*
G04 #@! TO.P,SW11,2*
G04 #@! TO.N,Y2*
X343589000Y-93646000D03*
G04 #@! TO.P,SW11,1*
G04 #@! TO.N,X4*
X343589000Y-88646000D03*
G04 #@! TD*
G04 #@! TO.P,SW10,2*
G04 #@! TO.N,Y2*
X314579000Y-93646000D03*
G04 #@! TO.P,SW10,1*
G04 #@! TO.N,X3*
X314579000Y-88646000D03*
G04 #@! TO.P,SW10,2*
G04 #@! TO.N,Y2*
X327079000Y-93646000D03*
G04 #@! TO.P,SW10,1*
G04 #@! TO.N,X3*
X327079000Y-88646000D03*
G04 #@! TD*
G04 #@! TO.P,SW9,2*
G04 #@! TO.N,Y2*
X103124000Y-159686000D03*
G04 #@! TO.P,SW9,1*
G04 #@! TO.N,X2*
X103124000Y-154686000D03*
G04 #@! TO.P,SW9,2*
G04 #@! TO.N,Y2*
X115624000Y-159686000D03*
G04 #@! TO.P,SW9,1*
G04 #@! TO.N,X2*
X115624000Y-154686000D03*
G04 #@! TD*
G04 #@! TO.P,SW8,2*
G04 #@! TO.N,Y2*
X314579000Y-159686000D03*
G04 #@! TO.P,SW8,1*
G04 #@! TO.N,X1*
X314579000Y-154686000D03*
G04 #@! TO.P,SW8,2*
G04 #@! TO.N,Y2*
X327079000Y-159686000D03*
G04 #@! TO.P,SW8,1*
G04 #@! TO.N,X1*
X327079000Y-154686000D03*
G04 #@! TD*
G04 #@! TO.P,SW7,2*
G04 #@! TO.N,Y1*
X347599000Y-143176000D03*
G04 #@! TO.P,SW7,1*
G04 #@! TO.N,X8*
X347599000Y-138176000D03*
G04 #@! TO.P,SW7,2*
G04 #@! TO.N,Y1*
X360099000Y-143176000D03*
G04 #@! TO.P,SW7,1*
G04 #@! TO.N,X8*
X360099000Y-138176000D03*
G04 #@! TD*
G04 #@! TO.P,SW6,2*
G04 #@! TO.N,Y1*
X298069000Y-159686000D03*
G04 #@! TO.P,SW6,1*
G04 #@! TO.N,X7*
X298069000Y-154686000D03*
G04 #@! TO.P,SW6,2*
G04 #@! TO.N,Y1*
X310569000Y-159686000D03*
G04 #@! TO.P,SW6,1*
G04 #@! TO.N,X7*
X310569000Y-154686000D03*
G04 #@! TD*
G04 #@! TO.P,SW5,2*
G04 #@! TO.N,Y1*
X347599000Y-126666000D03*
G04 #@! TO.P,SW5,1*
G04 #@! TO.N,X6*
X347599000Y-121666000D03*
G04 #@! TO.P,SW5,2*
G04 #@! TO.N,Y1*
X360099000Y-126666000D03*
G04 #@! TO.P,SW5,1*
G04 #@! TO.N,X6*
X360099000Y-121666000D03*
G04 #@! TD*
G04 #@! TO.P,SW4,2*
G04 #@! TO.N,Y1*
X347599000Y-110156000D03*
G04 #@! TO.P,SW4,1*
G04 #@! TO.N,X5*
X347599000Y-105156000D03*
G04 #@! TO.P,SW4,2*
G04 #@! TO.N,Y1*
X360099000Y-110156000D03*
G04 #@! TO.P,SW4,1*
G04 #@! TO.N,X5*
X360099000Y-105156000D03*
G04 #@! TD*
G04 #@! TO.P,SW3,2*
G04 #@! TO.N,Y1*
X347599000Y-93646000D03*
G04 #@! TO.P,SW3,1*
G04 #@! TO.N,X4*
X347599000Y-88646000D03*
G04 #@! TO.P,SW3,2*
G04 #@! TO.N,Y1*
X360099000Y-93646000D03*
G04 #@! TO.P,SW3,1*
G04 #@! TO.N,X4*
X360099000Y-88646000D03*
G04 #@! TD*
G04 #@! TO.P,SW2,2*
G04 #@! TO.N,Y1*
X331089000Y-159686000D03*
G04 #@! TO.P,SW2,1*
G04 #@! TO.N,X3*
X331089000Y-154686000D03*
G04 #@! TO.P,SW2,2*
G04 #@! TO.N,Y1*
X343589000Y-159686000D03*
G04 #@! TO.P,SW2,1*
G04 #@! TO.N,X3*
X343589000Y-154686000D03*
G04 #@! TD*
G04 #@! TO.P,SW1,2*
G04 #@! TO.N,Y1*
X347599000Y-159686000D03*
G04 #@! TO.P,SW1,1*
G04 #@! TO.N,X2*
X347599000Y-154686000D03*
G04 #@! TO.P,SW1,2*
G04 #@! TO.N,Y1*
X360099000Y-159686000D03*
G04 #@! TO.P,SW1,1*
G04 #@! TO.N,X2*
X360099000Y-154686000D03*
G04 #@! TD*
G04 #@! TO.P,SW0,2*
G04 #@! TO.N,Y1*
X331089000Y-143176000D03*
G04 #@! TO.P,SW0,1*
G04 #@! TO.N,X1*
X331089000Y-138176000D03*
G04 #@! TO.P,SW0,2*
G04 #@! TO.N,Y1*
X343589000Y-143176000D03*
G04 #@! TO.P,SW0,1*
G04 #@! TO.N,X1*
X343589000Y-138176000D03*
G04 #@! TD*
D11*
G04 #@! TO.P,J1,20*
G04 #@! TO.N,Net-(J1-Pad20)*
X68580000Y-125730000D03*
G04 #@! TO.P,J1,18*
G04 #@! TO.N,Y9*
X68580000Y-128270000D03*
G04 #@! TO.P,J1,16*
G04 #@! TO.N,Y8*
X68580000Y-130810000D03*
G04 #@! TO.P,J1,14*
G04 #@! TO.N,Y7*
X68580000Y-133350000D03*
G04 #@! TO.P,J1,12*
G04 #@! TO.N,Y6*
X68580000Y-135890000D03*
G04 #@! TO.P,J1,10*
G04 #@! TO.N,Y5*
X68580000Y-138430000D03*
G04 #@! TO.P,J1,8*
G04 #@! TO.N,Y4*
X68580000Y-140970000D03*
G04 #@! TO.P,J1,6*
G04 #@! TO.N,Y3*
X68580000Y-143510000D03*
G04 #@! TO.P,J1,4*
G04 #@! TO.N,Y2*
X68580000Y-146050000D03*
G04 #@! TO.P,J1,2*
G04 #@! TO.N,Y1*
X68580000Y-148590000D03*
G04 #@! TO.P,J1,19*
G04 #@! TO.N,Net-(J1-Pad19)*
X71120000Y-125730000D03*
G04 #@! TO.P,J1,17*
G04 #@! TO.N,X1*
X71120000Y-128270000D03*
G04 #@! TO.P,J1,15*
G04 #@! TO.N,X2*
X71120000Y-130810000D03*
G04 #@! TO.P,J1,13*
G04 #@! TO.N,X3*
X71120000Y-133350000D03*
G04 #@! TO.P,J1,11*
G04 #@! TO.N,X4*
X71120000Y-135890000D03*
G04 #@! TO.P,J1,9*
G04 #@! TO.N,X5*
X71120000Y-138430000D03*
G04 #@! TO.P,J1,7*
G04 #@! TO.N,X6*
X71120000Y-140970000D03*
G04 #@! TO.P,J1,5*
G04 #@! TO.N,X7*
X71120000Y-143510000D03*
G04 #@! TO.P,J1,3*
G04 #@! TO.N,X9*
X71120000Y-146050000D03*
G04 #@! TO.P,J1,1*
G04 #@! TO.N,Net-(J1-Pad1)*
G04 #@! TA.AperFunction,ComponentPad*
G36*
G01*
X71970000Y-147990000D02*
X71970000Y-149190000D01*
G75*
G02*
X71720000Y-149440000I-250000J0D01*
G01*
X70520000Y-149440000D01*
G75*
G02*
X70270000Y-149190000I0J250000D01*
G01*
X70270000Y-147990000D01*
G75*
G02*
X70520000Y-147740000I250000J0D01*
G01*
X71720000Y-147740000D01*
G75*
G02*
X71970000Y-147990000I0J-250000D01*
G01*
G37*
G04 #@! TD.AperFunction*
G04 #@! TD*
G04 #@! TO.P,J4,20*
G04 #@! TO.N,Net-(J4-Pad20)*
X58420000Y-91440000D03*
G04 #@! TO.P,J4,18*
G04 #@! TO.N,Y1*
X58420000Y-93980000D03*
G04 #@! TO.P,J4,16*
G04 #@! TO.N,X9*
X58420000Y-96520000D03*
G04 #@! TO.P,J4,14*
G04 #@! TO.N,X1*
X58420000Y-99060000D03*
G04 #@! TO.P,J4,12*
G04 #@! TO.N,X3*
X58420000Y-101600000D03*
G04 #@! TO.P,J4,10*
G04 #@! TO.N,X5*
X58420000Y-104140000D03*
G04 #@! TO.P,J4,8*
G04 #@! TO.N,X7*
X58420000Y-106680000D03*
G04 #@! TO.P,J4,6*
G04 #@! TO.N,Y8*
X58420000Y-109220000D03*
G04 #@! TO.P,J4,4*
G04 #@! TO.N,Y6*
X58420000Y-111760000D03*
G04 #@! TO.P,J4,2*
G04 #@! TO.N,Y4*
X58420000Y-114300000D03*
G04 #@! TO.P,J4,19*
G04 #@! TO.N,X8*
X60960000Y-91440000D03*
G04 #@! TO.P,J4,17*
G04 #@! TO.N,Y2*
X60960000Y-93980000D03*
G04 #@! TO.P,J4,15*
G04 #@! TO.N,Y10*
X60960000Y-96520000D03*
G04 #@! TO.P,J4,13*
G04 #@! TO.N,X2*
X60960000Y-99060000D03*
G04 #@! TO.P,J4,11*
G04 #@! TO.N,X4*
X60960000Y-101600000D03*
G04 #@! TO.P,J4,9*
G04 #@! TO.N,X6*
X60960000Y-104140000D03*
G04 #@! TO.P,J4,7*
G04 #@! TO.N,Y9*
X60960000Y-106680000D03*
G04 #@! TO.P,J4,5*
G04 #@! TO.N,Y7*
X60960000Y-109220000D03*
G04 #@! TO.P,J4,3*
G04 #@! TO.N,Y5*
X60960000Y-111760000D03*
G04 #@! TO.P,J4,1*
G04 #@! TO.N,Y3*
G04 #@! TA.AperFunction,ComponentPad*
G36*
G01*
X61810000Y-113700000D02*
X61810000Y-114900000D01*
G75*
G02*
X61560000Y-115150000I-250000J0D01*
G01*
X60360000Y-115150000D01*
G75*
G02*
X60110000Y-114900000I0J250000D01*
G01*
X60110000Y-113700000D01*
G75*
G02*
X60360000Y-113450000I250000J0D01*
G01*
X61560000Y-113450000D01*
G75*
G02*
X61810000Y-113700000I0J-250000D01*
G01*
G37*
G04 #@! TD.AperFunction*
G04 #@! TD*
G04 #@! TO.P,J3,20*
G04 #@! TO.N,X9*
X58420000Y-125730000D03*
G04 #@! TO.P,J3,18*
G04 #@! TO.N,X1*
X58420000Y-128270000D03*
G04 #@! TO.P,J3,16*
G04 #@! TO.N,X3*
X58420000Y-130810000D03*
G04 #@! TO.P,J3,14*
G04 #@! TO.N,X5*
X58420000Y-133350000D03*
G04 #@! TO.P,J3,12*
G04 #@! TO.N,X7*
X58420000Y-135890000D03*
G04 #@! TO.P,J3,10*
G04 #@! TO.N,Y9*
X58420000Y-138430000D03*
G04 #@! TO.P,J3,8*
G04 #@! TO.N,Y7*
X58420000Y-140970000D03*
G04 #@! TO.P,J3,6*
G04 #@! TO.N,Y5*
X58420000Y-143510000D03*
G04 #@! TO.P,J3,4*
G04 #@! TO.N,Y3*
X58420000Y-146050000D03*
G04 #@! TO.P,J3,2*
G04 #@! TO.N,Y1*
X58420000Y-148590000D03*
G04 #@! TO.P,J3,19*
G04 #@! TO.N,Y10*
X60960000Y-125730000D03*
G04 #@! TO.P,J3,17*
G04 #@! TO.N,X2*
X60960000Y-128270000D03*
G04 #@! TO.P,J3,15*
G04 #@! TO.N,X4*
X60960000Y-130810000D03*
G04 #@! TO.P,J3,13*
G04 #@! TO.N,X6*
X60960000Y-133350000D03*
G04 #@! TO.P,J3,11*
G04 #@! TO.N,X8*
X60960000Y-135890000D03*
G04 #@! TO.P,J3,9*
G04 #@! TO.N,Y8*
X60960000Y-138430000D03*
G04 #@! TO.P,J3,7*
G04 #@! TO.N,Y6*
X60960000Y-140970000D03*
G04 #@! TO.P,J3,5*
G04 #@! TO.N,Y4*
X60960000Y-143510000D03*
G04 #@! TO.P,J3,3*
G04 #@! TO.N,Y2*
X60960000Y-146050000D03*
G04 #@! TO.P,J3,1*
G04 #@! TO.N,Net-(J3-Pad1)*
G04 #@! TA.AperFunction,ComponentPad*
G36*
G01*
X61810000Y-147990000D02*
X61810000Y-149190000D01*
G75*
G02*
X61560000Y-149440000I-250000J0D01*
G01*
X60360000Y-149440000D01*
G75*
G02*
X60110000Y-149190000I0J250000D01*
G01*
X60110000Y-147990000D01*
G75*
G02*
X60360000Y-147740000I250000J0D01*
G01*
X61560000Y-147740000D01*
G75*
G02*
X61810000Y-147990000I0J-250000D01*
G01*
G37*
G04 #@! TD.AperFunction*
G04 #@! TD*
G04 #@! TO.P,J2,20*
G04 #@! TO.N,Net-(J1-Pad20)*
X203200000Y-73660000D03*
G04 #@! TO.P,J2,18*
G04 #@! TO.N,Y9*
X200660000Y-73660000D03*
G04 #@! TO.P,J2,16*
G04 #@! TO.N,Y8*
X198120000Y-73660000D03*
G04 #@! TO.P,J2,14*
G04 #@! TO.N,Y7*
X195580000Y-73660000D03*
G04 #@! TO.P,J2,12*
G04 #@! TO.N,Y6*
X193040000Y-73660000D03*
G04 #@! TO.P,J2,10*
G04 #@! TO.N,Y5*
X190500000Y-73660000D03*
G04 #@! TO.P,J2,8*
G04 #@! TO.N,Y4*
X187960000Y-73660000D03*
G04 #@! TO.P,J2,6*
G04 #@! TO.N,Y3*
X185420000Y-73660000D03*
G04 #@! TO.P,J2,4*
G04 #@! TO.N,Y2*
X182880000Y-73660000D03*
G04 #@! TO.P,J2,2*
G04 #@! TO.N,Y1*
X180340000Y-73660000D03*
G04 #@! TO.P,J2,19*
G04 #@! TO.N,Net-(J2-Pad19)*
X203200000Y-76200000D03*
G04 #@! TO.P,J2,17*
G04 #@! TO.N,X1*
X200660000Y-76200000D03*
G04 #@! TO.P,J2,15*
G04 #@! TO.N,X2*
X198120000Y-76200000D03*
G04 #@! TO.P,J2,13*
G04 #@! TO.N,X3*
X195580000Y-76200000D03*
G04 #@! TO.P,J2,11*
G04 #@! TO.N,X4*
X193040000Y-76200000D03*
G04 #@! TO.P,J2,9*
G04 #@! TO.N,X5*
X190500000Y-76200000D03*
G04 #@! TO.P,J2,7*
G04 #@! TO.N,X6*
X187960000Y-76200000D03*
G04 #@! TO.P,J2,5*
G04 #@! TO.N,X7*
X185420000Y-76200000D03*
G04 #@! TO.P,J2,3*
G04 #@! TO.N,X9*
X182880000Y-76200000D03*
G04 #@! TO.P,J2,1*
G04 #@! TO.N,Net-(J2-Pad1)*
G04 #@! TA.AperFunction,ComponentPad*
G36*
G01*
X180940000Y-77050000D02*
X179740000Y-77050000D01*
G75*
G02*
X179490000Y-76800000I0J250000D01*
G01*
X179490000Y-75600000D01*
G75*
G02*
X179740000Y-75350000I250000J0D01*
G01*
X180940000Y-75350000D01*
G75*
G02*
X181190000Y-75600000I0J-250000D01*
G01*
X181190000Y-76800000D01*
G75*
G02*
X180940000Y-77050000I-250000J0D01*
G01*
G37*
G04 #@! TD.AperFunction*
G04 #@! TD*
D12*
G04 #@! TO.P,JP2,2*
G04 #@! TO.N,Net-(J1-Pad19)*
X116840000Y-78740000D03*
D13*
G04 #@! TO.P,JP2,1*
G04 #@! TO.N,Y10*
X114300000Y-78740000D03*
G04 #@! TD*
D12*
G04 #@! TO.P,JP1,3*
G04 #@! TO.N,Y10*
X96520000Y-78740000D03*
G04 #@! TO.P,JP1,2*
G04 #@! TO.N,Net-(J1-Pad20)*
X93980000Y-78740000D03*
D13*
G04 #@! TO.P,JP1,1*
G04 #@! TO.N,X8*
X91440000Y-78740000D03*
G04 #@! TD*
D12*
G04 #@! TO.P,JP3,2*
G04 #@! TO.N,X9*
X71120000Y-78740000D03*
D13*
G04 #@! TO.P,JP3,1*
G04 #@! TO.N,X8*
X73660000Y-78740000D03*
G04 #@! TD*
D14*
G04 #@! TO.N,Y10*
X292608000Y-112522000D03*
X110617000Y-116586000D03*
X65151000Y-111887000D03*
G04 #@! TO.N,Y9*
X201930000Y-91059000D03*
G04 #@! TO.N,Y8*
X197104000Y-96900998D03*
G04 #@! TO.N,Y7*
X189992000Y-92329000D03*
X75819000Y-132080000D03*
X75692000Y-115570000D03*
G04 #@! TO.N,Y5*
X74549002Y-136143998D03*
X74295000Y-117983000D03*
G04 #@! TO.N,Y4*
X81661004Y-141224000D03*
X81534000Y-123571000D03*
G04 #@! TO.N,Y3*
X117093998Y-148336000D03*
X88519000Y-122936000D03*
G04 #@! TO.N,Y2*
X93599000Y-96900998D03*
X94234000Y-147320000D03*
X163195000Y-162941000D03*
G04 #@! TO.N,X9*
X179070000Y-85471000D03*
G04 #@! TO.N,X8*
X66040000Y-124714000D03*
G04 #@! TO.N,X7*
X136144000Y-124460000D03*
X78866998Y-108712000D03*
G04 #@! TO.N,X6*
X95377000Y-107823000D03*
X183026992Y-122916010D03*
G04 #@! TO.N,X5*
X112014000Y-106807000D03*
X112648998Y-136779000D03*
G04 #@! TO.N,X4*
X89535000Y-135255000D03*
G04 #@! TO.N,X3*
X77089000Y-100329998D03*
X116776500Y-132778500D03*
G04 #@! TO.N,X2*
X97789996Y-99060000D03*
X100965000Y-130556000D03*
G04 #@! TO.N,X1*
X85725000Y-97790000D03*
X83185000Y-128270002D03*
G04 #@! TO.N,Y1*
X160274000Y-151130000D03*
G04 #@! TO.N,Net-(J1-Pad20)*
X83947000Y-124206000D03*
G04 #@! TO.N,Net-(J1-Pad19)*
X115697000Y-125222000D03*
G04 #@! TD*
D15*
G04 #@! TO.N,Y10*
X298069000Y-107061000D02*
X292608000Y-112522000D01*
X298069000Y-93646000D02*
X298069000Y-107061000D01*
X110617000Y-105253998D02*
X110617000Y-116586000D01*
X114300000Y-101570998D02*
X110617000Y-105253998D01*
X114300000Y-78740000D02*
X114300000Y-101570998D01*
X60960000Y-96520000D02*
X65151000Y-100711000D01*
X65151000Y-100711000D02*
X65151000Y-111887000D01*
X65151000Y-121539000D02*
X60960000Y-125730000D01*
X65151000Y-111887000D02*
X65151000Y-121539000D01*
G04 #@! TO.N,Y9*
X83439000Y-93646000D02*
X79429000Y-93646000D01*
X104194000Y-122856000D02*
X108004000Y-126666000D01*
X104194000Y-110156000D02*
X104194000Y-122856000D01*
X75184000Y-107522781D02*
X75184000Y-110156000D01*
X66929000Y-99267781D02*
X75184000Y-107522781D01*
X66929000Y-93646000D02*
X66929000Y-99267781D01*
X108004000Y-138296000D02*
X103124000Y-143176000D01*
X108004000Y-126666000D02*
X108004000Y-138296000D01*
X200660000Y-73660000D02*
X201930000Y-74930000D01*
X201930000Y-74930000D02*
X201930000Y-91059000D01*
G04 #@! TO.N,Y8*
X128959000Y-93646000D02*
X132969000Y-93646000D01*
X132969000Y-93646000D02*
X145469000Y-93646000D01*
X137214000Y-110156000D02*
X124714000Y-110156000D01*
X124714000Y-110156000D02*
X120704000Y-110156000D01*
X109853010Y-124505010D02*
X112014000Y-126666000D01*
X109853010Y-111805010D02*
X109853010Y-124505010D01*
X108204000Y-110156000D02*
X109853010Y-111805010D01*
X124514000Y-126666000D02*
X128524000Y-126666000D01*
X148644000Y-143176000D02*
X136144000Y-143176000D01*
X136144000Y-143176000D02*
X132134000Y-143176000D01*
X132134000Y-143176000D02*
X119634000Y-143176000D01*
X139063010Y-100051990D02*
X145469000Y-93646000D01*
X139063010Y-108306990D02*
X139063010Y-100051990D01*
X137214000Y-110156000D02*
X139063010Y-108306990D01*
X197104000Y-78955002D02*
X197104000Y-96900998D01*
X199295001Y-74835001D02*
X199295001Y-76764001D01*
X199295001Y-76764001D02*
X197104000Y-78955002D01*
X198120000Y-73660000D02*
X199295001Y-74835001D01*
X146794990Y-132436990D02*
X141024000Y-126666000D01*
X146794990Y-141326990D02*
X146794990Y-132436990D01*
X148644000Y-143176000D02*
X146794990Y-141326990D01*
G04 #@! TO.N,Y7*
X149479000Y-93646000D02*
X161979000Y-93646000D01*
X142873010Y-124505010D02*
X145034000Y-126666000D01*
X142873010Y-111805010D02*
X142873010Y-124505010D01*
X141224000Y-110156000D02*
X142873010Y-111805010D01*
X145034000Y-126666000D02*
X157534000Y-126666000D01*
X157534000Y-126666000D02*
X161544000Y-126666000D01*
X194404999Y-74835001D02*
X195580000Y-73660000D01*
X194404999Y-76738591D02*
X194404999Y-74835001D01*
X189992000Y-81151590D02*
X194404999Y-76738591D01*
X189992000Y-92329000D02*
X189992000Y-81151590D01*
X174044000Y-133066998D02*
X174044000Y-126666000D01*
X181664000Y-140686998D02*
X174044000Y-133066998D01*
X181664000Y-143176000D02*
X181664000Y-140686998D01*
X143073010Y-100051990D02*
X149479000Y-93646000D01*
X143073010Y-108306990D02*
X143073010Y-100051990D01*
X141224000Y-110156000D02*
X143073010Y-108306990D01*
X75819000Y-132080000D02*
X75819000Y-115697000D01*
X75819000Y-115697000D02*
X75692000Y-115570000D01*
G04 #@! TO.N,Y6*
X176204990Y-124816990D02*
X178054000Y-126666000D01*
X176204990Y-112116990D02*
X176204990Y-124816990D01*
X174244000Y-110156000D02*
X176204990Y-112116990D01*
X190554000Y-126666000D02*
X194564000Y-126666000D01*
X200023010Y-141326990D02*
X200023010Y-137970209D01*
X207064000Y-127119219D02*
X207064000Y-126666000D01*
X200023010Y-134160208D02*
X203223109Y-130960109D01*
X200023010Y-141326990D02*
X200023010Y-134160208D01*
X198174000Y-143176000D02*
X200023010Y-141326990D01*
X203223109Y-130960109D02*
X207064000Y-127119219D01*
X187523010Y-157836990D02*
X185674000Y-159686000D01*
X187523010Y-145025010D02*
X187523010Y-157836990D01*
X185674000Y-143176000D02*
X187523010Y-145025010D01*
X199009000Y-105911000D02*
X203254000Y-110156000D01*
X199009000Y-93646000D02*
X199009000Y-105911000D01*
X193149990Y-91796990D02*
X194999000Y-93646000D01*
X196755001Y-77024599D02*
X193149990Y-80629610D01*
X196755001Y-73095999D02*
X196755001Y-77024599D01*
X193149990Y-80629610D02*
X193149990Y-91796990D01*
X194215001Y-72484999D02*
X196144001Y-72484999D01*
X196144001Y-72484999D02*
X196755001Y-73095999D01*
X193040000Y-73660000D02*
X194215001Y-72484999D01*
G04 #@! TO.N,Y5*
X215519000Y-93646000D02*
X228019000Y-93646000D01*
X228019000Y-93646000D02*
X232029000Y-93646000D01*
X232029000Y-93646000D02*
X244529000Y-93646000D01*
X238123010Y-108306990D02*
X236274000Y-110156000D01*
X238123010Y-100051990D02*
X238123010Y-108306990D01*
X244529000Y-93646000D02*
X238123010Y-100051990D01*
X236274000Y-110156000D02*
X223774000Y-110156000D01*
X223774000Y-110156000D02*
X219764000Y-110156000D01*
X208913010Y-124505010D02*
X211074000Y-126666000D01*
X208913010Y-111805010D02*
X208913010Y-124505010D01*
X207264000Y-110156000D02*
X208913010Y-111805010D01*
X211074000Y-126666000D02*
X223574000Y-126666000D01*
X223574000Y-126666000D02*
X227584000Y-126666000D01*
X227584000Y-126666000D02*
X240084000Y-126666000D01*
X231194000Y-143176000D02*
X218694000Y-143176000D01*
X218694000Y-143176000D02*
X214684000Y-143176000D01*
X233043010Y-141326990D02*
X231194000Y-143176000D01*
X233043010Y-131932990D02*
X233043010Y-141326990D01*
X238310000Y-126666000D02*
X233043010Y-131932990D01*
X240084000Y-126666000D02*
X238310000Y-126666000D01*
X74549002Y-136143998D02*
X74549002Y-118237002D01*
X74549002Y-118237002D02*
X74295000Y-117983000D01*
X213669990Y-87812990D02*
X213669990Y-91796990D01*
X209423000Y-83566000D02*
X213669990Y-87812990D01*
X209423000Y-77089000D02*
X209423000Y-83566000D01*
X213669990Y-91796990D02*
X215519000Y-93646000D01*
X204368989Y-72034989D02*
X209423000Y-77089000D01*
X192125011Y-72034989D02*
X204368989Y-72034989D01*
X190500000Y-73660000D02*
X192125011Y-72034989D01*
G04 #@! TO.N,Y4*
X248539000Y-93646000D02*
X261039000Y-93646000D01*
X261039000Y-93646000D02*
X265049000Y-93646000D01*
X256794000Y-110156000D02*
X252784000Y-110156000D01*
X252784000Y-110156000D02*
X240284000Y-110156000D01*
X241933010Y-124505010D02*
X244094000Y-126666000D01*
X241933010Y-111805010D02*
X241933010Y-124505010D01*
X240284000Y-110156000D02*
X241933010Y-111805010D01*
X244094000Y-126666000D02*
X256594000Y-126666000D01*
X256594000Y-126666000D02*
X260604000Y-126666000D01*
X260604000Y-126666000D02*
X273104000Y-126666000D01*
X266063010Y-137516990D02*
X266063010Y-141326990D01*
X264214000Y-143176000D02*
X251714000Y-143176000D01*
X251714000Y-143176000D02*
X247704000Y-143176000D01*
X247704000Y-143176000D02*
X235204000Y-143176000D01*
X266063010Y-133706990D02*
X267957000Y-131813000D01*
X266063010Y-141326990D02*
X266063010Y-133706990D01*
X264214000Y-143176000D02*
X266063010Y-141326990D01*
X273104000Y-126666000D02*
X267957000Y-131813000D01*
X271143010Y-108306990D02*
X269294000Y-110156000D01*
X271143010Y-99740010D02*
X271143010Y-108306990D01*
X265049000Y-93646000D02*
X271143010Y-99740010D01*
X81661004Y-123698004D02*
X81534000Y-123571000D01*
X81661004Y-141224000D02*
X81661004Y-123698004D01*
X190035020Y-71584980D02*
X187960000Y-73660000D01*
X208407000Y-71584980D02*
X190035020Y-71584980D01*
X221023020Y-84201000D02*
X208407000Y-71584980D01*
X232537000Y-84201000D02*
X221023020Y-84201000D01*
X238232010Y-89896010D02*
X232537000Y-84201000D01*
X244789010Y-89896010D02*
X238232010Y-89896010D01*
X248539000Y-93646000D02*
X244789010Y-89896010D01*
G04 #@! TO.N,Y3*
X281559000Y-93646000D02*
X294059000Y-93646000D01*
X273304000Y-110156000D02*
X285804000Y-110156000D01*
X268224000Y-143176000D02*
X280724000Y-143176000D01*
X289614000Y-126666000D02*
X277114000Y-126666000D01*
X295529000Y-117776000D02*
X308029000Y-117776000D01*
X308029000Y-116706000D02*
X314579000Y-110156000D01*
X308029000Y-117776000D02*
X308029000Y-116706000D01*
X86614000Y-159686000D02*
X99114000Y-159686000D01*
X295529000Y-120751000D02*
X289614000Y-126666000D01*
X295529000Y-117776000D02*
X295529000Y-120751000D01*
X277114000Y-126866000D02*
X277114000Y-126666000D01*
X293424000Y-143176000D02*
X277114000Y-126866000D01*
X297234000Y-143176000D02*
X293424000Y-143176000D01*
X287909000Y-110156000D02*
X295529000Y-117776000D01*
X285804000Y-110156000D02*
X287909000Y-110156000D01*
X86614000Y-143176000D02*
X88519000Y-141271000D01*
X99114000Y-159686000D02*
X100364010Y-160936010D01*
X100364010Y-160936010D02*
X104493988Y-160936010D01*
X104493988Y-160936010D02*
X117093998Y-148336000D01*
X281559000Y-99267781D02*
X281559000Y-93646000D01*
X273304000Y-107522781D02*
X281559000Y-99267781D01*
X273304000Y-110156000D02*
X273304000Y-107522781D01*
X88519000Y-141271000D02*
X88519000Y-122936000D01*
X88463010Y-145025010D02*
X86614000Y-143176000D01*
X88463010Y-157836990D02*
X88463010Y-145025010D01*
X86614000Y-159686000D02*
X88463010Y-157836990D01*
X187945030Y-71134970D02*
X185420000Y-73660000D01*
X259414781Y-80645000D02*
X219075000Y-80645000D01*
X209564970Y-71134970D02*
X187945030Y-71134970D01*
X271165771Y-92395990D02*
X259414781Y-80645000D01*
X280308990Y-92395990D02*
X271165771Y-92395990D01*
X219075000Y-80645000D02*
X209564970Y-71134970D01*
X281559000Y-93646000D02*
X280308990Y-92395990D01*
G04 #@! TO.N,Y2*
X314579000Y-93646000D02*
X327079000Y-93646000D01*
X341739990Y-108306990D02*
X343589000Y-110156000D01*
X341739990Y-95495010D02*
X341739990Y-108306990D01*
X343589000Y-93646000D02*
X341739990Y-95495010D01*
X314579000Y-126666000D02*
X327079000Y-126666000D01*
X327079000Y-126666000D02*
X331089000Y-126666000D01*
X331089000Y-126666000D02*
X343589000Y-126666000D01*
X327079000Y-143176000D02*
X314579000Y-143176000D01*
X314579000Y-143176000D02*
X314579000Y-150241000D01*
X316428010Y-157836990D02*
X314579000Y-159686000D01*
X316428010Y-152090010D02*
X316428010Y-157836990D01*
X314579000Y-150241000D02*
X316428010Y-152090010D01*
X315754000Y-126666000D02*
X314579000Y-126666000D01*
X331089000Y-111331000D02*
X315754000Y-126666000D01*
X331089000Y-110156000D02*
X331089000Y-111331000D01*
X328928010Y-137970209D02*
X328928010Y-141326990D01*
X337057218Y-129841001D02*
X328928010Y-137970209D01*
X328928010Y-141326990D02*
X327079000Y-143176000D01*
X340413999Y-129841001D02*
X337057218Y-129841001D01*
X343589000Y-126666000D02*
X340413999Y-129841001D01*
X93599000Y-135171998D02*
X94234000Y-135806998D01*
X94234000Y-152203685D02*
X94234000Y-147320000D01*
X101716315Y-159686000D02*
X94234000Y-152203685D01*
X103124000Y-159686000D02*
X101716315Y-159686000D01*
X93599000Y-96900998D02*
X93599000Y-135171998D01*
X94234000Y-135806998D02*
X94234000Y-147320000D01*
X165735000Y-118075980D02*
X165735000Y-132461000D01*
X165735000Y-132461000D02*
X163195000Y-135001000D01*
X171674999Y-85470999D02*
X168384990Y-88761008D01*
X168384990Y-115425990D02*
X165735000Y-118075980D01*
X168384990Y-88761008D02*
X168384990Y-115425990D01*
X181515010Y-75024990D02*
X181515010Y-77038180D01*
X173082191Y-85470999D02*
X171674999Y-85470999D01*
X181515010Y-77038180D02*
X173082191Y-85470999D01*
X163195000Y-135001000D02*
X163195000Y-162941000D01*
X182880000Y-73660000D02*
X181515010Y-75024990D01*
G04 #@! TO.N,X9*
X57244999Y-124554999D02*
X58420000Y-125730000D01*
X57244999Y-97695001D02*
X57244999Y-124554999D01*
X58420000Y-96520000D02*
X57244999Y-97695001D01*
X179070000Y-85088590D02*
X179070000Y-85471000D01*
X182880000Y-81278590D02*
X179070000Y-85088590D01*
X182880000Y-76200000D02*
X182880000Y-81278590D01*
X57244999Y-126905001D02*
X58420000Y-125730000D01*
X57244999Y-138994001D02*
X57244999Y-126905001D01*
X57855999Y-139605001D02*
X57244999Y-138994001D01*
X62135001Y-140405999D02*
X61334003Y-139605001D01*
X62135001Y-141344003D02*
X62135001Y-140405999D01*
X68015999Y-147225001D02*
X62135001Y-141344003D01*
X61334003Y-139605001D02*
X57855999Y-139605001D01*
X69944999Y-147225001D02*
X68015999Y-147225001D01*
X71120000Y-146050000D02*
X69944999Y-147225001D01*
G04 #@! TO.N,X8*
X327079000Y-138176000D02*
X314579000Y-138176000D01*
X62135001Y-92615001D02*
X60960000Y-91440000D01*
X62135001Y-95110192D02*
X62135001Y-92615001D01*
X100364010Y-155936010D02*
X99114000Y-154686000D01*
X104240771Y-155936010D02*
X100364010Y-155936010D01*
X113774990Y-146401791D02*
X104240771Y-155936010D01*
X113774990Y-140025010D02*
X113774990Y-146401791D01*
X115624000Y-138176000D02*
X113774990Y-140025010D01*
X217443990Y-139426010D02*
X218694000Y-138176000D01*
X212258990Y-139426010D02*
X217443990Y-139426010D01*
X198174000Y-153511000D02*
X212258990Y-139426010D01*
X198174000Y-154686000D02*
X198174000Y-153511000D01*
X166404010Y-139426010D02*
X165154000Y-138176000D01*
X171589010Y-139426010D02*
X166404010Y-139426010D01*
X185674000Y-153511000D02*
X171589010Y-139426010D01*
X185674000Y-154686000D02*
X185674000Y-153511000D01*
X73660000Y-78740000D02*
X60960000Y-91440000D01*
X66040000Y-124714000D02*
X66040000Y-99015192D01*
X66040000Y-99015192D02*
X65490904Y-98466096D01*
X65490904Y-98466096D02*
X62135001Y-95110192D01*
X62135001Y-137065001D02*
X60960000Y-135890000D01*
X62135001Y-138804003D02*
X62135001Y-137065001D01*
X68015999Y-144685001D02*
X62135001Y-138804003D01*
X77788001Y-144685001D02*
X68015999Y-144685001D01*
X86614000Y-153511000D02*
X77788001Y-144685001D01*
X86614000Y-154686000D02*
X86614000Y-153511000D01*
G04 #@! TO.N,X7*
X282100781Y-138176000D02*
X298610781Y-154686000D01*
X298069000Y-154144219D02*
X298069000Y-154686000D01*
X282100781Y-138176000D02*
X298069000Y-154144219D01*
X280724000Y-138176000D02*
X282100781Y-138176000D01*
X198174000Y-138176000D02*
X185674000Y-138176000D01*
X59595001Y-134714999D02*
X58420000Y-135890000D01*
X62230000Y-135420998D02*
X61524001Y-134714999D01*
X68015999Y-142145001D02*
X62230000Y-136359002D01*
X61524001Y-134714999D02*
X59595001Y-134714999D01*
X69755001Y-142145001D02*
X68015999Y-142145001D01*
X62230000Y-136359002D02*
X62230000Y-135420998D01*
X71120000Y-143510000D02*
X69755001Y-142145001D01*
X77144990Y-137485010D02*
X71120000Y-143510000D01*
X77144990Y-123515010D02*
X77144990Y-137485010D01*
X78994000Y-121666000D02*
X77144990Y-123515010D01*
X136144000Y-138176000D02*
X136144000Y-124460000D01*
X78994000Y-121666000D02*
X78994000Y-108839002D01*
X78994000Y-108839002D02*
X78866998Y-108712000D01*
X181737000Y-94896010D02*
X181737000Y-134239000D01*
X181382229Y-94896010D02*
X181737000Y-94896010D01*
X185420000Y-76200000D02*
X185420000Y-79375000D01*
X181382229Y-92395990D02*
X180649990Y-93128229D01*
X181737000Y-83058000D02*
X181737000Y-87395990D01*
X181737000Y-87395990D02*
X181382229Y-87395990D01*
X181382229Y-87395990D02*
X180649990Y-88128229D01*
X181737000Y-92395990D02*
X181382229Y-92395990D01*
X180649990Y-93128229D02*
X180649990Y-94163771D01*
X180649990Y-88128229D02*
X180649990Y-89163771D01*
X180649990Y-89163771D02*
X181382229Y-89896010D01*
X185420000Y-79375000D02*
X181737000Y-83058000D01*
X181382229Y-89896010D02*
X181737000Y-89896010D01*
X181737000Y-89896010D02*
X181737000Y-92395990D01*
X181737000Y-134239000D02*
X185674000Y-138176000D01*
X180649990Y-94163771D02*
X181382229Y-94896010D01*
G04 #@! TO.N,X6*
X67404999Y-139794999D02*
X60960000Y-133350000D01*
X69944999Y-139794999D02*
X67404999Y-139794999D01*
X71120000Y-140970000D02*
X69944999Y-139794999D01*
X99114000Y-125276000D02*
X95504000Y-121666000D01*
X99114000Y-138176000D02*
X99114000Y-125276000D01*
X95504000Y-121666000D02*
X95504000Y-108204000D01*
X95504000Y-108204000D02*
X95377000Y-108077000D01*
X95377000Y-108077000D02*
X95377000Y-107823000D01*
X183026992Y-105233408D02*
X183026992Y-122916010D01*
X184715990Y-103544410D02*
X183026992Y-105233408D01*
X187960000Y-76200000D02*
X187960000Y-78103590D01*
X184715990Y-81347600D02*
X184715990Y-103544410D01*
X187960000Y-78103590D02*
X184715990Y-81347600D01*
G04 #@! TO.N,X5*
X59595001Y-132174999D02*
X58420000Y-133350000D01*
X61524001Y-132174999D02*
X59595001Y-132174999D01*
X66604001Y-137254999D02*
X61524001Y-132174999D01*
X69944999Y-137254999D02*
X66604001Y-137254999D01*
X71120000Y-138430000D02*
X69944999Y-137254999D01*
X190500000Y-76200000D02*
X186055000Y-80645000D01*
X186055000Y-80645000D02*
X186055000Y-102951958D01*
X186055000Y-102951958D02*
X184444979Y-104561979D01*
X184444979Y-115556979D02*
X187161500Y-118273500D01*
X184444979Y-104561979D02*
X184444979Y-115556979D01*
X187161500Y-118273500D02*
X190554000Y-121666000D01*
X112014000Y-121666000D02*
X112014000Y-120491000D01*
X112014000Y-120491000D02*
X112014000Y-106807000D01*
X113938001Y-135489997D02*
X112648998Y-136779000D01*
X113938001Y-123590001D02*
X113938001Y-135489997D01*
X112014000Y-121666000D02*
X113938001Y-123590001D01*
G04 #@! TO.N,X4*
X263017000Y-107569000D02*
X277114000Y-121666000D01*
X255197000Y-107569000D02*
X263017000Y-107569000D01*
X252784000Y-105156000D02*
X255197000Y-107569000D01*
X64864999Y-134714999D02*
X60960000Y-130810000D01*
X69944999Y-134714999D02*
X64864999Y-134714999D01*
X71120000Y-135890000D02*
X69944999Y-134714999D01*
X186744000Y-82496000D02*
X186744000Y-105156000D01*
X193040000Y-76200000D02*
X186744000Y-82496000D01*
X91694000Y-105156000D02*
X89535000Y-107315000D01*
X89535000Y-107315000D02*
X89535000Y-135255000D01*
G04 #@! TO.N,X3*
X79429000Y-88646000D02*
X66929000Y-88646000D01*
X331089000Y-148309219D02*
X331089000Y-154686000D01*
X349448010Y-120467010D02*
X349448010Y-129950209D01*
X335915000Y-106934000D02*
X349448010Y-120467010D01*
X335915000Y-96105219D02*
X335915000Y-106934000D01*
X329705791Y-89896010D02*
X335915000Y-96105219D01*
X328329010Y-89896010D02*
X329705791Y-89896010D01*
X349448010Y-129950209D02*
X331089000Y-148309219D01*
X327079000Y-88646000D02*
X328329010Y-89896010D01*
X61524001Y-129634999D02*
X59595001Y-129634999D01*
X64064001Y-132174999D02*
X61524001Y-129634999D01*
X69944999Y-132174999D02*
X64064001Y-132174999D01*
X59595001Y-129634999D02*
X58420000Y-130810000D01*
X71120000Y-133350000D02*
X69944999Y-132174999D01*
X190754000Y-81026000D02*
X190754000Y-105156000D01*
X195580000Y-76200000D02*
X190754000Y-81026000D01*
X79429000Y-88646000D02*
X77089000Y-90986000D01*
X77089000Y-90986000D02*
X77089000Y-100329998D01*
X124714000Y-105156000D02*
X123337219Y-105156000D01*
X123337219Y-105156000D02*
X116776500Y-111716719D01*
X116776500Y-111716719D02*
X116776500Y-132778500D01*
G04 #@! TO.N,X2*
X273304000Y-99534219D02*
X273304000Y-105156000D01*
X262415781Y-88646000D02*
X273304000Y-99534219D01*
X261039000Y-88646000D02*
X262415781Y-88646000D01*
X62324999Y-129634999D02*
X60960000Y-128270000D01*
X69944999Y-129634999D02*
X62324999Y-129634999D01*
X71120000Y-130810000D02*
X69944999Y-129634999D01*
X194999000Y-79417010D02*
X198120000Y-76296010D01*
X194999000Y-88646000D02*
X194999000Y-79417010D01*
X99949000Y-88646000D02*
X97789996Y-90805004D01*
X97789996Y-90805004D02*
X97789996Y-99060000D01*
X100965000Y-154301000D02*
X100965000Y-130556000D01*
X103124000Y-154686000D02*
X101350000Y-154686000D01*
X101350000Y-154686000D02*
X100965000Y-154301000D01*
X100457000Y-130048000D02*
X100965000Y-130556000D01*
X100457000Y-101727004D02*
X100457000Y-130048000D01*
X97789996Y-99060000D02*
X100457000Y-101727004D01*
G04 #@! TO.N,X1*
X328928010Y-152836990D02*
X327079000Y-154686000D01*
X328928010Y-142970209D02*
X328928010Y-152836990D01*
X331089000Y-140809219D02*
X328928010Y-142970209D01*
X331089000Y-138176000D02*
X331089000Y-140809219D01*
X59595001Y-127094999D02*
X58420000Y-128270000D01*
X69944999Y-127094999D02*
X59595001Y-127094999D01*
X71120000Y-128270000D02*
X69944999Y-127094999D01*
X312729990Y-114371791D02*
X312729990Y-152836990D01*
X312729990Y-152836990D02*
X314579000Y-154686000D01*
X316428010Y-110673771D02*
X312729990Y-114371791D01*
X296685792Y-89896010D02*
X316428010Y-109638229D01*
X295309010Y-89896010D02*
X296685792Y-89896010D01*
X316428010Y-109638229D02*
X316428010Y-110673771D01*
X294059000Y-88646000D02*
X295309010Y-89896010D01*
X199009000Y-77947010D02*
X200660000Y-76296010D01*
X199009000Y-88646000D02*
X199009000Y-77947010D01*
X83439000Y-88646000D02*
X85213000Y-88646000D01*
X85213000Y-88646000D02*
X85725000Y-89158000D01*
X85725000Y-89158000D02*
X85725000Y-97790000D01*
X83185000Y-100330000D02*
X85725000Y-97790000D01*
X83185000Y-128270002D02*
X83185000Y-100330000D01*
G04 #@! TO.N,Y1*
X343589000Y-143176000D02*
X347599000Y-143176000D01*
X347599000Y-143176000D02*
X360099000Y-143176000D01*
X360099000Y-159686000D02*
X347599000Y-159686000D01*
X347599000Y-159686000D02*
X343589000Y-159686000D01*
X343589000Y-159686000D02*
X331089000Y-159686000D01*
X310569000Y-159686000D02*
X298069000Y-159686000D01*
X358249990Y-112005010D02*
X358249990Y-124816990D01*
X358249990Y-124816990D02*
X360099000Y-126666000D01*
X360099000Y-110156000D02*
X358249990Y-112005010D01*
X358249990Y-157836990D02*
X360099000Y-159686000D01*
X358249990Y-145025010D02*
X358249990Y-157836990D01*
X360099000Y-143176000D02*
X358249990Y-145025010D01*
X164020500Y-88247719D02*
X164020500Y-101453498D01*
X160274000Y-132969000D02*
X160274000Y-151130000D01*
X164020500Y-113858502D02*
X164020500Y-129222500D01*
X164020500Y-129222500D02*
X160274000Y-132969000D01*
X164020500Y-101453498D02*
X165159001Y-102591999D01*
X165159001Y-112720001D02*
X164020500Y-113858502D01*
X178608218Y-73660000D02*
X164020500Y-88247719D01*
X180340000Y-73660000D02*
X178608218Y-73660000D01*
X165159001Y-102591999D02*
X165159001Y-112720001D01*
X349448010Y-104296990D02*
X360099000Y-93646000D01*
X349448010Y-108306990D02*
X349448010Y-104296990D01*
X347599000Y-110156000D02*
X349448010Y-108306990D01*
X332264000Y-143176000D02*
X331089000Y-143176000D01*
X347599000Y-127841000D02*
X332264000Y-143176000D01*
X347599000Y-126666000D02*
X347599000Y-127841000D01*
G04 #@! TO.N,Net-(J1-Pad20)*
X93980000Y-78740000D02*
X93980000Y-95446996D01*
X93980000Y-95446996D02*
X83947000Y-105479996D01*
X83947000Y-105479996D02*
X83947000Y-124206000D01*
G04 #@! TO.N,Net-(J1-Pad19)*
X116840000Y-78740000D02*
X118308010Y-80208010D01*
X118308010Y-80208010D02*
X118308010Y-109548799D01*
X118308010Y-109548799D02*
X115697000Y-112159809D01*
X115697000Y-112159809D02*
X115697000Y-125222000D01*
G04 #@! TD*
M02*
