M48
INCH,TZ
T1C0.0157
T2C0.0394
T3C0.0512
%
G90
G05
T1
X25650Y-44050
X26000Y-49100
X29250Y-46450
X29350Y-53600
X29800Y-45500
X29850Y-52000
X30350Y-39500
X31050Y-42800
X32100Y-48650
X32150Y-55600
X32750Y-50500
X33050Y-48900
X33750Y-38500
X34850Y-48400
X35250Y-53250
X36850Y-38150
X37100Y-58000
X37550Y-42450
X38500Y-39000
X39750Y-51400
X43550Y-45900
X44100Y-42050
X44350Y-53850
X45550Y-49300
X45975Y-52275
X46100Y-58400
X53600Y-49000
X63100Y-59500
X64250Y-64150
X70500Y-33650
X72058Y-48392
X74800Y-36350
X77600Y-38150
X79500Y-35850
X115200Y-44300
T2
X23000Y-36000
X23000Y-37000
X23000Y-38000
X23000Y-39000
X23000Y-40000
X23000Y-41000
X23000Y-42000
X23000Y-43000
X23000Y-44000
X23000Y-45000
X23000Y-49500
X23000Y-50500
X23000Y-51500
X23000Y-52500
X23000Y-53500
X23000Y-54500
X23000Y-55500
X23000Y-56500
X23000Y-57500
X23000Y-58500
X24000Y-36000
X24000Y-37000
X24000Y-38000
X24000Y-39000
X24000Y-40000
X24000Y-41000
X24000Y-42000
X24000Y-43000
X24000Y-44000
X24000Y-45000
X24000Y-49500
X24000Y-50500
X24000Y-51500
X24000Y-52500
X24000Y-53500
X24000Y-54500
X24000Y-55500
X24000Y-56500
X24000Y-57500
X24000Y-58500
X27000Y-49500
X27000Y-50500
X27000Y-51500
X27000Y-52500
X27000Y-53500
X27000Y-54500
X27000Y-55500
X27000Y-56500
X27000Y-57500
X27000Y-58500
X28000Y-31000
X28000Y-49500
X28000Y-50500
X28000Y-51500
X28000Y-52500
X28000Y-53500
X28000Y-54500
X28000Y-55500
X28000Y-56500
X28000Y-57500
X28000Y-58500
X29000Y-31000
X36000Y-31000
X37000Y-31000
X38000Y-31000
X45000Y-31000
X46000Y-31000
X71000Y-29000
X71000Y-30000
X72000Y-29000
X72000Y-30000
X73000Y-29000
X73000Y-30000
X74000Y-29000
X74000Y-30000
X75000Y-29000
X75000Y-30000
X76000Y-29000
X76000Y-30000
X77000Y-29000
X77000Y-30000
X78000Y-29000
X78000Y-30000
X79000Y-29000
X79000Y-30000
X80000Y-29000
X80000Y-30000
T3
X26350Y-34900
X26350Y-36869
X29600Y-41400
X29600Y-43369
X31100Y-47900
X31100Y-49869
X31271Y-34900
X31271Y-36869
X32850Y-34900
X32850Y-36869
X34100Y-54400
X34100Y-56369
X34100Y-60900
X34100Y-62869
X34521Y-41400
X34521Y-43369
X36021Y-47900
X36021Y-49869
X36100Y-41400
X36100Y-43369
X37600Y-47900
X37600Y-49869
X37771Y-34900
X37771Y-36869
X39021Y-54400
X39021Y-56369
X39021Y-60900
X39021Y-62869
X39350Y-34900
X39350Y-36869
X40600Y-54400
X40600Y-56369
X40600Y-60900
X40600Y-62869
X41021Y-41400
X41021Y-43369
X42521Y-47900
X42521Y-49869
X42600Y-41400
X42600Y-43369
X44100Y-47900
X44100Y-49869
X44271Y-34900
X44271Y-36869
X45521Y-54400
X45521Y-56369
X45521Y-60900
X45521Y-62869
X45850Y-34900
X45850Y-36869
X47100Y-54400
X47100Y-56369
X47521Y-41400
X47521Y-43369
X49021Y-47900
X49021Y-49869
X49100Y-41400
X49100Y-43369
X50600Y-47900
X50600Y-49869
X50771Y-34900
X50771Y-36869
X52021Y-54400
X52021Y-56369
X52350Y-34900
X52350Y-36869
X53600Y-54400
X53600Y-56369
X54021Y-41400
X54021Y-43369
X55521Y-47900
X55521Y-49869
X55600Y-41400
X55600Y-43369
X57100Y-47900
X57100Y-49869
X57271Y-34900
X57271Y-36869
X58521Y-54400
X58521Y-56369
X58850Y-34900
X58850Y-36869
X60100Y-54400
X60100Y-56369
X60521Y-41400
X60521Y-43369
X62021Y-47900
X62021Y-49869
X62100Y-41400
X62100Y-43369
X63600Y-47900
X63600Y-49869
X63771Y-34900
X63771Y-36869
X65021Y-54400
X65021Y-56369
X65350Y-34900
X65350Y-36869
X66600Y-54400
X66600Y-56369
X67021Y-41400
X67021Y-43369
X68521Y-47900
X68521Y-49869
X68600Y-41400
X68600Y-43369
X70100Y-47900
X70100Y-49869
X70271Y-34900
X70271Y-36869
X71521Y-54400
X71521Y-56369
X71850Y-34900
X71850Y-36869
X73100Y-54400
X73100Y-56369
X73100Y-60900
X73100Y-62869
X73521Y-41400
X73521Y-43369
X75021Y-47900
X75021Y-49869
X75100Y-41400
X75100Y-43369
X76600Y-47900
X76600Y-49869
X76771Y-34900
X76771Y-36869
X78021Y-54400
X78021Y-56369
X78021Y-60900
X78021Y-62869
X78350Y-34900
X78350Y-36869
X79600Y-54400
X79600Y-56369
X80021Y-41400
X80021Y-43369
X81521Y-47900
X81521Y-49869
X81600Y-41400
X81600Y-43369
X83100Y-47900
X83100Y-49869
X83271Y-34900
X83271Y-36869
X84521Y-54400
X84521Y-56369
X84850Y-34900
X84850Y-36869
X86100Y-54400
X86100Y-56369
X86521Y-41400
X86521Y-43369
X88021Y-47900
X88021Y-49869
X88100Y-41400
X88100Y-43369
X89600Y-47900
X89600Y-49869
X89771Y-34900
X89771Y-36869
X91021Y-54400
X91021Y-56369
X91350Y-34900
X91350Y-36869
X92600Y-54400
X92600Y-56369
X93021Y-41400
X93021Y-43369
X94521Y-47900
X94521Y-49869
X94600Y-41400
X94600Y-43369
X96100Y-47900
X96100Y-49869
X96271Y-34900
X96271Y-36869
X97521Y-54400
X97521Y-56369
X97850Y-34900
X97850Y-36869
X99100Y-54400
X99100Y-56369
X99521Y-41400
X99521Y-43369
X101021Y-47900
X101021Y-49869
X101100Y-41400
X101100Y-43369
X102600Y-47900
X102600Y-49869
X102771Y-34900
X102771Y-36869
X104021Y-54400
X104021Y-56369
X104350Y-34900
X104350Y-36869
X105600Y-54400
X105600Y-56369
X106021Y-41400
X106021Y-43369
X107521Y-47900
X107521Y-49869
X107600Y-41400
X107600Y-43369
X109100Y-47900
X109100Y-49869
X109271Y-34900
X109271Y-36869
X110521Y-54400
X110521Y-56369
X110850Y-34900
X110850Y-36869
X112100Y-54400
X112100Y-56369
X112521Y-41400
X112521Y-43369
X114021Y-47900
X114021Y-49869
X115771Y-34900
X115771Y-36869
X116350Y-44400
X116350Y-46369
X117021Y-54400
X117021Y-56369
X117350Y-34900
X117350Y-36869
X117350Y-60900
X117350Y-62869
X121271Y-44400
X121271Y-46369
X122271Y-34900
X122271Y-36869
X122271Y-60900
X122271Y-62869
X123850Y-34900
X123850Y-36869
X123850Y-41400
X123850Y-43369
X123850Y-47900
X123850Y-49869
X123850Y-54400
X123850Y-56369
X123850Y-60900
X123850Y-62869
X128771Y-34900
X128771Y-36869
X128771Y-41400
X128771Y-43369
X128771Y-47900
X128771Y-49869
X128771Y-54400
X128771Y-56369
X128771Y-60900
X128771Y-62869
X130350Y-34900
X130350Y-36869
X130350Y-41400
X130350Y-43369
X130350Y-47900
X130350Y-49869
X130350Y-54400
X130350Y-56369
X130350Y-60900
X130350Y-62869
X135271Y-34900
X135271Y-36869
X135271Y-41400
X135271Y-43369
X135271Y-47900
X135271Y-49869
X135271Y-54400
X135271Y-56369
X135271Y-60900
X135271Y-62869
X136850Y-34900
X136850Y-36869
X136850Y-41400
X136850Y-43369
X136850Y-47900
X136850Y-49869
X136850Y-54400
X136850Y-56369
X136850Y-60900
X136850Y-62869
X141771Y-34900
X141771Y-36869
X141771Y-41400
X141771Y-43369
X141771Y-47900
X141771Y-49869
X141771Y-54400
X141771Y-56369
X141771Y-60900
X141771Y-62869
T0
M30
