G04 #@! TF.GenerationSoftware,KiCad,Pcbnew,8.0.2*
G04 #@! TF.CreationDate,2025-03-09T11:26:09+00:00*
G04 #@! TF.ProjectId,Keyboard,4b657962-6f61-4726-942e-6b696361645f,rev?*
G04 #@! TF.SameCoordinates,Original*
G04 #@! TF.FileFunction,Profile,NP*
%FSLAX46Y46*%
G04 Gerber Fmt 4.6, Leading zero omitted, Abs format (unit mm)*
G04 Created by KiCad (PCBNEW 8.0.2) date 2025-03-09 11:26:09*
%MOMM*%
%LPD*%
G01*
G04 APERTURE LIST*
G04 #@! TA.AperFunction,Profile*
%ADD10C,0.050000*%
G04 #@! TD*
G04 APERTURE END LIST*
D10*
X80012499Y-114979999D02*
G75*
G02*
X81917499Y-113074999I1905001J-1D01*
G01*
X81917499Y-239075001D02*
G75*
G02*
X80012499Y-237170001I1J1905001D01*
G01*
X473107501Y-89074999D02*
G75*
G02*
X475012501Y-90979999I-1J-1905001D01*
G01*
X475012501Y-237170001D02*
G75*
G02*
X473107501Y-239075001I-1905001J1D01*
G01*
X391917499Y-239075001D02*
G75*
G02*
X390012499Y-237170001I1J1905001D01*
G01*
X370012501Y-237170001D02*
G75*
G02*
X368107501Y-239075001I-1905001J1D01*
G01*
X400012499Y-90979999D02*
G75*
G02*
X401917499Y-89074999I1905001J-1D01*
G01*
X323107500Y-113074998D02*
G75*
G02*
X325012500Y-114979998I-2J-1905002D01*
G01*
X326917498Y-119075002D02*
G75*
G02*
X325012498Y-117170002I2J1905002D01*
G01*
X400012502Y-117170002D02*
G75*
G02*
X398107502Y-119075002I-1905002J2D01*
G01*
X388107502Y-219074998D02*
G75*
G02*
X390012502Y-220979998I-2J-1905002D01*
G01*
X370012500Y-220980000D02*
G75*
G02*
X371917500Y-219075000I1905000J0D01*
G01*
X475012501Y-237170001D02*
X475012501Y-90979999D01*
X473107501Y-89074999D02*
X401917499Y-89074999D01*
X325012498Y-117170002D02*
X325012500Y-114979998D01*
X391917499Y-239075001D02*
X473107501Y-239075001D01*
X371917500Y-219075000D02*
X388107502Y-219074998D01*
X370012500Y-220980000D02*
X370012501Y-237170001D01*
X81917499Y-113074999D02*
X323107500Y-113074998D01*
X81917499Y-239075001D02*
X368107501Y-239075001D01*
X400012499Y-90979999D02*
X400012502Y-117170002D01*
X80012499Y-114979999D02*
X80012499Y-237170001D01*
X398107502Y-119075002D02*
X326917498Y-119075002D01*
X390012499Y-237170001D02*
X390012502Y-220979998D01*
M02*
