G04 #@! TF.GenerationSoftware,KiCad,Pcbnew,8.0.2*
G04 #@! TF.CreationDate,2025-03-09T11:26:09+00:00*
G04 #@! TF.ProjectId,Keyboard,4b657962-6f61-4726-942e-6b696361645f,rev?*
G04 #@! TF.SameCoordinates,Original*
G04 #@! TF.FileFunction,Soldermask,Top*
G04 #@! TF.FilePolarity,Negative*
%FSLAX46Y46*%
G04 Gerber Fmt 4.6, Leading zero omitted, Abs format (unit mm)*
G04 Created by KiCad (PCBNEW 8.0.2) date 2025-03-09 11:26:09*
%MOMM*%
%LPD*%
G01*
G04 APERTURE LIST*
G04 Aperture macros list*
%AMRoundRect*
0 Rectangle with rounded corners*
0 $1 Rounding radius*
0 $2 $3 $4 $5 $6 $7 $8 $9 X,Y pos of 4 corners*
0 Add a 4 corners polygon primitive as box body*
4,1,4,$2,$3,$4,$5,$6,$7,$8,$9,$2,$3,0*
0 Add four circle primitives for the rounded corners*
1,1,$1+$1,$2,$3*
1,1,$1+$1,$4,$5*
1,1,$1+$1,$6,$7*
1,1,$1+$1,$8,$9*
0 Add four rect primitives between the rounded corners*
20,1,$1+$1,$2,$3,$4,$5,0*
20,1,$1+$1,$4,$5,$6,$7,0*
20,1,$1+$1,$6,$7,$8,$9,0*
20,1,$1+$1,$8,$9,$2,$3,0*%
G04 Aperture macros list end*
%ADD10O,5.500000X5.200000*%
%ADD11C,4.300000*%
%ADD12C,3.200000*%
%ADD13C,2.200000*%
%ADD14RoundRect,0.250000X0.600000X-0.600000X0.600000X0.600000X-0.600000X0.600000X-0.600000X-0.600000X0*%
%ADD15C,1.700000*%
%ADD16RoundRect,0.250000X0.600000X0.600000X-0.600000X0.600000X-0.600000X-0.600000X0.600000X-0.600000X0*%
%ADD17C,1.701800*%
%ADD18C,3.000000*%
%ADD19C,3.987800*%
%ADD20C,2.286000*%
%ADD21C,3.048000*%
%ADD22R,1.700000X1.700000*%
%ADD23O,1.700000X1.700000*%
G04 APERTURE END LIST*
D10*
G04 #@! TO.C,H1*
X85012500Y-118075000D03*
G04 #@! TD*
D11*
G04 #@! TO.C,H2*
X280012500Y-118075000D03*
G04 #@! TD*
D10*
G04 #@! TO.C,H3*
X470012500Y-118075000D03*
G04 #@! TD*
G04 #@! TO.C,H4*
X85012500Y-219075000D03*
G04 #@! TD*
D12*
G04 #@! TO.C,H5*
X350012500Y-234075000D03*
G04 #@! TD*
D10*
G04 #@! TO.C,H6*
X470012500Y-209075000D03*
G04 #@! TD*
D13*
G04 #@! TO.C,H8*
X108585000Y-152400000D03*
G04 #@! TD*
G04 #@! TO.C,H10*
X356235000Y-152400000D03*
G04 #@! TD*
G04 #@! TO.C,H12*
X132715000Y-209550000D03*
G04 #@! TD*
D14*
G04 #@! TO.C,J2*
X169545000Y-122555000D03*
D15*
X169545000Y-120015000D03*
X172085000Y-122555000D03*
X172085000Y-120015000D03*
X174625000Y-122555000D03*
X174625000Y-120015000D03*
X177165000Y-122555000D03*
X177165000Y-120015000D03*
X179705000Y-122555000D03*
X179705000Y-120015000D03*
X182245000Y-122555000D03*
X182245000Y-120015000D03*
X184785000Y-122555000D03*
X184785000Y-120015000D03*
X187325000Y-122555000D03*
X187325000Y-120015000D03*
X189865000Y-122555000D03*
X189865000Y-120015000D03*
X192405000Y-122555000D03*
X192405000Y-120015000D03*
G04 #@! TD*
D13*
G04 #@! TO.C,H9*
X241935000Y-152400000D03*
G04 #@! TD*
D16*
G04 #@! TO.C,J4*
X35941000Y-70713600D03*
D15*
X33401000Y-70713600D03*
X35941000Y-68173600D03*
X33401000Y-68173600D03*
X35941000Y-65633600D03*
X33401000Y-65633600D03*
X35941000Y-63093600D03*
X33401000Y-63093600D03*
X35941000Y-60553600D03*
X33401000Y-60553600D03*
X35941000Y-58013600D03*
X33401000Y-58013600D03*
X35941000Y-55473600D03*
X33401000Y-55473600D03*
X35941000Y-52933600D03*
X33401000Y-52933600D03*
X35941000Y-50393600D03*
X33401000Y-50393600D03*
X35941000Y-47853600D03*
X33401000Y-47853600D03*
G04 #@! TD*
D17*
G04 #@! TO.C,SW17*
X343217500Y-161925000D03*
D18*
X340677500Y-156845000D03*
D19*
X338137500Y-161925000D03*
D18*
X334327500Y-159385000D03*
D17*
X333057500Y-161925000D03*
D20*
X335597500Y-167005000D03*
X341947500Y-164465000D03*
G04 #@! TD*
D21*
G04 #@! TO.C,H18*
X180975000Y-212090000D03*
D19*
X180975000Y-227330000D03*
D21*
X295275000Y-212090000D03*
D19*
X295275000Y-227330000D03*
G04 #@! TD*
D17*
G04 #@! TO.C,SW9*
X438467500Y-119062500D03*
D18*
X435927500Y-113982500D03*
D19*
X433387500Y-119062500D03*
D18*
X429577500Y-116522500D03*
D17*
X428307500Y-119062500D03*
D20*
X430847500Y-124142500D03*
X437197500Y-121602500D03*
G04 #@! TD*
D17*
G04 #@! TO.C,SW60*
X157480000Y-180975000D03*
D18*
X154940000Y-175895000D03*
D19*
X152400000Y-180975000D03*
D18*
X148590000Y-178435000D03*
D17*
X147320000Y-180975000D03*
D20*
X149860000Y-186055000D03*
X156210000Y-183515000D03*
G04 #@! TD*
D17*
G04 #@! TO.C,SW27*
X305117500Y-161925000D03*
D18*
X302577500Y-156845000D03*
D19*
X300037500Y-161925000D03*
D18*
X296227500Y-159385000D03*
D17*
X294957500Y-161925000D03*
D20*
X297497500Y-167005000D03*
X303847500Y-164465000D03*
G04 #@! TD*
D17*
G04 #@! TO.C,SW22*
X338455000Y-200025000D03*
D18*
X335915000Y-194945000D03*
D19*
X333375000Y-200025000D03*
D18*
X329565000Y-197485000D03*
D17*
X328295000Y-200025000D03*
D20*
X330835000Y-205105000D03*
X337185000Y-202565000D03*
G04 #@! TD*
D17*
G04 #@! TO.C,SW69*
X138430000Y-180975000D03*
D18*
X135890000Y-175895000D03*
D19*
X133350000Y-180975000D03*
D18*
X129540000Y-178435000D03*
D17*
X128270000Y-180975000D03*
D20*
X130810000Y-186055000D03*
X137160000Y-183515000D03*
G04 #@! TD*
D17*
G04 #@! TO.C,SW33*
X276542500Y-142875000D03*
D18*
X274002500Y-137795000D03*
D19*
X271462500Y-142875000D03*
D18*
X267652500Y-140335000D03*
D17*
X266382500Y-142875000D03*
D20*
X268922500Y-147955000D03*
X275272500Y-145415000D03*
G04 #@! TD*
D17*
G04 #@! TO.C,SW63*
X167005000Y-200025000D03*
D18*
X164465000Y-194945000D03*
D19*
X161925000Y-200025000D03*
D18*
X158115000Y-197485000D03*
D17*
X156845000Y-200025000D03*
D20*
X159385000Y-205105000D03*
X165735000Y-202565000D03*
G04 #@! TD*
D17*
G04 #@! TO.C,SW7*
X438467500Y-219075000D03*
D18*
X435927500Y-213995000D03*
D19*
X433387500Y-219075000D03*
D18*
X429577500Y-216535000D03*
D17*
X428307500Y-219075000D03*
D20*
X430847500Y-224155000D03*
X437197500Y-221615000D03*
G04 #@! TD*
D17*
G04 #@! TO.C,SW36*
X290830000Y-180975000D03*
D18*
X288290000Y-175895000D03*
D19*
X285750000Y-180975000D03*
D18*
X281940000Y-178435000D03*
D17*
X280670000Y-180975000D03*
D20*
X283210000Y-186055000D03*
X289560000Y-183515000D03*
G04 #@! TD*
D17*
G04 #@! TO.C,SW50*
X190817500Y-161925000D03*
D18*
X188277500Y-156845000D03*
D19*
X185737500Y-161925000D03*
D18*
X181927500Y-159385000D03*
D17*
X180657500Y-161925000D03*
D20*
X183197500Y-167005000D03*
X189547500Y-164465000D03*
G04 #@! TD*
D17*
G04 #@! TO.C,SW10*
X419417500Y-161925000D03*
D18*
X416877500Y-156845000D03*
D19*
X414337500Y-161925000D03*
D18*
X410527500Y-159385000D03*
D17*
X409257500Y-161925000D03*
D20*
X411797500Y-167005000D03*
X418147500Y-164465000D03*
G04 #@! TD*
D17*
G04 #@! TO.C,SW1*
X457517500Y-119062500D03*
D18*
X454977500Y-113982500D03*
D19*
X452437500Y-119062500D03*
D18*
X448627500Y-116522500D03*
D17*
X447357500Y-119062500D03*
D20*
X449897500Y-124142500D03*
X456247500Y-121602500D03*
G04 #@! TD*
D17*
G04 #@! TO.C,SW13*
X419417500Y-200025000D03*
D18*
X416877500Y-194945000D03*
D19*
X414337500Y-200025000D03*
D18*
X410527500Y-197485000D03*
D17*
X409257500Y-200025000D03*
D20*
X411797500Y-205105000D03*
X418147500Y-202565000D03*
G04 #@! TD*
D17*
G04 #@! TO.C,SW42*
X247967500Y-161925000D03*
D18*
X245427500Y-156845000D03*
D19*
X242887500Y-161925000D03*
D18*
X239077500Y-159385000D03*
D17*
X237807500Y-161925000D03*
D20*
X240347500Y-167005000D03*
X246697500Y-164465000D03*
G04 #@! TD*
D13*
G04 #@! TO.C,H15*
X441960000Y-209550000D03*
G04 #@! TD*
G04 #@! TO.C,H11*
X441960000Y-152400000D03*
G04 #@! TD*
D17*
G04 #@! TO.C,SW30*
X319405000Y-200025000D03*
D18*
X316865000Y-194945000D03*
D19*
X314325000Y-200025000D03*
D18*
X310515000Y-197485000D03*
D17*
X309245000Y-200025000D03*
D20*
X311785000Y-205105000D03*
X318135000Y-202565000D03*
G04 #@! TD*
D17*
G04 #@! TO.C,SW62*
X186055000Y-200025000D03*
D18*
X183515000Y-194945000D03*
D19*
X180975000Y-200025000D03*
D18*
X177165000Y-197485000D03*
D17*
X175895000Y-200025000D03*
D20*
X178435000Y-205105000D03*
X184785000Y-202565000D03*
G04 #@! TD*
D17*
G04 #@! TO.C,SW53*
X195580000Y-180975000D03*
D18*
X193040000Y-175895000D03*
D19*
X190500000Y-180975000D03*
D18*
X186690000Y-178435000D03*
D17*
X185420000Y-180975000D03*
D20*
X187960000Y-186055000D03*
X194310000Y-183515000D03*
G04 #@! TD*
D17*
G04 #@! TO.C,SW79*
X371792500Y-142875000D03*
D18*
X369252500Y-137795000D03*
D19*
X366712500Y-142875000D03*
D18*
X362902500Y-140335000D03*
D17*
X361632500Y-142875000D03*
D20*
X364172500Y-147955000D03*
X370522500Y-145415000D03*
G04 #@! TD*
D17*
G04 #@! TO.C,SW14*
X438467500Y-200025000D03*
D18*
X435927500Y-194945000D03*
D19*
X433387500Y-200025000D03*
D18*
X429577500Y-197485000D03*
D17*
X428307500Y-200025000D03*
D20*
X430847500Y-205105000D03*
X437197500Y-202565000D03*
G04 #@! TD*
D17*
G04 #@! TO.C,SW65*
X143192500Y-142875000D03*
D18*
X140652500Y-137795000D03*
D19*
X138112500Y-142875000D03*
D18*
X134302500Y-140335000D03*
D17*
X133032500Y-142875000D03*
D20*
X135572500Y-147955000D03*
X141922500Y-145415000D03*
G04 #@! TD*
D17*
G04 #@! TO.C,SW31*
X300355000Y-200025000D03*
D18*
X297815000Y-194945000D03*
D19*
X295275000Y-200025000D03*
D18*
X291465000Y-197485000D03*
D17*
X290195000Y-200025000D03*
D20*
X292735000Y-205105000D03*
X299085000Y-202565000D03*
G04 #@! TD*
D17*
G04 #@! TO.C,SW37*
X271780000Y-180975000D03*
D18*
X269240000Y-175895000D03*
D19*
X266700000Y-180975000D03*
D18*
X262890000Y-178435000D03*
D17*
X261620000Y-180975000D03*
D20*
X264160000Y-186055000D03*
X270510000Y-183515000D03*
G04 #@! TD*
D17*
G04 #@! TO.C,SW70*
X112236250Y-180975000D03*
D18*
X109696250Y-175895000D03*
D19*
X107156250Y-180975000D03*
D18*
X103346250Y-178435000D03*
D17*
X102076250Y-180975000D03*
D20*
X104616250Y-186055000D03*
X110966250Y-183515000D03*
G04 #@! TD*
D17*
G04 #@! TO.C,SW39*
X281305000Y-200025000D03*
D18*
X278765000Y-194945000D03*
D19*
X276225000Y-200025000D03*
D18*
X272415000Y-197485000D03*
D17*
X271145000Y-200025000D03*
D20*
X273685000Y-205105000D03*
X280035000Y-202565000D03*
G04 #@! TD*
D17*
G04 #@! TO.C,SW6*
X457517500Y-219075000D03*
D18*
X454977500Y-213995000D03*
D19*
X452437500Y-219075000D03*
D18*
X448627500Y-216535000D03*
D17*
X447357500Y-219075000D03*
D20*
X449897500Y-224155000D03*
X456247500Y-221615000D03*
G04 #@! TD*
D17*
G04 #@! TO.C,SW20*
X419417500Y-180975000D03*
D18*
X416877500Y-175895000D03*
D19*
X414337500Y-180975000D03*
D18*
X410527500Y-178435000D03*
D17*
X409257500Y-180975000D03*
D20*
X411797500Y-186055000D03*
X418147500Y-183515000D03*
G04 #@! TD*
D17*
G04 #@! TO.C,SW21*
X116998750Y-200025000D03*
D18*
X114458750Y-194945000D03*
D19*
X111918750Y-200025000D03*
D18*
X108108750Y-197485000D03*
D17*
X106838750Y-200025000D03*
D20*
X109378750Y-205105000D03*
X115728750Y-202565000D03*
G04 #@! TD*
D17*
G04 #@! TO.C,SW38*
X262255000Y-200025000D03*
D18*
X259715000Y-194945000D03*
D19*
X257175000Y-200025000D03*
D18*
X253365000Y-197485000D03*
D17*
X252095000Y-200025000D03*
D20*
X254635000Y-205105000D03*
X260985000Y-202565000D03*
G04 #@! TD*
D17*
G04 #@! TO.C,SW68*
X109855000Y-161925000D03*
D18*
X107315000Y-156845000D03*
D19*
X104775000Y-161925000D03*
D18*
X100965000Y-159385000D03*
D17*
X99695000Y-161925000D03*
D20*
X102235000Y-167005000D03*
X108585000Y-164465000D03*
G04 #@! TD*
D17*
G04 #@! TO.C,SW56*
X181292500Y-142875000D03*
D18*
X178752500Y-137795000D03*
D19*
X176212500Y-142875000D03*
D18*
X172402500Y-140335000D03*
D17*
X171132500Y-142875000D03*
D20*
X173672500Y-147955000D03*
X180022500Y-145415000D03*
G04 #@! TD*
D21*
G04 #@! TO.C,H17*
X100018750Y-193040000D03*
D19*
X100018750Y-208280000D03*
D21*
X123818750Y-193040000D03*
D19*
X123818750Y-208280000D03*
G04 #@! TD*
D17*
G04 #@! TO.C,SW59*
X152717500Y-161925000D03*
D18*
X150177500Y-156845000D03*
D19*
X147637500Y-161925000D03*
D18*
X143827500Y-159385000D03*
D17*
X142557500Y-161925000D03*
D20*
X145097500Y-167005000D03*
X151447500Y-164465000D03*
G04 #@! TD*
D17*
G04 #@! TO.C,SW902*
X319405000Y-219075000D03*
D18*
X316865000Y-213995000D03*
D19*
X314325000Y-219075000D03*
D18*
X310515000Y-216535000D03*
D17*
X309245000Y-219075000D03*
D20*
X311785000Y-224155000D03*
X318135000Y-221615000D03*
G04 #@! TD*
D17*
G04 #@! TO.C,SW43*
X228917500Y-161925000D03*
D18*
X226377500Y-156845000D03*
D19*
X223837500Y-161925000D03*
D18*
X220027500Y-159385000D03*
D17*
X218757500Y-161925000D03*
D20*
X221297500Y-167005000D03*
X227647500Y-164465000D03*
G04 #@! TD*
D17*
G04 #@! TO.C,SW901*
X167005000Y-219075000D03*
D18*
X164465000Y-213995000D03*
D19*
X161925000Y-219075000D03*
D18*
X158115000Y-216535000D03*
D17*
X156845000Y-219075000D03*
D20*
X159385000Y-224155000D03*
X165735000Y-221615000D03*
G04 #@! TD*
D17*
G04 #@! TO.C,SW19*
X347980000Y-180975000D03*
D18*
X345440000Y-175895000D03*
D19*
X342900000Y-180975000D03*
D18*
X339090000Y-178435000D03*
D17*
X337820000Y-180975000D03*
D20*
X340360000Y-186055000D03*
X346710000Y-183515000D03*
G04 #@! TD*
D17*
G04 #@! TO.C,SW34*
X286067500Y-161925000D03*
D18*
X283527500Y-156845000D03*
D19*
X280987500Y-161925000D03*
D18*
X277177500Y-159385000D03*
D17*
X275907500Y-161925000D03*
D20*
X278447500Y-167005000D03*
X284797500Y-164465000D03*
G04 #@! TD*
D17*
G04 #@! TO.C,SW23*
X338455000Y-219075000D03*
D18*
X335915000Y-213995000D03*
D19*
X333375000Y-219075000D03*
D18*
X329565000Y-216535000D03*
D17*
X328295000Y-219075000D03*
D20*
X330835000Y-224155000D03*
X337185000Y-221615000D03*
G04 #@! TD*
D17*
G04 #@! TO.C,SW11*
X438467500Y-161925000D03*
D18*
X435927500Y-156845000D03*
D19*
X433387500Y-161925000D03*
D18*
X429577500Y-159385000D03*
D17*
X428307500Y-161925000D03*
D20*
X430847500Y-167005000D03*
X437197500Y-164465000D03*
G04 #@! TD*
D17*
G04 #@! TO.C,SW41*
X238442500Y-142875000D03*
D18*
X235902500Y-137795000D03*
D19*
X233362500Y-142875000D03*
D18*
X229552500Y-140335000D03*
D17*
X228282500Y-142875000D03*
D20*
X230822500Y-147955000D03*
X237172500Y-145415000D03*
G04 #@! TD*
D17*
G04 #@! TO.C,SW45*
X252730000Y-180975000D03*
D18*
X250190000Y-175895000D03*
D19*
X247650000Y-180975000D03*
D18*
X243840000Y-178435000D03*
D17*
X242570000Y-180975000D03*
D20*
X245110000Y-186055000D03*
X251460000Y-183515000D03*
G04 #@! TD*
D21*
G04 #@! TO.C,H16*
X357346250Y-183350000D03*
D19*
X372586250Y-183350000D03*
D21*
X357346250Y-159550000D03*
D19*
X372586250Y-159550000D03*
G04 #@! TD*
D17*
G04 #@! TO.C,SW8*
X419417500Y-119062500D03*
D18*
X416877500Y-113982500D03*
D19*
X414337500Y-119062500D03*
D18*
X410527500Y-116522500D03*
D17*
X409257500Y-119062500D03*
D20*
X411797500Y-124142500D03*
X418147500Y-121602500D03*
G04 #@! TD*
D17*
G04 #@! TO.C,SW52*
X214630000Y-180975000D03*
D18*
X212090000Y-175895000D03*
D19*
X209550000Y-180975000D03*
D18*
X205740000Y-178435000D03*
D17*
X204470000Y-180975000D03*
D20*
X207010000Y-186055000D03*
X213360000Y-183515000D03*
G04 #@! TD*
D17*
G04 #@! TO.C,SW5*
X457517500Y-200025000D03*
D18*
X454977500Y-194945000D03*
D19*
X452437500Y-200025000D03*
D18*
X448627500Y-197485000D03*
D17*
X447357500Y-200025000D03*
D20*
X449897500Y-205105000D03*
X456247500Y-202565000D03*
G04 #@! TD*
D13*
G04 #@! TO.C,H13*
X256540000Y-209550000D03*
G04 #@! TD*
D17*
G04 #@! TO.C,SW16*
X352742500Y-142875000D03*
D18*
X350202500Y-137795000D03*
D19*
X347662500Y-142875000D03*
D18*
X343852500Y-140335000D03*
D17*
X342582500Y-142875000D03*
D20*
X345122500Y-147955000D03*
X351472500Y-145415000D03*
G04 #@! TD*
D17*
G04 #@! TO.C,SW4*
X457517500Y-180975000D03*
D18*
X454977500Y-175895000D03*
D19*
X452437500Y-180975000D03*
D18*
X448627500Y-178435000D03*
D17*
X447357500Y-180975000D03*
D20*
X449897500Y-186055000D03*
X456247500Y-183515000D03*
G04 #@! TD*
D17*
G04 #@! TO.C,SW67*
X133667500Y-161925000D03*
D18*
X131127500Y-156845000D03*
D19*
X128587500Y-161925000D03*
D18*
X124777500Y-159385000D03*
D17*
X123507500Y-161925000D03*
D20*
X126047500Y-167005000D03*
X132397500Y-164465000D03*
G04 #@! TD*
D17*
G04 #@! TO.C,SW18*
X369411250Y-171450000D03*
D18*
X366871250Y-166370000D03*
D19*
X364331250Y-171450000D03*
D18*
X360521250Y-168910000D03*
D17*
X359251250Y-171450000D03*
D20*
X361791250Y-176530000D03*
X368141250Y-173990000D03*
G04 #@! TD*
D17*
G04 #@! TO.C,SW25*
X314642500Y-142875000D03*
D18*
X312102500Y-137795000D03*
D19*
X309562500Y-142875000D03*
D18*
X305752500Y-140335000D03*
D17*
X304482500Y-142875000D03*
D20*
X307022500Y-147955000D03*
X313372500Y-145415000D03*
G04 #@! TD*
D13*
G04 #@! TO.C,H7*
X441960000Y-109855000D03*
G04 #@! TD*
D17*
G04 #@! TO.C,SW24*
X333692500Y-142875000D03*
D18*
X331152500Y-137795000D03*
D19*
X328612500Y-142875000D03*
D18*
X324802500Y-140335000D03*
D17*
X323532500Y-142875000D03*
D20*
X326072500Y-147955000D03*
X332422500Y-145415000D03*
G04 #@! TD*
D17*
G04 #@! TO.C,SW12*
X438467500Y-180975000D03*
D18*
X435927500Y-175895000D03*
D19*
X433387500Y-180975000D03*
D18*
X429577500Y-178435000D03*
D17*
X428307500Y-180975000D03*
D20*
X430847500Y-186055000D03*
X437197500Y-183515000D03*
G04 #@! TD*
D17*
G04 #@! TO.C,SW66*
X105092500Y-142875000D03*
D18*
X102552500Y-137795000D03*
D19*
X100012500Y-142875000D03*
D18*
X96202500Y-140335000D03*
D17*
X94932500Y-142875000D03*
D20*
X97472500Y-147955000D03*
X103822500Y-145415000D03*
G04 #@! TD*
D17*
G04 #@! TO.C,SW28*
X328930000Y-180975000D03*
D18*
X326390000Y-175895000D03*
D19*
X323850000Y-180975000D03*
D18*
X320040000Y-178435000D03*
D17*
X318770000Y-180975000D03*
D20*
X321310000Y-186055000D03*
X327660000Y-183515000D03*
G04 #@! TD*
D17*
G04 #@! TO.C,SW29*
X309880000Y-180975000D03*
D18*
X307340000Y-175895000D03*
D19*
X304800000Y-180975000D03*
D18*
X300990000Y-178435000D03*
D17*
X299720000Y-180975000D03*
D20*
X302260000Y-186055000D03*
X308610000Y-183515000D03*
G04 #@! TD*
D17*
G04 #@! TO.C,SW58*
X171767500Y-161925000D03*
D18*
X169227500Y-156845000D03*
D19*
X166687500Y-161925000D03*
D18*
X162877500Y-159385000D03*
D17*
X161607500Y-161925000D03*
D20*
X164147500Y-167005000D03*
X170497500Y-164465000D03*
G04 #@! TD*
D17*
G04 #@! TO.C,SW15*
X419417500Y-219075000D03*
D18*
X416877500Y-213995000D03*
D19*
X414337500Y-219075000D03*
D18*
X410527500Y-216535000D03*
D17*
X409257500Y-219075000D03*
D20*
X411797500Y-224155000D03*
X418147500Y-221615000D03*
G04 #@! TD*
D13*
G04 #@! TO.C,H14*
X323215000Y-209550000D03*
G04 #@! TD*
D17*
G04 #@! TO.C,SW3*
X457517500Y-161925000D03*
D18*
X454977500Y-156845000D03*
D19*
X452437500Y-161925000D03*
D18*
X448627500Y-159385000D03*
D17*
X447357500Y-161925000D03*
D20*
X449897500Y-167005000D03*
X456247500Y-164465000D03*
G04 #@! TD*
D17*
G04 #@! TO.C,SW48*
X219392500Y-142875000D03*
D18*
X216852500Y-137795000D03*
D19*
X214312500Y-142875000D03*
D18*
X210502500Y-140335000D03*
D17*
X209232500Y-142875000D03*
D20*
X211772500Y-147955000D03*
X218122500Y-145415000D03*
G04 #@! TD*
D17*
G04 #@! TO.C,SW57*
X162242500Y-142875000D03*
D18*
X159702500Y-137795000D03*
D19*
X157162500Y-142875000D03*
D18*
X153352500Y-140335000D03*
D17*
X152082500Y-142875000D03*
D20*
X154622500Y-147955000D03*
X160972500Y-145415000D03*
G04 #@! TD*
D17*
G04 #@! TO.C,SW61*
X176530000Y-180975000D03*
D18*
X173990000Y-175895000D03*
D19*
X171450000Y-180975000D03*
D18*
X167640000Y-178435000D03*
D17*
X166370000Y-180975000D03*
D20*
X168910000Y-186055000D03*
X175260000Y-183515000D03*
G04 #@! TD*
D17*
G04 #@! TO.C,SW0*
X438467500Y-100012500D03*
D18*
X435927500Y-94932500D03*
D19*
X433387500Y-100012500D03*
D18*
X429577500Y-97472500D03*
D17*
X428307500Y-100012500D03*
D20*
X430847500Y-105092500D03*
X437197500Y-102552500D03*
G04 #@! TD*
D17*
G04 #@! TO.C,SW47*
X243205000Y-219075000D03*
D18*
X240665000Y-213995000D03*
D19*
X238125000Y-219075000D03*
D18*
X234315000Y-216535000D03*
D17*
X233045000Y-219075000D03*
D20*
X235585000Y-224155000D03*
X241935000Y-221615000D03*
G04 #@! TD*
D17*
G04 #@! TO.C,SW64*
X124142500Y-142875000D03*
D18*
X121602500Y-137795000D03*
D19*
X119062500Y-142875000D03*
D18*
X115252500Y-140335000D03*
D17*
X113982500Y-142875000D03*
D20*
X116522500Y-147955000D03*
X122872500Y-145415000D03*
G04 #@! TD*
D17*
G04 #@! TO.C,SW71*
X147955000Y-200025000D03*
D18*
X145415000Y-194945000D03*
D19*
X142875000Y-200025000D03*
D18*
X139065000Y-197485000D03*
D17*
X137795000Y-200025000D03*
D20*
X140335000Y-205105000D03*
X146685000Y-202565000D03*
G04 #@! TD*
D17*
G04 #@! TO.C,SW35*
X267017500Y-161925000D03*
D18*
X264477500Y-156845000D03*
D19*
X261937500Y-161925000D03*
D18*
X258127500Y-159385000D03*
D17*
X256857500Y-161925000D03*
D20*
X259397500Y-167005000D03*
X265747500Y-164465000D03*
G04 #@! TD*
D17*
G04 #@! TO.C,SW51*
X209867500Y-161925000D03*
D18*
X207327500Y-156845000D03*
D19*
X204787500Y-161925000D03*
D18*
X200977500Y-159385000D03*
D17*
X199707500Y-161925000D03*
D20*
X202247500Y-167005000D03*
X208597500Y-164465000D03*
G04 #@! TD*
D17*
G04 #@! TO.C,SW54*
X224155000Y-200025000D03*
D18*
X221615000Y-194945000D03*
D19*
X219075000Y-200025000D03*
D18*
X215265000Y-197485000D03*
D17*
X213995000Y-200025000D03*
D20*
X216535000Y-205105000D03*
X222885000Y-202565000D03*
G04 #@! TD*
D17*
G04 #@! TO.C,SW46*
X243205000Y-200025000D03*
D18*
X240665000Y-194945000D03*
D19*
X238125000Y-200025000D03*
D18*
X234315000Y-197485000D03*
D17*
X233045000Y-200025000D03*
D20*
X235585000Y-205105000D03*
X241935000Y-202565000D03*
G04 #@! TD*
D17*
G04 #@! TO.C,SW49*
X200342500Y-142875000D03*
D18*
X197802500Y-137795000D03*
D19*
X195262500Y-142875000D03*
D18*
X191452500Y-140335000D03*
D17*
X190182500Y-142875000D03*
D20*
X192722500Y-147955000D03*
X199072500Y-145415000D03*
G04 #@! TD*
D17*
G04 #@! TO.C,SW26*
X324167500Y-161925000D03*
D18*
X321627500Y-156845000D03*
D19*
X319087500Y-161925000D03*
D18*
X315277500Y-159385000D03*
D17*
X314007500Y-161925000D03*
D20*
X316547500Y-167005000D03*
X322897500Y-164465000D03*
G04 #@! TD*
D17*
G04 #@! TO.C,SW2*
X438467500Y-138112500D03*
D18*
X435927500Y-133032500D03*
D19*
X433387500Y-138112500D03*
D18*
X429577500Y-135572500D03*
D17*
X428307500Y-138112500D03*
D20*
X430847500Y-143192500D03*
X437197500Y-140652500D03*
G04 #@! TD*
D17*
G04 #@! TO.C,SW40*
X257492500Y-142875000D03*
D18*
X254952500Y-137795000D03*
D19*
X252412500Y-142875000D03*
D18*
X248602500Y-140335000D03*
D17*
X247332500Y-142875000D03*
D20*
X249872500Y-147955000D03*
X256222500Y-145415000D03*
G04 #@! TD*
D17*
G04 #@! TO.C,SW32*
X295592500Y-142875000D03*
D18*
X293052500Y-137795000D03*
D19*
X290512500Y-142875000D03*
D18*
X286702500Y-140335000D03*
D17*
X285432500Y-142875000D03*
D20*
X287972500Y-147955000D03*
X294322500Y-145415000D03*
G04 #@! TD*
D17*
G04 #@! TO.C,SW55*
X205105000Y-200025000D03*
D18*
X202565000Y-194945000D03*
D19*
X200025000Y-200025000D03*
D18*
X196215000Y-197485000D03*
D17*
X194945000Y-200025000D03*
D20*
X197485000Y-205105000D03*
X203835000Y-202565000D03*
G04 #@! TD*
D17*
G04 #@! TO.C,SW121*
X364648750Y-200025000D03*
D18*
X362108750Y-194945000D03*
D19*
X359568750Y-200025000D03*
D18*
X355758750Y-197485000D03*
D17*
X354488750Y-200025000D03*
D20*
X357028750Y-205105000D03*
X363378750Y-202565000D03*
G04 #@! TD*
D17*
G04 #@! TO.C,SW44*
X233680000Y-180975000D03*
D18*
X231140000Y-175895000D03*
D19*
X228600000Y-180975000D03*
D18*
X224790000Y-178435000D03*
D17*
X223520000Y-180975000D03*
D20*
X226060000Y-186055000D03*
X232410000Y-183515000D03*
G04 #@! TD*
D22*
G04 #@! TO.C,JP1*
X105410000Y-120015000D03*
D23*
X105410000Y-122555000D03*
X105410000Y-125095000D03*
G04 #@! TD*
D22*
G04 #@! TO.C,J1*
X88905000Y-146215000D03*
D23*
X86365000Y-146215000D03*
X88905000Y-148755000D03*
X86365000Y-148755000D03*
X88905000Y-151295000D03*
X86365000Y-151295000D03*
X88905000Y-153835000D03*
X86365000Y-153835000D03*
X88905000Y-156375000D03*
X86365000Y-156375000D03*
X88905000Y-158915000D03*
X86365000Y-158915000D03*
X88905000Y-161455000D03*
X86365000Y-161455000D03*
X88905000Y-163995000D03*
X86365000Y-163995000D03*
X88905000Y-166535000D03*
X86365000Y-166535000D03*
X88905000Y-169075000D03*
X86365000Y-169075000D03*
G04 #@! TD*
D22*
G04 #@! TO.C,JP2*
X113030000Y-120015000D03*
D23*
X113030000Y-122555000D03*
G04 #@! TD*
D22*
G04 #@! TO.C,JP3*
X97790000Y-122555000D03*
D23*
X97790000Y-125095000D03*
G04 #@! TD*
D22*
G04 #@! TO.C,JP5*
X142875000Y-120010000D03*
D23*
X142875000Y-122550000D03*
G04 #@! TD*
D22*
G04 #@! TO.C,J3*
X82550000Y-140855000D03*
D23*
X82550000Y-143395000D03*
X82550000Y-145935000D03*
X82550000Y-148475000D03*
X82550000Y-151015000D03*
X82550000Y-153555000D03*
X82550000Y-156095000D03*
X82550000Y-158635000D03*
X82550000Y-161175000D03*
X82550000Y-163715000D03*
X82550000Y-166255000D03*
X82550000Y-168795000D03*
X82550000Y-171335000D03*
X82550000Y-173875000D03*
X82550000Y-176415000D03*
X82550000Y-178955000D03*
X82550000Y-181495000D03*
X82550000Y-184035000D03*
X82550000Y-186575000D03*
G04 #@! TD*
D22*
G04 #@! TO.C,JP4*
X140335000Y-120010000D03*
D23*
X140335000Y-122550000D03*
G04 #@! TD*
D22*
G04 #@! TO.C,JP6*
X137795000Y-120010000D03*
D23*
X137795000Y-122550000D03*
G04 #@! TD*
M02*
