G04 #@! TF.GenerationSoftware,KiCad,Pcbnew,8.0.2*
G04 #@! TF.CreationDate,2025-03-09T11:26:09+00:00*
G04 #@! TF.ProjectId,Keyboard,4b657962-6f61-4726-942e-6b696361645f,rev?*
G04 #@! TF.SameCoordinates,Original*
G04 #@! TF.FileFunction,Copper,L2,Bot*
G04 #@! TF.FilePolarity,Positive*
%FSLAX46Y46*%
G04 Gerber Fmt 4.6, Leading zero omitted, Abs format (unit mm)*
G04 Created by KiCad (PCBNEW 8.0.2) date 2025-03-09 11:26:09*
%MOMM*%
%LPD*%
G01*
G04 APERTURE LIST*
G04 Aperture macros list*
%AMRoundRect*
0 Rectangle with rounded corners*
0 $1 Rounding radius*
0 $2 $3 $4 $5 $6 $7 $8 $9 X,Y pos of 4 corners*
0 Add a 4 corners polygon primitive as box body*
4,1,4,$2,$3,$4,$5,$6,$7,$8,$9,$2,$3,0*
0 Add four circle primitives for the rounded corners*
1,1,$1+$1,$2,$3*
1,1,$1+$1,$4,$5*
1,1,$1+$1,$6,$7*
1,1,$1+$1,$8,$9*
0 Add four rect primitives between the rounded corners*
20,1,$1+$1,$2,$3,$4,$5,0*
20,1,$1+$1,$4,$5,$6,$7,0*
20,1,$1+$1,$6,$7,$8,$9,0*
20,1,$1+$1,$8,$9,$2,$3,0*%
G04 Aperture macros list end*
G04 #@! TA.AperFunction,ComponentPad*
%ADD10RoundRect,0.250000X0.600000X-0.600000X0.600000X0.600000X-0.600000X0.600000X-0.600000X-0.600000X0*%
G04 #@! TD*
G04 #@! TA.AperFunction,ComponentPad*
%ADD11C,1.700000*%
G04 #@! TD*
G04 #@! TA.AperFunction,ComponentPad*
%ADD12RoundRect,0.250000X0.600000X0.600000X-0.600000X0.600000X-0.600000X-0.600000X0.600000X-0.600000X0*%
G04 #@! TD*
G04 #@! TA.AperFunction,SMDPad,CuDef*
%ADD13R,2.550000X2.500000*%
G04 #@! TD*
G04 #@! TA.AperFunction,ComponentPad*
%ADD14C,2.286000*%
G04 #@! TD*
G04 #@! TA.AperFunction,ComponentPad*
%ADD15R,1.700000X1.700000*%
G04 #@! TD*
G04 #@! TA.AperFunction,ComponentPad*
%ADD16O,1.700000X1.700000*%
G04 #@! TD*
G04 #@! TA.AperFunction,SMDPad,CuDef*
%ADD17RoundRect,0.225000X0.375000X-0.225000X0.375000X0.225000X-0.375000X0.225000X-0.375000X-0.225000X0*%
G04 #@! TD*
G04 #@! TA.AperFunction,ViaPad*
%ADD18C,0.800000*%
G04 #@! TD*
G04 #@! TA.AperFunction,Conductor*
%ADD19C,0.250000*%
G04 #@! TD*
G04 APERTURE END LIST*
D10*
G04 #@! TO.P,J2,1,Pin_1*
G04 #@! TO.N,unconnected-(J2-Pin_1-Pad1)*
X169545000Y-122555000D03*
D11*
G04 #@! TO.P,J2,2,Pin_2*
G04 #@! TO.N,Y1*
X169545000Y-120015000D03*
G04 #@! TO.P,J2,3,Pin_3*
G04 #@! TO.N,X9*
X172085000Y-122555000D03*
G04 #@! TO.P,J2,4,Pin_4*
G04 #@! TO.N,Y2*
X172085000Y-120015000D03*
G04 #@! TO.P,J2,5,Pin_5*
G04 #@! TO.N,X7*
X174625000Y-122555000D03*
G04 #@! TO.P,J2,6,Pin_6*
G04 #@! TO.N,Y3*
X174625000Y-120015000D03*
G04 #@! TO.P,J2,7,Pin_7*
G04 #@! TO.N,X6*
X177165000Y-122555000D03*
G04 #@! TO.P,J2,8,Pin_8*
G04 #@! TO.N,Y4*
X177165000Y-120015000D03*
G04 #@! TO.P,J2,9,Pin_9*
G04 #@! TO.N,X5*
X179705000Y-122555000D03*
G04 #@! TO.P,J2,10,Pin_10*
G04 #@! TO.N,Y5*
X179705000Y-120015000D03*
G04 #@! TO.P,J2,11,Pin_11*
G04 #@! TO.N,X4*
X182245000Y-122555000D03*
G04 #@! TO.P,J2,12,Pin_12*
G04 #@! TO.N,Y6*
X182245000Y-120015000D03*
G04 #@! TO.P,J2,13,Pin_13*
G04 #@! TO.N,X3*
X184785000Y-122555000D03*
G04 #@! TO.P,J2,14,Pin_14*
G04 #@! TO.N,Y7*
X184785000Y-120015000D03*
G04 #@! TO.P,J2,15,Pin_15*
G04 #@! TO.N,X2*
X187325000Y-122555000D03*
G04 #@! TO.P,J2,16,Pin_16*
G04 #@! TO.N,Y8*
X187325000Y-120015000D03*
G04 #@! TO.P,J2,17,Pin_17*
G04 #@! TO.N,X1*
X189865000Y-122555000D03*
G04 #@! TO.P,J2,18,Pin_18*
G04 #@! TO.N,Y9*
X189865000Y-120015000D03*
G04 #@! TO.P,J2,19,Pin_19*
G04 #@! TO.N,unconnected-(J2-Pin_19-Pad19)*
X192405000Y-122555000D03*
G04 #@! TO.P,J2,20,Pin_20*
G04 #@! TO.N,Net-(J1-Pin_2)*
X192405000Y-120015000D03*
G04 #@! TD*
D12*
G04 #@! TO.P,J4,1,Pin_1*
G04 #@! TO.N,Y3*
X35941000Y-70713600D03*
D11*
G04 #@! TO.P,J4,2,Pin_2*
G04 #@! TO.N,Y4*
X33401000Y-70713600D03*
G04 #@! TO.P,J4,3,Pin_3*
G04 #@! TO.N,Y5*
X35941000Y-68173600D03*
G04 #@! TO.P,J4,4,Pin_4*
G04 #@! TO.N,Y6*
X33401000Y-68173600D03*
G04 #@! TO.P,J4,5,Pin_5*
G04 #@! TO.N,Y7*
X35941000Y-65633600D03*
G04 #@! TO.P,J4,6,Pin_6*
G04 #@! TO.N,Y8*
X33401000Y-65633600D03*
G04 #@! TO.P,J4,7,Pin_7*
G04 #@! TO.N,Y9*
X35941000Y-63093600D03*
G04 #@! TO.P,J4,8,Pin_8*
G04 #@! TO.N,X7*
X33401000Y-63093600D03*
G04 #@! TO.P,J4,9,Pin_9*
G04 #@! TO.N,X6*
X35941000Y-60553600D03*
G04 #@! TO.P,J4,10,Pin_10*
G04 #@! TO.N,X5*
X33401000Y-60553600D03*
G04 #@! TO.P,J4,11,Pin_11*
G04 #@! TO.N,X4*
X35941000Y-58013600D03*
G04 #@! TO.P,J4,12,Pin_12*
G04 #@! TO.N,X3*
X33401000Y-58013600D03*
G04 #@! TO.P,J4,13,Pin_13*
G04 #@! TO.N,X2*
X35941000Y-55473600D03*
G04 #@! TO.P,J4,14,Pin_14*
G04 #@! TO.N,X1*
X33401000Y-55473600D03*
G04 #@! TO.P,J4,15,Pin_15*
G04 #@! TO.N,Y10*
X35941000Y-52933600D03*
G04 #@! TO.P,J4,16,Pin_16*
G04 #@! TO.N,X9*
X33401000Y-52933600D03*
G04 #@! TO.P,J4,17,Pin_17*
G04 #@! TO.N,Y2*
X35941000Y-50393600D03*
G04 #@! TO.P,J4,18,Pin_18*
G04 #@! TO.N,Y1*
X33401000Y-50393600D03*
G04 #@! TO.P,J4,19,Pin_19*
G04 #@! TO.N,X8*
X35941000Y-47853600D03*
G04 #@! TO.P,J4,20,Pin_20*
G04 #@! TO.N,unconnected-(J4-Pin_20-Pad20)*
X33401000Y-47853600D03*
G04 #@! TD*
D13*
G04 #@! TO.P,SW17,1,A*
G04 #@! TO.N,X2*
X344427500Y-156845000D03*
D14*
X335597500Y-167005000D03*
G04 #@! TO.P,SW17,2,B*
G04 #@! TO.N,Net-(D17-A)*
X341947500Y-164465000D03*
D13*
X330577500Y-159385000D03*
G04 #@! TD*
G04 #@! TO.P,SW9,1,A*
G04 #@! TO.N,X2*
X439677500Y-113982500D03*
D14*
X430847500Y-124142500D03*
G04 #@! TO.P,SW9,2,B*
G04 #@! TO.N,Net-(D9-A)*
X437197500Y-121602500D03*
D13*
X425827500Y-116522500D03*
G04 #@! TD*
G04 #@! TO.P,SW60,1,A*
G04 #@! TO.N,X5*
X158690000Y-175895000D03*
D14*
X149860000Y-186055000D03*
G04 #@! TO.P,SW60,2,B*
G04 #@! TO.N,Net-(D60-A)*
X156210000Y-183515000D03*
D13*
X144840000Y-178435000D03*
G04 #@! TD*
G04 #@! TO.P,SW27,1,A*
G04 #@! TO.N,X4*
X306327500Y-156845000D03*
D14*
X297497500Y-167005000D03*
G04 #@! TO.P,SW27,2,B*
G04 #@! TO.N,Net-(D27-A)*
X303847500Y-164465000D03*
D13*
X292477500Y-159385000D03*
G04 #@! TD*
G04 #@! TO.P,SW22,1,A*
G04 #@! TO.N,X7*
X339665000Y-194945000D03*
D14*
X330835000Y-205105000D03*
G04 #@! TO.P,SW22,2,B*
G04 #@! TO.N,Net-(D22-A)*
X337185000Y-202565000D03*
D13*
X325815000Y-197485000D03*
G04 #@! TD*
G04 #@! TO.P,SW69,1,A*
G04 #@! TO.N,X6*
X139640000Y-175895000D03*
D14*
X130810000Y-186055000D03*
G04 #@! TO.P,SW69,2,B*
G04 #@! TO.N,Net-(D69-A)*
X137160000Y-183515000D03*
D13*
X125790000Y-178435000D03*
G04 #@! TD*
G04 #@! TO.P,SW33,1,A*
G04 #@! TO.N,X2*
X277752500Y-137795000D03*
D14*
X268922500Y-147955000D03*
G04 #@! TO.P,SW33,2,B*
G04 #@! TO.N,Net-(D33-A)*
X275272500Y-145415000D03*
D13*
X263902500Y-140335000D03*
G04 #@! TD*
G04 #@! TO.P,SW63,1,A*
G04 #@! TO.N,X8*
X168215000Y-194945000D03*
D14*
X159385000Y-205105000D03*
G04 #@! TO.P,SW63,2,B*
G04 #@! TO.N,Net-(D63-A)*
X165735000Y-202565000D03*
D13*
X154365000Y-197485000D03*
G04 #@! TD*
G04 #@! TO.P,SW7,1,A*
G04 #@! TO.N,X8*
X439677500Y-213995000D03*
D14*
X430847500Y-224155000D03*
G04 #@! TO.P,SW7,2,B*
G04 #@! TO.N,Net-(D7-A)*
X437197500Y-221615000D03*
D13*
X425827500Y-216535000D03*
G04 #@! TD*
G04 #@! TO.P,SW36,1,A*
G04 #@! TO.N,X5*
X292040000Y-175895000D03*
D14*
X283210000Y-186055000D03*
G04 #@! TO.P,SW36,2,B*
G04 #@! TO.N,Net-(D36-A)*
X289560000Y-183515000D03*
D13*
X278190000Y-178435000D03*
G04 #@! TD*
G04 #@! TO.P,SW50,1,A*
G04 #@! TO.N,X3*
X192027500Y-156845000D03*
D14*
X183197500Y-167005000D03*
G04 #@! TO.P,SW50,2,B*
G04 #@! TO.N,Net-(D50-A)*
X189547500Y-164465000D03*
D13*
X178177500Y-159385000D03*
G04 #@! TD*
G04 #@! TO.P,SW10,1,A*
G04 #@! TO.N,X3*
X420627500Y-156845000D03*
D14*
X411797500Y-167005000D03*
G04 #@! TO.P,SW10,2,B*
G04 #@! TO.N,Net-(D10-A)*
X418147500Y-164465000D03*
D13*
X406777500Y-159385000D03*
G04 #@! TD*
G04 #@! TO.P,SW1,1,A*
G04 #@! TO.N,X2*
X458727500Y-113982500D03*
D14*
X449897500Y-124142500D03*
G04 #@! TO.P,SW1,2,B*
G04 #@! TO.N,Net-(D1-A)*
X456247500Y-121602500D03*
D13*
X444877500Y-116522500D03*
G04 #@! TD*
G04 #@! TO.P,SW13,1,A*
G04 #@! TO.N,X6*
X420627500Y-194945000D03*
D14*
X411797500Y-205105000D03*
G04 #@! TO.P,SW13,2,B*
G04 #@! TO.N,Net-(D13-A)*
X418147500Y-202565000D03*
D13*
X406777500Y-197485000D03*
G04 #@! TD*
G04 #@! TO.P,SW42,1,A*
G04 #@! TO.N,X3*
X249177500Y-156845000D03*
D14*
X240347500Y-167005000D03*
G04 #@! TO.P,SW42,2,B*
G04 #@! TO.N,Net-(D42-A)*
X246697500Y-164465000D03*
D13*
X235327500Y-159385000D03*
G04 #@! TD*
G04 #@! TO.P,SW30,1,A*
G04 #@! TO.N,X7*
X320615000Y-194945000D03*
D14*
X311785000Y-205105000D03*
G04 #@! TO.P,SW30,2,B*
G04 #@! TO.N,Net-(D30-A)*
X318135000Y-202565000D03*
D13*
X306765000Y-197485000D03*
G04 #@! TD*
G04 #@! TO.P,SW62,1,A*
G04 #@! TO.N,X7*
X187265000Y-194945000D03*
D14*
X178435000Y-205105000D03*
G04 #@! TO.P,SW62,2,B*
G04 #@! TO.N,Net-(D62-A)*
X184785000Y-202565000D03*
D13*
X173415000Y-197485000D03*
G04 #@! TD*
G04 #@! TO.P,SW53,1,A*
G04 #@! TO.N,X6*
X196790000Y-175895000D03*
D14*
X187960000Y-186055000D03*
G04 #@! TO.P,SW53,2,B*
G04 #@! TO.N,Net-(D53-A)*
X194310000Y-183515000D03*
D13*
X182940000Y-178435000D03*
G04 #@! TD*
G04 #@! TO.P,SW79,1,A*
G04 #@! TO.N,X9*
X373002500Y-137795000D03*
D14*
X364172500Y-147955000D03*
G04 #@! TO.P,SW79,2,B*
G04 #@! TO.N,Net-(D79-A)*
X370522500Y-145415000D03*
D13*
X359152500Y-140335000D03*
G04 #@! TD*
G04 #@! TO.P,SW14,1,A*
G04 #@! TO.N,X7*
X439677500Y-194945000D03*
D14*
X430847500Y-205105000D03*
G04 #@! TO.P,SW14,2,B*
G04 #@! TO.N,Net-(D14-A)*
X437197500Y-202565000D03*
D13*
X425827500Y-197485000D03*
G04 #@! TD*
G04 #@! TO.P,SW65,1,A*
G04 #@! TO.N,X2*
X144402500Y-137795000D03*
D14*
X135572500Y-147955000D03*
G04 #@! TO.P,SW65,2,B*
G04 #@! TO.N,Net-(D65-A)*
X141922500Y-145415000D03*
D13*
X130552500Y-140335000D03*
G04 #@! TD*
G04 #@! TO.P,SW31,1,A*
G04 #@! TO.N,X8*
X301565000Y-194945000D03*
D14*
X292735000Y-205105000D03*
G04 #@! TO.P,SW31,2,B*
G04 #@! TO.N,Net-(D31-A)*
X299085000Y-202565000D03*
D13*
X287715000Y-197485000D03*
G04 #@! TD*
G04 #@! TO.P,SW37,1,A*
G04 #@! TO.N,X6*
X272990000Y-175895000D03*
D14*
X264160000Y-186055000D03*
G04 #@! TO.P,SW37,2,B*
G04 #@! TO.N,Net-(D37-A)*
X270510000Y-183515000D03*
D13*
X259140000Y-178435000D03*
G04 #@! TD*
G04 #@! TO.P,SW70,1,A*
G04 #@! TO.N,X7*
X113446250Y-175895000D03*
D14*
X104616250Y-186055000D03*
G04 #@! TO.P,SW70,2,B*
G04 #@! TO.N,Net-(D70-A)*
X110966250Y-183515000D03*
D13*
X99596250Y-178435000D03*
G04 #@! TD*
G04 #@! TO.P,SW39,1,A*
G04 #@! TO.N,X8*
X282515000Y-194945000D03*
D14*
X273685000Y-205105000D03*
G04 #@! TO.P,SW39,2,B*
G04 #@! TO.N,Net-(D39-A)*
X280035000Y-202565000D03*
D13*
X268665000Y-197485000D03*
G04 #@! TD*
G04 #@! TO.P,SW6,1,A*
G04 #@! TO.N,X7*
X458727500Y-213995000D03*
D14*
X449897500Y-224155000D03*
G04 #@! TO.P,SW6,2,B*
G04 #@! TO.N,Net-(D6-A)*
X456247500Y-221615000D03*
D13*
X444877500Y-216535000D03*
G04 #@! TD*
G04 #@! TO.P,SW20,1,A*
G04 #@! TO.N,X5*
X420627500Y-175895000D03*
D14*
X411797500Y-186055000D03*
G04 #@! TO.P,SW20,2,B*
G04 #@! TO.N,Net-(D20-A)*
X418147500Y-183515000D03*
D13*
X406777500Y-178435000D03*
G04 #@! TD*
G04 #@! TO.P,SW21,1,A*
G04 #@! TO.N,X6*
X118208750Y-194945000D03*
D14*
X109378750Y-205105000D03*
G04 #@! TO.P,SW21,2,B*
G04 #@! TO.N,Net-(D21-A)*
X115728750Y-202565000D03*
D13*
X104358750Y-197485000D03*
G04 #@! TD*
G04 #@! TO.P,SW38,1,A*
G04 #@! TO.N,X7*
X263465000Y-194945000D03*
D14*
X254635000Y-205105000D03*
G04 #@! TO.P,SW38,2,B*
G04 #@! TO.N,Net-(D38-A)*
X260985000Y-202565000D03*
D13*
X249615000Y-197485000D03*
G04 #@! TD*
G04 #@! TO.P,SW68,1,A*
G04 #@! TO.N,X5*
X111065000Y-156845000D03*
D14*
X102235000Y-167005000D03*
G04 #@! TO.P,SW68,2,B*
G04 #@! TO.N,Net-(D68-A)*
X108585000Y-164465000D03*
D13*
X97215000Y-159385000D03*
G04 #@! TD*
G04 #@! TO.P,SW56,1,A*
G04 #@! TO.N,X1*
X182502500Y-137795000D03*
D14*
X173672500Y-147955000D03*
G04 #@! TO.P,SW56,2,B*
G04 #@! TO.N,Net-(D56-A)*
X180022500Y-145415000D03*
D13*
X168652500Y-140335000D03*
G04 #@! TD*
G04 #@! TO.P,SW59,1,A*
G04 #@! TO.N,X4*
X153927500Y-156845000D03*
D14*
X145097500Y-167005000D03*
G04 #@! TO.P,SW59,2,B*
G04 #@! TO.N,Net-(D59-A)*
X151447500Y-164465000D03*
D13*
X140077500Y-159385000D03*
G04 #@! TD*
G04 #@! TO.P,SW902,1,A*
G04 #@! TO.N,Net-(SW902-A)*
X320615000Y-213995000D03*
D14*
X311785000Y-224155000D03*
G04 #@! TO.P,SW902,2,B*
G04 #@! TO.N,Net-(D74-A)*
X318135000Y-221615000D03*
D13*
X306765000Y-216535000D03*
G04 #@! TD*
G04 #@! TO.P,SW43,1,A*
G04 #@! TO.N,X4*
X230127500Y-156845000D03*
D14*
X221297500Y-167005000D03*
G04 #@! TO.P,SW43,2,B*
G04 #@! TO.N,Net-(D43-A)*
X227647500Y-164465000D03*
D13*
X216277500Y-159385000D03*
G04 #@! TD*
G04 #@! TO.P,SW901,1,A*
G04 #@! TO.N,Net-(SW901-A)*
X168215000Y-213995000D03*
D14*
X159385000Y-224155000D03*
G04 #@! TO.P,SW901,2,B*
G04 #@! TO.N,Net-(D75-A)*
X165735000Y-221615000D03*
D13*
X154365000Y-216535000D03*
G04 #@! TD*
G04 #@! TO.P,SW19,1,A*
G04 #@! TO.N,X4*
X349190000Y-175895000D03*
D14*
X340360000Y-186055000D03*
G04 #@! TO.P,SW19,2,B*
G04 #@! TO.N,Net-(D19-A)*
X346710000Y-183515000D03*
D13*
X335340000Y-178435000D03*
G04 #@! TD*
G04 #@! TO.P,SW34,1,A*
G04 #@! TO.N,X3*
X287277500Y-156845000D03*
D14*
X278447500Y-167005000D03*
G04 #@! TO.P,SW34,2,B*
G04 #@! TO.N,Net-(D34-A)*
X284797500Y-164465000D03*
D13*
X273427500Y-159385000D03*
G04 #@! TD*
G04 #@! TO.P,SW23,1,A*
G04 #@! TO.N,X8*
X339665000Y-213995000D03*
D14*
X330835000Y-224155000D03*
G04 #@! TO.P,SW23,2,B*
G04 #@! TO.N,Net-(D23-A)*
X337185000Y-221615000D03*
D13*
X325815000Y-216535000D03*
G04 #@! TD*
G04 #@! TO.P,SW11,1,A*
G04 #@! TO.N,X4*
X439677500Y-156845000D03*
D14*
X430847500Y-167005000D03*
G04 #@! TO.P,SW11,2,B*
G04 #@! TO.N,Net-(D11-A)*
X437197500Y-164465000D03*
D13*
X425827500Y-159385000D03*
G04 #@! TD*
G04 #@! TO.P,SW41,1,A*
G04 #@! TO.N,X2*
X239652500Y-137795000D03*
D14*
X230822500Y-147955000D03*
G04 #@! TO.P,SW41,2,B*
G04 #@! TO.N,Net-(D41-A)*
X237172500Y-145415000D03*
D13*
X225802500Y-140335000D03*
G04 #@! TD*
G04 #@! TO.P,SW45,1,A*
G04 #@! TO.N,X6*
X253940000Y-175895000D03*
D14*
X245110000Y-186055000D03*
G04 #@! TO.P,SW45,2,B*
G04 #@! TO.N,Net-(D45-A)*
X251460000Y-183515000D03*
D13*
X240090000Y-178435000D03*
G04 #@! TD*
G04 #@! TO.P,SW8,1,A*
G04 #@! TO.N,X1*
X420627500Y-113982500D03*
D14*
X411797500Y-124142500D03*
G04 #@! TO.P,SW8,2,B*
G04 #@! TO.N,Net-(D8-A)*
X418147500Y-121602500D03*
D13*
X406777500Y-116522500D03*
G04 #@! TD*
G04 #@! TO.P,SW52,1,A*
G04 #@! TO.N,X5*
X215840000Y-175895000D03*
D14*
X207010000Y-186055000D03*
G04 #@! TO.P,SW52,2,B*
G04 #@! TO.N,Net-(D52-A)*
X213360000Y-183515000D03*
D13*
X201990000Y-178435000D03*
G04 #@! TD*
G04 #@! TO.P,SW5,1,A*
G04 #@! TO.N,X6*
X458727500Y-194945000D03*
D14*
X449897500Y-205105000D03*
G04 #@! TO.P,SW5,2,B*
G04 #@! TO.N,Net-(D5-A)*
X456247500Y-202565000D03*
D13*
X444877500Y-197485000D03*
G04 #@! TD*
G04 #@! TO.P,SW16,1,A*
G04 #@! TO.N,X1*
X353952500Y-137795000D03*
D14*
X345122500Y-147955000D03*
G04 #@! TO.P,SW16,2,B*
G04 #@! TO.N,Net-(D16-A)*
X351472500Y-145415000D03*
D13*
X340102500Y-140335000D03*
G04 #@! TD*
G04 #@! TO.P,SW4,1,A*
G04 #@! TO.N,X5*
X458727500Y-175895000D03*
D14*
X449897500Y-186055000D03*
G04 #@! TO.P,SW4,2,B*
G04 #@! TO.N,Net-(D4-A)*
X456247500Y-183515000D03*
D13*
X444877500Y-178435000D03*
G04 #@! TD*
G04 #@! TO.P,SW67,1,A*
G04 #@! TO.N,X4*
X134877500Y-156845000D03*
D14*
X126047500Y-167005000D03*
G04 #@! TO.P,SW67,2,B*
G04 #@! TO.N,Net-(D67-A)*
X132397500Y-164465000D03*
D13*
X121027500Y-159385000D03*
G04 #@! TD*
G04 #@! TO.P,SW18,1,A*
G04 #@! TO.N,X3*
X370621250Y-166370000D03*
D14*
X361791250Y-176530000D03*
G04 #@! TO.P,SW18,2,B*
G04 #@! TO.N,Net-(D18-A)*
X368141250Y-173990000D03*
D13*
X356771250Y-168910000D03*
G04 #@! TD*
G04 #@! TO.P,SW25,1,A*
G04 #@! TO.N,X2*
X315852500Y-137795000D03*
D14*
X307022500Y-147955000D03*
G04 #@! TO.P,SW25,2,B*
G04 #@! TO.N,Net-(D25-A)*
X313372500Y-145415000D03*
D13*
X302002500Y-140335000D03*
G04 #@! TD*
G04 #@! TO.P,SW24,1,A*
G04 #@! TO.N,X1*
X334902500Y-137795000D03*
D14*
X326072500Y-147955000D03*
G04 #@! TO.P,SW24,2,B*
G04 #@! TO.N,Net-(D24-A)*
X332422500Y-145415000D03*
D13*
X321052500Y-140335000D03*
G04 #@! TD*
G04 #@! TO.P,SW12,1,A*
G04 #@! TO.N,X5*
X439677500Y-175895000D03*
D14*
X430847500Y-186055000D03*
G04 #@! TO.P,SW12,2,B*
G04 #@! TO.N,Net-(D12-A)*
X437197500Y-183515000D03*
D13*
X425827500Y-178435000D03*
G04 #@! TD*
G04 #@! TO.P,SW66,1,A*
G04 #@! TO.N,X3*
X106302500Y-137795000D03*
D14*
X97472500Y-147955000D03*
G04 #@! TO.P,SW66,2,B*
G04 #@! TO.N,Net-(D66-A)*
X103822500Y-145415000D03*
D13*
X92452500Y-140335000D03*
G04 #@! TD*
G04 #@! TO.P,SW28,1,A*
G04 #@! TO.N,X5*
X330140000Y-175895000D03*
D14*
X321310000Y-186055000D03*
G04 #@! TO.P,SW28,2,B*
G04 #@! TO.N,Net-(D28-A)*
X327660000Y-183515000D03*
D13*
X316290000Y-178435000D03*
G04 #@! TD*
G04 #@! TO.P,SW29,1,A*
G04 #@! TO.N,X6*
X311090000Y-175895000D03*
D14*
X302260000Y-186055000D03*
G04 #@! TO.P,SW29,2,B*
G04 #@! TO.N,Net-(D29-A)*
X308610000Y-183515000D03*
D13*
X297240000Y-178435000D03*
G04 #@! TD*
G04 #@! TO.P,SW58,1,A*
G04 #@! TO.N,X3*
X172977500Y-156845000D03*
D14*
X164147500Y-167005000D03*
G04 #@! TO.P,SW58,2,B*
G04 #@! TO.N,Net-(D58-A)*
X170497500Y-164465000D03*
D13*
X159127500Y-159385000D03*
G04 #@! TD*
G04 #@! TO.P,SW15,1,A*
G04 #@! TO.N,X8*
X420627500Y-213995000D03*
D14*
X411797500Y-224155000D03*
G04 #@! TO.P,SW15,2,B*
G04 #@! TO.N,Net-(D15-A)*
X418147500Y-221615000D03*
D13*
X406777500Y-216535000D03*
G04 #@! TD*
G04 #@! TO.P,SW3,1,A*
G04 #@! TO.N,X4*
X458727500Y-156845000D03*
D14*
X449897500Y-167005000D03*
G04 #@! TO.P,SW3,2,B*
G04 #@! TO.N,Net-(D3-A)*
X456247500Y-164465000D03*
D13*
X444877500Y-159385000D03*
G04 #@! TD*
G04 #@! TO.P,SW48,1,A*
G04 #@! TO.N,X1*
X220602500Y-137795000D03*
D14*
X211772500Y-147955000D03*
G04 #@! TO.P,SW48,2,B*
G04 #@! TO.N,Net-(D48-A)*
X218122500Y-145415000D03*
D13*
X206752500Y-140335000D03*
G04 #@! TD*
G04 #@! TO.P,SW57,1,A*
G04 #@! TO.N,X2*
X163452500Y-137795000D03*
D14*
X154622500Y-147955000D03*
G04 #@! TO.P,SW57,2,B*
G04 #@! TO.N,Net-(D57-A)*
X160972500Y-145415000D03*
D13*
X149602500Y-140335000D03*
G04 #@! TD*
G04 #@! TO.P,SW61,1,A*
G04 #@! TO.N,X6*
X177740000Y-175895000D03*
D14*
X168910000Y-186055000D03*
G04 #@! TO.P,SW61,2,B*
G04 #@! TO.N,Net-(D61-A)*
X175260000Y-183515000D03*
D13*
X163890000Y-178435000D03*
G04 #@! TD*
G04 #@! TO.P,SW0,1,A*
G04 #@! TO.N,X1*
X439677500Y-94932500D03*
D14*
X430847500Y-105092500D03*
G04 #@! TO.P,SW0,2,B*
G04 #@! TO.N,Net-(D0-A)*
X437197500Y-102552500D03*
D13*
X425827500Y-97472500D03*
G04 #@! TD*
G04 #@! TO.P,SW47,1,A*
G04 #@! TO.N,X8*
X244415000Y-213995000D03*
D14*
X235585000Y-224155000D03*
G04 #@! TO.P,SW47,2,B*
G04 #@! TO.N,Net-(D47-A)*
X241935000Y-221615000D03*
D13*
X230565000Y-216535000D03*
G04 #@! TD*
G04 #@! TO.P,SW64,1,A*
G04 #@! TO.N,X1*
X125352500Y-137795000D03*
D14*
X116522500Y-147955000D03*
G04 #@! TO.P,SW64,2,B*
G04 #@! TO.N,Net-(D64-A)*
X122872500Y-145415000D03*
D13*
X111502500Y-140335000D03*
G04 #@! TD*
G04 #@! TO.P,SW71,1,A*
G04 #@! TO.N,X8*
X149165000Y-194945000D03*
D14*
X140335000Y-205105000D03*
G04 #@! TO.P,SW71,2,B*
G04 #@! TO.N,Net-(D71-A)*
X146685000Y-202565000D03*
D13*
X135315000Y-197485000D03*
G04 #@! TD*
G04 #@! TO.P,SW35,1,A*
G04 #@! TO.N,X4*
X268227500Y-156845000D03*
D14*
X259397500Y-167005000D03*
G04 #@! TO.P,SW35,2,B*
G04 #@! TO.N,Net-(D35-A)*
X265747500Y-164465000D03*
D13*
X254377500Y-159385000D03*
G04 #@! TD*
G04 #@! TO.P,SW51,1,A*
G04 #@! TO.N,X4*
X211077500Y-156845000D03*
D14*
X202247500Y-167005000D03*
G04 #@! TO.P,SW51,2,B*
G04 #@! TO.N,Net-(D51-A)*
X208597500Y-164465000D03*
D13*
X197227500Y-159385000D03*
G04 #@! TD*
G04 #@! TO.P,SW54,1,A*
G04 #@! TO.N,X7*
X225365000Y-194945000D03*
D14*
X216535000Y-205105000D03*
G04 #@! TO.P,SW54,2,B*
G04 #@! TO.N,Net-(D54-A)*
X222885000Y-202565000D03*
D13*
X211515000Y-197485000D03*
G04 #@! TD*
G04 #@! TO.P,SW46,1,A*
G04 #@! TO.N,X7*
X244415000Y-194945000D03*
D14*
X235585000Y-205105000D03*
G04 #@! TO.P,SW46,2,B*
G04 #@! TO.N,Net-(D46-A)*
X241935000Y-202565000D03*
D13*
X230565000Y-197485000D03*
G04 #@! TD*
G04 #@! TO.P,SW49,1,A*
G04 #@! TO.N,X2*
X201552500Y-137795000D03*
D14*
X192722500Y-147955000D03*
G04 #@! TO.P,SW49,2,B*
G04 #@! TO.N,Net-(D49-A)*
X199072500Y-145415000D03*
D13*
X187702500Y-140335000D03*
G04 #@! TD*
G04 #@! TO.P,SW26,1,A*
G04 #@! TO.N,X3*
X325377500Y-156845000D03*
D14*
X316547500Y-167005000D03*
G04 #@! TO.P,SW26,2,B*
G04 #@! TO.N,Net-(D26-A)*
X322897500Y-164465000D03*
D13*
X311527500Y-159385000D03*
G04 #@! TD*
G04 #@! TO.P,SW2,1,A*
G04 #@! TO.N,X3*
X439677500Y-133032500D03*
D14*
X430847500Y-143192500D03*
G04 #@! TO.P,SW2,2,B*
G04 #@! TO.N,Net-(D2-A)*
X437197500Y-140652500D03*
D13*
X425827500Y-135572500D03*
G04 #@! TD*
G04 #@! TO.P,SW40,1,A*
G04 #@! TO.N,X1*
X258702500Y-137795000D03*
D14*
X249872500Y-147955000D03*
G04 #@! TO.P,SW40,2,B*
G04 #@! TO.N,Net-(D40-A)*
X256222500Y-145415000D03*
D13*
X244852500Y-140335000D03*
G04 #@! TD*
G04 #@! TO.P,SW32,1,A*
G04 #@! TO.N,X1*
X296802500Y-137795000D03*
D14*
X287972500Y-147955000D03*
G04 #@! TO.P,SW32,2,B*
G04 #@! TO.N,Net-(D32-A)*
X294322500Y-145415000D03*
D13*
X282952500Y-140335000D03*
G04 #@! TD*
G04 #@! TO.P,SW55,1,A*
G04 #@! TO.N,X8*
X206315000Y-194945000D03*
D14*
X197485000Y-205105000D03*
G04 #@! TO.P,SW55,2,B*
G04 #@! TO.N,Net-(D55-A)*
X203835000Y-202565000D03*
D13*
X192465000Y-197485000D03*
G04 #@! TD*
G04 #@! TO.P,SW121,1,A*
G04 #@! TO.N,X6*
X365858750Y-194945000D03*
D14*
X357028750Y-205105000D03*
G04 #@! TO.P,SW121,2,B*
G04 #@! TO.N,Net-(D73-A)*
X363378750Y-202565000D03*
D13*
X352008750Y-197485000D03*
G04 #@! TD*
G04 #@! TO.P,SW44,1,A*
G04 #@! TO.N,X5*
X234890000Y-175895000D03*
D14*
X226060000Y-186055000D03*
G04 #@! TO.P,SW44,2,B*
G04 #@! TO.N,Net-(D44-A)*
X232410000Y-183515000D03*
D13*
X221040000Y-178435000D03*
G04 #@! TD*
D15*
G04 #@! TO.P,JP1,1,A*
G04 #@! TO.N,X8*
X105410000Y-120015000D03*
D16*
G04 #@! TO.P,JP1,2,C*
G04 #@! TO.N,Net-(J1-Pin_2)*
X105410000Y-122555000D03*
G04 #@! TO.P,JP1,3,B*
G04 #@! TO.N,Y10*
X105410000Y-125095000D03*
G04 #@! TD*
D15*
G04 #@! TO.P,J1,1,Pin_1*
G04 #@! TO.N,Net-(J1-Pin_1)*
X88905000Y-146215000D03*
D16*
G04 #@! TO.P,J1,2,Pin_2*
G04 #@! TO.N,Net-(J1-Pin_2)*
X86365000Y-146215000D03*
G04 #@! TO.P,J1,3,Pin_3*
G04 #@! TO.N,X1*
X88905000Y-148755000D03*
G04 #@! TO.P,J1,4,Pin_4*
G04 #@! TO.N,Y9*
X86365000Y-148755000D03*
G04 #@! TO.P,J1,5,Pin_5*
G04 #@! TO.N,X2*
X88905000Y-151295000D03*
G04 #@! TO.P,J1,6,Pin_6*
G04 #@! TO.N,Y8*
X86365000Y-151295000D03*
G04 #@! TO.P,J1,7,Pin_7*
G04 #@! TO.N,X3*
X88905000Y-153835000D03*
G04 #@! TO.P,J1,8,Pin_8*
G04 #@! TO.N,Y7*
X86365000Y-153835000D03*
G04 #@! TO.P,J1,9,Pin_9*
G04 #@! TO.N,X4*
X88905000Y-156375000D03*
G04 #@! TO.P,J1,10,Pin_10*
G04 #@! TO.N,Y6*
X86365000Y-156375000D03*
G04 #@! TO.P,J1,11,Pin_11*
G04 #@! TO.N,X5*
X88905000Y-158915000D03*
G04 #@! TO.P,J1,12,Pin_12*
G04 #@! TO.N,Y5*
X86365000Y-158915000D03*
G04 #@! TO.P,J1,13,Pin_13*
G04 #@! TO.N,X6*
X88905000Y-161455000D03*
G04 #@! TO.P,J1,14,Pin_14*
G04 #@! TO.N,Y4*
X86365000Y-161455000D03*
G04 #@! TO.P,J1,15,Pin_15*
G04 #@! TO.N,X7*
X88905000Y-163995000D03*
G04 #@! TO.P,J1,16,Pin_16*
G04 #@! TO.N,Y3*
X86365000Y-163995000D03*
G04 #@! TO.P,J1,17,Pin_17*
G04 #@! TO.N,X9*
X88905000Y-166535000D03*
G04 #@! TO.P,J1,18,Pin_18*
G04 #@! TO.N,Y2*
X86365000Y-166535000D03*
G04 #@! TO.P,J1,19,Pin_19*
G04 #@! TO.N,unconnected-(J1-Pin_19-Pad19)*
X88905000Y-169075000D03*
G04 #@! TO.P,J1,20,Pin_20*
G04 #@! TO.N,Y1*
X86365000Y-169075000D03*
G04 #@! TD*
D15*
G04 #@! TO.P,JP2,1,1*
G04 #@! TO.N,Y10*
X113030000Y-120015000D03*
D16*
G04 #@! TO.P,JP2,2,2*
G04 #@! TO.N,Net-(J1-Pin_1)*
X113030000Y-122555000D03*
G04 #@! TD*
D15*
G04 #@! TO.P,JP3,1,1*
G04 #@! TO.N,X8*
X97790000Y-122555000D03*
D16*
G04 #@! TO.P,JP3,2,2*
G04 #@! TO.N,X9*
X97790000Y-125095000D03*
G04 #@! TD*
D17*
G04 #@! TO.P,D68,1,K*
G04 #@! TO.N,Y9*
X97155000Y-168910000D03*
G04 #@! TO.P,D68,2,A*
G04 #@! TO.N,Net-(D68-A)*
X97155000Y-165610000D03*
G04 #@! TD*
G04 #@! TO.P,D38,1,K*
G04 #@! TO.N,Y5*
X249555000Y-207010000D03*
G04 #@! TO.P,D38,2,A*
G04 #@! TO.N,Net-(D38-A)*
X249555000Y-203710000D03*
G04 #@! TD*
G04 #@! TO.P,D59,1,K*
G04 #@! TO.N,Y8*
X139700000Y-168910000D03*
G04 #@! TO.P,D59,2,A*
G04 #@! TO.N,Net-(D59-A)*
X139700000Y-165610000D03*
G04 #@! TD*
G04 #@! TO.P,D56,1,K*
G04 #@! TO.N,Y8*
X168275000Y-149860000D03*
G04 #@! TO.P,D56,2,A*
G04 #@! TO.N,Net-(D56-A)*
X168275000Y-146560000D03*
G04 #@! TD*
G04 #@! TO.P,D28,1,K*
G04 #@! TO.N,Y4*
X316230000Y-187960000D03*
G04 #@! TO.P,D28,2,A*
G04 #@! TO.N,Net-(D28-A)*
X316230000Y-184660000D03*
G04 #@! TD*
G04 #@! TO.P,D23,1,K*
G04 #@! TO.N,Y3*
X325755000Y-226060000D03*
G04 #@! TO.P,D23,2,A*
G04 #@! TO.N,Net-(D23-A)*
X325755000Y-222760000D03*
G04 #@! TD*
G04 #@! TO.P,D37,1,K*
G04 #@! TO.N,Y5*
X259080000Y-187960000D03*
G04 #@! TO.P,D37,2,A*
G04 #@! TO.N,Net-(D37-A)*
X259080000Y-184660000D03*
G04 #@! TD*
G04 #@! TO.P,D15,1,K*
G04 #@! TO.N,Y2*
X406400000Y-226060000D03*
G04 #@! TO.P,D15,2,A*
G04 #@! TO.N,Net-(D15-A)*
X406400000Y-222760000D03*
G04 #@! TD*
G04 #@! TO.P,D35,1,K*
G04 #@! TO.N,Y5*
X254000000Y-168910000D03*
G04 #@! TO.P,D35,2,A*
G04 #@! TO.N,Net-(D35-A)*
X254000000Y-165610000D03*
G04 #@! TD*
G04 #@! TO.P,D40,1,K*
G04 #@! TO.N,Y6*
X244475000Y-149860000D03*
G04 #@! TO.P,D40,2,A*
G04 #@! TO.N,Net-(D40-A)*
X244475000Y-146560000D03*
G04 #@! TD*
G04 #@! TO.P,D14,1,K*
G04 #@! TO.N,Y2*
X425450000Y-207010000D03*
G04 #@! TO.P,D14,2,A*
G04 #@! TO.N,Net-(D14-A)*
X425450000Y-203710000D03*
G04 #@! TD*
G04 #@! TO.P,D70,1,K*
G04 #@! TO.N,Y9*
X99060000Y-187960000D03*
G04 #@! TO.P,D70,2,A*
G04 #@! TO.N,Net-(D70-A)*
X99060000Y-184660000D03*
G04 #@! TD*
G04 #@! TO.P,D27,1,K*
G04 #@! TO.N,Y4*
X292100000Y-168910000D03*
G04 #@! TO.P,D27,2,A*
G04 #@! TO.N,Net-(D27-A)*
X292100000Y-165610000D03*
G04 #@! TD*
G04 #@! TO.P,D6,1,K*
G04 #@! TO.N,Y1*
X444500000Y-226060000D03*
G04 #@! TO.P,D6,2,A*
G04 #@! TO.N,Net-(D6-A)*
X444500000Y-222760000D03*
G04 #@! TD*
G04 #@! TO.P,D55,1,K*
G04 #@! TO.N,Y7*
X192405000Y-207010000D03*
G04 #@! TO.P,D55,2,A*
G04 #@! TO.N,Net-(D55-A)*
X192405000Y-203710000D03*
G04 #@! TD*
G04 #@! TO.P,D44,1,K*
G04 #@! TO.N,Y6*
X220980000Y-187960000D03*
G04 #@! TO.P,D44,2,A*
G04 #@! TO.N,Net-(D44-A)*
X220980000Y-184660000D03*
G04 #@! TD*
G04 #@! TO.P,D48,1,K*
G04 #@! TO.N,Y7*
X206375000Y-149860000D03*
G04 #@! TO.P,D48,2,A*
G04 #@! TO.N,Net-(D48-A)*
X206375000Y-146560000D03*
G04 #@! TD*
G04 #@! TO.P,D63,1,K*
G04 #@! TO.N,Y8*
X154305000Y-207010000D03*
G04 #@! TO.P,D63,2,A*
G04 #@! TO.N,Net-(D63-A)*
X154305000Y-203710000D03*
G04 #@! TD*
G04 #@! TO.P,D30,1,K*
G04 #@! TO.N,Y4*
X306705000Y-207010000D03*
G04 #@! TO.P,D30,2,A*
G04 #@! TO.N,Net-(D30-A)*
X306705000Y-203710000D03*
G04 #@! TD*
D15*
G04 #@! TO.P,JP5,1,1*
G04 #@! TO.N,Net-(SW902-A)*
X142875000Y-120010000D03*
D16*
G04 #@! TO.P,JP5,2,2*
G04 #@! TO.N,X6*
X142875000Y-122550000D03*
G04 #@! TD*
D17*
G04 #@! TO.P,D53,1,K*
G04 #@! TO.N,Y7*
X182880000Y-187960000D03*
G04 #@! TO.P,D53,2,A*
G04 #@! TO.N,Net-(D53-A)*
X182880000Y-184660000D03*
G04 #@! TD*
G04 #@! TO.P,D4,1,K*
G04 #@! TO.N,Y1*
X444500000Y-187960000D03*
G04 #@! TO.P,D4,2,A*
G04 #@! TO.N,Net-(D4-A)*
X444500000Y-184660000D03*
G04 #@! TD*
G04 #@! TO.P,D34,1,K*
G04 #@! TO.N,Y5*
X273050000Y-168910000D03*
G04 #@! TO.P,D34,2,A*
G04 #@! TO.N,Net-(D34-A)*
X273050000Y-165610000D03*
G04 #@! TD*
G04 #@! TO.P,D33,1,K*
G04 #@! TO.N,Y5*
X263525000Y-149860000D03*
G04 #@! TO.P,D33,2,A*
G04 #@! TO.N,Net-(D33-A)*
X263525000Y-146560000D03*
G04 #@! TD*
D15*
G04 #@! TO.P,J3,1,Pin_1*
G04 #@! TO.N,X9*
X82550000Y-140855000D03*
D16*
G04 #@! TO.P,J3,2,Pin_2*
G04 #@! TO.N,Y10*
X82550000Y-143395000D03*
G04 #@! TO.P,J3,3,Pin_3*
G04 #@! TO.N,X1*
X82550000Y-145935000D03*
G04 #@! TO.P,J3,4,Pin_4*
G04 #@! TO.N,X2*
X82550000Y-148475000D03*
G04 #@! TO.P,J3,5,Pin_5*
G04 #@! TO.N,X3*
X82550000Y-151015000D03*
G04 #@! TO.P,J3,6,Pin_6*
G04 #@! TO.N,X4*
X82550000Y-153555000D03*
G04 #@! TO.P,J3,7,Pin_7*
G04 #@! TO.N,X5*
X82550000Y-156095000D03*
G04 #@! TO.P,J3,8,Pin_8*
G04 #@! TO.N,X6*
X82550000Y-158635000D03*
G04 #@! TO.P,J3,9,Pin_9*
G04 #@! TO.N,X7*
X82550000Y-161175000D03*
G04 #@! TO.P,J3,10,Pin_10*
G04 #@! TO.N,X8*
X82550000Y-163715000D03*
G04 #@! TO.P,J3,11,Pin_11*
G04 #@! TO.N,Y9*
X82550000Y-166255000D03*
G04 #@! TO.P,J3,12,Pin_12*
G04 #@! TO.N,Y8*
X82550000Y-168795000D03*
G04 #@! TO.P,J3,13,Pin_13*
G04 #@! TO.N,Y7*
X82550000Y-171335000D03*
G04 #@! TO.P,J3,14,Pin_14*
G04 #@! TO.N,Y6*
X82550000Y-173875000D03*
G04 #@! TO.P,J3,15,Pin_15*
G04 #@! TO.N,Y5*
X82550000Y-176415000D03*
G04 #@! TO.P,J3,16,Pin_16*
G04 #@! TO.N,Y4*
X82550000Y-178955000D03*
G04 #@! TO.P,J3,17,Pin_17*
G04 #@! TO.N,Y3*
X82550000Y-181495000D03*
G04 #@! TO.P,J3,18,Pin_18*
G04 #@! TO.N,Y2*
X82550000Y-184035000D03*
G04 #@! TO.P,J3,19,Pin_19*
G04 #@! TO.N,Y1*
X82550000Y-186575000D03*
G04 #@! TD*
D17*
G04 #@! TO.P,D32,1,K*
G04 #@! TO.N,Y5*
X282575000Y-149860000D03*
G04 #@! TO.P,D32,2,A*
G04 #@! TO.N,Net-(D32-A)*
X282575000Y-146560000D03*
G04 #@! TD*
G04 #@! TO.P,D11,1,K*
G04 #@! TO.N,Y2*
X425450000Y-168910000D03*
G04 #@! TO.P,D11,2,A*
G04 #@! TO.N,Net-(D11-A)*
X425450000Y-165610000D03*
G04 #@! TD*
G04 #@! TO.P,D16,1,K*
G04 #@! TO.N,Y3*
X339725000Y-149860000D03*
G04 #@! TO.P,D16,2,A*
G04 #@! TO.N,Net-(D16-A)*
X339725000Y-146560000D03*
G04 #@! TD*
G04 #@! TO.P,D21,1,K*
G04 #@! TO.N,Y3*
X104140000Y-207010000D03*
G04 #@! TO.P,D21,2,A*
G04 #@! TO.N,Net-(D21-A)*
X104140000Y-203710000D03*
G04 #@! TD*
G04 #@! TO.P,D29,1,K*
G04 #@! TO.N,Y4*
X297180000Y-187960000D03*
G04 #@! TO.P,D29,2,A*
G04 #@! TO.N,Net-(D29-A)*
X297180000Y-184660000D03*
G04 #@! TD*
G04 #@! TO.P,D1,1,K*
G04 #@! TO.N,Y1*
X444500000Y-126365000D03*
G04 #@! TO.P,D1,2,A*
G04 #@! TO.N,Net-(D1-A)*
X444500000Y-123065000D03*
G04 #@! TD*
G04 #@! TO.P,D46,1,K*
G04 #@! TO.N,Y6*
X230505000Y-207010000D03*
G04 #@! TO.P,D46,2,A*
G04 #@! TO.N,Net-(D46-A)*
X230505000Y-203710000D03*
G04 #@! TD*
G04 #@! TO.P,D74,1,K*
G04 #@! TO.N,Net-(D74-K)*
X306705000Y-226060000D03*
G04 #@! TO.P,D74,2,A*
G04 #@! TO.N,Net-(D74-A)*
X306705000Y-222760000D03*
G04 #@! TD*
G04 #@! TO.P,D31,1,K*
G04 #@! TO.N,Y4*
X287655000Y-207010000D03*
G04 #@! TO.P,D31,2,A*
G04 #@! TO.N,Net-(D31-A)*
X287655000Y-203710000D03*
G04 #@! TD*
G04 #@! TO.P,D22,1,K*
G04 #@! TO.N,Y3*
X325755000Y-207010000D03*
G04 #@! TO.P,D22,2,A*
G04 #@! TO.N,Net-(D22-A)*
X325755000Y-203710000D03*
G04 #@! TD*
G04 #@! TO.P,D25,1,K*
G04 #@! TO.N,Y4*
X301625000Y-149860000D03*
G04 #@! TO.P,D25,2,A*
G04 #@! TO.N,Net-(D25-A)*
X301625000Y-146560000D03*
G04 #@! TD*
G04 #@! TO.P,D41,1,K*
G04 #@! TO.N,Y6*
X225425000Y-149860000D03*
G04 #@! TO.P,D41,2,A*
G04 #@! TO.N,Net-(D41-A)*
X225425000Y-146560000D03*
G04 #@! TD*
G04 #@! TO.P,D2,1,K*
G04 #@! TO.N,Y1*
X425450000Y-145415000D03*
G04 #@! TO.P,D2,2,A*
G04 #@! TO.N,Net-(D2-A)*
X425450000Y-142115000D03*
G04 #@! TD*
D15*
G04 #@! TO.P,JP4,1,1*
G04 #@! TO.N,Net-(SW901-A)*
X140335000Y-120010000D03*
D16*
G04 #@! TO.P,JP4,2,2*
G04 #@! TO.N,X5*
X140335000Y-122550000D03*
G04 #@! TD*
D17*
G04 #@! TO.P,D58,1,K*
G04 #@! TO.N,Y8*
X158750000Y-168910000D03*
G04 #@! TO.P,D58,2,A*
G04 #@! TO.N,Net-(D58-A)*
X158750000Y-165610000D03*
G04 #@! TD*
G04 #@! TO.P,D64,1,K*
G04 #@! TO.N,Y9*
X111125000Y-149860000D03*
G04 #@! TO.P,D64,2,A*
G04 #@! TO.N,Net-(D64-A)*
X111125000Y-146560000D03*
G04 #@! TD*
G04 #@! TO.P,D19,1,K*
G04 #@! TO.N,Y3*
X335280000Y-187960000D03*
G04 #@! TO.P,D19,2,A*
G04 #@! TO.N,Net-(D19-A)*
X335280000Y-184660000D03*
G04 #@! TD*
G04 #@! TO.P,D20,1,K*
G04 #@! TO.N,Y3*
X406400000Y-187960000D03*
G04 #@! TO.P,D20,2,A*
G04 #@! TO.N,Net-(D20-A)*
X406400000Y-184660000D03*
G04 #@! TD*
D15*
G04 #@! TO.P,JP6,1,1*
G04 #@! TO.N,Net-(D74-K)*
X137795000Y-120010000D03*
D16*
G04 #@! TO.P,JP6,2,2*
G04 #@! TO.N,Y10*
X137795000Y-122550000D03*
G04 #@! TD*
D17*
G04 #@! TO.P,D45,1,K*
G04 #@! TO.N,Y6*
X240030000Y-187960000D03*
G04 #@! TO.P,D45,2,A*
G04 #@! TO.N,Net-(D45-A)*
X240030000Y-184660000D03*
G04 #@! TD*
G04 #@! TO.P,D47,1,K*
G04 #@! TO.N,Y6*
X230505000Y-226060000D03*
G04 #@! TO.P,D47,2,A*
G04 #@! TO.N,Net-(D47-A)*
X230505000Y-222760000D03*
G04 #@! TD*
G04 #@! TO.P,D10,1,K*
G04 #@! TO.N,Y2*
X406400000Y-168910000D03*
G04 #@! TO.P,D10,2,A*
G04 #@! TO.N,Net-(D10-A)*
X406400000Y-165610000D03*
G04 #@! TD*
G04 #@! TO.P,D24,1,K*
G04 #@! TO.N,Y4*
X320675000Y-149860000D03*
G04 #@! TO.P,D24,2,A*
G04 #@! TO.N,Net-(D24-A)*
X320675000Y-146560000D03*
G04 #@! TD*
G04 #@! TO.P,D7,1,K*
G04 #@! TO.N,Y1*
X425450000Y-226060000D03*
G04 #@! TO.P,D7,2,A*
G04 #@! TO.N,Net-(D7-A)*
X425450000Y-222760000D03*
G04 #@! TD*
G04 #@! TO.P,D9,1,K*
G04 #@! TO.N,Y2*
X425450000Y-126365000D03*
G04 #@! TO.P,D9,2,A*
G04 #@! TO.N,Net-(D9-A)*
X425450000Y-123065000D03*
G04 #@! TD*
G04 #@! TO.P,D51,1,K*
G04 #@! TO.N,Y7*
X196850000Y-168910000D03*
G04 #@! TO.P,D51,2,A*
G04 #@! TO.N,Net-(D51-A)*
X196850000Y-165610000D03*
G04 #@! TD*
G04 #@! TO.P,D0,1,K*
G04 #@! TO.N,Y1*
X425450000Y-107315000D03*
G04 #@! TO.P,D0,2,A*
G04 #@! TO.N,Net-(D0-A)*
X425450000Y-104015000D03*
G04 #@! TD*
G04 #@! TO.P,D71,1,K*
G04 #@! TO.N,Y9*
X135255000Y-207010000D03*
G04 #@! TO.P,D71,2,A*
G04 #@! TO.N,Net-(D71-A)*
X135255000Y-203710000D03*
G04 #@! TD*
G04 #@! TO.P,D54,1,K*
G04 #@! TO.N,Y7*
X211455000Y-207010000D03*
G04 #@! TO.P,D54,2,A*
G04 #@! TO.N,Net-(D54-A)*
X211455000Y-203710000D03*
G04 #@! TD*
G04 #@! TO.P,D13,1,K*
G04 #@! TO.N,Y2*
X406400000Y-207010000D03*
G04 #@! TO.P,D13,2,A*
G04 #@! TO.N,Net-(D13-A)*
X406400000Y-203710000D03*
G04 #@! TD*
G04 #@! TO.P,D39,1,K*
G04 #@! TO.N,Y5*
X268605000Y-207010000D03*
G04 #@! TO.P,D39,2,A*
G04 #@! TO.N,Net-(D39-A)*
X268605000Y-203710000D03*
G04 #@! TD*
G04 #@! TO.P,D43,1,K*
G04 #@! TO.N,Y6*
X215900000Y-168910000D03*
G04 #@! TO.P,D43,2,A*
G04 #@! TO.N,Net-(D43-A)*
X215900000Y-165610000D03*
G04 #@! TD*
G04 #@! TO.P,D26,1,K*
G04 #@! TO.N,Y4*
X311150000Y-168910000D03*
G04 #@! TO.P,D26,2,A*
G04 #@! TO.N,Net-(D26-A)*
X311150000Y-165610000D03*
G04 #@! TD*
G04 #@! TO.P,D75,1,K*
G04 #@! TO.N,Net-(D74-K)*
X154305000Y-226060000D03*
G04 #@! TO.P,D75,2,A*
G04 #@! TO.N,Net-(D75-A)*
X154305000Y-222760000D03*
G04 #@! TD*
G04 #@! TO.P,D36,1,K*
G04 #@! TO.N,Y5*
X278130000Y-187960000D03*
G04 #@! TO.P,D36,2,A*
G04 #@! TO.N,Net-(D36-A)*
X278130000Y-184660000D03*
G04 #@! TD*
G04 #@! TO.P,D79,1,K*
G04 #@! TO.N,Y10*
X358775000Y-149860000D03*
G04 #@! TO.P,D79,2,A*
G04 #@! TO.N,Net-(D79-A)*
X358775000Y-146560000D03*
G04 #@! TD*
G04 #@! TO.P,D65,1,K*
G04 #@! TO.N,Y9*
X130175000Y-149860000D03*
G04 #@! TO.P,D65,2,A*
G04 #@! TO.N,Net-(D65-A)*
X130175000Y-146560000D03*
G04 #@! TD*
G04 #@! TO.P,D42,1,K*
G04 #@! TO.N,Y6*
X234950000Y-168910000D03*
G04 #@! TO.P,D42,2,A*
G04 #@! TO.N,Net-(D42-A)*
X234950000Y-165610000D03*
G04 #@! TD*
G04 #@! TO.P,D66,1,K*
G04 #@! TO.N,Y9*
X92075000Y-149860000D03*
G04 #@! TO.P,D66,2,A*
G04 #@! TO.N,Net-(D66-A)*
X92075000Y-146560000D03*
G04 #@! TD*
G04 #@! TO.P,D3,1,K*
G04 #@! TO.N,Y1*
X444500000Y-168910000D03*
G04 #@! TO.P,D3,2,A*
G04 #@! TO.N,Net-(D3-A)*
X444500000Y-165610000D03*
G04 #@! TD*
G04 #@! TO.P,D69,1,K*
G04 #@! TO.N,Y9*
X125730000Y-187960000D03*
G04 #@! TO.P,D69,2,A*
G04 #@! TO.N,Net-(D69-A)*
X125730000Y-184660000D03*
G04 #@! TD*
G04 #@! TO.P,D50,1,K*
G04 #@! TO.N,Y7*
X177800000Y-168910000D03*
G04 #@! TO.P,D50,2,A*
G04 #@! TO.N,Net-(D50-A)*
X177800000Y-165610000D03*
G04 #@! TD*
G04 #@! TO.P,D18,1,K*
G04 #@! TO.N,Y3*
X356870000Y-178435000D03*
G04 #@! TO.P,D18,2,A*
G04 #@! TO.N,Net-(D18-A)*
X356870000Y-175135000D03*
G04 #@! TD*
G04 #@! TO.P,D52,1,K*
G04 #@! TO.N,Y7*
X201930000Y-187960000D03*
G04 #@! TO.P,D52,2,A*
G04 #@! TO.N,Net-(D52-A)*
X201930000Y-184660000D03*
G04 #@! TD*
G04 #@! TO.P,D61,1,K*
G04 #@! TO.N,Y8*
X163830000Y-187960000D03*
G04 #@! TO.P,D61,2,A*
G04 #@! TO.N,Net-(D61-A)*
X163830000Y-184660000D03*
G04 #@! TD*
G04 #@! TO.P,D49,1,K*
G04 #@! TO.N,Y7*
X187325000Y-149860000D03*
G04 #@! TO.P,D49,2,A*
G04 #@! TO.N,Net-(D49-A)*
X187325000Y-146560000D03*
G04 #@! TD*
G04 #@! TO.P,D60,1,K*
G04 #@! TO.N,Y8*
X144780000Y-187960000D03*
G04 #@! TO.P,D60,2,A*
G04 #@! TO.N,Net-(D60-A)*
X144780000Y-184660000D03*
G04 #@! TD*
G04 #@! TO.P,D5,1,K*
G04 #@! TO.N,Y1*
X444500000Y-207010000D03*
G04 #@! TO.P,D5,2,A*
G04 #@! TO.N,Net-(D5-A)*
X444500000Y-203710000D03*
G04 #@! TD*
G04 #@! TO.P,D67,1,K*
G04 #@! TO.N,Y9*
X120650000Y-168910000D03*
G04 #@! TO.P,D67,2,A*
G04 #@! TO.N,Net-(D67-A)*
X120650000Y-165610000D03*
G04 #@! TD*
G04 #@! TO.P,D57,1,K*
G04 #@! TO.N,Y8*
X149225000Y-149860000D03*
G04 #@! TO.P,D57,2,A*
G04 #@! TO.N,Net-(D57-A)*
X149225000Y-146560000D03*
G04 #@! TD*
G04 #@! TO.P,D12,1,K*
G04 #@! TO.N,Y2*
X425450000Y-187960000D03*
G04 #@! TO.P,D12,2,A*
G04 #@! TO.N,Net-(D12-A)*
X425450000Y-184660000D03*
G04 #@! TD*
G04 #@! TO.P,D17,1,K*
G04 #@! TO.N,Y3*
X330200000Y-168910000D03*
G04 #@! TO.P,D17,2,A*
G04 #@! TO.N,Net-(D17-A)*
X330200000Y-165610000D03*
G04 #@! TD*
G04 #@! TO.P,D73,1,K*
G04 #@! TO.N,Y3*
X351790000Y-207010000D03*
G04 #@! TO.P,D73,2,A*
G04 #@! TO.N,Net-(D73-A)*
X351790000Y-203710000D03*
G04 #@! TD*
G04 #@! TO.P,D8,1,K*
G04 #@! TO.N,Y2*
X406400000Y-126365000D03*
G04 #@! TO.P,D8,2,A*
G04 #@! TO.N,Net-(D8-A)*
X406400000Y-123065000D03*
G04 #@! TD*
G04 #@! TO.P,D62,1,K*
G04 #@! TO.N,Y8*
X173355000Y-207010000D03*
G04 #@! TO.P,D62,2,A*
G04 #@! TO.N,Net-(D62-A)*
X173355000Y-203710000D03*
G04 #@! TD*
D18*
G04 #@! TO.N,Net-(D74-K)*
X155282900Y-227037900D03*
G04 #@! TO.N,Net-(SW902-A)*
X280339800Y-129133600D03*
G04 #@! TO.N,Y10*
X357606600Y-148691600D03*
X353822000Y-130479800D03*
G04 #@! TO.N,Y9*
X124409200Y-187960000D03*
X134188200Y-207010000D03*
X190728600Y-151612600D03*
X119176800Y-149878200D03*
X119227600Y-169341800D03*
G04 #@! TO.N,Y8*
X188468000Y-152337600D03*
X159334200Y-187960000D03*
X157099000Y-150342600D03*
X157149800Y-168910000D03*
X155524200Y-207010000D03*
G04 #@! TO.N,Y7*
X95656400Y-170154600D03*
X195453000Y-168910000D03*
X193624200Y-207010000D03*
X195453000Y-149860000D03*
X197078600Y-187960000D03*
X186131200Y-149834600D03*
G04 #@! TO.N,Y6*
X233527600Y-149860000D03*
X233527600Y-168910000D03*
X187629800Y-170967400D03*
X230530400Y-208203800D03*
X94564200Y-170967400D03*
X235635800Y-187960000D03*
X230581200Y-225196400D03*
G04 #@! TO.N,Y5*
X273659600Y-187960000D03*
X271907000Y-149860000D03*
X177495200Y-171754800D03*
X93548200Y-171754800D03*
X271907000Y-168910000D03*
X267208000Y-207365600D03*
G04 #@! TO.N,Y4*
X309499000Y-149860000D03*
X309549800Y-168910000D03*
X91694000Y-172923200D03*
X311861200Y-187960000D03*
X305384200Y-207010000D03*
X174879000Y-172923200D03*
G04 #@! TO.N,Y3*
X338709000Y-150622000D03*
X327101200Y-207010000D03*
X331368400Y-168986200D03*
X90308600Y-195580000D03*
X325755000Y-224866200D03*
X169697400Y-229698900D03*
X90244000Y-181432200D03*
X333883000Y-187985400D03*
G04 #@! TO.N,Y2*
X424078400Y-126390400D03*
X407644600Y-226034600D03*
X424078400Y-168910000D03*
X157759400Y-208965800D03*
X407695400Y-207010000D03*
X87540000Y-184023000D03*
X425399200Y-188976000D03*
X424205400Y-207010000D03*
G04 #@! TO.N,X9*
X356082600Y-132080000D03*
X169519600Y-132080000D03*
G04 #@! TO.N,X8*
X264744200Y-213995000D03*
X137668000Y-168960800D03*
X303657000Y-212200000D03*
G04 #@! TO.N,X7*
X162636200Y-191264300D03*
X91033600Y-186055000D03*
G04 #@! TO.N,X6*
X127762000Y-193751200D03*
X92583000Y-191109600D03*
G04 #@! TO.N,X5*
X102235000Y-173913800D03*
X176225200Y-174020000D03*
G04 #@! TO.N,X4*
X179451000Y-168478200D03*
G04 #@! TO.N,X3*
X184785000Y-154970000D03*
X97459800Y-153797000D03*
G04 #@! TO.N,X2*
X132689600Y-150876000D03*
X187325000Y-147955000D03*
G04 #@! TO.N,X1*
X189865000Y-133985000D03*
G04 #@! TO.N,Y1*
X444500000Y-127584200D03*
X425475400Y-108508800D03*
X444550800Y-188976000D03*
X444525400Y-169875200D03*
X444449200Y-225044000D03*
X444576200Y-208305400D03*
X153162000Y-211861400D03*
X86365000Y-186563000D03*
G04 #@! TD*
D19*
G04 #@! TO.N,X5*
X156708800Y-173913800D02*
X158690000Y-175895000D01*
X102235000Y-173913800D02*
X156708800Y-173913800D01*
G04 #@! TO.N,Y2*
X405358600Y-207010000D02*
X406400000Y-207010000D01*
X404583600Y-207785000D02*
X405358600Y-207010000D01*
X324879000Y-207785000D02*
X404583600Y-207785000D01*
X324180200Y-207086200D02*
X324879000Y-207785000D01*
X289534600Y-209067400D02*
X318109600Y-209067400D01*
X185216800Y-208965800D02*
X187276000Y-211025000D01*
X187276000Y-211025000D02*
X287577000Y-211025000D01*
X139496800Y-208965800D02*
X185216800Y-208965800D01*
X318109600Y-209067400D02*
X320090800Y-207086200D01*
X135559800Y-205028800D02*
X139496800Y-208965800D01*
X121615200Y-205028800D02*
X135559800Y-205028800D01*
X109051569Y-207298769D02*
X119345231Y-207298769D01*
X119345231Y-207298769D02*
X121615200Y-205028800D01*
X102362000Y-204546200D02*
X106299000Y-204546200D01*
X106299000Y-204546200D02*
X109051569Y-207298769D01*
X320090800Y-207086200D02*
X324180200Y-207086200D01*
X87540000Y-189724200D02*
X102362000Y-204546200D01*
X287577000Y-211025000D02*
X289534600Y-209067400D01*
X87540000Y-184023000D02*
X87540000Y-189724200D01*
G04 #@! TO.N,Net-(SW902-A)*
X144856200Y-118033800D02*
X144851200Y-118033800D01*
X148209000Y-114681000D02*
X144856200Y-118033800D01*
X144851200Y-118033800D02*
X142875000Y-120010000D01*
X199561200Y-114681000D02*
X148209000Y-114681000D01*
X213404200Y-128524000D02*
X199561200Y-114681000D01*
X280339800Y-129133600D02*
X279730200Y-128524000D01*
X279730200Y-128524000D02*
X213404200Y-128524000D01*
G04 #@! TO.N,Net-(J1-Pin_2)*
X119634000Y-117094000D02*
X110871000Y-117094000D01*
X123875800Y-121335800D02*
X119634000Y-117094000D01*
X160502600Y-117094000D02*
X156260800Y-121335800D01*
X110871000Y-117094000D02*
X105410000Y-122555000D01*
X189484000Y-117094000D02*
X160502600Y-117094000D01*
X192405000Y-120015000D02*
X189484000Y-117094000D01*
X156260800Y-121335800D02*
X123875800Y-121335800D01*
G04 #@! TO.N,Y10*
X137795000Y-122550000D02*
X145724800Y-130479800D01*
X145724800Y-130479800D02*
X148640800Y-130479800D01*
X353822000Y-130479800D02*
X148640800Y-130479800D01*
X120695800Y-122550000D02*
X120307100Y-122161300D01*
X137795000Y-122550000D02*
X120695800Y-122550000D01*
X120307100Y-122161300D02*
X118160800Y-120015000D01*
G04 #@! TO.N,X5*
X143388000Y-125603000D02*
X143560800Y-125603000D01*
X143560800Y-125603000D02*
X176657000Y-125603000D01*
X140335000Y-122550000D02*
X143388000Y-125603000D01*
G04 #@! TO.N,X6*
X142875000Y-122550000D02*
X144055000Y-123730000D01*
X144055000Y-123730000D02*
X144551400Y-123730000D01*
X144551400Y-123730000D02*
X175990000Y-123730000D01*
G04 #@! TO.N,X5*
X176657000Y-125603000D02*
X179705000Y-122555000D01*
G04 #@! TO.N,X6*
X175990000Y-123730000D02*
X177165000Y-122555000D01*
G04 #@! TO.N,Net-(D74-K)*
X155282900Y-227037900D02*
X154305000Y-226060000D01*
X159308800Y-231063800D02*
X155282900Y-227037900D01*
G04 #@! TO.N,Y10*
X105410000Y-125095000D02*
X100850000Y-125095000D01*
X100850000Y-125095000D02*
X82550000Y-143395000D01*
X118160800Y-120015000D02*
X113030000Y-120015000D01*
X358775000Y-149860000D02*
X357606600Y-148691600D01*
G04 #@! TO.N,Y9*
X171411652Y-151612600D02*
X168884052Y-149085000D01*
X150177252Y-149428200D02*
X149824635Y-149075583D01*
X156133800Y-149428200D02*
X150177252Y-149428200D01*
X86365000Y-148755000D02*
X87540000Y-149930000D01*
X82550000Y-166255000D02*
X84005000Y-167710000D01*
X119176800Y-149878200D02*
X111143200Y-149878200D01*
X111125000Y-149606000D02*
X111252000Y-149606000D01*
X149824635Y-149075583D02*
X136527983Y-149075583D01*
X156477000Y-149085000D02*
X156133800Y-149428200D01*
X92005000Y-149930000D02*
X92075000Y-149860000D01*
X119227600Y-169341800D02*
X120218200Y-169341800D01*
X111143200Y-149878200D02*
X111125000Y-149860000D01*
X95955000Y-167710000D02*
X97155000Y-168910000D01*
X92075000Y-149860000D02*
X110871000Y-149860000D01*
X168884052Y-149085000D02*
X156477000Y-149085000D01*
X130156800Y-149878200D02*
X130175000Y-149860000D01*
X190728600Y-151612600D02*
X171411652Y-151612600D01*
X84005000Y-167710000D02*
X95955000Y-167710000D01*
X120218200Y-169341800D02*
X97586800Y-169341800D01*
X134188200Y-207010000D02*
X135255000Y-207010000D01*
X99060000Y-187960000D02*
X125730000Y-187960000D01*
X97586800Y-169341800D02*
X97155000Y-168910000D01*
X92075000Y-149860000D02*
X111125000Y-149860000D01*
X136527983Y-149075583D02*
X135743566Y-149860000D01*
X135743566Y-149860000D02*
X130175000Y-149860000D01*
X110871000Y-149860000D02*
X111125000Y-149606000D01*
X120650000Y-168910000D02*
X120218200Y-169341800D01*
X119176800Y-149878200D02*
X130156800Y-149878200D01*
X111252000Y-149606000D02*
X111379000Y-149733000D01*
X124409200Y-187960000D02*
X125730000Y-187960000D01*
X87540000Y-149930000D02*
X92005000Y-149930000D01*
G04 #@! TO.N,Y8*
X87665000Y-152595000D02*
X104817600Y-152595000D01*
X157099000Y-150342600D02*
X150647400Y-150342600D01*
X157099000Y-150342600D02*
X157099000Y-150114000D01*
X136042400Y-152146000D02*
X112496600Y-152146000D01*
X157099000Y-150342600D02*
X167005000Y-150342600D01*
X163322000Y-187833000D02*
X163449000Y-187960000D01*
X149707600Y-150342600D02*
X150647400Y-150342600D01*
X144780000Y-187960000D02*
X163830000Y-187960000D01*
X188468000Y-152337600D02*
X170752600Y-152337600D01*
X167005000Y-150342600D02*
X167792400Y-150342600D01*
X150647400Y-150342600D02*
X167005000Y-150342600D01*
X149225000Y-149860000D02*
X149707600Y-150342600D01*
X86365000Y-151295000D02*
X87665000Y-152595000D01*
X112496600Y-152146000D02*
X110744000Y-153898600D01*
X149225000Y-149987000D02*
X149352000Y-149987000D01*
X106121200Y-153898600D02*
X110744000Y-153898600D01*
X104817600Y-152595000D02*
X106121200Y-153898600D01*
X139446000Y-168783000D02*
X139319000Y-168656000D01*
X149225000Y-149860000D02*
X138328400Y-149860000D01*
X158750000Y-168910000D02*
X139700000Y-168910000D01*
X173355000Y-207010000D02*
X154305000Y-207010000D01*
X167792400Y-150342600D02*
X168275000Y-149860000D01*
X170752600Y-152337600D02*
X168275000Y-149860000D01*
X138328400Y-149860000D02*
X136042400Y-152146000D01*
G04 #@! TO.N,Y7*
X196850000Y-168910000D02*
X195453000Y-168910000D01*
X187299600Y-149834600D02*
X187325000Y-149860000D01*
X182880000Y-187960000D02*
X201930000Y-187960000D01*
X205867000Y-149860000D02*
X206121000Y-149606000D01*
X95656400Y-170154600D02*
X176555400Y-170154600D01*
X211455000Y-207010000D02*
X192405000Y-207010000D01*
X187325000Y-149860000D02*
X206375000Y-149860000D01*
X211455000Y-207010000D02*
X210820000Y-207010000D01*
X195453000Y-149860000D02*
X187325000Y-149860000D01*
X194640200Y-169722800D02*
X194056000Y-169722800D01*
X83400000Y-170485000D02*
X90550800Y-170485000D01*
X195453000Y-168910000D02*
X194640200Y-169722800D01*
X90550800Y-170485000D02*
X90906600Y-170129200D01*
X82550000Y-171335000D02*
X83400000Y-170485000D01*
X194056000Y-169722800D02*
X178612800Y-169722800D01*
X187325000Y-149860000D02*
X205867000Y-149860000D01*
X178612800Y-169722800D02*
X177800000Y-168910000D01*
X90906600Y-170129200D02*
X90932000Y-170154600D01*
X90932000Y-170154600D02*
X95656400Y-170154600D01*
X176555400Y-170154600D02*
X177800000Y-168910000D01*
X196850000Y-168656000D02*
X196977000Y-168783000D01*
X186131200Y-149834600D02*
X187299600Y-149834600D01*
G04 #@! TO.N,Y6*
X213842600Y-170967400D02*
X215900000Y-168910000D01*
X233527600Y-149860000D02*
X244094000Y-149860000D01*
X94564200Y-170967400D02*
X213842600Y-170967400D01*
X82550000Y-173875000D02*
X85457600Y-170967400D01*
X230530400Y-207035400D02*
X230505000Y-207010000D01*
X230581200Y-225196400D02*
X230581200Y-225983800D01*
X220980000Y-187960000D02*
X240030000Y-187960000D01*
X85457600Y-170967400D02*
X94564200Y-170967400D01*
X230530400Y-208203800D02*
X230530400Y-207035400D01*
X234950000Y-168910000D02*
X215900000Y-168910000D01*
X230581200Y-225983800D02*
X230505000Y-226060000D01*
X233527600Y-149860000D02*
X225425000Y-149860000D01*
G04 #@! TO.N,Y5*
X82550000Y-176415000D02*
X87210200Y-171754800D01*
X93548200Y-171754800D02*
X251155200Y-171754800D01*
X87210200Y-171754800D02*
X93548200Y-171754800D01*
X259080000Y-187960000D02*
X278130000Y-187960000D01*
X249961400Y-207416400D02*
X249555000Y-207010000D01*
X268605000Y-207010000D02*
X268198600Y-207416400D01*
X273050000Y-168910000D02*
X254000000Y-168910000D01*
X268198600Y-207416400D02*
X267258800Y-207416400D01*
X263779000Y-149860000D02*
X263525000Y-149606000D01*
X267258800Y-207416400D02*
X249961400Y-207416400D01*
X267208000Y-207365600D02*
X267258800Y-207416400D01*
X271907000Y-149860000D02*
X263779000Y-149860000D01*
X263525000Y-149860000D02*
X282575000Y-149860000D01*
X251155200Y-171754800D02*
X254000000Y-168910000D01*
G04 #@! TO.N,Y4*
X301625000Y-149860000D02*
X301371000Y-149606000D01*
X301625000Y-149860000D02*
X320675000Y-149860000D01*
X311150000Y-168910000D02*
X292100000Y-168910000D01*
X288086800Y-172923200D02*
X292100000Y-168910000D01*
X174879000Y-172923200D02*
X288086800Y-172923200D01*
X85662200Y-178955000D02*
X91694000Y-172923200D01*
X306705000Y-207010000D02*
X287655000Y-207010000D01*
X82550000Y-178955000D02*
X85662200Y-178955000D01*
X309499000Y-149860000D02*
X301625000Y-149860000D01*
X91694000Y-172923200D02*
X174879000Y-172923200D01*
X297180000Y-187960000D02*
X316230000Y-187960000D01*
G04 #@! TO.N,Y3*
X331292200Y-168910000D02*
X330200000Y-168910000D01*
X90244000Y-181432200D02*
X90181200Y-181495000D01*
X331368400Y-168986200D02*
X331292200Y-168910000D01*
X249460100Y-223393000D02*
X305422052Y-223393000D01*
X333883000Y-187985400D02*
X334035400Y-187833000D01*
X115646200Y-218516200D02*
X148145252Y-218516200D01*
X339598000Y-149733000D02*
X338709000Y-150622000D01*
X90181200Y-181495000D02*
X82550000Y-181495000D01*
X243154200Y-229698900D02*
X249460100Y-223393000D01*
X325755000Y-224866200D02*
X325755000Y-226060000D01*
X367030000Y-187960000D02*
X406400000Y-187960000D01*
X100639700Y-205911100D02*
X103041100Y-205911100D01*
X335280000Y-187960000D02*
X347345000Y-187960000D01*
X103041100Y-205911100D02*
X104140000Y-207010000D01*
X356870000Y-178435000D02*
X357505000Y-178435000D01*
X351790000Y-207010000D02*
X325755000Y-207010000D01*
X169697400Y-229698900D02*
X243154200Y-229698900D01*
X90308600Y-195580000D02*
X100639700Y-205911100D01*
X333883000Y-187985400D02*
X335254600Y-187985400D01*
X347345000Y-187960000D02*
X356870000Y-178435000D01*
X305422052Y-223393000D02*
X308089052Y-226060000D01*
X148145252Y-218516200D02*
X159327952Y-229698900D01*
X335254600Y-187985400D02*
X335280000Y-187960000D01*
X308089052Y-226060000D02*
X325755000Y-226060000D01*
X357505000Y-178435000D02*
X367030000Y-187960000D01*
X159327952Y-229698900D02*
X169697400Y-229698900D01*
X104140000Y-207010000D02*
X115646200Y-218516200D01*
G04 #@! TO.N,Y2*
X406400000Y-168910000D02*
X424078400Y-168910000D01*
X425424600Y-126390400D02*
X425450000Y-126365000D01*
X407695400Y-207010000D02*
X408020400Y-207335000D01*
X425450000Y-188925200D02*
X425399200Y-188976000D01*
X408020400Y-207335000D02*
X423880400Y-207335000D01*
X87528000Y-184035000D02*
X87540000Y-184023000D01*
X425450000Y-187960000D02*
X425450000Y-188925200D01*
X424205400Y-207010000D02*
X425450000Y-207010000D01*
X424078400Y-126390400D02*
X425424600Y-126390400D01*
X406400000Y-226060000D02*
X407619200Y-226060000D01*
X424078400Y-168910000D02*
X425450000Y-168910000D01*
X424078400Y-126390400D02*
X424053000Y-126365000D01*
X407619200Y-226060000D02*
X407644600Y-226034600D01*
X82550000Y-184035000D02*
X87528000Y-184035000D01*
X423880400Y-207335000D02*
X424205400Y-207010000D01*
X406400000Y-207010000D02*
X407695400Y-207010000D01*
X424053000Y-126365000D02*
X406400000Y-126365000D01*
G04 #@! TO.N,X9*
X117779800Y-124155200D02*
X125704600Y-132080000D01*
X97790000Y-125095000D02*
X99155000Y-123730000D01*
X169519600Y-132080000D02*
X356082600Y-132080000D01*
X107841800Y-123730000D02*
X108483400Y-123088400D01*
X370058566Y-147955000D02*
X373018400Y-144995166D01*
X99155000Y-123730000D02*
X104140000Y-123730000D01*
X373018400Y-137810900D02*
X373002500Y-137795000D01*
X104140000Y-123730000D02*
X107841800Y-123730000D01*
X364172500Y-147955000D02*
X370058566Y-147955000D01*
X125704600Y-132080000D02*
X169519600Y-132080000D01*
X108483400Y-123088400D02*
X110191800Y-121380000D01*
X110191800Y-121380000D02*
X115004600Y-121380000D01*
X115004600Y-121380000D02*
X117779800Y-124155200D01*
X373018400Y-144995166D02*
X373018400Y-137810900D01*
G04 #@! TO.N,X8*
X303657000Y-212200000D02*
X303767000Y-212090000D01*
X282486800Y-205105000D02*
X273685000Y-205105000D01*
X417683566Y-224155000D02*
X420643400Y-221195166D01*
X437802500Y-212120000D02*
X422502500Y-212120000D01*
X241471066Y-224155000D02*
X244602000Y-221024066D01*
X292735000Y-205105000D02*
X298621066Y-205105000D01*
X206375000Y-205105000D02*
X208940400Y-205105000D01*
X339680900Y-214010900D02*
X339665000Y-213995000D01*
X282530900Y-205060900D02*
X282486800Y-205105000D01*
X188331695Y-207899000D02*
X191125695Y-205105000D01*
X418752500Y-212120000D02*
X341540000Y-212120000D01*
X301580900Y-194960900D02*
X301565000Y-194945000D01*
X301580900Y-202145166D02*
X301580900Y-201955400D01*
X104063800Y-168473000D02*
X101626934Y-168473000D01*
X256318600Y-205555000D02*
X255295400Y-206578200D01*
X439693400Y-221195166D02*
X439693400Y-214010900D01*
X222300800Y-207289400D02*
X223901000Y-205689200D01*
X330835000Y-224155000D02*
X336721066Y-224155000D01*
X339680900Y-221195166D02*
X339680900Y-214010900D01*
X137668000Y-168960800D02*
X125927234Y-168960800D01*
X104426900Y-168109900D02*
X104063800Y-168473000D01*
X273685000Y-205105000D02*
X292735000Y-205105000D01*
X206330900Y-194960900D02*
X206315000Y-194945000D01*
X439693400Y-214010900D02*
X439677500Y-213995000D01*
X264744200Y-213995000D02*
X244415000Y-213995000D01*
X177800000Y-207899000D02*
X188331695Y-207899000D01*
X420627500Y-213995000D02*
X418752500Y-212120000D01*
X206330900Y-201803000D02*
X206330900Y-205060900D01*
X337790000Y-212120000D02*
X339665000Y-213995000D01*
X273685000Y-205105000D02*
X273685000Y-205915131D01*
X125076334Y-168109900D02*
X104426900Y-168109900D01*
X273082600Y-205555000D02*
X256318600Y-205555000D01*
X298621066Y-205105000D02*
X301580900Y-202145166D01*
X96876996Y-167995600D02*
X94241396Y-165360000D01*
X439677500Y-213995000D02*
X437802500Y-212120000D01*
X244602000Y-221024066D02*
X244602000Y-214182000D01*
X250151652Y-206222600D02*
X236550200Y-206222600D01*
X197485000Y-205105000D02*
X212293200Y-205105000D01*
X236550200Y-206222600D02*
X236199800Y-206573000D01*
X214477600Y-207289400D02*
X222300800Y-207289400D01*
X149225000Y-201345800D02*
X149225000Y-205015000D01*
X250507252Y-206578200D02*
X250151652Y-206222600D01*
X231490400Y-206573000D02*
X230606600Y-205689200D01*
X168215000Y-194945000D02*
X168230900Y-194960900D01*
X168230900Y-194960900D02*
X168230900Y-205035500D01*
X430847500Y-224155000D02*
X436733566Y-224155000D01*
X420643400Y-221195166D02*
X420643400Y-214010900D01*
X149225000Y-195005000D02*
X149165000Y-194945000D01*
X273532600Y-205105000D02*
X273082600Y-205555000D01*
X223901000Y-205689200D02*
X228930200Y-205689200D01*
X235585000Y-224155000D02*
X241471066Y-224155000D01*
X159295000Y-205015000D02*
X149225000Y-205015000D01*
X420852600Y-214220100D02*
X420627500Y-213995000D01*
X149225000Y-205015000D02*
X140425000Y-205015000D01*
X301580900Y-202145166D02*
X301580900Y-194960900D01*
X303767000Y-212090000D02*
X337760000Y-212090000D01*
X411797500Y-224155000D02*
X417683566Y-224155000D01*
X436733566Y-224155000D02*
X439693400Y-221195166D01*
X230606600Y-205689200D02*
X228930200Y-205689200D01*
X244602000Y-214182000D02*
X244415000Y-213995000D01*
X101149534Y-167995600D02*
X96876996Y-167995600D01*
X94241396Y-165360000D02*
X84195000Y-165360000D01*
X206330900Y-201803000D02*
X206330900Y-194960900D01*
X236199800Y-206573000D02*
X231490400Y-206573000D01*
X84195000Y-165360000D02*
X82550000Y-163715000D01*
X420643400Y-214010900D02*
X420627500Y-213995000D01*
X125927234Y-168960800D02*
X125076334Y-168109900D01*
X149225000Y-201345800D02*
X149225000Y-195005000D01*
X191125695Y-205105000D02*
X197485000Y-205105000D01*
X301580900Y-201955400D02*
X301580900Y-194960900D01*
X212293200Y-205105000D02*
X214477600Y-207289400D01*
X101626934Y-168473000D02*
X101149534Y-167995600D01*
X337760000Y-212090000D02*
X339665000Y-213995000D01*
X255295400Y-206578200D02*
X250507252Y-206578200D01*
X175006000Y-205105000D02*
X177800000Y-207899000D01*
X282530900Y-194960900D02*
X282530900Y-205060900D01*
X159385000Y-205105000D02*
X159295000Y-205015000D01*
X282515000Y-194945000D02*
X282530900Y-194960900D01*
X273685000Y-205105000D02*
X273532600Y-205105000D01*
X168249600Y-194979600D02*
X168215000Y-194945000D01*
X140425000Y-205015000D02*
X140335000Y-205105000D01*
X197485000Y-205105000D02*
X206375000Y-205105000D01*
X422502500Y-212120000D02*
X420627500Y-213995000D01*
X159385000Y-205105000D02*
X175006000Y-205105000D01*
X336721066Y-224155000D02*
X339680900Y-221195166D01*
X341540000Y-212120000D02*
X339665000Y-213995000D01*
X206330900Y-205060900D02*
X206375000Y-205105000D01*
G04 #@! TO.N,X7*
X113817400Y-176266150D02*
X113446250Y-175895000D01*
X320903600Y-195233600D02*
X320615000Y-194945000D01*
X263480900Y-202145166D02*
X263480900Y-194960900D01*
X88905000Y-163995000D02*
X87730000Y-162820000D01*
X225475800Y-195055800D02*
X225365000Y-194945000D01*
X266614600Y-191795400D02*
X317465400Y-191795400D01*
X445454250Y-205105000D02*
X449961000Y-209611750D01*
X113446250Y-175895000D02*
X113462150Y-175910900D01*
X162636200Y-191264300D02*
X140789900Y-191264300D01*
X244430900Y-202145166D02*
X244430900Y-194960900D01*
X339680900Y-201447400D02*
X339680900Y-205047500D01*
X190516200Y-191693800D02*
X187265000Y-194945000D01*
X449961000Y-209611750D02*
X454344250Y-209611750D01*
X311785000Y-205105000D02*
X317671066Y-205105000D01*
X418495600Y-206573000D02*
X411189434Y-206573000D01*
X183584300Y-191264300D02*
X162636200Y-191264300D01*
X187350400Y-195030400D02*
X187265000Y-194945000D01*
X336896400Y-192176400D02*
X323383600Y-192176400D01*
X439724800Y-196951600D02*
X439724800Y-205079600D01*
X91033600Y-186055000D02*
X104616250Y-186055000D01*
X225475800Y-202107800D02*
X225475800Y-195055800D01*
X458743400Y-214010900D02*
X458727500Y-213995000D01*
X216694000Y-204946000D02*
X222637600Y-204946000D01*
X449897500Y-224155000D02*
X455783566Y-224155000D01*
X113462150Y-186029950D02*
X113487200Y-186055000D01*
X317671066Y-205105000D02*
X320903600Y-201872466D01*
X128039818Y-187910782D02*
X128141418Y-188012382D01*
X247666200Y-191693800D02*
X244415000Y-194945000D01*
X260213800Y-191693800D02*
X247666200Y-191693800D01*
X354705800Y-206573000D02*
X353237800Y-205105000D01*
X87730000Y-162820000D02*
X84195000Y-162820000D01*
X410851434Y-206235000D02*
X358076800Y-206235000D01*
X339680900Y-201447400D02*
X339680900Y-194960900D01*
X187350400Y-202075666D02*
X187350400Y-195030400D01*
X430847500Y-205105000D02*
X419963600Y-205105000D01*
X411189434Y-206573000D02*
X410851434Y-206235000D01*
X358076800Y-206235000D02*
X357738800Y-206573000D01*
X339680900Y-194960900D02*
X339665000Y-194945000D01*
X187265000Y-194945000D02*
X183584300Y-191264300D01*
X455783566Y-224155000D02*
X458743400Y-221195166D01*
X454344250Y-209611750D02*
X458727500Y-213995000D01*
X113462150Y-175910900D02*
X113462150Y-186029950D01*
X128039818Y-187910782D02*
X126184035Y-186055000D01*
X137537982Y-188012382D02*
X140789900Y-191264300D01*
X320903600Y-201872466D02*
X320903600Y-195233600D01*
X184321066Y-205105000D02*
X187350400Y-202075666D01*
X225365000Y-194945000D02*
X228413000Y-191897000D01*
X353237800Y-205105000D02*
X339623400Y-205105000D01*
X84195000Y-162820000D02*
X82550000Y-161175000D01*
X339623400Y-205105000D02*
X330835000Y-205105000D01*
X235585000Y-205105000D02*
X241471066Y-205105000D01*
X225365000Y-194945000D02*
X222113800Y-191693800D01*
X104616250Y-186055000D02*
X113487200Y-186055000D01*
X323383600Y-192176400D02*
X320615000Y-194945000D01*
X222113800Y-191693800D02*
X190516200Y-191693800D01*
X317465400Y-191795400D02*
X320615000Y-194945000D01*
X339680900Y-205047500D02*
X339623400Y-205105000D01*
X254635000Y-205105000D02*
X260521066Y-205105000D01*
X128141418Y-188012382D02*
X137537982Y-188012382D01*
X260521066Y-205105000D02*
X263480900Y-202145166D01*
X439724800Y-194992300D02*
X439677500Y-194945000D01*
X439724800Y-196951600D02*
X439724800Y-194992300D01*
X263480900Y-194960900D02*
X263465000Y-194945000D01*
X244430900Y-194960900D02*
X244415000Y-194945000D01*
X339665000Y-194945000D02*
X336896400Y-192176400D01*
X178435000Y-205105000D02*
X184321066Y-205105000D01*
X228413000Y-191897000D02*
X241367000Y-191897000D01*
X430847500Y-205105000D02*
X445454250Y-205105000D01*
X241367000Y-191897000D02*
X244415000Y-194945000D01*
X419963600Y-205105000D02*
X418495600Y-206573000D01*
X216535000Y-205105000D02*
X216694000Y-204946000D01*
X357738800Y-206573000D02*
X354705800Y-206573000D01*
X241471066Y-205105000D02*
X244430900Y-202145166D01*
X458743400Y-221195166D02*
X458743400Y-214010900D01*
X126184035Y-186055000D02*
X113487200Y-186055000D01*
X263465000Y-194945000D02*
X260213800Y-191693800D01*
X222637600Y-204946000D02*
X225475800Y-202107800D01*
X263465000Y-194945000D02*
X266614600Y-191795400D01*
G04 #@! TO.N,X6*
X177755900Y-186010900D02*
X177800000Y-186055000D01*
X177755900Y-175910900D02*
X177740000Y-175895000D01*
X302260000Y-186055000D02*
X316240948Y-186055000D01*
X253955900Y-175910900D02*
X253940000Y-175895000D01*
X458727500Y-194945000D02*
X456852500Y-193070000D01*
X366039400Y-195125650D02*
X365858750Y-194945000D01*
X139700000Y-175955000D02*
X139640000Y-175895000D01*
X357028750Y-205105000D02*
X362914816Y-205105000D01*
X365858750Y-194945000D02*
X367733750Y-193070000D01*
X207467200Y-190042800D02*
X203479400Y-186055000D01*
X282607134Y-187528200D02*
X296087800Y-187528200D01*
X458743400Y-194960900D02*
X458727500Y-194945000D01*
X127762000Y-193751200D02*
X126568200Y-194945000D01*
X253955900Y-182549800D02*
X253955900Y-175910900D01*
X118237000Y-202132816D02*
X118237000Y-194973250D01*
X253923800Y-186055000D02*
X264160000Y-186055000D01*
X316240948Y-186055000D02*
X321117748Y-190931800D01*
X281133934Y-186055000D02*
X282607134Y-187528200D01*
X109378750Y-205105000D02*
X115264816Y-205105000D01*
X130810000Y-186055000D02*
X139700000Y-186055000D01*
X321117748Y-190931800D02*
X361845550Y-190931800D01*
X455783566Y-205105000D02*
X458743400Y-202145166D01*
X253955900Y-182549800D02*
X253955900Y-186022900D01*
X168910000Y-186055000D02*
X177800000Y-186055000D01*
X418752500Y-193070000D02*
X420627500Y-194945000D01*
X203479400Y-186055000D02*
X196748400Y-186055000D01*
X84005000Y-160090000D02*
X82550000Y-158635000D01*
X311105900Y-183095166D02*
X311105900Y-186048300D01*
X187960000Y-186055000D02*
X196748400Y-186055000D01*
X115264816Y-205105000D02*
X118237000Y-202132816D01*
X458743400Y-202145166D02*
X458743400Y-194960900D01*
X196805900Y-182803800D02*
X196805900Y-175910900D01*
X366039400Y-201980416D02*
X366039400Y-195125650D01*
X177755900Y-180187600D02*
X177755900Y-186010900D01*
X165023800Y-189941200D02*
X168910000Y-186055000D01*
X311105900Y-183095166D02*
X311105900Y-175910900D01*
X273075400Y-186055000D02*
X281133934Y-186055000D01*
X126568200Y-194945000D02*
X118208750Y-194945000D01*
X297561000Y-186055000D02*
X302260000Y-186055000D01*
X417683566Y-205105000D02*
X420674800Y-202113766D01*
X196805900Y-175910900D02*
X196790000Y-175895000D01*
X420674800Y-202113766D02*
X420674800Y-194992300D01*
X139700000Y-177800000D02*
X139700000Y-175955000D01*
X420674800Y-194992300D02*
X420627500Y-194945000D01*
X140906200Y-186055000D02*
X144792400Y-189941200D01*
X273075400Y-175980400D02*
X272990000Y-175895000D01*
X114373350Y-191109600D02*
X118208750Y-194945000D01*
X139700000Y-182499000D02*
X139700000Y-186055000D01*
X456852500Y-193070000D02*
X422502500Y-193070000D01*
X264160000Y-186055000D02*
X273075400Y-186055000D01*
X367733750Y-193070000D02*
X418752500Y-193070000D01*
X196805900Y-182803800D02*
X196805900Y-185997500D01*
X118237000Y-194973250D02*
X118208750Y-194945000D01*
X422502500Y-193070000D02*
X420627500Y-194945000D01*
X411797500Y-205105000D02*
X417683566Y-205105000D01*
X362914816Y-205105000D02*
X366039400Y-201980416D01*
X273075400Y-182880000D02*
X273075400Y-175980400D01*
X92583000Y-191109600D02*
X114373350Y-191109600D01*
X273075400Y-182880000D02*
X273075400Y-186055000D01*
X177800000Y-186055000D02*
X187960000Y-186055000D01*
X296087800Y-187528200D02*
X297561000Y-186055000D01*
X144792400Y-189941200D02*
X165023800Y-189941200D01*
X139700000Y-182499000D02*
X139700000Y-177800000D01*
X245110000Y-186055000D02*
X253923800Y-186055000D01*
X361845550Y-190931800D02*
X365858750Y-194945000D01*
X311105900Y-175910900D02*
X311090000Y-175895000D01*
X241122200Y-190042800D02*
X207467200Y-190042800D01*
X87540000Y-160090000D02*
X84005000Y-160090000D01*
X253955900Y-186022900D02*
X253923800Y-186055000D01*
X196805900Y-185997500D02*
X196748400Y-186055000D01*
X177755900Y-180187600D02*
X177755900Y-175910900D01*
X139700000Y-186055000D02*
X140906200Y-186055000D01*
X88905000Y-161455000D02*
X87540000Y-160090000D01*
X449897500Y-205105000D02*
X455783566Y-205105000D01*
X245110000Y-186055000D02*
X241122200Y-190042800D01*
G04 #@! TO.N,X5*
X455783566Y-186055000D02*
X458743400Y-183095166D01*
X430847500Y-186055000D02*
X439674000Y-186055000D01*
X411797500Y-186055000D02*
X420674800Y-186055000D01*
X88905000Y-158915000D02*
X96995000Y-167005000D01*
X330140000Y-175895000D02*
X328265000Y-174020000D01*
X293915000Y-174020000D02*
X292040000Y-175895000D01*
X108121066Y-167005000D02*
X111080900Y-164045166D01*
X330200000Y-186055000D02*
X327025000Y-186055000D01*
X231946066Y-186055000D02*
X235254800Y-182746266D01*
X102235000Y-167005000D02*
X108121066Y-167005000D01*
X110615000Y-157452600D02*
X110615000Y-156845000D01*
X421030400Y-186055000D02*
X430847500Y-186055000D01*
X408470100Y-189382400D02*
X411797500Y-186055000D01*
X420627500Y-175895000D02*
X420643400Y-175910900D01*
X292074600Y-175929600D02*
X292040000Y-175895000D01*
X439674000Y-186055000D02*
X449897500Y-186055000D01*
X235254800Y-176259800D02*
X234890000Y-175895000D01*
X111065000Y-156845000D02*
X111065000Y-157902600D01*
X439693400Y-175910900D02*
X439693400Y-186035600D01*
X439693400Y-186035600D02*
X439674000Y-186055000D01*
X158705900Y-175910900D02*
X158690000Y-175895000D01*
X449897500Y-186055000D02*
X455783566Y-186055000D01*
X158705900Y-183095166D02*
X158705900Y-175910900D01*
X207010000Y-186055000D02*
X212896066Y-186055000D01*
X84195000Y-157740000D02*
X82550000Y-156095000D01*
X213965000Y-174020000D02*
X160565000Y-174020000D01*
X235254800Y-182746266D02*
X235254800Y-176259800D01*
X289096066Y-186055000D02*
X292074600Y-183076466D01*
X420643400Y-175910900D02*
X420643400Y-186023600D01*
X330155900Y-181864000D02*
X330155900Y-186010900D01*
X111080900Y-164045166D02*
X111080900Y-156860900D01*
X215855900Y-175910900D02*
X215840000Y-175895000D01*
X458743400Y-183095166D02*
X458743400Y-175910900D01*
X149860000Y-186055000D02*
X155746066Y-186055000D01*
X330155900Y-175910900D02*
X330140000Y-175895000D01*
X88905000Y-158915000D02*
X87730000Y-157740000D01*
X439677500Y-175895000D02*
X439693400Y-175910900D01*
X155746066Y-186055000D02*
X158705900Y-183095166D01*
X111080900Y-156860900D02*
X111065000Y-156845000D01*
X420674800Y-186055000D02*
X421030400Y-186055000D01*
X290165000Y-174020000D02*
X236765000Y-174020000D01*
X330155900Y-181864000D02*
X330155900Y-175910900D01*
X160565000Y-174020000D02*
X158690000Y-175895000D01*
X333527400Y-189382400D02*
X408470100Y-189382400D01*
X292074600Y-183076466D02*
X292074600Y-175929600D01*
X420643400Y-186023600D02*
X420674800Y-186055000D01*
X330200000Y-186055000D02*
X333527400Y-189382400D01*
X87730000Y-157740000D02*
X84195000Y-157740000D01*
X234890000Y-175895000D02*
X233015000Y-174020000D01*
X236765000Y-174020000D02*
X234890000Y-175895000D01*
X283210000Y-186055000D02*
X289096066Y-186055000D01*
X330155900Y-186010900D02*
X330200000Y-186055000D01*
X212896066Y-186055000D02*
X215855900Y-183095166D01*
X321310000Y-186055000D02*
X327025000Y-186055000D01*
X233015000Y-174020000D02*
X217715000Y-174020000D01*
X420627500Y-175895000D02*
X421030400Y-176297900D01*
X458743400Y-175910900D02*
X458727500Y-175895000D01*
X215855900Y-183095166D02*
X215855900Y-175910900D01*
X328265000Y-174020000D02*
X293915000Y-174020000D01*
X96995000Y-167005000D02*
X102235000Y-167005000D01*
X217715000Y-174020000D02*
X215840000Y-175895000D01*
X215840000Y-175895000D02*
X213965000Y-174020000D01*
X226060000Y-186055000D02*
X231946066Y-186055000D01*
X292040000Y-175895000D02*
X290165000Y-174020000D01*
G04 #@! TO.N,X4*
X332447600Y-168135000D02*
X338302600Y-173990000D01*
X306324000Y-167005000D02*
X297497500Y-167005000D01*
X338302600Y-173990000D02*
X347285000Y-173990000D01*
X327837800Y-168503600D02*
X328206400Y-168135000D01*
X162071434Y-167005000D02*
X154000200Y-167005000D01*
X153927500Y-156845000D02*
X152052500Y-154970000D01*
X136752500Y-154970000D02*
X134877500Y-156845000D01*
X184105166Y-168173400D02*
X183800366Y-168478200D01*
X439674000Y-167005000D02*
X430847500Y-167005000D01*
X88905000Y-156375000D02*
X87540000Y-155010000D01*
X238150400Y-168503600D02*
X236651800Y-167005000D01*
X347285000Y-173990000D02*
X349190000Y-175895000D01*
X349205900Y-175910900D02*
X349190000Y-175895000D01*
X259397500Y-167005000D02*
X251256800Y-167005000D01*
X275965800Y-168473000D02*
X274497800Y-167005000D01*
X211124800Y-166954200D02*
X211175600Y-167005000D01*
X449897500Y-167005000D02*
X439674000Y-167005000D01*
X230143400Y-163855400D02*
X230143400Y-156860900D01*
X383946400Y-171399200D02*
X426453300Y-171399200D01*
X259397500Y-167005000D02*
X268351000Y-167005000D01*
X297497500Y-167005000D02*
X288970600Y-167005000D01*
X375869200Y-179476400D02*
X383946400Y-171399200D01*
X164750366Y-168478200D02*
X163544634Y-168478200D01*
X249758200Y-168503600D02*
X238150400Y-168503600D01*
X306343400Y-163880800D02*
X306343400Y-156860900D01*
X197370948Y-167005000D02*
X196202548Y-168173400D01*
X352798800Y-176980000D02*
X358666200Y-176980000D01*
X439693400Y-163525200D02*
X439693400Y-156860900D01*
X131933566Y-167005000D02*
X134893400Y-164045166D01*
X211124800Y-162356800D02*
X211124800Y-166954200D01*
X439693400Y-156860900D02*
X439677500Y-156845000D01*
X133002500Y-154970000D02*
X134877500Y-156845000D01*
X178422000Y-168135000D02*
X165093566Y-168135000D01*
X351713800Y-175895000D02*
X352798800Y-176980000D01*
X211124800Y-162356800D02*
X211124800Y-156892300D01*
X268300200Y-166954200D02*
X268351000Y-167005000D01*
X183800366Y-168478200D02*
X178765200Y-168478200D01*
X126047500Y-167005000D02*
X131933566Y-167005000D01*
X455783566Y-167005000D02*
X458743400Y-164045166D01*
X274497800Y-167005000D02*
X268351000Y-167005000D01*
X349205900Y-183095166D02*
X349205900Y-175910900D01*
X154000200Y-162534600D02*
X154000200Y-156917700D01*
X306343400Y-156860900D02*
X306327500Y-156845000D01*
X87540000Y-155010000D02*
X84005000Y-155010000D01*
X251256800Y-167005000D02*
X249758200Y-168503600D01*
X340360000Y-186055000D02*
X346246066Y-186055000D01*
X458743400Y-164045166D02*
X458743400Y-156860900D01*
X221297500Y-167005000D02*
X230200200Y-167005000D01*
X145097500Y-167005000D02*
X154000200Y-167005000D01*
X84005000Y-155010000D02*
X82550000Y-153555000D01*
X312521600Y-167005000D02*
X314020200Y-168503600D01*
X268300200Y-159664400D02*
X268300200Y-156917700D01*
X163544634Y-168478200D02*
X162071434Y-167005000D01*
X196202548Y-168173400D02*
X184105166Y-168173400D01*
X306343400Y-166985600D02*
X306324000Y-167005000D01*
X178765200Y-168478200D02*
X178422000Y-168135000D01*
X230143400Y-166948200D02*
X230200200Y-167005000D01*
X439693400Y-163525200D02*
X439693400Y-166985600D01*
X426453300Y-171399200D02*
X430847500Y-167005000D01*
X221297500Y-167005000D02*
X211175600Y-167005000D01*
X90310000Y-154970000D02*
X133002500Y-154970000D01*
X154000200Y-156917700D02*
X153927500Y-156845000D01*
X236651800Y-167005000D02*
X230200200Y-167005000D01*
X211124800Y-156892300D02*
X211077500Y-156845000D01*
X349190000Y-175895000D02*
X351713800Y-175895000D01*
X152052500Y-154970000D02*
X136752500Y-154970000D01*
X306343400Y-163880800D02*
X306343400Y-166985600D01*
X314020200Y-168503600D02*
X327837800Y-168503600D01*
X230143400Y-156860900D02*
X230127500Y-156845000D01*
X458743400Y-156860900D02*
X458727500Y-156845000D01*
X268300200Y-156917700D02*
X268227500Y-156845000D01*
X358666200Y-176980000D02*
X361162600Y-179476400D01*
X328206400Y-168135000D02*
X332447600Y-168135000D01*
X361162600Y-179476400D02*
X375869200Y-179476400D01*
X134893400Y-164045166D02*
X134893400Y-156860900D01*
X306324000Y-167005000D02*
X312521600Y-167005000D01*
X288970600Y-167005000D02*
X287502600Y-168473000D01*
X88905000Y-156375000D02*
X90310000Y-154970000D01*
X211175600Y-167005000D02*
X202247500Y-167005000D01*
X346246066Y-186055000D02*
X349205900Y-183095166D01*
X439693400Y-166985600D02*
X439674000Y-167005000D01*
X287502600Y-168473000D02*
X275965800Y-168473000D01*
X202247500Y-167005000D02*
X197370948Y-167005000D01*
X230143400Y-163855400D02*
X230143400Y-166948200D01*
X449897500Y-167005000D02*
X455783566Y-167005000D01*
X154000200Y-162534600D02*
X154000200Y-167005000D01*
X268300200Y-159664400D02*
X268300200Y-166954200D01*
X134893400Y-156860900D02*
X134877500Y-156845000D01*
X165093566Y-168135000D02*
X164750366Y-168478200D01*
G04 #@! TO.N,X3*
X192027500Y-156845000D02*
X190152500Y-154970000D01*
X88905000Y-153835000D02*
X88099800Y-153835000D01*
X430847500Y-143192500D02*
X436733566Y-143192500D01*
X325475600Y-167005000D02*
X333400400Y-167005000D01*
X325393400Y-156860900D02*
X325393400Y-166922800D01*
X164147500Y-167005000D02*
X170033566Y-167005000D01*
X436733566Y-143192500D02*
X439693400Y-140232666D01*
X323502500Y-154970000D02*
X289152500Y-154970000D01*
X288010600Y-157578100D02*
X287277500Y-156845000D01*
X424116500Y-143192500D02*
X430847500Y-143192500D01*
X106302500Y-137795000D02*
X106375200Y-137867700D01*
X172977500Y-156845000D02*
X169326126Y-153193626D01*
X316547500Y-167005000D02*
X325475600Y-167005000D01*
X325377500Y-156845000D02*
X325393400Y-156860900D01*
X192481200Y-163607366D02*
X192481200Y-157298700D01*
X370637150Y-166385900D02*
X370621250Y-166370000D01*
X112064800Y-154520000D02*
X104736000Y-154520000D01*
X370621250Y-166370000D02*
X371256250Y-167005000D01*
X183197500Y-167005000D02*
X189083566Y-167005000D01*
X106318400Y-137810900D02*
X106302500Y-137795000D01*
X370637150Y-173570166D02*
X370637150Y-166385900D01*
X247302500Y-154970000D02*
X193902500Y-154970000D01*
X287277500Y-156845000D02*
X285402500Y-154970000D01*
X113391174Y-153193626D02*
X112064800Y-154520000D01*
X103358566Y-147955000D02*
X106318400Y-144995166D01*
X104013000Y-153797000D02*
X97459800Y-153797000D01*
X104736000Y-154520000D02*
X104013000Y-153797000D01*
X193902500Y-154970000D02*
X192027500Y-156845000D01*
X240347500Y-167005000D02*
X246233566Y-167005000D01*
X356880948Y-176530000D02*
X361791250Y-176530000D01*
X172993400Y-164045166D02*
X172993400Y-156860900D01*
X170033566Y-167005000D02*
X172993400Y-164045166D01*
X325377500Y-156845000D02*
X323502500Y-154970000D01*
X249177500Y-156845000D02*
X247302500Y-154970000D01*
X420643400Y-156860900D02*
X420627500Y-156845000D01*
X417683566Y-167005000D02*
X420643400Y-164045166D01*
X361791250Y-176530000D02*
X367677316Y-176530000D01*
X246233566Y-167005000D02*
X249326400Y-163912166D01*
X172993400Y-156860900D02*
X172977500Y-156845000D01*
X439693400Y-133048400D02*
X439677500Y-133032500D01*
X333400400Y-167005000D02*
X333921100Y-167525700D01*
X420627500Y-156845000D02*
X420627500Y-146681500D01*
X251052500Y-154970000D02*
X249177500Y-156845000D01*
X97459800Y-153797000D02*
X97421800Y-153835000D01*
X190152500Y-154970000D02*
X184785000Y-154970000D01*
X288010600Y-163327966D02*
X288010600Y-157578100D01*
X106318400Y-144995166D02*
X106318400Y-137810900D01*
X84005000Y-152470000D02*
X82550000Y-151015000D01*
X367677316Y-176530000D02*
X370637150Y-173570166D01*
X284333566Y-167005000D02*
X288010600Y-163327966D01*
X333921100Y-167525700D02*
X339801200Y-173405800D01*
X316547500Y-167005000D02*
X316579500Y-166973000D01*
X189083566Y-167005000D02*
X192481200Y-163607366D01*
X339801200Y-173405800D02*
X353756748Y-173405800D01*
X289152500Y-154970000D02*
X287277500Y-156845000D01*
X411797500Y-167005000D02*
X417683566Y-167005000D01*
X249326400Y-156993900D02*
X249177500Y-156845000D01*
X169326126Y-153193626D02*
X113391174Y-153193626D01*
X184785000Y-154970000D02*
X174852500Y-154970000D01*
X371256250Y-167005000D02*
X411797500Y-167005000D01*
X88099800Y-153835000D02*
X86734800Y-152470000D01*
X285402500Y-154970000D02*
X251052500Y-154970000D01*
X353756748Y-173405800D02*
X356880948Y-176530000D01*
X192481200Y-157298700D02*
X192027500Y-156845000D01*
X174852500Y-154970000D02*
X172977500Y-156845000D01*
X97472500Y-147955000D02*
X103358566Y-147955000D01*
X249326400Y-163912166D02*
X249326400Y-156993900D01*
X86734800Y-152470000D02*
X84005000Y-152470000D01*
X325393400Y-166922800D02*
X325475600Y-167005000D01*
X420643400Y-164045166D02*
X420643400Y-156860900D01*
X439693400Y-140232666D02*
X439693400Y-133048400D01*
X420627500Y-146681500D02*
X424116500Y-143192500D01*
X278447500Y-167005000D02*
X284333566Y-167005000D01*
X97421800Y-153835000D02*
X88905000Y-153835000D01*
G04 #@! TO.N,X2*
X144500600Y-137893100D02*
X144500600Y-147955000D01*
X344779600Y-163708966D02*
X344779600Y-157197100D01*
X258038600Y-150444200D02*
X247929400Y-150444200D01*
X230822500Y-147955000D02*
X239649000Y-147955000D01*
X315868400Y-147935600D02*
X315849000Y-147955000D01*
X88905000Y-151295000D02*
X88055000Y-150445000D01*
X284200600Y-147955000D02*
X277977600Y-147955000D01*
X340096800Y-152514300D02*
X326428100Y-152514300D01*
X344427500Y-156845000D02*
X398145000Y-156845000D01*
X277901400Y-137943900D02*
X277752500Y-137795000D01*
X344779600Y-157197100D02*
X344427500Y-156845000D01*
X335597500Y-167005000D02*
X341483566Y-167005000D01*
X455783566Y-124142500D02*
X458743400Y-121182666D01*
X218892000Y-150342600D02*
X209753200Y-150342600D01*
X398145000Y-156845000D02*
X430847500Y-124142500D01*
X105257600Y-150876000D02*
X104838600Y-151295000D01*
X201552500Y-137795000D02*
X201568400Y-137810900D01*
X297886000Y-147955000D02*
X295498400Y-150342600D01*
X315849000Y-147955000D02*
X321868800Y-147955000D01*
X168833800Y-147955000D02*
X171323000Y-150444200D01*
X201568400Y-137810900D02*
X201568400Y-147822000D01*
X277901400Y-144576800D02*
X277901400Y-137943900D01*
X315868400Y-137810900D02*
X315852500Y-137795000D01*
X132689600Y-150876000D02*
X105257600Y-150876000D01*
X307022500Y-147955000D02*
X297886000Y-147955000D01*
X183388000Y-147955000D02*
X187325000Y-147955000D01*
X449897500Y-124142500D02*
X455783566Y-124142500D01*
X163499800Y-137842300D02*
X163499800Y-147955000D01*
X458743400Y-113998400D02*
X458727500Y-113982500D01*
X84005000Y-149930000D02*
X82550000Y-148475000D01*
X439750200Y-114055200D02*
X439750200Y-124142500D01*
X344427500Y-156845000D02*
X340096800Y-152514300D01*
X268922500Y-147955000D02*
X277977600Y-147955000D01*
X260527800Y-147955000D02*
X258038600Y-150444200D01*
X277901400Y-147878800D02*
X277977600Y-147955000D01*
X239668400Y-137810900D02*
X239668400Y-147935600D01*
X439677500Y-113982500D02*
X439750200Y-114055200D01*
X286588200Y-150342600D02*
X284200600Y-147955000D01*
X135572500Y-147955000D02*
X144500600Y-147955000D01*
X247929400Y-150444200D02*
X245440200Y-147955000D01*
X144500600Y-147955000D02*
X154622500Y-147955000D01*
X163452500Y-137795000D02*
X163499800Y-137842300D01*
X277901400Y-144576800D02*
X277901400Y-147878800D01*
X201599800Y-137842300D02*
X201552500Y-137795000D01*
X321868800Y-147955000D02*
X326428100Y-152514300D01*
X144418400Y-137810900D02*
X144402500Y-137795000D01*
X180898800Y-150444200D02*
X183388000Y-147955000D01*
X207365600Y-147955000D02*
X192722500Y-147955000D01*
X87199000Y-150445000D02*
X86684000Y-149930000D01*
X449897500Y-124142500D02*
X439750200Y-124142500D01*
X239652500Y-137795000D02*
X239668400Y-137810900D01*
X245440200Y-147955000D02*
X239649000Y-147955000D01*
X341483566Y-167005000D02*
X344779600Y-163708966D01*
X307022500Y-147955000D02*
X315849000Y-147955000D01*
X144402500Y-137795000D02*
X144500600Y-137893100D01*
X154622500Y-147955000D02*
X163499800Y-147955000D01*
X315868400Y-144399000D02*
X315868400Y-147935600D01*
X439750200Y-124142500D02*
X430847500Y-124142500D01*
X209753200Y-150342600D02*
X207365600Y-147955000D01*
X239668400Y-147935600D02*
X239649000Y-147955000D01*
X88055000Y-150445000D02*
X87199000Y-150445000D01*
X163499800Y-147955000D02*
X168833800Y-147955000D01*
X104838600Y-151295000D02*
X88905000Y-151295000D01*
X458743400Y-121182666D02*
X458743400Y-113998400D01*
X315868400Y-144399000D02*
X315868400Y-137810900D01*
X295498400Y-150342600D02*
X286588200Y-150342600D01*
X163468400Y-137810900D02*
X163452500Y-137795000D01*
X221279600Y-147955000D02*
X218892000Y-150342600D01*
X187325000Y-147955000D02*
X192722500Y-147955000D01*
X86684000Y-149930000D02*
X84005000Y-149930000D01*
X171323000Y-150444200D02*
X180898800Y-150444200D01*
X268922500Y-147955000D02*
X260527800Y-147955000D01*
X230822500Y-147955000D02*
X221279600Y-147955000D01*
G04 #@! TO.N,X1*
X88905000Y-148755000D02*
X87540000Y-147390000D01*
X296900600Y-137893100D02*
X296802500Y-137795000D01*
X262664900Y-133832600D02*
X258702500Y-137795000D01*
X116522500Y-147955000D02*
X122408566Y-147955000D01*
X254790900Y-133883400D02*
X224514100Y-133883400D01*
X326072500Y-147955000D02*
X331958566Y-147955000D01*
X182502500Y-137795000D02*
X178743300Y-134035800D01*
X179558566Y-147955000D02*
X182524400Y-144989166D01*
X338814100Y-133883400D02*
X334902500Y-137795000D01*
X353968400Y-137810900D02*
X353952500Y-137795000D01*
X182524400Y-137816900D02*
X182502500Y-137795000D01*
X293858566Y-147955000D02*
X296900600Y-144912966D01*
X93954600Y-135839200D02*
X123396700Y-135839200D01*
X353952500Y-137795000D02*
X350040900Y-133883400D01*
X211772500Y-147955000D02*
X217658566Y-147955000D01*
X178743300Y-134035800D02*
X129111700Y-134035800D01*
X411797500Y-124142500D02*
X417683566Y-124142500D01*
X125526800Y-144836766D02*
X125526800Y-137969300D01*
X439693400Y-102132666D02*
X439693400Y-94948400D01*
X296900600Y-144912966D02*
X296900600Y-137893100D01*
X331958566Y-147955000D02*
X334949800Y-144963766D01*
X421957500Y-113982500D02*
X420627500Y-113982500D01*
X258702500Y-137795000D02*
X254790900Y-133883400D01*
X334902500Y-137795000D02*
X331143300Y-134035800D01*
X436733566Y-105092500D02*
X439693400Y-102132666D01*
X220472000Y-137795000D02*
X216662000Y-133985000D01*
X88905000Y-148755000D02*
X90852500Y-146807500D01*
X173672500Y-147955000D02*
X179558566Y-147955000D01*
X345122500Y-147955000D02*
X351008566Y-147955000D01*
X123396700Y-135839200D02*
X125352500Y-137795000D01*
X300561700Y-134035800D02*
X296802500Y-137795000D01*
X350040900Y-133883400D02*
X338814100Y-133883400D01*
X125526800Y-137969300D02*
X125352500Y-137795000D01*
X331143300Y-134035800D02*
X300561700Y-134035800D01*
X291741750Y-133832600D02*
X262664900Y-133832600D01*
X417683566Y-124142500D02*
X420643400Y-121182666D01*
X220602500Y-137795000D02*
X220472000Y-137795000D01*
X334949800Y-137842300D02*
X334902500Y-137795000D01*
X217658566Y-147955000D02*
X220618400Y-144995166D01*
X296802500Y-137795000D02*
X295704150Y-137795000D01*
X258724400Y-137816900D02*
X258702500Y-137795000D01*
X90852500Y-138941300D02*
X93954600Y-135839200D01*
X287972500Y-147955000D02*
X293858566Y-147955000D01*
X420643400Y-121182666D02*
X420643400Y-113998400D01*
X334949800Y-144963766D02*
X334949800Y-137842300D01*
X258724400Y-144989166D02*
X258724400Y-137816900D01*
X122408566Y-147955000D02*
X125526800Y-144836766D01*
X430847500Y-105092500D02*
X436733566Y-105092500D01*
X255758566Y-147955000D02*
X258724400Y-144989166D01*
X295704150Y-137795000D02*
X291741750Y-133832600D01*
X430847500Y-105092500D02*
X421957500Y-113982500D01*
X90852500Y-146807500D02*
X90852500Y-138941300D01*
X353968400Y-144995166D02*
X353968400Y-137810900D01*
X186312500Y-133985000D02*
X182502500Y-137795000D01*
X216662000Y-133985000D02*
X189865000Y-133985000D01*
X249872500Y-147955000D02*
X255758566Y-147955000D01*
X420643400Y-113998400D02*
X420627500Y-113982500D01*
X220618400Y-137810900D02*
X220602500Y-137795000D01*
X189865000Y-133985000D02*
X186312500Y-133985000D01*
X220618400Y-144995166D02*
X220618400Y-137810900D01*
X367605000Y-124142500D02*
X353952500Y-137795000D01*
X224514100Y-133883400D02*
X220602500Y-137795000D01*
X439693400Y-94948400D02*
X439677500Y-94932500D01*
X182524400Y-144989166D02*
X182524400Y-137816900D01*
X87540000Y-147390000D02*
X84005000Y-147390000D01*
X351008566Y-147955000D02*
X353968400Y-144995166D01*
X129111700Y-134035800D02*
X125352500Y-137795000D01*
X84005000Y-147390000D02*
X82550000Y-145935000D01*
X411797500Y-124142500D02*
X367605000Y-124142500D01*
G04 #@! TO.N,Y1*
X270002000Y-214706200D02*
X297815000Y-214706200D01*
X86365000Y-190225600D02*
X86365000Y-186563000D01*
X444525400Y-169875200D02*
X444525400Y-168935400D01*
X176580800Y-215341200D02*
X226009200Y-215341200D01*
X173101000Y-211861400D02*
X176580800Y-215341200D01*
X111531400Y-211861400D02*
X104876600Y-205206600D01*
X444500000Y-208229200D02*
X444500000Y-207010000D01*
X444500000Y-127584200D02*
X444500000Y-126365000D01*
X425450000Y-226060000D02*
X444500000Y-226060000D01*
X444525400Y-168935400D02*
X444500000Y-168910000D01*
X425450000Y-108483400D02*
X425450000Y-107315000D01*
X432841400Y-209804000D02*
X435635400Y-207010000D01*
X329127800Y-209804000D02*
X432841400Y-209804000D01*
X104876600Y-205206600D02*
X101346000Y-205206600D01*
X153162000Y-211861400D02*
X111531400Y-211861400D01*
X444500000Y-136062462D02*
X435147462Y-145415000D01*
X229235000Y-212115400D02*
X267411200Y-212115400D01*
X302488600Y-210032600D02*
X317931800Y-210032600D01*
X82550000Y-186575000D02*
X86353000Y-186575000D01*
X425475400Y-108508800D02*
X425450000Y-108483400D01*
X319374200Y-211475000D02*
X327456800Y-211475000D01*
X444500000Y-226060000D02*
X444500000Y-225094800D01*
X317931800Y-210032600D02*
X319374200Y-211475000D01*
X444500000Y-135864600D02*
X444500000Y-136062462D01*
X226009200Y-215341200D02*
X229235000Y-212115400D01*
X444550800Y-188976000D02*
X444550800Y-188010800D01*
X444576200Y-208305400D02*
X444500000Y-208229200D01*
X435147462Y-145415000D02*
X425450000Y-145415000D01*
X327456800Y-211475000D02*
X329127800Y-209804000D01*
X153162000Y-211861400D02*
X173101000Y-211861400D01*
X101346000Y-205206600D02*
X86365000Y-190225600D01*
X444550800Y-188010800D02*
X444500000Y-187960000D01*
X86353000Y-186575000D02*
X86365000Y-186563000D01*
X435635400Y-207010000D02*
X444500000Y-207010000D01*
X444500000Y-225094800D02*
X444449200Y-225044000D01*
X444500000Y-135864600D02*
X444500000Y-127584200D01*
X297815000Y-214706200D02*
X302488600Y-210032600D01*
X267411200Y-212115400D02*
X270002000Y-214706200D01*
G04 #@! TO.N,Net-(J1-Pin_1)*
X98195004Y-130962400D02*
X88905000Y-140252404D01*
X113030000Y-122555000D02*
X104622600Y-130962400D01*
X104622600Y-130962400D02*
X98195004Y-130962400D01*
X88905000Y-140252404D02*
X88905000Y-146215000D01*
G04 #@! TO.N,Net-(SW901-A)*
X159385000Y-224155000D02*
X165271066Y-224155000D01*
X165271066Y-224155000D02*
X168230900Y-221195166D01*
X168230900Y-221195166D02*
X168230900Y-214010900D01*
X168230900Y-214010900D02*
X168215000Y-213995000D01*
G04 #@! TO.N,Net-(D74-K)*
X286283400Y-231063800D02*
X159308800Y-231063800D01*
X306705000Y-226060000D02*
X300050200Y-226060000D01*
X292386100Y-224961100D02*
X286283400Y-231063800D01*
X300050200Y-226060000D02*
X298951300Y-224961100D01*
X298951300Y-224961100D02*
X292386100Y-224961100D01*
G04 #@! TO.N,Net-(D74-A)*
X306765000Y-216535000D02*
X306765000Y-222700000D01*
X318135000Y-221615000D02*
X310210200Y-221615000D01*
X309065200Y-222760000D02*
X310210200Y-221615000D01*
X306765000Y-222700000D02*
X306705000Y-222760000D01*
X306705000Y-222760000D02*
X309065200Y-222760000D01*
G04 #@! TO.N,Net-(D75-A)*
X165735000Y-221615000D02*
X157651316Y-221615000D01*
X156506316Y-222760000D02*
X157651316Y-221615000D01*
X154365000Y-216535000D02*
X154365000Y-222700000D01*
X154365000Y-222700000D02*
X154305000Y-222760000D01*
X154305000Y-222760000D02*
X156506316Y-222760000D01*
G04 #@! TO.N,Net-(D0-A)*
X425450000Y-104015000D02*
X425450000Y-102434700D01*
X425827500Y-97472500D02*
X425827500Y-102057200D01*
X429514000Y-102552500D02*
X437197500Y-102552500D01*
X425450000Y-104015000D02*
X428051500Y-104015000D01*
X428051500Y-104015000D02*
X429514000Y-102552500D01*
X425450000Y-102434700D02*
X425827500Y-102057200D01*
G04 #@! TO.N,Net-(D1-A)*
X446035700Y-122962400D02*
X447395600Y-121602500D01*
X447395600Y-121602500D02*
X456247500Y-121602500D01*
X444500000Y-123065000D02*
X444500000Y-121535500D01*
X444500000Y-123065000D02*
X444602600Y-122962400D01*
X444877500Y-116522500D02*
X444877500Y-121158000D01*
X444500000Y-121535500D02*
X444877500Y-121158000D01*
X444602600Y-122962400D02*
X446035700Y-122962400D01*
G04 #@! TO.N,Net-(D2-A)*
X425450000Y-142115000D02*
X427111700Y-142115000D01*
X425450000Y-142115000D02*
X425450000Y-140636300D01*
X427111700Y-142115000D02*
X428574200Y-140652500D01*
X428574200Y-140652500D02*
X437197500Y-140652500D01*
X425450000Y-140636300D02*
X425827500Y-140258800D01*
X425827500Y-135572500D02*
X425827500Y-140258800D01*
G04 #@! TO.N,Net-(D3-A)*
X444500000Y-165610000D02*
X444500000Y-164283700D01*
X447802000Y-164465000D02*
X456247500Y-164465000D01*
X446657000Y-165610000D02*
X447802000Y-164465000D01*
X444500000Y-165610000D02*
X446657000Y-165610000D01*
X444500000Y-164283700D02*
X444877500Y-163906200D01*
X444877500Y-159385000D02*
X444877500Y-163906200D01*
G04 #@! TO.N,Net-(D4-A)*
X444589900Y-184570100D02*
X446746900Y-184570100D01*
X446746900Y-184570100D02*
X447802000Y-183515000D01*
X444500000Y-184660000D02*
X444500000Y-183384500D01*
X444500000Y-183384500D02*
X444877500Y-183007000D01*
X447802000Y-183515000D02*
X456247500Y-183515000D01*
X444500000Y-184660000D02*
X444589900Y-184570100D01*
X444877500Y-178435000D02*
X444877500Y-183007000D01*
G04 #@! TO.N,Net-(D5-A)*
X444500000Y-202307500D02*
X444877500Y-201930000D01*
X444500000Y-203710000D02*
X444500000Y-202307500D01*
X446758600Y-203710000D02*
X447903600Y-202565000D01*
X444877500Y-197485000D02*
X444877500Y-201930000D01*
X447903600Y-202565000D02*
X456247500Y-202565000D01*
X444500000Y-203710000D02*
X446758600Y-203710000D01*
G04 #@! TO.N,Net-(D6-A)*
X446226200Y-222682800D02*
X447294000Y-221615000D01*
X444577200Y-222682800D02*
X446226200Y-222682800D01*
X447294000Y-221615000D02*
X456247500Y-221615000D01*
X444877500Y-216535000D02*
X444877500Y-220903800D01*
X444500000Y-221281300D02*
X444877500Y-220903800D01*
X444500000Y-222760000D02*
X444577200Y-222682800D01*
X444500000Y-222760000D02*
X444500000Y-221281300D01*
G04 #@! TO.N,Net-(D7-A)*
X425827500Y-216535000D02*
X425827500Y-220776800D01*
X427302200Y-222760000D02*
X428447200Y-221615000D01*
X428447200Y-221615000D02*
X437197500Y-221615000D01*
X425450000Y-221154300D02*
X425827500Y-220776800D01*
X425450000Y-222760000D02*
X427302200Y-222760000D01*
X425450000Y-222760000D02*
X425450000Y-221154300D01*
G04 #@! TO.N,Net-(D8-A)*
X406400000Y-121535500D02*
X406777500Y-121158000D01*
X406777500Y-116522500D02*
X406777500Y-121158000D01*
X406400000Y-123065000D02*
X408417300Y-123065000D01*
X409879800Y-121602500D02*
X418147500Y-121602500D01*
X408417300Y-123065000D02*
X409879800Y-121602500D01*
X406400000Y-123065000D02*
X406400000Y-121535500D01*
G04 #@! TO.N,Net-(D9-A)*
X428498000Y-121602500D02*
X437197500Y-121602500D01*
X425450000Y-123065000D02*
X427035500Y-123065000D01*
X425450000Y-123065000D02*
X425450000Y-121408500D01*
X425450000Y-121408500D02*
X425827500Y-121031000D01*
X427035500Y-123065000D02*
X428498000Y-121602500D01*
X425827500Y-116522500D02*
X425827500Y-121031000D01*
G04 #@! TO.N,Net-(D10-A)*
X406400000Y-165610000D02*
X406400000Y-164410700D01*
X406777500Y-159385000D02*
X406777500Y-164033200D01*
X406400000Y-164410700D02*
X406777500Y-164033200D01*
X409879800Y-164465000D02*
X418147500Y-164465000D01*
X408734800Y-165610000D02*
X409879800Y-164465000D01*
X406400000Y-165610000D02*
X408734800Y-165610000D01*
G04 #@! TO.N,Net-(D11-A)*
X428802800Y-164465000D02*
X437197500Y-164465000D01*
X425539900Y-165520100D02*
X427747700Y-165520100D01*
X425450000Y-164258300D02*
X425827500Y-163880800D01*
X425450000Y-165610000D02*
X425539900Y-165520100D01*
X425827500Y-159385000D02*
X425827500Y-163880800D01*
X425450000Y-165610000D02*
X425450000Y-164258300D01*
X427747700Y-165520100D02*
X428802800Y-164465000D01*
G04 #@! TO.N,Net-(D12-A)*
X425827500Y-178435000D02*
X425827500Y-182727600D01*
X427403800Y-184660000D02*
X428548800Y-183515000D01*
X425450000Y-184660000D02*
X427403800Y-184660000D01*
X425450000Y-183105100D02*
X425827500Y-182727600D01*
X428548800Y-183515000D02*
X437197500Y-183515000D01*
X425450000Y-184660000D02*
X425450000Y-183105100D01*
G04 #@! TO.N,Net-(D13-A)*
X406489900Y-203620100D02*
X408799300Y-203620100D01*
X406400000Y-202307500D02*
X406777500Y-201930000D01*
X406777500Y-197485000D02*
X406777500Y-201930000D01*
X406400000Y-203710000D02*
X406489900Y-203620100D01*
X408799300Y-203620100D02*
X409854400Y-202565000D01*
X406400000Y-203710000D02*
X406400000Y-202307500D01*
X409854400Y-202565000D02*
X418147500Y-202565000D01*
G04 #@! TO.N,Net-(D14-A)*
X428853600Y-202565000D02*
X437197500Y-202565000D01*
X425552600Y-202255700D02*
X425827500Y-201980800D01*
X425552600Y-203607400D02*
X425552600Y-202255700D01*
X427708600Y-203710000D02*
X428853600Y-202565000D01*
X425827500Y-197485000D02*
X425827500Y-201980800D01*
X425450000Y-203710000D02*
X427708600Y-203710000D01*
X425450000Y-203710000D02*
X425552600Y-203607400D01*
G04 #@! TO.N,Net-(D15-A)*
X409524200Y-221615000D02*
X418147500Y-221615000D01*
X408379200Y-222760000D02*
X409524200Y-221615000D01*
X406777500Y-216535000D02*
X406777500Y-220903800D01*
X406400000Y-222760000D02*
X408379200Y-222760000D01*
X406400000Y-222760000D02*
X406502600Y-222657400D01*
X406502600Y-221178700D02*
X406777500Y-220903800D01*
X406502600Y-222657400D02*
X406502600Y-221178700D01*
G04 #@! TO.N,Net-(D16-A)*
X340102500Y-140335000D02*
X340102500Y-144805400D01*
X342517000Y-146560000D02*
X343662000Y-145415000D01*
X343662000Y-145415000D02*
X351472500Y-145415000D01*
X339725000Y-146560000D02*
X339725000Y-145182900D01*
X339725000Y-145182900D02*
X340102500Y-144805400D01*
X339725000Y-146560000D02*
X342517000Y-146560000D01*
G04 #@! TO.N,Net-(D17-A)*
X330289900Y-164044900D02*
X330577500Y-163757300D01*
X333248000Y-164465000D02*
X341947500Y-164465000D01*
X330200000Y-165610000D02*
X330289900Y-165520100D01*
X330577500Y-163757300D02*
X330577500Y-159385000D01*
X332103000Y-165610000D02*
X333248000Y-164465000D01*
X330289900Y-165520100D02*
X330289900Y-164044900D01*
X330200000Y-165610000D02*
X332103000Y-165610000D01*
G04 #@! TO.N,Net-(D18-A)*
X358977200Y-175032400D02*
X360019600Y-173990000D01*
X360019600Y-173990000D02*
X368141250Y-173990000D01*
X356870000Y-175135000D02*
X356870000Y-172920350D01*
X356870000Y-175135000D02*
X356972600Y-175032400D01*
X356771250Y-168910000D02*
X356771250Y-172821600D01*
X356972600Y-175032400D02*
X358977200Y-175032400D01*
X356870000Y-172920350D02*
X356771250Y-172821600D01*
X356771250Y-175036250D02*
X356870000Y-175135000D01*
G04 #@! TO.N,Net-(D19-A)*
X335340000Y-178435000D02*
X335340000Y-184600000D01*
X335340000Y-184600000D02*
X335280000Y-184660000D01*
X335280000Y-184660000D02*
X337233800Y-184660000D01*
X338378800Y-183515000D02*
X346710000Y-183515000D01*
X337233800Y-184660000D02*
X338378800Y-183515000D01*
G04 #@! TO.N,Net-(D20-A)*
X409854400Y-183515000D02*
X418147500Y-183515000D01*
X408709400Y-184660000D02*
X409854400Y-183515000D01*
X406777500Y-178435000D02*
X406777500Y-183007000D01*
X406400000Y-184660000D02*
X406400000Y-183384500D01*
X406400000Y-184660000D02*
X408709400Y-184660000D01*
X406400000Y-183384500D02*
X406777500Y-183007000D01*
G04 #@! TO.N,Net-(D21-A)*
X104358750Y-197637400D02*
X104140000Y-197856150D01*
X104140000Y-203710000D02*
X106424000Y-203710000D01*
X107569000Y-202565000D02*
X115728750Y-202565000D01*
X106424000Y-203710000D02*
X107569000Y-202565000D01*
X104140000Y-197856150D02*
X104140000Y-203710000D01*
X104358750Y-197485000D02*
X104358750Y-197637400D01*
G04 #@! TO.N,Net-(D22-A)*
X325815000Y-197485000D02*
X325815000Y-203269000D01*
X325815000Y-203650000D02*
X325755000Y-203710000D01*
X325815000Y-203269000D02*
X325628000Y-203456000D01*
X329107800Y-202565000D02*
X337185000Y-202565000D01*
X325755000Y-203710000D02*
X327962800Y-203710000D01*
X327962800Y-203710000D02*
X329107800Y-202565000D01*
G04 #@! TO.N,Net-(D23-A)*
X325755000Y-222760000D02*
X327658000Y-222760000D01*
X325815000Y-222700000D02*
X325755000Y-222760000D01*
X328803000Y-221615000D02*
X337185000Y-221615000D01*
X327658000Y-222760000D02*
X328803000Y-221615000D01*
X325815000Y-216535000D02*
X325815000Y-222700000D01*
G04 #@! TO.N,Net-(D24-A)*
X323594000Y-146560000D02*
X324739000Y-145415000D01*
X320675000Y-146560000D02*
X323594000Y-146560000D01*
X320675000Y-145106700D02*
X321052500Y-144729200D01*
X320675000Y-146560000D02*
X320675000Y-145106700D01*
X324739000Y-145415000D02*
X332422500Y-145415000D01*
X321052500Y-140335000D02*
X321052500Y-144729200D01*
G04 #@! TO.N,Net-(D25-A)*
X304315400Y-146560000D02*
X305460400Y-145415000D01*
X302002500Y-140335000D02*
X302002500Y-144754600D01*
X301625000Y-146560000D02*
X304315400Y-146560000D01*
X301689500Y-146495500D02*
X301689500Y-145067600D01*
X301689500Y-145067600D02*
X302002500Y-144754600D01*
X305460400Y-145415000D02*
X313372500Y-145415000D01*
X301625000Y-146560000D02*
X301689500Y-146495500D01*
G04 #@! TO.N,Net-(D26-A)*
X311150000Y-165610000D02*
X311239900Y-165520100D01*
X311239900Y-163939800D02*
X311527500Y-163652200D01*
X311239900Y-165520100D02*
X311239900Y-163939800D01*
X311150000Y-165610000D02*
X313281600Y-165610000D01*
X314426600Y-164465000D02*
X322897500Y-164465000D01*
X313281600Y-165610000D02*
X314426600Y-164465000D01*
X311527500Y-159385000D02*
X311527500Y-163652200D01*
G04 #@! TO.N,Net-(D27-A)*
X292100000Y-164131300D02*
X292477500Y-163753800D01*
X295249600Y-164465000D02*
X303847500Y-164465000D01*
X292477500Y-159385000D02*
X292477500Y-163753800D01*
X294194500Y-165520100D02*
X295249600Y-164465000D01*
X292100000Y-165610000D02*
X292100000Y-164131300D01*
X292189900Y-165520100D02*
X294194500Y-165520100D01*
X292100000Y-165610000D02*
X292189900Y-165520100D01*
G04 #@! TO.N,Net-(D28-A)*
X318107600Y-184660000D02*
X319252600Y-183515000D01*
X316290000Y-178435000D02*
X316290000Y-184600000D01*
X316230000Y-184660000D02*
X318107600Y-184660000D01*
X319252600Y-183515000D02*
X327660000Y-183515000D01*
X316290000Y-184600000D02*
X316230000Y-184660000D01*
G04 #@! TO.N,Net-(D29-A)*
X300202600Y-183515000D02*
X308610000Y-183515000D01*
X299057600Y-184660000D02*
X300202600Y-183515000D01*
X297180000Y-184660000D02*
X299057600Y-184660000D01*
X297240000Y-184600000D02*
X297240000Y-178435000D01*
X297180000Y-184660000D02*
X297240000Y-184600000D01*
G04 #@! TO.N,Net-(D30-A)*
X306705000Y-203710000D02*
X308887400Y-203710000D01*
X306765000Y-203650000D02*
X306705000Y-203710000D01*
X306765000Y-203396000D02*
X306578000Y-203583000D01*
X310032400Y-202565000D02*
X318135000Y-202565000D01*
X308887400Y-203710000D02*
X310032400Y-202565000D01*
X306765000Y-197485000D02*
X306765000Y-203650000D01*
G04 #@! TO.N,Net-(D31-A)*
X289888200Y-203710000D02*
X291033200Y-202565000D01*
X287715000Y-203396000D02*
X287528000Y-203583000D01*
X287715000Y-197485000D02*
X287715000Y-203396000D01*
X291033200Y-202565000D02*
X299085000Y-202565000D01*
X287655000Y-203710000D02*
X289888200Y-203710000D01*
X287715000Y-203650000D02*
X287655000Y-203710000D01*
G04 #@! TO.N,Net-(D32-A)*
X282575000Y-146560000D02*
X285240000Y-146560000D01*
X282664900Y-146470100D02*
X282664900Y-144940600D01*
X282575000Y-146560000D02*
X282664900Y-146470100D01*
X286385000Y-145415000D02*
X294322500Y-145415000D01*
X282952500Y-140335000D02*
X282952500Y-144653000D01*
X285240000Y-146560000D02*
X286385000Y-145415000D01*
X282664900Y-144940600D02*
X282952500Y-144653000D01*
G04 #@! TO.N,Net-(D33-A)*
X263902500Y-140335000D02*
X263902500Y-144805400D01*
X266164600Y-146560000D02*
X267309600Y-145415000D01*
X263525000Y-145182900D02*
X263902500Y-144805400D01*
X263525000Y-146560000D02*
X263525000Y-145182900D01*
X267309600Y-145415000D02*
X275272500Y-145415000D01*
X263525000Y-146560000D02*
X266164600Y-146560000D01*
G04 #@! TO.N,Net-(D34-A)*
X273050000Y-165610000D02*
X273050000Y-164207500D01*
X275208000Y-165532800D02*
X276275800Y-164465000D01*
X276275800Y-164465000D02*
X284797500Y-164465000D01*
X273050000Y-165610000D02*
X273127200Y-165532800D01*
X273127200Y-165532800D02*
X275208000Y-165532800D01*
X273427500Y-159385000D02*
X273427500Y-163830000D01*
X273050000Y-164207500D02*
X273427500Y-163830000D01*
G04 #@! TO.N,Net-(D35-A)*
X257378200Y-164465000D02*
X265747500Y-164465000D01*
X254000000Y-165610000D02*
X256233200Y-165610000D01*
X254377500Y-159385000D02*
X254377500Y-163703000D01*
X256233200Y-165610000D02*
X257378200Y-164465000D01*
X254000000Y-165610000D02*
X254000000Y-164080500D01*
X254000000Y-164080500D02*
X254377500Y-163703000D01*
G04 #@! TO.N,Net-(D36-A)*
X280007600Y-184660000D02*
X281152600Y-183515000D01*
X278190000Y-184600000D02*
X278130000Y-184660000D01*
X281152600Y-183515000D02*
X289560000Y-183515000D01*
X277495000Y-179130000D02*
X278190000Y-178435000D01*
X278190000Y-178435000D02*
X278190000Y-184600000D01*
X278130000Y-184660000D02*
X280007600Y-184660000D01*
G04 #@! TO.N,Net-(D37-A)*
X261084600Y-184660000D02*
X262229600Y-183515000D01*
X259080000Y-184660000D02*
X259140000Y-184600000D01*
X262229600Y-183515000D02*
X270510000Y-183515000D01*
X259080000Y-184660000D02*
X261084600Y-184660000D01*
X259140000Y-184600000D02*
X259140000Y-178435000D01*
G04 #@! TO.N,Net-(D38-A)*
X252806200Y-202565000D02*
X260985000Y-202565000D01*
X251661200Y-203710000D02*
X252806200Y-202565000D01*
X249615000Y-197485000D02*
X249615000Y-203650000D01*
X249615000Y-203650000D02*
X249555000Y-203710000D01*
X249555000Y-203710000D02*
X251661200Y-203710000D01*
G04 #@! TO.N,Net-(D39-A)*
X268605000Y-203710000D02*
X270914400Y-203710000D01*
X268665000Y-197485000D02*
X268665000Y-203650000D01*
X272059400Y-202565000D02*
X280035000Y-202565000D01*
X268665000Y-203650000D02*
X268605000Y-203710000D01*
X270914400Y-203710000D02*
X272059400Y-202565000D01*
X268665000Y-203396000D02*
X268351000Y-203710000D01*
G04 #@! TO.N,Net-(D40-A)*
X247560100Y-146495500D02*
X248640600Y-145415000D01*
X248640600Y-145415000D02*
X256222500Y-145415000D01*
X244475000Y-145208300D02*
X244852500Y-144830800D01*
X244852500Y-140335000D02*
X244852500Y-144830800D01*
X244475000Y-146560000D02*
X244475000Y-145208300D01*
X244539500Y-146495500D02*
X247560100Y-146495500D01*
X244475000Y-146560000D02*
X244539500Y-146495500D01*
G04 #@! TO.N,Net-(D41-A)*
X229692200Y-145415000D02*
X237172500Y-145415000D01*
X225802500Y-140335000D02*
X225802500Y-144830800D01*
X228547200Y-146560000D02*
X229692200Y-145415000D01*
X225425000Y-146560000D02*
X228547200Y-146560000D01*
X225425000Y-146560000D02*
X225425000Y-145208300D01*
X225425000Y-145208300D02*
X225802500Y-144830800D01*
G04 #@! TO.N,Net-(D42-A)*
X234950000Y-165610000D02*
X236980000Y-165610000D01*
X235327500Y-159385000D02*
X235327500Y-163753800D01*
X234950000Y-165610000D02*
X234950000Y-164131300D01*
X238125000Y-164465000D02*
X246697500Y-164465000D01*
X234950000Y-164131300D02*
X235327500Y-163753800D01*
X236980000Y-165610000D02*
X238125000Y-164465000D01*
G04 #@! TO.N,Net-(D43-A)*
X216277500Y-159385000D02*
X216277500Y-163804600D01*
X215900000Y-165610000D02*
X215900000Y-164182100D01*
X215900000Y-164182100D02*
X216277500Y-163804600D01*
X215900000Y-165610000D02*
X217803000Y-165610000D01*
X217803000Y-165610000D02*
X218948000Y-164465000D01*
X216277500Y-165358500D02*
X215773000Y-165863000D01*
X218948000Y-164465000D02*
X227647500Y-164465000D01*
G04 #@! TO.N,Net-(D44-A)*
X221040000Y-184600000D02*
X220980000Y-184660000D01*
X220980000Y-184660000D02*
X223213200Y-184660000D01*
X221040000Y-178435000D02*
X221040000Y-184600000D01*
X223213200Y-184660000D02*
X224358200Y-183515000D01*
X224358200Y-183515000D02*
X232410000Y-183515000D01*
G04 #@! TO.N,Net-(D45-A)*
X240090000Y-178435000D02*
X240090000Y-184600000D01*
X243306600Y-183515000D02*
X251460000Y-183515000D01*
X242161600Y-184660000D02*
X243306600Y-183515000D01*
X240090000Y-184600000D02*
X240030000Y-184660000D01*
X240030000Y-184660000D02*
X242161600Y-184660000D01*
G04 #@! TO.N,Net-(D46-A)*
X234061000Y-202565000D02*
X241935000Y-202565000D01*
X230505000Y-203710000D02*
X232916000Y-203710000D01*
X230565000Y-197485000D02*
X230565000Y-203650000D01*
X232916000Y-203710000D02*
X234061000Y-202565000D01*
X230565000Y-203269000D02*
X230124000Y-203710000D01*
X230565000Y-203650000D02*
X230505000Y-203710000D01*
G04 #@! TO.N,Net-(D47-A)*
X233144600Y-222760000D02*
X234289600Y-221615000D01*
X230505000Y-222760000D02*
X233144600Y-222760000D01*
X230565000Y-216535000D02*
X230565000Y-222312000D01*
X230565000Y-222700000D02*
X230505000Y-222760000D01*
X234289600Y-221615000D02*
X241935000Y-221615000D01*
X230565000Y-222312000D02*
X230632000Y-222379000D01*
G04 #@! TO.N,Net-(D48-A)*
X206375000Y-145106700D02*
X206752500Y-144729200D01*
X206464900Y-146470100D02*
X209155300Y-146470100D01*
X209155300Y-146470100D02*
X210210400Y-145415000D01*
X206375000Y-146560000D02*
X206464900Y-146470100D01*
X210210400Y-145415000D02*
X218122500Y-145415000D01*
X206375000Y-146560000D02*
X206375000Y-145106700D01*
X206752500Y-140335000D02*
X206752500Y-144729200D01*
G04 #@! TO.N,Net-(D49-A)*
X187325000Y-146560000D02*
X190523400Y-146560000D01*
X187325000Y-145182900D02*
X187702500Y-144805400D01*
X190523400Y-146560000D02*
X191668400Y-145415000D01*
X187702500Y-140335000D02*
X187702500Y-144805400D01*
X191668400Y-145415000D02*
X199072500Y-145415000D01*
X187325000Y-146560000D02*
X187325000Y-145182900D01*
G04 #@! TO.N,Net-(D50-A)*
X177800000Y-165610000D02*
X177915300Y-165494700D01*
X180072300Y-165494700D02*
X181102000Y-164465000D01*
X178177500Y-159385000D02*
X178177500Y-163753800D01*
X177800000Y-165610000D02*
X177800000Y-164131300D01*
X181102000Y-164465000D02*
X189547500Y-164465000D01*
X177915300Y-165494700D02*
X180072300Y-165494700D01*
X177800000Y-164131300D02*
X178177500Y-163753800D01*
G04 #@! TO.N,Net-(D51-A)*
X196850000Y-165610000D02*
X198880000Y-165610000D01*
X198880000Y-165610000D02*
X200025000Y-164465000D01*
X197227500Y-159385000D02*
X197227500Y-163804600D01*
X196850000Y-165610000D02*
X196850000Y-164182100D01*
X200025000Y-164465000D02*
X208597500Y-164465000D01*
X196850000Y-164182100D02*
X197227500Y-163804600D01*
G04 #@! TO.N,Net-(D52-A)*
X205054200Y-183515000D02*
X213360000Y-183515000D01*
X201930000Y-178495000D02*
X201990000Y-178435000D01*
X201930000Y-184660000D02*
X201930000Y-178495000D01*
X201990000Y-184600000D02*
X201930000Y-184660000D01*
X201930000Y-184660000D02*
X203909200Y-184660000D01*
X203909200Y-184660000D02*
X205054200Y-183515000D01*
G04 #@! TO.N,Net-(D53-A)*
X182940000Y-184600000D02*
X182880000Y-184660000D01*
X185138600Y-184660000D02*
X186283600Y-183515000D01*
X182940000Y-178435000D02*
X182940000Y-184346000D01*
X182940000Y-184346000D02*
X182499000Y-184787000D01*
X186283600Y-183515000D02*
X194310000Y-183515000D01*
X182880000Y-184660000D02*
X185138600Y-184660000D01*
G04 #@! TO.N,Net-(D54-A)*
X213485000Y-203710000D02*
X214630000Y-202565000D01*
X211515000Y-203650000D02*
X211455000Y-203710000D01*
X214630000Y-202565000D02*
X222885000Y-202565000D01*
X211455000Y-203710000D02*
X213485000Y-203710000D01*
X211515000Y-197485000D02*
X211515000Y-203650000D01*
G04 #@! TO.N,Net-(D55-A)*
X192405000Y-197545000D02*
X192465000Y-197485000D01*
X195834000Y-202565000D02*
X203835000Y-202565000D01*
X192405000Y-203710000D02*
X194689000Y-203710000D01*
X192465000Y-203650000D02*
X192405000Y-203710000D01*
X194689000Y-203710000D02*
X195834000Y-202565000D01*
X192405000Y-203710000D02*
X192405000Y-197545000D01*
G04 #@! TO.N,Net-(D56-A)*
X171309300Y-146470100D02*
X172364400Y-145415000D01*
X172364400Y-145415000D02*
X180022500Y-145415000D01*
X168275000Y-144852700D02*
X168652500Y-144475200D01*
X168364900Y-146470100D02*
X171309300Y-146470100D01*
X168275000Y-146560000D02*
X168275000Y-144852700D01*
X168275000Y-146560000D02*
X168364900Y-146470100D01*
X168652500Y-140335000D02*
X168652500Y-144475200D01*
G04 #@! TO.N,Net-(D57-A)*
X149602500Y-146309500D02*
X149225000Y-146687000D01*
X153390600Y-145415000D02*
X160972500Y-145415000D01*
X149602500Y-144399000D02*
X149602500Y-140335000D01*
X152245600Y-146560000D02*
X153390600Y-145415000D01*
X149225000Y-146560000D02*
X152245600Y-146560000D01*
X149225000Y-146560000D02*
X149225000Y-144776500D01*
X149225000Y-144776500D02*
X149602500Y-144399000D01*
G04 #@! TO.N,Net-(D58-A)*
X158750000Y-165610000D02*
X158750000Y-164156700D01*
X162331400Y-164465000D02*
X170497500Y-164465000D01*
X158750000Y-164156700D02*
X159127500Y-163779200D01*
X158750000Y-165610000D02*
X161186400Y-165610000D01*
X161186400Y-165610000D02*
X162331400Y-164465000D01*
X159127500Y-159385000D02*
X159127500Y-163779200D01*
G04 #@! TO.N,Net-(D59-A)*
X141984000Y-165610000D02*
X143129000Y-164465000D01*
X139700000Y-165610000D02*
X139700000Y-163877300D01*
X139700000Y-163877300D02*
X140077500Y-163499800D01*
X140077500Y-159385000D02*
X140077500Y-163499800D01*
X139700000Y-165610000D02*
X141984000Y-165610000D01*
X143129000Y-164465000D02*
X151447500Y-164465000D01*
G04 #@! TO.N,Net-(D60-A)*
X144840000Y-184219000D02*
X144526000Y-184533000D01*
X148310600Y-183515000D02*
X156210000Y-183515000D01*
X147165600Y-184660000D02*
X148310600Y-183515000D01*
X144840000Y-178435000D02*
X144840000Y-184219000D01*
X144780000Y-184660000D02*
X147165600Y-184660000D01*
X144840000Y-178587400D02*
X144780000Y-178647400D01*
X144840000Y-178435000D02*
X144840000Y-178587400D01*
G04 #@! TO.N,Net-(D61-A)*
X163830000Y-184660000D02*
X166088600Y-184660000D01*
X167233600Y-183515000D02*
X175260000Y-183515000D01*
X163830000Y-178749000D02*
X163830000Y-184660000D01*
X163890000Y-178435000D02*
X163890000Y-178689000D01*
X163890000Y-184219000D02*
X163449000Y-184660000D01*
X163890000Y-178689000D02*
X163830000Y-178749000D01*
X166088600Y-184660000D02*
X167233600Y-183515000D01*
G04 #@! TO.N,Net-(D62-A)*
X173415000Y-197485000D02*
X173415000Y-203650000D01*
X175131000Y-203710000D02*
X176276000Y-202565000D01*
X173355000Y-203710000D02*
X175131000Y-203710000D01*
X173415000Y-203650000D02*
X173355000Y-203710000D01*
X176276000Y-202565000D02*
X184785000Y-202565000D01*
G04 #@! TO.N,Net-(D63-A)*
X154305000Y-203710000D02*
X156766800Y-203710000D01*
X156766800Y-203710000D02*
X157911800Y-202565000D01*
X154365000Y-197561200D02*
X154305000Y-197621200D01*
X154365000Y-197485000D02*
X154365000Y-197561200D01*
X157911800Y-202565000D02*
X165735000Y-202565000D01*
X154305000Y-197621200D02*
X154305000Y-203710000D01*
G04 #@! TO.N,Net-(D64-A)*
X111502500Y-144554900D02*
X111125000Y-144932400D01*
X111125000Y-144932400D02*
X111125000Y-146560000D01*
X111502500Y-140335000D02*
X111502500Y-144554900D01*
X111125000Y-146560000D02*
X114120200Y-146560000D01*
X114120200Y-146560000D02*
X115265200Y-145415000D01*
X115265200Y-145415000D02*
X122872500Y-145415000D01*
G04 #@! TO.N,Net-(D65-A)*
X130175000Y-144979700D02*
X130552500Y-144602200D01*
X130552500Y-140335000D02*
X130552500Y-144602200D01*
X133271800Y-146560000D02*
X134416800Y-145415000D01*
X134416800Y-145415000D02*
X141922500Y-145415000D01*
X130175000Y-146560000D02*
X133271800Y-146560000D01*
X130552500Y-146309500D02*
X130429000Y-146433000D01*
X130175000Y-146560000D02*
X130175000Y-144979700D01*
G04 #@! TO.N,Net-(D66-A)*
X92075000Y-145055900D02*
X92452500Y-144678400D01*
X92075000Y-146560000D02*
X92075000Y-145055900D01*
X95044800Y-146560000D02*
X96189800Y-145415000D01*
X92075000Y-146560000D02*
X95044800Y-146560000D01*
X92452500Y-140335000D02*
X92452500Y-144678400D01*
X96189800Y-145415000D02*
X103822500Y-145415000D01*
G04 #@! TO.N,Net-(D67-A)*
X121027500Y-159385000D02*
X121027500Y-163499800D01*
X124383800Y-164465000D02*
X132397500Y-164465000D01*
X120650000Y-165610000D02*
X120650000Y-163877300D01*
X120650000Y-165610000D02*
X123238800Y-165610000D01*
X120650000Y-163877300D02*
X121027500Y-163499800D01*
X123238800Y-165610000D02*
X124383800Y-164465000D01*
G04 #@! TO.N,Net-(D68-A)*
X97155000Y-165610000D02*
X97155000Y-159445000D01*
X99702200Y-165550000D02*
X100787200Y-164465000D01*
X97155000Y-165610000D02*
X97215000Y-165550000D01*
X97155000Y-159445000D02*
X97215000Y-159385000D01*
X100787200Y-164465000D02*
X108585000Y-164465000D01*
X97215000Y-165550000D02*
X99702200Y-165550000D01*
G04 #@! TO.N,Net-(D69-A)*
X125790000Y-178435000D02*
X125790000Y-184600000D01*
X128955800Y-183515000D02*
X137160000Y-183515000D01*
X125790000Y-184600000D02*
X125730000Y-184660000D01*
X127810800Y-184660000D02*
X128955800Y-183515000D01*
X125730000Y-184660000D02*
X127810800Y-184660000D01*
G04 #@! TO.N,Net-(D70-A)*
X99149900Y-184570100D02*
X101738700Y-184570100D01*
X99060000Y-183187650D02*
X99596250Y-182651400D01*
X99596250Y-178435000D02*
X99596250Y-182651400D01*
X99060000Y-184660000D02*
X99149900Y-184570100D01*
X102793800Y-183515000D02*
X110966250Y-183515000D01*
X99060000Y-184660000D02*
X99060000Y-183187650D01*
X101738700Y-184570100D02*
X102793800Y-183515000D01*
G04 #@! TO.N,Net-(D71-A)*
X135315000Y-197485000D02*
X135315000Y-203650000D01*
X137666000Y-203710000D02*
X138811000Y-202565000D01*
X135315000Y-203650000D02*
X135255000Y-203710000D01*
X138811000Y-202565000D02*
X146685000Y-202565000D01*
X135255000Y-203710000D02*
X137666000Y-203710000D01*
G04 #@! TO.N,Net-(D73-A)*
X351790000Y-203710000D02*
X351790000Y-202148750D01*
X355371400Y-202565000D02*
X363378750Y-202565000D01*
X351790000Y-202148750D02*
X352008750Y-201930000D01*
X352008750Y-201930000D02*
X352008750Y-197485000D01*
X351790000Y-203710000D02*
X351892600Y-203607400D01*
X351892600Y-203607400D02*
X354329000Y-203607400D01*
X354329000Y-203607400D02*
X355371400Y-202565000D01*
G04 #@! TO.N,Net-(D79-A)*
X361338400Y-146560000D02*
X362483400Y-145415000D01*
X358775000Y-146560000D02*
X361338400Y-146560000D01*
X358775000Y-146560000D02*
X358775000Y-145132100D01*
X359152500Y-140335000D02*
X359152500Y-144754600D01*
X358775000Y-145132100D02*
X359152500Y-144754600D01*
X362483400Y-145415000D02*
X370522500Y-145415000D01*
G04 #@! TO.N,Net-(SW902-A)*
X311785000Y-224155000D02*
X317671066Y-224155000D01*
X317671066Y-224155000D02*
X320630900Y-221195166D01*
X320630900Y-221195166D02*
X320630900Y-214010900D01*
X320630900Y-214010900D02*
X320615000Y-213995000D01*
G04 #@! TD*
M02*
