M48
; DRILL file {KiCad 8.0.2} date 2025-03-09T11:26:30+0000
; FORMAT={-:-/ absolute / metric / decimal}
; #@! TF.CreationDate,2025-03-09T11:26:30+00:00
; #@! TF.GenerationSoftware,Kicad,Pcbnew,8.0.2
; #@! TF.FileFunction,NonPlated,1,2,NPTH
FMAT,2
METRIC
; #@! TA.AperFunction,NonPlated,NPTH,ComponentDrill
T1C1.702
; #@! TA.AperFunction,NonPlated,NPTH,ComponentDrill
T2C2.200
; #@! TA.AperFunction,NonPlated,NPTH,ComponentDrill
T3C3.000
; #@! TA.AperFunction,NonPlated,NPTH,ComponentDrill
T4C3.048
; #@! TA.AperFunction,NonPlated,NPTH,ComponentDrill
T5C3.200
; #@! TA.AperFunction,NonPlated,NPTH,ComponentDrill
T6C3.988
; #@! TA.AperFunction,NonPlated,NPTH,ComponentDrill
T7C4.300
%
G90
G05
T1
X94.932Y-142.875
X99.695Y-161.925
X102.076Y-180.975
X105.093Y-142.875
X106.839Y-200.025
X109.855Y-161.925
X112.236Y-180.975
X113.983Y-142.875
X116.999Y-200.025
X123.507Y-161.925
X124.142Y-142.875
X128.27Y-180.975
X133.032Y-142.875
X133.667Y-161.925
X137.795Y-200.025
X138.43Y-180.975
X142.558Y-161.925
X143.192Y-142.875
X147.32Y-180.975
X147.955Y-200.025
X152.082Y-142.875
X152.718Y-161.925
X156.845Y-200.025
X156.845Y-219.075
X157.48Y-180.975
X161.607Y-161.925
X162.243Y-142.875
X166.37Y-180.975
X167.005Y-200.025
X167.005Y-219.075
X171.132Y-142.875
X171.767Y-161.925
X175.895Y-200.025
X176.53Y-180.975
X180.657Y-161.925
X181.292Y-142.875
X185.42Y-180.975
X186.055Y-200.025
X190.183Y-142.875
X190.817Y-161.925
X194.945Y-200.025
X195.58Y-180.975
X199.707Y-161.925
X200.343Y-142.875
X204.47Y-180.975
X205.105Y-200.025
X209.232Y-142.875
X209.867Y-161.925
X213.995Y-200.025
X214.63Y-180.975
X218.757Y-161.925
X219.392Y-142.875
X223.52Y-180.975
X224.155Y-200.025
X228.282Y-142.875
X228.917Y-161.925
X233.045Y-200.025
X233.045Y-219.075
X233.68Y-180.975
X237.807Y-161.925
X238.442Y-142.875
X242.57Y-180.975
X243.205Y-200.025
X243.205Y-219.075
X247.332Y-142.875
X247.968Y-161.925
X252.095Y-200.025
X252.73Y-180.975
X256.858Y-161.925
X257.493Y-142.875
X261.62Y-180.975
X262.255Y-200.025
X266.382Y-142.875
X267.017Y-161.925
X271.145Y-200.025
X271.78Y-180.975
X275.907Y-161.925
X276.542Y-142.875
X280.67Y-180.975
X281.305Y-200.025
X285.433Y-142.875
X286.067Y-161.925
X290.195Y-200.025
X290.83Y-180.975
X294.957Y-161.925
X295.592Y-142.875
X299.72Y-180.975
X300.355Y-200.025
X304.482Y-142.875
X305.118Y-161.925
X309.245Y-200.025
X309.245Y-219.075
X309.88Y-180.975
X314.007Y-161.925
X314.642Y-142.875
X318.77Y-180.975
X319.405Y-200.025
X319.405Y-219.075
X323.532Y-142.875
X324.167Y-161.925
X328.295Y-200.025
X328.295Y-219.075
X328.93Y-180.975
X333.058Y-161.925
X333.692Y-142.875
X337.82Y-180.975
X338.455Y-200.025
X338.455Y-219.075
X342.582Y-142.875
X343.217Y-161.925
X347.98Y-180.975
X352.743Y-142.875
X354.489Y-200.025
X359.251Y-171.45
X361.632Y-142.875
X364.649Y-200.025
X369.411Y-171.45
X371.792Y-142.875
X409.257Y-119.062
X409.257Y-161.925
X409.257Y-180.975
X409.257Y-200.025
X409.257Y-219.075
X419.417Y-119.062
X419.417Y-161.925
X419.417Y-180.975
X419.417Y-200.025
X419.417Y-219.075
X428.308Y-100.012
X428.308Y-119.062
X428.308Y-138.112
X428.308Y-161.925
X428.308Y-180.975
X428.308Y-200.025
X428.308Y-219.075
X438.467Y-100.012
X438.467Y-119.062
X438.467Y-138.112
X438.467Y-161.925
X438.467Y-180.975
X438.467Y-200.025
X438.467Y-219.075
X447.357Y-119.062
X447.357Y-161.925
X447.357Y-180.975
X447.357Y-200.025
X447.357Y-219.075
X457.517Y-119.062
X457.517Y-161.925
X457.517Y-180.975
X457.517Y-200.025
X457.517Y-219.075
T2
X108.585Y-152.4
X132.715Y-209.55
X241.935Y-152.4
X256.54Y-209.55
X323.215Y-209.55
X356.235Y-152.4
X441.96Y-109.855
X441.96Y-152.4
X441.96Y-209.55
T3
X96.203Y-140.335
X100.965Y-159.385
X102.552Y-137.795
X103.346Y-178.435
X107.315Y-156.845
X108.109Y-197.485
X109.696Y-175.895
X114.459Y-194.945
X115.252Y-140.335
X121.602Y-137.795
X124.777Y-159.385
X129.54Y-178.435
X131.127Y-156.845
X134.302Y-140.335
X135.89Y-175.895
X139.065Y-197.485
X140.653Y-137.795
X143.827Y-159.385
X145.415Y-194.945
X148.59Y-178.435
X150.177Y-156.845
X153.352Y-140.335
X154.94Y-175.895
X158.115Y-197.485
X158.115Y-216.535
X159.702Y-137.795
X162.877Y-159.385
X164.465Y-194.945
X164.465Y-213.995
X167.64Y-178.435
X169.227Y-156.845
X172.403Y-140.335
X173.99Y-175.895
X177.165Y-197.485
X178.752Y-137.795
X181.927Y-159.385
X183.515Y-194.945
X186.69Y-178.435
X188.278Y-156.845
X191.452Y-140.335
X193.04Y-175.895
X196.215Y-197.485
X197.802Y-137.795
X200.977Y-159.385
X202.565Y-194.945
X205.74Y-178.435
X207.327Y-156.845
X210.502Y-140.335
X212.09Y-175.895
X215.265Y-197.485
X216.852Y-137.795
X220.028Y-159.385
X221.615Y-194.945
X224.79Y-178.435
X226.377Y-156.845
X229.552Y-140.335
X231.14Y-175.895
X234.315Y-197.485
X234.315Y-216.535
X235.903Y-137.795
X239.077Y-159.385
X240.665Y-194.945
X240.665Y-213.995
X243.84Y-178.435
X245.427Y-156.845
X248.602Y-140.335
X250.19Y-175.895
X253.365Y-197.485
X254.952Y-137.795
X258.127Y-159.385
X259.715Y-194.945
X262.89Y-178.435
X264.477Y-156.845
X267.652Y-140.335
X269.24Y-175.895
X272.415Y-197.485
X274.002Y-137.795
X277.178Y-159.385
X278.765Y-194.945
X281.94Y-178.435
X283.527Y-156.845
X286.702Y-140.335
X288.29Y-175.895
X291.465Y-197.485
X293.053Y-137.795
X296.227Y-159.385
X297.815Y-194.945
X300.99Y-178.435
X302.577Y-156.845
X305.752Y-140.335
X307.34Y-175.895
X310.515Y-197.485
X310.515Y-216.535
X312.102Y-137.795
X315.277Y-159.385
X316.865Y-194.945
X316.865Y-213.995
X320.04Y-178.435
X321.627Y-156.845
X324.803Y-140.335
X326.39Y-175.895
X329.565Y-197.485
X329.565Y-216.535
X331.152Y-137.795
X334.327Y-159.385
X335.915Y-194.945
X335.915Y-213.995
X339.09Y-178.435
X340.678Y-156.845
X343.852Y-140.335
X345.44Y-175.895
X350.202Y-137.795
X355.759Y-197.485
X360.521Y-168.91
X362.109Y-194.945
X362.902Y-140.335
X366.871Y-166.37
X369.252Y-137.795
X410.527Y-116.522
X410.527Y-159.385
X410.527Y-178.435
X410.527Y-197.485
X410.527Y-216.535
X416.877Y-113.983
X416.877Y-156.845
X416.877Y-175.895
X416.877Y-194.945
X416.877Y-213.995
X429.577Y-97.472
X429.577Y-116.522
X429.577Y-135.572
X429.577Y-159.385
X429.577Y-178.435
X429.577Y-197.485
X429.577Y-216.535
X435.927Y-94.932
X435.927Y-113.983
X435.927Y-133.032
X435.927Y-156.845
X435.927Y-175.895
X435.927Y-194.945
X435.927Y-213.995
X448.627Y-116.522
X448.627Y-159.385
X448.627Y-178.435
X448.627Y-197.485
X448.627Y-216.535
X454.977Y-113.983
X454.977Y-156.845
X454.977Y-175.895
X454.977Y-194.945
X454.977Y-213.995
T4
X100.019Y-193.04
X123.819Y-193.04
X180.975Y-212.09
X295.275Y-212.09
X357.346Y-159.55
X357.346Y-183.35
T5
X350.012Y-234.075
T6
X100.012Y-142.875
X100.019Y-208.28
X104.775Y-161.925
X107.156Y-180.975
X111.919Y-200.025
X119.062Y-142.875
X123.819Y-208.28
X128.588Y-161.925
X133.35Y-180.975
X138.112Y-142.875
X142.875Y-200.025
X147.637Y-161.925
X152.4Y-180.975
X157.162Y-142.875
X161.925Y-200.025
X161.925Y-219.075
X166.688Y-161.925
X171.45Y-180.975
X176.213Y-142.875
X180.975Y-200.025
X180.975Y-227.33
X185.737Y-161.925
X190.5Y-180.975
X195.262Y-142.875
X200.025Y-200.025
X204.787Y-161.925
X209.55Y-180.975
X214.312Y-142.875
X219.075Y-200.025
X223.837Y-161.925
X228.6Y-180.975
X233.362Y-142.875
X238.125Y-200.025
X238.125Y-219.075
X242.887Y-161.925
X247.65Y-180.975
X252.412Y-142.875
X257.175Y-200.025
X261.938Y-161.925
X266.7Y-180.975
X271.462Y-142.875
X276.225Y-200.025
X280.988Y-161.925
X285.75Y-180.975
X290.512Y-142.875
X295.275Y-200.025
X295.275Y-227.33
X300.037Y-161.925
X304.8Y-180.975
X309.562Y-142.875
X314.325Y-200.025
X314.325Y-219.075
X319.087Y-161.925
X323.85Y-180.975
X328.613Y-142.875
X333.375Y-200.025
X333.375Y-219.075
X338.137Y-161.925
X342.9Y-180.975
X347.662Y-142.875
X359.569Y-200.025
X364.331Y-171.45
X366.712Y-142.875
X372.586Y-159.55
X372.586Y-183.35
X414.337Y-119.062
X414.337Y-161.925
X414.337Y-180.975
X414.337Y-200.025
X414.337Y-219.075
X433.387Y-100.012
X433.387Y-119.062
X433.387Y-138.112
X433.387Y-161.925
X433.387Y-180.975
X433.387Y-200.025
X433.387Y-219.075
X452.438Y-119.062
X452.438Y-161.925
X452.438Y-180.975
X452.438Y-200.025
X452.438Y-219.075
T7
X280.012Y-118.075
T7
G00X84.513Y-118.075
M15
G01X85.513Y-118.075
M16
G05
G00X84.513Y-219.075
M15
G01X85.513Y-219.075
M16
G05
G00X469.512Y-118.075
M15
G01X470.512Y-118.075
M16
G05
G00X469.512Y-209.075
M15
G01X470.512Y-209.075
M16
G05
M30
