M48
; DRILL file {KiCad 8.0.2} date 2025-03-09T11:26:30+0000
; FORMAT={-:-/ absolute / metric / decimal}
; #@! TF.CreationDate,2025-03-09T11:26:30+00:00
; #@! TF.GenerationSoftware,Kicad,Pcbnew,8.0.2
; #@! TF.FileFunction,Plated,1,2,PTH
FMAT,2
METRIC
; #@! TA.AperFunction,Plated,PTH,ViaDrill
T1C0.400
; #@! TA.AperFunction,Plated,PTH,ComponentDrill
T2C1.000
; #@! TA.AperFunction,Plated,PTH,ComponentDrill
T3C1.499
%
G90
G05
T1
X86.365Y-186.563
X87.54Y-184.023
X90.244Y-181.432
X90.309Y-195.58
X91.034Y-186.055
X91.694Y-172.923
X92.583Y-191.11
X93.548Y-171.755
X94.564Y-170.967
X95.656Y-170.155
X97.46Y-153.797
X102.235Y-173.914
X119.177Y-149.878
X119.228Y-169.342
X124.409Y-187.96
X127.762Y-193.751
X132.69Y-150.876
X134.188Y-207.01
X137.668Y-168.961
X153.162Y-211.861
X155.283Y-227.038
X155.524Y-207.01
X157.099Y-150.343
X157.15Y-168.91
X157.759Y-208.966
X159.334Y-187.96
X162.636Y-191.264
X169.52Y-132.08
X169.697Y-229.699
X174.879Y-172.923
X176.225Y-174.02
X177.495Y-171.755
X179.451Y-168.478
X184.785Y-154.97
X186.131Y-149.835
X187.325Y-147.955
X187.63Y-170.967
X188.468Y-152.338
X189.865Y-133.985
X190.729Y-151.613
X193.624Y-207.01
X195.453Y-149.86
X195.453Y-168.91
X197.079Y-187.96
X230.53Y-208.204
X230.581Y-225.196
X233.528Y-149.86
X233.528Y-168.91
X235.636Y-187.96
X264.744Y-213.995
X267.208Y-207.366
X271.907Y-149.86
X271.907Y-168.91
X273.66Y-187.96
X280.34Y-129.134
X303.657Y-212.2
X305.384Y-207.01
X309.499Y-149.86
X309.55Y-168.91
X311.861Y-187.96
X325.755Y-224.866
X327.101Y-207.01
X331.368Y-168.986
X333.883Y-187.985
X338.709Y-150.622
X353.822Y-130.48
X356.083Y-132.08
X357.607Y-148.692
X407.645Y-226.035
X407.695Y-207.01
X424.078Y-126.39
X424.078Y-168.91
X424.205Y-207.01
X425.399Y-188.976
X425.475Y-108.509
X444.449Y-225.044
X444.5Y-127.584
X444.525Y-169.875
X444.551Y-188.976
X444.576Y-208.305
T2
X33.401Y-47.854
X33.401Y-50.394
X33.401Y-52.934
X33.401Y-55.474
X33.401Y-58.014
X33.401Y-60.554
X33.401Y-63.094
X33.401Y-65.634
X33.401Y-68.174
X33.401Y-70.714
X35.941Y-47.854
X35.941Y-50.394
X35.941Y-52.934
X35.941Y-55.474
X35.941Y-58.014
X35.941Y-60.554
X35.941Y-63.094
X35.941Y-65.634
X35.941Y-68.174
X35.941Y-70.714
X82.55Y-140.855
X82.55Y-143.395
X82.55Y-145.935
X82.55Y-148.475
X82.55Y-151.015
X82.55Y-153.555
X82.55Y-156.095
X82.55Y-158.635
X82.55Y-161.175
X82.55Y-163.715
X82.55Y-166.255
X82.55Y-168.795
X82.55Y-171.335
X82.55Y-173.875
X82.55Y-176.415
X82.55Y-178.955
X82.55Y-181.495
X82.55Y-184.035
X82.55Y-186.575
X86.365Y-146.215
X86.365Y-148.755
X86.365Y-151.295
X86.365Y-153.835
X86.365Y-156.375
X86.365Y-158.915
X86.365Y-161.455
X86.365Y-163.995
X86.365Y-166.535
X86.365Y-169.075
X88.905Y-146.215
X88.905Y-148.755
X88.905Y-151.295
X88.905Y-153.835
X88.905Y-156.375
X88.905Y-158.915
X88.905Y-161.455
X88.905Y-163.995
X88.905Y-166.535
X88.905Y-169.075
X97.79Y-122.555
X97.79Y-125.095
X105.41Y-120.015
X105.41Y-122.555
X105.41Y-125.095
X113.03Y-120.015
X113.03Y-122.555
X137.795Y-120.01
X137.795Y-122.55
X140.335Y-120.01
X140.335Y-122.55
X142.875Y-120.01
X142.875Y-122.55
X169.545Y-120.015
X169.545Y-122.555
X172.085Y-120.015
X172.085Y-122.555
X174.625Y-120.015
X174.625Y-122.555
X177.165Y-120.015
X177.165Y-122.555
X179.705Y-120.015
X179.705Y-122.555
X182.245Y-120.015
X182.245Y-122.555
X184.785Y-120.015
X184.785Y-122.555
X187.325Y-120.015
X187.325Y-122.555
X189.865Y-120.015
X189.865Y-122.555
X192.405Y-120.015
X192.405Y-122.555
T3
X97.472Y-147.955
X102.235Y-167.005
X103.822Y-145.415
X104.616Y-186.055
X108.585Y-164.465
X109.379Y-205.105
X110.966Y-183.515
X115.729Y-202.565
X116.522Y-147.955
X122.872Y-145.415
X126.047Y-167.005
X130.81Y-186.055
X132.398Y-164.465
X135.572Y-147.955
X137.16Y-183.515
X140.335Y-205.105
X141.922Y-145.415
X145.097Y-167.005
X146.685Y-202.565
X149.86Y-186.055
X151.447Y-164.465
X154.623Y-147.955
X156.21Y-183.515
X159.385Y-205.105
X159.385Y-224.155
X160.972Y-145.415
X164.147Y-167.005
X165.735Y-202.565
X165.735Y-221.615
X168.91Y-186.055
X170.498Y-164.465
X173.672Y-147.955
X175.26Y-183.515
X178.435Y-205.105
X180.022Y-145.415
X183.197Y-167.005
X184.785Y-202.565
X187.96Y-186.055
X189.547Y-164.465
X192.722Y-147.955
X194.31Y-183.515
X197.485Y-205.105
X199.072Y-145.415
X202.248Y-167.005
X203.835Y-202.565
X207.01Y-186.055
X208.597Y-164.465
X211.772Y-147.955
X213.36Y-183.515
X216.535Y-205.105
X218.123Y-145.415
X221.297Y-167.005
X222.885Y-202.565
X226.06Y-186.055
X227.647Y-164.465
X230.822Y-147.955
X232.41Y-183.515
X235.585Y-205.105
X235.585Y-224.155
X237.172Y-145.415
X240.347Y-167.005
X241.935Y-202.565
X241.935Y-221.615
X245.11Y-186.055
X246.697Y-164.465
X249.873Y-147.955
X251.46Y-183.515
X254.635Y-205.105
X256.222Y-145.415
X259.397Y-167.005
X260.985Y-202.565
X264.16Y-186.055
X265.748Y-164.465
X268.923Y-147.955
X270.51Y-183.515
X273.685Y-205.105
X275.272Y-145.415
X278.447Y-167.005
X280.035Y-202.565
X283.21Y-186.055
X284.798Y-164.465
X287.972Y-147.955
X289.56Y-183.515
X292.735Y-205.105
X294.322Y-145.415
X297.498Y-167.005
X299.085Y-202.565
X302.26Y-186.055
X303.847Y-164.465
X307.022Y-147.955
X308.61Y-183.515
X311.785Y-205.105
X311.785Y-224.155
X313.373Y-145.415
X316.548Y-167.005
X318.135Y-202.565
X318.135Y-221.615
X321.31Y-186.055
X322.897Y-164.465
X326.072Y-147.955
X327.66Y-183.515
X330.835Y-205.105
X330.835Y-224.155
X332.422Y-145.415
X335.597Y-167.005
X337.185Y-202.565
X337.185Y-221.615
X340.36Y-186.055
X341.947Y-164.465
X345.123Y-147.955
X346.71Y-183.515
X351.472Y-145.415
X357.029Y-205.105
X361.791Y-176.53
X363.379Y-202.565
X364.172Y-147.955
X368.141Y-173.99
X370.522Y-145.415
X411.797Y-124.142
X411.797Y-167.005
X411.797Y-186.055
X411.797Y-205.105
X411.797Y-224.155
X418.147Y-121.602
X418.147Y-164.465
X418.147Y-183.515
X418.147Y-202.565
X418.147Y-221.615
X430.847Y-105.093
X430.847Y-124.142
X430.847Y-143.192
X430.847Y-167.005
X430.847Y-186.055
X430.847Y-205.105
X430.847Y-224.155
X437.197Y-102.552
X437.197Y-121.602
X437.197Y-140.653
X437.197Y-164.465
X437.197Y-183.515
X437.197Y-202.565
X437.197Y-221.615
X449.897Y-124.142
X449.897Y-167.005
X449.897Y-186.055
X449.897Y-205.105
X449.897Y-224.155
X456.248Y-121.602
X456.248Y-164.465
X456.248Y-183.515
X456.248Y-202.565
X456.248Y-221.615
M30
