G04 #@! TF.GenerationSoftware,KiCad,Pcbnew,8.0.2*
G04 #@! TF.CreationDate,2025-03-09T11:26:09+00:00*
G04 #@! TF.ProjectId,Keyboard,4b657962-6f61-4726-942e-6b696361645f,rev?*
G04 #@! TF.SameCoordinates,Original*
G04 #@! TF.FileFunction,Paste,Bot*
G04 #@! TF.FilePolarity,Positive*
%FSLAX46Y46*%
G04 Gerber Fmt 4.6, Leading zero omitted, Abs format (unit mm)*
G04 Created by KiCad (PCBNEW 8.0.2) date 2025-03-09 11:26:09*
%MOMM*%
%LPD*%
G01*
G04 APERTURE LIST*
G04 Aperture macros list*
%AMRoundRect*
0 Rectangle with rounded corners*
0 $1 Rounding radius*
0 $2 $3 $4 $5 $6 $7 $8 $9 X,Y pos of 4 corners*
0 Add a 4 corners polygon primitive as box body*
4,1,4,$2,$3,$4,$5,$6,$7,$8,$9,$2,$3,0*
0 Add four circle primitives for the rounded corners*
1,1,$1+$1,$2,$3*
1,1,$1+$1,$4,$5*
1,1,$1+$1,$6,$7*
1,1,$1+$1,$8,$9*
0 Add four rect primitives between the rounded corners*
20,1,$1+$1,$2,$3,$4,$5,0*
20,1,$1+$1,$4,$5,$6,$7,0*
20,1,$1+$1,$6,$7,$8,$9,0*
20,1,$1+$1,$8,$9,$2,$3,0*%
G04 Aperture macros list end*
%ADD10R,2.550000X2.500000*%
%ADD11RoundRect,0.225000X0.375000X-0.225000X0.375000X0.225000X-0.375000X0.225000X-0.375000X-0.225000X0*%
G04 APERTURE END LIST*
D10*
G04 #@! TO.C,SW17*
X344427500Y-156845000D03*
X330577500Y-159385000D03*
G04 #@! TD*
G04 #@! TO.C,SW9*
X439677500Y-113982500D03*
X425827500Y-116522500D03*
G04 #@! TD*
G04 #@! TO.C,SW60*
X158690000Y-175895000D03*
X144840000Y-178435000D03*
G04 #@! TD*
G04 #@! TO.C,SW27*
X306327500Y-156845000D03*
X292477500Y-159385000D03*
G04 #@! TD*
G04 #@! TO.C,SW22*
X339665000Y-194945000D03*
X325815000Y-197485000D03*
G04 #@! TD*
G04 #@! TO.C,SW69*
X139640000Y-175895000D03*
X125790000Y-178435000D03*
G04 #@! TD*
G04 #@! TO.C,SW33*
X277752500Y-137795000D03*
X263902500Y-140335000D03*
G04 #@! TD*
G04 #@! TO.C,SW63*
X168215000Y-194945000D03*
X154365000Y-197485000D03*
G04 #@! TD*
G04 #@! TO.C,SW7*
X439677500Y-213995000D03*
X425827500Y-216535000D03*
G04 #@! TD*
G04 #@! TO.C,SW36*
X292040000Y-175895000D03*
X278190000Y-178435000D03*
G04 #@! TD*
G04 #@! TO.C,SW50*
X192027500Y-156845000D03*
X178177500Y-159385000D03*
G04 #@! TD*
G04 #@! TO.C,SW10*
X420627500Y-156845000D03*
X406777500Y-159385000D03*
G04 #@! TD*
G04 #@! TO.C,SW1*
X458727500Y-113982500D03*
X444877500Y-116522500D03*
G04 #@! TD*
G04 #@! TO.C,SW13*
X420627500Y-194945000D03*
X406777500Y-197485000D03*
G04 #@! TD*
G04 #@! TO.C,SW42*
X249177500Y-156845000D03*
X235327500Y-159385000D03*
G04 #@! TD*
G04 #@! TO.C,SW30*
X320615000Y-194945000D03*
X306765000Y-197485000D03*
G04 #@! TD*
G04 #@! TO.C,SW62*
X187265000Y-194945000D03*
X173415000Y-197485000D03*
G04 #@! TD*
G04 #@! TO.C,SW53*
X196790000Y-175895000D03*
X182940000Y-178435000D03*
G04 #@! TD*
G04 #@! TO.C,SW79*
X373002500Y-137795000D03*
X359152500Y-140335000D03*
G04 #@! TD*
G04 #@! TO.C,SW14*
X439677500Y-194945000D03*
X425827500Y-197485000D03*
G04 #@! TD*
G04 #@! TO.C,SW65*
X144402500Y-137795000D03*
X130552500Y-140335000D03*
G04 #@! TD*
G04 #@! TO.C,SW31*
X301565000Y-194945000D03*
X287715000Y-197485000D03*
G04 #@! TD*
G04 #@! TO.C,SW37*
X272990000Y-175895000D03*
X259140000Y-178435000D03*
G04 #@! TD*
G04 #@! TO.C,SW70*
X113446250Y-175895000D03*
X99596250Y-178435000D03*
G04 #@! TD*
G04 #@! TO.C,SW39*
X282515000Y-194945000D03*
X268665000Y-197485000D03*
G04 #@! TD*
G04 #@! TO.C,SW6*
X458727500Y-213995000D03*
X444877500Y-216535000D03*
G04 #@! TD*
G04 #@! TO.C,SW20*
X420627500Y-175895000D03*
X406777500Y-178435000D03*
G04 #@! TD*
G04 #@! TO.C,SW21*
X118208750Y-194945000D03*
X104358750Y-197485000D03*
G04 #@! TD*
G04 #@! TO.C,SW38*
X263465000Y-194945000D03*
X249615000Y-197485000D03*
G04 #@! TD*
G04 #@! TO.C,SW68*
X111065000Y-156845000D03*
X97215000Y-159385000D03*
G04 #@! TD*
G04 #@! TO.C,SW56*
X182502500Y-137795000D03*
X168652500Y-140335000D03*
G04 #@! TD*
G04 #@! TO.C,SW59*
X153927500Y-156845000D03*
X140077500Y-159385000D03*
G04 #@! TD*
G04 #@! TO.C,SW902*
X320615000Y-213995000D03*
X306765000Y-216535000D03*
G04 #@! TD*
G04 #@! TO.C,SW43*
X230127500Y-156845000D03*
X216277500Y-159385000D03*
G04 #@! TD*
G04 #@! TO.C,SW901*
X168215000Y-213995000D03*
X154365000Y-216535000D03*
G04 #@! TD*
G04 #@! TO.C,SW19*
X349190000Y-175895000D03*
X335340000Y-178435000D03*
G04 #@! TD*
G04 #@! TO.C,SW34*
X287277500Y-156845000D03*
X273427500Y-159385000D03*
G04 #@! TD*
G04 #@! TO.C,SW23*
X339665000Y-213995000D03*
X325815000Y-216535000D03*
G04 #@! TD*
G04 #@! TO.C,SW11*
X439677500Y-156845000D03*
X425827500Y-159385000D03*
G04 #@! TD*
G04 #@! TO.C,SW41*
X239652500Y-137795000D03*
X225802500Y-140335000D03*
G04 #@! TD*
G04 #@! TO.C,SW45*
X253940000Y-175895000D03*
X240090000Y-178435000D03*
G04 #@! TD*
G04 #@! TO.C,SW8*
X420627500Y-113982500D03*
X406777500Y-116522500D03*
G04 #@! TD*
G04 #@! TO.C,SW52*
X215840000Y-175895000D03*
X201990000Y-178435000D03*
G04 #@! TD*
G04 #@! TO.C,SW5*
X458727500Y-194945000D03*
X444877500Y-197485000D03*
G04 #@! TD*
G04 #@! TO.C,SW16*
X353952500Y-137795000D03*
X340102500Y-140335000D03*
G04 #@! TD*
G04 #@! TO.C,SW4*
X458727500Y-175895000D03*
X444877500Y-178435000D03*
G04 #@! TD*
G04 #@! TO.C,SW67*
X134877500Y-156845000D03*
X121027500Y-159385000D03*
G04 #@! TD*
G04 #@! TO.C,SW18*
X370621250Y-166370000D03*
X356771250Y-168910000D03*
G04 #@! TD*
G04 #@! TO.C,SW25*
X315852500Y-137795000D03*
X302002500Y-140335000D03*
G04 #@! TD*
G04 #@! TO.C,SW24*
X334902500Y-137795000D03*
X321052500Y-140335000D03*
G04 #@! TD*
G04 #@! TO.C,SW12*
X439677500Y-175895000D03*
X425827500Y-178435000D03*
G04 #@! TD*
G04 #@! TO.C,SW66*
X106302500Y-137795000D03*
X92452500Y-140335000D03*
G04 #@! TD*
G04 #@! TO.C,SW28*
X330140000Y-175895000D03*
X316290000Y-178435000D03*
G04 #@! TD*
G04 #@! TO.C,SW29*
X311090000Y-175895000D03*
X297240000Y-178435000D03*
G04 #@! TD*
G04 #@! TO.C,SW58*
X172977500Y-156845000D03*
X159127500Y-159385000D03*
G04 #@! TD*
G04 #@! TO.C,SW15*
X420627500Y-213995000D03*
X406777500Y-216535000D03*
G04 #@! TD*
G04 #@! TO.C,SW3*
X458727500Y-156845000D03*
X444877500Y-159385000D03*
G04 #@! TD*
G04 #@! TO.C,SW48*
X220602500Y-137795000D03*
X206752500Y-140335000D03*
G04 #@! TD*
G04 #@! TO.C,SW57*
X163452500Y-137795000D03*
X149602500Y-140335000D03*
G04 #@! TD*
G04 #@! TO.C,SW61*
X177740000Y-175895000D03*
X163890000Y-178435000D03*
G04 #@! TD*
G04 #@! TO.C,SW0*
X439677500Y-94932500D03*
X425827500Y-97472500D03*
G04 #@! TD*
G04 #@! TO.C,SW47*
X244415000Y-213995000D03*
X230565000Y-216535000D03*
G04 #@! TD*
G04 #@! TO.C,SW64*
X125352500Y-137795000D03*
X111502500Y-140335000D03*
G04 #@! TD*
G04 #@! TO.C,SW71*
X149165000Y-194945000D03*
X135315000Y-197485000D03*
G04 #@! TD*
G04 #@! TO.C,SW35*
X268227500Y-156845000D03*
X254377500Y-159385000D03*
G04 #@! TD*
G04 #@! TO.C,SW51*
X211077500Y-156845000D03*
X197227500Y-159385000D03*
G04 #@! TD*
G04 #@! TO.C,SW54*
X225365000Y-194945000D03*
X211515000Y-197485000D03*
G04 #@! TD*
G04 #@! TO.C,SW46*
X244415000Y-194945000D03*
X230565000Y-197485000D03*
G04 #@! TD*
G04 #@! TO.C,SW49*
X201552500Y-137795000D03*
X187702500Y-140335000D03*
G04 #@! TD*
G04 #@! TO.C,SW26*
X325377500Y-156845000D03*
X311527500Y-159385000D03*
G04 #@! TD*
G04 #@! TO.C,SW2*
X439677500Y-133032500D03*
X425827500Y-135572500D03*
G04 #@! TD*
G04 #@! TO.C,SW40*
X258702500Y-137795000D03*
X244852500Y-140335000D03*
G04 #@! TD*
G04 #@! TO.C,SW32*
X296802500Y-137795000D03*
X282952500Y-140335000D03*
G04 #@! TD*
G04 #@! TO.C,SW55*
X206315000Y-194945000D03*
X192465000Y-197485000D03*
G04 #@! TD*
G04 #@! TO.C,SW121*
X365858750Y-194945000D03*
X352008750Y-197485000D03*
G04 #@! TD*
G04 #@! TO.C,SW44*
X234890000Y-175895000D03*
X221040000Y-178435000D03*
G04 #@! TD*
D11*
G04 #@! TO.C,D68*
X97155000Y-168910000D03*
X97155000Y-165610000D03*
G04 #@! TD*
G04 #@! TO.C,D38*
X249555000Y-207010000D03*
X249555000Y-203710000D03*
G04 #@! TD*
G04 #@! TO.C,D59*
X139700000Y-168910000D03*
X139700000Y-165610000D03*
G04 #@! TD*
G04 #@! TO.C,D56*
X168275000Y-149860000D03*
X168275000Y-146560000D03*
G04 #@! TD*
G04 #@! TO.C,D28*
X316230000Y-187960000D03*
X316230000Y-184660000D03*
G04 #@! TD*
G04 #@! TO.C,D23*
X325755000Y-226060000D03*
X325755000Y-222760000D03*
G04 #@! TD*
G04 #@! TO.C,D37*
X259080000Y-187960000D03*
X259080000Y-184660000D03*
G04 #@! TD*
G04 #@! TO.C,D15*
X406400000Y-226060000D03*
X406400000Y-222760000D03*
G04 #@! TD*
G04 #@! TO.C,D35*
X254000000Y-168910000D03*
X254000000Y-165610000D03*
G04 #@! TD*
G04 #@! TO.C,D40*
X244475000Y-149860000D03*
X244475000Y-146560000D03*
G04 #@! TD*
G04 #@! TO.C,D14*
X425450000Y-207010000D03*
X425450000Y-203710000D03*
G04 #@! TD*
G04 #@! TO.C,D70*
X99060000Y-187960000D03*
X99060000Y-184660000D03*
G04 #@! TD*
G04 #@! TO.C,D27*
X292100000Y-168910000D03*
X292100000Y-165610000D03*
G04 #@! TD*
G04 #@! TO.C,D6*
X444500000Y-226060000D03*
X444500000Y-222760000D03*
G04 #@! TD*
G04 #@! TO.C,D55*
X192405000Y-207010000D03*
X192405000Y-203710000D03*
G04 #@! TD*
G04 #@! TO.C,D44*
X220980000Y-187960000D03*
X220980000Y-184660000D03*
G04 #@! TD*
G04 #@! TO.C,D48*
X206375000Y-149860000D03*
X206375000Y-146560000D03*
G04 #@! TD*
G04 #@! TO.C,D63*
X154305000Y-207010000D03*
X154305000Y-203710000D03*
G04 #@! TD*
G04 #@! TO.C,D30*
X306705000Y-207010000D03*
X306705000Y-203710000D03*
G04 #@! TD*
G04 #@! TO.C,D53*
X182880000Y-187960000D03*
X182880000Y-184660000D03*
G04 #@! TD*
G04 #@! TO.C,D4*
X444500000Y-187960000D03*
X444500000Y-184660000D03*
G04 #@! TD*
G04 #@! TO.C,D34*
X273050000Y-168910000D03*
X273050000Y-165610000D03*
G04 #@! TD*
G04 #@! TO.C,D33*
X263525000Y-149860000D03*
X263525000Y-146560000D03*
G04 #@! TD*
G04 #@! TO.C,D32*
X282575000Y-149860000D03*
X282575000Y-146560000D03*
G04 #@! TD*
G04 #@! TO.C,D11*
X425450000Y-168910000D03*
X425450000Y-165610000D03*
G04 #@! TD*
G04 #@! TO.C,D16*
X339725000Y-149860000D03*
X339725000Y-146560000D03*
G04 #@! TD*
G04 #@! TO.C,D21*
X104140000Y-207010000D03*
X104140000Y-203710000D03*
G04 #@! TD*
G04 #@! TO.C,D29*
X297180000Y-187960000D03*
X297180000Y-184660000D03*
G04 #@! TD*
G04 #@! TO.C,D1*
X444500000Y-126365000D03*
X444500000Y-123065000D03*
G04 #@! TD*
G04 #@! TO.C,D46*
X230505000Y-207010000D03*
X230505000Y-203710000D03*
G04 #@! TD*
G04 #@! TO.C,D74*
X306705000Y-226060000D03*
X306705000Y-222760000D03*
G04 #@! TD*
G04 #@! TO.C,D31*
X287655000Y-207010000D03*
X287655000Y-203710000D03*
G04 #@! TD*
G04 #@! TO.C,D22*
X325755000Y-207010000D03*
X325755000Y-203710000D03*
G04 #@! TD*
G04 #@! TO.C,D25*
X301625000Y-149860000D03*
X301625000Y-146560000D03*
G04 #@! TD*
G04 #@! TO.C,D41*
X225425000Y-149860000D03*
X225425000Y-146560000D03*
G04 #@! TD*
G04 #@! TO.C,D2*
X425450000Y-145415000D03*
X425450000Y-142115000D03*
G04 #@! TD*
G04 #@! TO.C,D58*
X158750000Y-168910000D03*
X158750000Y-165610000D03*
G04 #@! TD*
G04 #@! TO.C,D64*
X111125000Y-149860000D03*
X111125000Y-146560000D03*
G04 #@! TD*
G04 #@! TO.C,D19*
X335280000Y-187960000D03*
X335280000Y-184660000D03*
G04 #@! TD*
G04 #@! TO.C,D20*
X406400000Y-187960000D03*
X406400000Y-184660000D03*
G04 #@! TD*
G04 #@! TO.C,D45*
X240030000Y-187960000D03*
X240030000Y-184660000D03*
G04 #@! TD*
G04 #@! TO.C,D47*
X230505000Y-226060000D03*
X230505000Y-222760000D03*
G04 #@! TD*
G04 #@! TO.C,D10*
X406400000Y-168910000D03*
X406400000Y-165610000D03*
G04 #@! TD*
G04 #@! TO.C,D24*
X320675000Y-149860000D03*
X320675000Y-146560000D03*
G04 #@! TD*
G04 #@! TO.C,D7*
X425450000Y-226060000D03*
X425450000Y-222760000D03*
G04 #@! TD*
G04 #@! TO.C,D9*
X425450000Y-126365000D03*
X425450000Y-123065000D03*
G04 #@! TD*
G04 #@! TO.C,D51*
X196850000Y-168910000D03*
X196850000Y-165610000D03*
G04 #@! TD*
G04 #@! TO.C,D0*
X425450000Y-107315000D03*
X425450000Y-104015000D03*
G04 #@! TD*
G04 #@! TO.C,D71*
X135255000Y-207010000D03*
X135255000Y-203710000D03*
G04 #@! TD*
G04 #@! TO.C,D54*
X211455000Y-207010000D03*
X211455000Y-203710000D03*
G04 #@! TD*
G04 #@! TO.C,D13*
X406400000Y-207010000D03*
X406400000Y-203710000D03*
G04 #@! TD*
G04 #@! TO.C,D39*
X268605000Y-207010000D03*
X268605000Y-203710000D03*
G04 #@! TD*
G04 #@! TO.C,D43*
X215900000Y-168910000D03*
X215900000Y-165610000D03*
G04 #@! TD*
G04 #@! TO.C,D26*
X311150000Y-168910000D03*
X311150000Y-165610000D03*
G04 #@! TD*
G04 #@! TO.C,D75*
X154305000Y-226060000D03*
X154305000Y-222760000D03*
G04 #@! TD*
G04 #@! TO.C,D36*
X278130000Y-187960000D03*
X278130000Y-184660000D03*
G04 #@! TD*
G04 #@! TO.C,D79*
X358775000Y-149860000D03*
X358775000Y-146560000D03*
G04 #@! TD*
G04 #@! TO.C,D65*
X130175000Y-149860000D03*
X130175000Y-146560000D03*
G04 #@! TD*
G04 #@! TO.C,D42*
X234950000Y-168910000D03*
X234950000Y-165610000D03*
G04 #@! TD*
G04 #@! TO.C,D66*
X92075000Y-149860000D03*
X92075000Y-146560000D03*
G04 #@! TD*
G04 #@! TO.C,D3*
X444500000Y-168910000D03*
X444500000Y-165610000D03*
G04 #@! TD*
G04 #@! TO.C,D69*
X125730000Y-187960000D03*
X125730000Y-184660000D03*
G04 #@! TD*
G04 #@! TO.C,D50*
X177800000Y-168910000D03*
X177800000Y-165610000D03*
G04 #@! TD*
G04 #@! TO.C,D18*
X356870000Y-178435000D03*
X356870000Y-175135000D03*
G04 #@! TD*
G04 #@! TO.C,D52*
X201930000Y-187960000D03*
X201930000Y-184660000D03*
G04 #@! TD*
G04 #@! TO.C,D61*
X163830000Y-187960000D03*
X163830000Y-184660000D03*
G04 #@! TD*
G04 #@! TO.C,D49*
X187325000Y-149860000D03*
X187325000Y-146560000D03*
G04 #@! TD*
G04 #@! TO.C,D60*
X144780000Y-187960000D03*
X144780000Y-184660000D03*
G04 #@! TD*
G04 #@! TO.C,D5*
X444500000Y-207010000D03*
X444500000Y-203710000D03*
G04 #@! TD*
G04 #@! TO.C,D67*
X120650000Y-168910000D03*
X120650000Y-165610000D03*
G04 #@! TD*
G04 #@! TO.C,D57*
X149225000Y-149860000D03*
X149225000Y-146560000D03*
G04 #@! TD*
G04 #@! TO.C,D12*
X425450000Y-187960000D03*
X425450000Y-184660000D03*
G04 #@! TD*
G04 #@! TO.C,D17*
X330200000Y-168910000D03*
X330200000Y-165610000D03*
G04 #@! TD*
G04 #@! TO.C,D73*
X351790000Y-207010000D03*
X351790000Y-203710000D03*
G04 #@! TD*
G04 #@! TO.C,D8*
X406400000Y-126365000D03*
X406400000Y-123065000D03*
G04 #@! TD*
G04 #@! TO.C,D62*
X173355000Y-207010000D03*
X173355000Y-203710000D03*
G04 #@! TD*
M02*
