G04 #@! TF.GenerationSoftware,KiCad,Pcbnew,8.0.2*
G04 #@! TF.CreationDate,2025-03-09T11:26:09+00:00*
G04 #@! TF.ProjectId,Keyboard,4b657962-6f61-4726-942e-6b696361645f,rev?*
G04 #@! TF.SameCoordinates,Original*
G04 #@! TF.FileFunction,Copper,L1,Top*
G04 #@! TF.FilePolarity,Positive*
%FSLAX46Y46*%
G04 Gerber Fmt 4.6, Leading zero omitted, Abs format (unit mm)*
G04 Created by KiCad (PCBNEW 8.0.2) date 2025-03-09 11:26:09*
%MOMM*%
%LPD*%
G01*
G04 APERTURE LIST*
G04 Aperture macros list*
%AMRoundRect*
0 Rectangle with rounded corners*
0 $1 Rounding radius*
0 $2 $3 $4 $5 $6 $7 $8 $9 X,Y pos of 4 corners*
0 Add a 4 corners polygon primitive as box body*
4,1,4,$2,$3,$4,$5,$6,$7,$8,$9,$2,$3,0*
0 Add four circle primitives for the rounded corners*
1,1,$1+$1,$2,$3*
1,1,$1+$1,$4,$5*
1,1,$1+$1,$6,$7*
1,1,$1+$1,$8,$9*
0 Add four rect primitives between the rounded corners*
20,1,$1+$1,$2,$3,$4,$5,0*
20,1,$1+$1,$4,$5,$6,$7,0*
20,1,$1+$1,$6,$7,$8,$9,0*
20,1,$1+$1,$8,$9,$2,$3,0*%
G04 Aperture macros list end*
G04 #@! TA.AperFunction,ComponentPad*
%ADD10RoundRect,0.250000X0.600000X-0.600000X0.600000X0.600000X-0.600000X0.600000X-0.600000X-0.600000X0*%
G04 #@! TD*
G04 #@! TA.AperFunction,ComponentPad*
%ADD11C,1.700000*%
G04 #@! TD*
G04 #@! TA.AperFunction,ComponentPad*
%ADD12RoundRect,0.250000X0.600000X0.600000X-0.600000X0.600000X-0.600000X-0.600000X0.600000X-0.600000X0*%
G04 #@! TD*
G04 #@! TA.AperFunction,ComponentPad*
%ADD13C,2.286000*%
G04 #@! TD*
G04 #@! TA.AperFunction,ComponentPad*
%ADD14R,1.700000X1.700000*%
G04 #@! TD*
G04 #@! TA.AperFunction,ComponentPad*
%ADD15O,1.700000X1.700000*%
G04 #@! TD*
G04 #@! TA.AperFunction,ViaPad*
%ADD16C,0.800000*%
G04 #@! TD*
G04 #@! TA.AperFunction,Conductor*
%ADD17C,0.250000*%
G04 #@! TD*
G04 APERTURE END LIST*
D10*
G04 #@! TO.P,J2,1,Pin_1*
G04 #@! TO.N,unconnected-(J2-Pin_1-Pad1)*
X169545000Y-122555000D03*
D11*
G04 #@! TO.P,J2,2,Pin_2*
G04 #@! TO.N,Y1*
X169545000Y-120015000D03*
G04 #@! TO.P,J2,3,Pin_3*
G04 #@! TO.N,X9*
X172085000Y-122555000D03*
G04 #@! TO.P,J2,4,Pin_4*
G04 #@! TO.N,Y2*
X172085000Y-120015000D03*
G04 #@! TO.P,J2,5,Pin_5*
G04 #@! TO.N,X7*
X174625000Y-122555000D03*
G04 #@! TO.P,J2,6,Pin_6*
G04 #@! TO.N,Y3*
X174625000Y-120015000D03*
G04 #@! TO.P,J2,7,Pin_7*
G04 #@! TO.N,X6*
X177165000Y-122555000D03*
G04 #@! TO.P,J2,8,Pin_8*
G04 #@! TO.N,Y4*
X177165000Y-120015000D03*
G04 #@! TO.P,J2,9,Pin_9*
G04 #@! TO.N,X5*
X179705000Y-122555000D03*
G04 #@! TO.P,J2,10,Pin_10*
G04 #@! TO.N,Y5*
X179705000Y-120015000D03*
G04 #@! TO.P,J2,11,Pin_11*
G04 #@! TO.N,X4*
X182245000Y-122555000D03*
G04 #@! TO.P,J2,12,Pin_12*
G04 #@! TO.N,Y6*
X182245000Y-120015000D03*
G04 #@! TO.P,J2,13,Pin_13*
G04 #@! TO.N,X3*
X184785000Y-122555000D03*
G04 #@! TO.P,J2,14,Pin_14*
G04 #@! TO.N,Y7*
X184785000Y-120015000D03*
G04 #@! TO.P,J2,15,Pin_15*
G04 #@! TO.N,X2*
X187325000Y-122555000D03*
G04 #@! TO.P,J2,16,Pin_16*
G04 #@! TO.N,Y8*
X187325000Y-120015000D03*
G04 #@! TO.P,J2,17,Pin_17*
G04 #@! TO.N,X1*
X189865000Y-122555000D03*
G04 #@! TO.P,J2,18,Pin_18*
G04 #@! TO.N,Y9*
X189865000Y-120015000D03*
G04 #@! TO.P,J2,19,Pin_19*
G04 #@! TO.N,unconnected-(J2-Pin_19-Pad19)*
X192405000Y-122555000D03*
G04 #@! TO.P,J2,20,Pin_20*
G04 #@! TO.N,Net-(J1-Pin_2)*
X192405000Y-120015000D03*
G04 #@! TD*
D12*
G04 #@! TO.P,J4,1,Pin_1*
G04 #@! TO.N,Y3*
X35941000Y-70713600D03*
D11*
G04 #@! TO.P,J4,2,Pin_2*
G04 #@! TO.N,Y4*
X33401000Y-70713600D03*
G04 #@! TO.P,J4,3,Pin_3*
G04 #@! TO.N,Y5*
X35941000Y-68173600D03*
G04 #@! TO.P,J4,4,Pin_4*
G04 #@! TO.N,Y6*
X33401000Y-68173600D03*
G04 #@! TO.P,J4,5,Pin_5*
G04 #@! TO.N,Y7*
X35941000Y-65633600D03*
G04 #@! TO.P,J4,6,Pin_6*
G04 #@! TO.N,Y8*
X33401000Y-65633600D03*
G04 #@! TO.P,J4,7,Pin_7*
G04 #@! TO.N,Y9*
X35941000Y-63093600D03*
G04 #@! TO.P,J4,8,Pin_8*
G04 #@! TO.N,X7*
X33401000Y-63093600D03*
G04 #@! TO.P,J4,9,Pin_9*
G04 #@! TO.N,X6*
X35941000Y-60553600D03*
G04 #@! TO.P,J4,10,Pin_10*
G04 #@! TO.N,X5*
X33401000Y-60553600D03*
G04 #@! TO.P,J4,11,Pin_11*
G04 #@! TO.N,X4*
X35941000Y-58013600D03*
G04 #@! TO.P,J4,12,Pin_12*
G04 #@! TO.N,X3*
X33401000Y-58013600D03*
G04 #@! TO.P,J4,13,Pin_13*
G04 #@! TO.N,X2*
X35941000Y-55473600D03*
G04 #@! TO.P,J4,14,Pin_14*
G04 #@! TO.N,X1*
X33401000Y-55473600D03*
G04 #@! TO.P,J4,15,Pin_15*
G04 #@! TO.N,Y10*
X35941000Y-52933600D03*
G04 #@! TO.P,J4,16,Pin_16*
G04 #@! TO.N,X9*
X33401000Y-52933600D03*
G04 #@! TO.P,J4,17,Pin_17*
G04 #@! TO.N,Y2*
X35941000Y-50393600D03*
G04 #@! TO.P,J4,18,Pin_18*
G04 #@! TO.N,Y1*
X33401000Y-50393600D03*
G04 #@! TO.P,J4,19,Pin_19*
G04 #@! TO.N,X8*
X35941000Y-47853600D03*
G04 #@! TO.P,J4,20,Pin_20*
G04 #@! TO.N,unconnected-(J4-Pin_20-Pad20)*
X33401000Y-47853600D03*
G04 #@! TD*
D13*
G04 #@! TO.P,SW17,1,A*
G04 #@! TO.N,X2*
X335597500Y-167005000D03*
G04 #@! TO.P,SW17,2,B*
G04 #@! TO.N,Net-(D17-A)*
X341947500Y-164465000D03*
G04 #@! TD*
G04 #@! TO.P,SW9,1,A*
G04 #@! TO.N,X2*
X430847500Y-124142500D03*
G04 #@! TO.P,SW9,2,B*
G04 #@! TO.N,Net-(D9-A)*
X437197500Y-121602500D03*
G04 #@! TD*
G04 #@! TO.P,SW60,1,A*
G04 #@! TO.N,X5*
X149860000Y-186055000D03*
G04 #@! TO.P,SW60,2,B*
G04 #@! TO.N,Net-(D60-A)*
X156210000Y-183515000D03*
G04 #@! TD*
G04 #@! TO.P,SW27,1,A*
G04 #@! TO.N,X4*
X297497500Y-167005000D03*
G04 #@! TO.P,SW27,2,B*
G04 #@! TO.N,Net-(D27-A)*
X303847500Y-164465000D03*
G04 #@! TD*
G04 #@! TO.P,SW22,1,A*
G04 #@! TO.N,X7*
X330835000Y-205105000D03*
G04 #@! TO.P,SW22,2,B*
G04 #@! TO.N,Net-(D22-A)*
X337185000Y-202565000D03*
G04 #@! TD*
G04 #@! TO.P,SW69,1,A*
G04 #@! TO.N,X6*
X130810000Y-186055000D03*
G04 #@! TO.P,SW69,2,B*
G04 #@! TO.N,Net-(D69-A)*
X137160000Y-183515000D03*
G04 #@! TD*
G04 #@! TO.P,SW33,1,A*
G04 #@! TO.N,X2*
X268922500Y-147955000D03*
G04 #@! TO.P,SW33,2,B*
G04 #@! TO.N,Net-(D33-A)*
X275272500Y-145415000D03*
G04 #@! TD*
G04 #@! TO.P,SW63,1,A*
G04 #@! TO.N,X8*
X159385000Y-205105000D03*
G04 #@! TO.P,SW63,2,B*
G04 #@! TO.N,Net-(D63-A)*
X165735000Y-202565000D03*
G04 #@! TD*
G04 #@! TO.P,SW7,1,A*
G04 #@! TO.N,X8*
X430847500Y-224155000D03*
G04 #@! TO.P,SW7,2,B*
G04 #@! TO.N,Net-(D7-A)*
X437197500Y-221615000D03*
G04 #@! TD*
G04 #@! TO.P,SW36,1,A*
G04 #@! TO.N,X5*
X283210000Y-186055000D03*
G04 #@! TO.P,SW36,2,B*
G04 #@! TO.N,Net-(D36-A)*
X289560000Y-183515000D03*
G04 #@! TD*
G04 #@! TO.P,SW50,1,A*
G04 #@! TO.N,X3*
X183197500Y-167005000D03*
G04 #@! TO.P,SW50,2,B*
G04 #@! TO.N,Net-(D50-A)*
X189547500Y-164465000D03*
G04 #@! TD*
G04 #@! TO.P,SW10,1,A*
G04 #@! TO.N,X3*
X411797500Y-167005000D03*
G04 #@! TO.P,SW10,2,B*
G04 #@! TO.N,Net-(D10-A)*
X418147500Y-164465000D03*
G04 #@! TD*
G04 #@! TO.P,SW1,1,A*
G04 #@! TO.N,X2*
X449897500Y-124142500D03*
G04 #@! TO.P,SW1,2,B*
G04 #@! TO.N,Net-(D1-A)*
X456247500Y-121602500D03*
G04 #@! TD*
G04 #@! TO.P,SW13,1,A*
G04 #@! TO.N,X6*
X411797500Y-205105000D03*
G04 #@! TO.P,SW13,2,B*
G04 #@! TO.N,Net-(D13-A)*
X418147500Y-202565000D03*
G04 #@! TD*
G04 #@! TO.P,SW42,1,A*
G04 #@! TO.N,X3*
X240347500Y-167005000D03*
G04 #@! TO.P,SW42,2,B*
G04 #@! TO.N,Net-(D42-A)*
X246697500Y-164465000D03*
G04 #@! TD*
G04 #@! TO.P,SW30,1,A*
G04 #@! TO.N,X7*
X311785000Y-205105000D03*
G04 #@! TO.P,SW30,2,B*
G04 #@! TO.N,Net-(D30-A)*
X318135000Y-202565000D03*
G04 #@! TD*
G04 #@! TO.P,SW62,1,A*
G04 #@! TO.N,X7*
X178435000Y-205105000D03*
G04 #@! TO.P,SW62,2,B*
G04 #@! TO.N,Net-(D62-A)*
X184785000Y-202565000D03*
G04 #@! TD*
G04 #@! TO.P,SW53,1,A*
G04 #@! TO.N,X6*
X187960000Y-186055000D03*
G04 #@! TO.P,SW53,2,B*
G04 #@! TO.N,Net-(D53-A)*
X194310000Y-183515000D03*
G04 #@! TD*
G04 #@! TO.P,SW79,1,A*
G04 #@! TO.N,X9*
X364172500Y-147955000D03*
G04 #@! TO.P,SW79,2,B*
G04 #@! TO.N,Net-(D79-A)*
X370522500Y-145415000D03*
G04 #@! TD*
G04 #@! TO.P,SW14,1,A*
G04 #@! TO.N,X7*
X430847500Y-205105000D03*
G04 #@! TO.P,SW14,2,B*
G04 #@! TO.N,Net-(D14-A)*
X437197500Y-202565000D03*
G04 #@! TD*
G04 #@! TO.P,SW65,1,A*
G04 #@! TO.N,X2*
X135572500Y-147955000D03*
G04 #@! TO.P,SW65,2,B*
G04 #@! TO.N,Net-(D65-A)*
X141922500Y-145415000D03*
G04 #@! TD*
G04 #@! TO.P,SW31,1,A*
G04 #@! TO.N,X8*
X292735000Y-205105000D03*
G04 #@! TO.P,SW31,2,B*
G04 #@! TO.N,Net-(D31-A)*
X299085000Y-202565000D03*
G04 #@! TD*
G04 #@! TO.P,SW37,1,A*
G04 #@! TO.N,X6*
X264160000Y-186055000D03*
G04 #@! TO.P,SW37,2,B*
G04 #@! TO.N,Net-(D37-A)*
X270510000Y-183515000D03*
G04 #@! TD*
G04 #@! TO.P,SW70,1,A*
G04 #@! TO.N,X7*
X104616250Y-186055000D03*
G04 #@! TO.P,SW70,2,B*
G04 #@! TO.N,Net-(D70-A)*
X110966250Y-183515000D03*
G04 #@! TD*
G04 #@! TO.P,SW39,1,A*
G04 #@! TO.N,X8*
X273685000Y-205105000D03*
G04 #@! TO.P,SW39,2,B*
G04 #@! TO.N,Net-(D39-A)*
X280035000Y-202565000D03*
G04 #@! TD*
G04 #@! TO.P,SW6,1,A*
G04 #@! TO.N,X7*
X449897500Y-224155000D03*
G04 #@! TO.P,SW6,2,B*
G04 #@! TO.N,Net-(D6-A)*
X456247500Y-221615000D03*
G04 #@! TD*
G04 #@! TO.P,SW20,1,A*
G04 #@! TO.N,X5*
X411797500Y-186055000D03*
G04 #@! TO.P,SW20,2,B*
G04 #@! TO.N,Net-(D20-A)*
X418147500Y-183515000D03*
G04 #@! TD*
G04 #@! TO.P,SW21,1,A*
G04 #@! TO.N,X6*
X109378750Y-205105000D03*
G04 #@! TO.P,SW21,2,B*
G04 #@! TO.N,Net-(D21-A)*
X115728750Y-202565000D03*
G04 #@! TD*
G04 #@! TO.P,SW38,1,A*
G04 #@! TO.N,X7*
X254635000Y-205105000D03*
G04 #@! TO.P,SW38,2,B*
G04 #@! TO.N,Net-(D38-A)*
X260985000Y-202565000D03*
G04 #@! TD*
G04 #@! TO.P,SW68,1,A*
G04 #@! TO.N,X5*
X102235000Y-167005000D03*
G04 #@! TO.P,SW68,2,B*
G04 #@! TO.N,Net-(D68-A)*
X108585000Y-164465000D03*
G04 #@! TD*
G04 #@! TO.P,SW56,1,A*
G04 #@! TO.N,X1*
X173672500Y-147955000D03*
G04 #@! TO.P,SW56,2,B*
G04 #@! TO.N,Net-(D56-A)*
X180022500Y-145415000D03*
G04 #@! TD*
G04 #@! TO.P,SW59,1,A*
G04 #@! TO.N,X4*
X145097500Y-167005000D03*
G04 #@! TO.P,SW59,2,B*
G04 #@! TO.N,Net-(D59-A)*
X151447500Y-164465000D03*
G04 #@! TD*
G04 #@! TO.P,SW902,1,A*
G04 #@! TO.N,Net-(SW902-A)*
X311785000Y-224155000D03*
G04 #@! TO.P,SW902,2,B*
G04 #@! TO.N,Net-(D74-A)*
X318135000Y-221615000D03*
G04 #@! TD*
G04 #@! TO.P,SW43,1,A*
G04 #@! TO.N,X4*
X221297500Y-167005000D03*
G04 #@! TO.P,SW43,2,B*
G04 #@! TO.N,Net-(D43-A)*
X227647500Y-164465000D03*
G04 #@! TD*
G04 #@! TO.P,SW901,1,A*
G04 #@! TO.N,Net-(SW901-A)*
X159385000Y-224155000D03*
G04 #@! TO.P,SW901,2,B*
G04 #@! TO.N,Net-(D75-A)*
X165735000Y-221615000D03*
G04 #@! TD*
G04 #@! TO.P,SW19,1,A*
G04 #@! TO.N,X4*
X340360000Y-186055000D03*
G04 #@! TO.P,SW19,2,B*
G04 #@! TO.N,Net-(D19-A)*
X346710000Y-183515000D03*
G04 #@! TD*
G04 #@! TO.P,SW34,1,A*
G04 #@! TO.N,X3*
X278447500Y-167005000D03*
G04 #@! TO.P,SW34,2,B*
G04 #@! TO.N,Net-(D34-A)*
X284797500Y-164465000D03*
G04 #@! TD*
G04 #@! TO.P,SW23,1,A*
G04 #@! TO.N,X8*
X330835000Y-224155000D03*
G04 #@! TO.P,SW23,2,B*
G04 #@! TO.N,Net-(D23-A)*
X337185000Y-221615000D03*
G04 #@! TD*
G04 #@! TO.P,SW11,1,A*
G04 #@! TO.N,X4*
X430847500Y-167005000D03*
G04 #@! TO.P,SW11,2,B*
G04 #@! TO.N,Net-(D11-A)*
X437197500Y-164465000D03*
G04 #@! TD*
G04 #@! TO.P,SW41,1,A*
G04 #@! TO.N,X2*
X230822500Y-147955000D03*
G04 #@! TO.P,SW41,2,B*
G04 #@! TO.N,Net-(D41-A)*
X237172500Y-145415000D03*
G04 #@! TD*
G04 #@! TO.P,SW45,1,A*
G04 #@! TO.N,X6*
X245110000Y-186055000D03*
G04 #@! TO.P,SW45,2,B*
G04 #@! TO.N,Net-(D45-A)*
X251460000Y-183515000D03*
G04 #@! TD*
G04 #@! TO.P,SW8,1,A*
G04 #@! TO.N,X1*
X411797500Y-124142500D03*
G04 #@! TO.P,SW8,2,B*
G04 #@! TO.N,Net-(D8-A)*
X418147500Y-121602500D03*
G04 #@! TD*
G04 #@! TO.P,SW52,1,A*
G04 #@! TO.N,X5*
X207010000Y-186055000D03*
G04 #@! TO.P,SW52,2,B*
G04 #@! TO.N,Net-(D52-A)*
X213360000Y-183515000D03*
G04 #@! TD*
G04 #@! TO.P,SW5,1,A*
G04 #@! TO.N,X6*
X449897500Y-205105000D03*
G04 #@! TO.P,SW5,2,B*
G04 #@! TO.N,Net-(D5-A)*
X456247500Y-202565000D03*
G04 #@! TD*
G04 #@! TO.P,SW16,1,A*
G04 #@! TO.N,X1*
X345122500Y-147955000D03*
G04 #@! TO.P,SW16,2,B*
G04 #@! TO.N,Net-(D16-A)*
X351472500Y-145415000D03*
G04 #@! TD*
G04 #@! TO.P,SW4,1,A*
G04 #@! TO.N,X5*
X449897500Y-186055000D03*
G04 #@! TO.P,SW4,2,B*
G04 #@! TO.N,Net-(D4-A)*
X456247500Y-183515000D03*
G04 #@! TD*
G04 #@! TO.P,SW67,1,A*
G04 #@! TO.N,X4*
X126047500Y-167005000D03*
G04 #@! TO.P,SW67,2,B*
G04 #@! TO.N,Net-(D67-A)*
X132397500Y-164465000D03*
G04 #@! TD*
G04 #@! TO.P,SW18,1,A*
G04 #@! TO.N,X3*
X361791250Y-176530000D03*
G04 #@! TO.P,SW18,2,B*
G04 #@! TO.N,Net-(D18-A)*
X368141250Y-173990000D03*
G04 #@! TD*
G04 #@! TO.P,SW25,1,A*
G04 #@! TO.N,X2*
X307022500Y-147955000D03*
G04 #@! TO.P,SW25,2,B*
G04 #@! TO.N,Net-(D25-A)*
X313372500Y-145415000D03*
G04 #@! TD*
G04 #@! TO.P,SW24,1,A*
G04 #@! TO.N,X1*
X326072500Y-147955000D03*
G04 #@! TO.P,SW24,2,B*
G04 #@! TO.N,Net-(D24-A)*
X332422500Y-145415000D03*
G04 #@! TD*
G04 #@! TO.P,SW12,1,A*
G04 #@! TO.N,X5*
X430847500Y-186055000D03*
G04 #@! TO.P,SW12,2,B*
G04 #@! TO.N,Net-(D12-A)*
X437197500Y-183515000D03*
G04 #@! TD*
G04 #@! TO.P,SW66,1,A*
G04 #@! TO.N,X3*
X97472500Y-147955000D03*
G04 #@! TO.P,SW66,2,B*
G04 #@! TO.N,Net-(D66-A)*
X103822500Y-145415000D03*
G04 #@! TD*
G04 #@! TO.P,SW28,1,A*
G04 #@! TO.N,X5*
X321310000Y-186055000D03*
G04 #@! TO.P,SW28,2,B*
G04 #@! TO.N,Net-(D28-A)*
X327660000Y-183515000D03*
G04 #@! TD*
G04 #@! TO.P,SW29,1,A*
G04 #@! TO.N,X6*
X302260000Y-186055000D03*
G04 #@! TO.P,SW29,2,B*
G04 #@! TO.N,Net-(D29-A)*
X308610000Y-183515000D03*
G04 #@! TD*
G04 #@! TO.P,SW58,1,A*
G04 #@! TO.N,X3*
X164147500Y-167005000D03*
G04 #@! TO.P,SW58,2,B*
G04 #@! TO.N,Net-(D58-A)*
X170497500Y-164465000D03*
G04 #@! TD*
G04 #@! TO.P,SW15,1,A*
G04 #@! TO.N,X8*
X411797500Y-224155000D03*
G04 #@! TO.P,SW15,2,B*
G04 #@! TO.N,Net-(D15-A)*
X418147500Y-221615000D03*
G04 #@! TD*
G04 #@! TO.P,SW3,1,A*
G04 #@! TO.N,X4*
X449897500Y-167005000D03*
G04 #@! TO.P,SW3,2,B*
G04 #@! TO.N,Net-(D3-A)*
X456247500Y-164465000D03*
G04 #@! TD*
G04 #@! TO.P,SW48,1,A*
G04 #@! TO.N,X1*
X211772500Y-147955000D03*
G04 #@! TO.P,SW48,2,B*
G04 #@! TO.N,Net-(D48-A)*
X218122500Y-145415000D03*
G04 #@! TD*
G04 #@! TO.P,SW57,1,A*
G04 #@! TO.N,X2*
X154622500Y-147955000D03*
G04 #@! TO.P,SW57,2,B*
G04 #@! TO.N,Net-(D57-A)*
X160972500Y-145415000D03*
G04 #@! TD*
G04 #@! TO.P,SW61,1,A*
G04 #@! TO.N,X6*
X168910000Y-186055000D03*
G04 #@! TO.P,SW61,2,B*
G04 #@! TO.N,Net-(D61-A)*
X175260000Y-183515000D03*
G04 #@! TD*
G04 #@! TO.P,SW0,1,A*
G04 #@! TO.N,X1*
X430847500Y-105092500D03*
G04 #@! TO.P,SW0,2,B*
G04 #@! TO.N,Net-(D0-A)*
X437197500Y-102552500D03*
G04 #@! TD*
G04 #@! TO.P,SW47,1,A*
G04 #@! TO.N,X8*
X235585000Y-224155000D03*
G04 #@! TO.P,SW47,2,B*
G04 #@! TO.N,Net-(D47-A)*
X241935000Y-221615000D03*
G04 #@! TD*
G04 #@! TO.P,SW64,1,A*
G04 #@! TO.N,X1*
X116522500Y-147955000D03*
G04 #@! TO.P,SW64,2,B*
G04 #@! TO.N,Net-(D64-A)*
X122872500Y-145415000D03*
G04 #@! TD*
G04 #@! TO.P,SW71,1,A*
G04 #@! TO.N,X8*
X140335000Y-205105000D03*
G04 #@! TO.P,SW71,2,B*
G04 #@! TO.N,Net-(D71-A)*
X146685000Y-202565000D03*
G04 #@! TD*
G04 #@! TO.P,SW35,1,A*
G04 #@! TO.N,X4*
X259397500Y-167005000D03*
G04 #@! TO.P,SW35,2,B*
G04 #@! TO.N,Net-(D35-A)*
X265747500Y-164465000D03*
G04 #@! TD*
G04 #@! TO.P,SW51,1,A*
G04 #@! TO.N,X4*
X202247500Y-167005000D03*
G04 #@! TO.P,SW51,2,B*
G04 #@! TO.N,Net-(D51-A)*
X208597500Y-164465000D03*
G04 #@! TD*
G04 #@! TO.P,SW54,1,A*
G04 #@! TO.N,X7*
X216535000Y-205105000D03*
G04 #@! TO.P,SW54,2,B*
G04 #@! TO.N,Net-(D54-A)*
X222885000Y-202565000D03*
G04 #@! TD*
G04 #@! TO.P,SW46,1,A*
G04 #@! TO.N,X7*
X235585000Y-205105000D03*
G04 #@! TO.P,SW46,2,B*
G04 #@! TO.N,Net-(D46-A)*
X241935000Y-202565000D03*
G04 #@! TD*
G04 #@! TO.P,SW49,1,A*
G04 #@! TO.N,X2*
X192722500Y-147955000D03*
G04 #@! TO.P,SW49,2,B*
G04 #@! TO.N,Net-(D49-A)*
X199072500Y-145415000D03*
G04 #@! TD*
G04 #@! TO.P,SW26,1,A*
G04 #@! TO.N,X3*
X316547500Y-167005000D03*
G04 #@! TO.P,SW26,2,B*
G04 #@! TO.N,Net-(D26-A)*
X322897500Y-164465000D03*
G04 #@! TD*
G04 #@! TO.P,SW2,1,A*
G04 #@! TO.N,X3*
X430847500Y-143192500D03*
G04 #@! TO.P,SW2,2,B*
G04 #@! TO.N,Net-(D2-A)*
X437197500Y-140652500D03*
G04 #@! TD*
G04 #@! TO.P,SW40,1,A*
G04 #@! TO.N,X1*
X249872500Y-147955000D03*
G04 #@! TO.P,SW40,2,B*
G04 #@! TO.N,Net-(D40-A)*
X256222500Y-145415000D03*
G04 #@! TD*
G04 #@! TO.P,SW32,1,A*
G04 #@! TO.N,X1*
X287972500Y-147955000D03*
G04 #@! TO.P,SW32,2,B*
G04 #@! TO.N,Net-(D32-A)*
X294322500Y-145415000D03*
G04 #@! TD*
G04 #@! TO.P,SW55,1,A*
G04 #@! TO.N,X8*
X197485000Y-205105000D03*
G04 #@! TO.P,SW55,2,B*
G04 #@! TO.N,Net-(D55-A)*
X203835000Y-202565000D03*
G04 #@! TD*
G04 #@! TO.P,SW121,1,A*
G04 #@! TO.N,X6*
X357028750Y-205105000D03*
G04 #@! TO.P,SW121,2,B*
G04 #@! TO.N,Net-(D73-A)*
X363378750Y-202565000D03*
G04 #@! TD*
G04 #@! TO.P,SW44,1,A*
G04 #@! TO.N,X5*
X226060000Y-186055000D03*
G04 #@! TO.P,SW44,2,B*
G04 #@! TO.N,Net-(D44-A)*
X232410000Y-183515000D03*
G04 #@! TD*
D14*
G04 #@! TO.P,JP1,1,A*
G04 #@! TO.N,X8*
X105410000Y-120015000D03*
D15*
G04 #@! TO.P,JP1,2,C*
G04 #@! TO.N,Net-(J1-Pin_2)*
X105410000Y-122555000D03*
G04 #@! TO.P,JP1,3,B*
G04 #@! TO.N,Y10*
X105410000Y-125095000D03*
G04 #@! TD*
D14*
G04 #@! TO.P,J1,1,Pin_1*
G04 #@! TO.N,Net-(J1-Pin_1)*
X88905000Y-146215000D03*
D15*
G04 #@! TO.P,J1,2,Pin_2*
G04 #@! TO.N,Net-(J1-Pin_2)*
X86365000Y-146215000D03*
G04 #@! TO.P,J1,3,Pin_3*
G04 #@! TO.N,X1*
X88905000Y-148755000D03*
G04 #@! TO.P,J1,4,Pin_4*
G04 #@! TO.N,Y9*
X86365000Y-148755000D03*
G04 #@! TO.P,J1,5,Pin_5*
G04 #@! TO.N,X2*
X88905000Y-151295000D03*
G04 #@! TO.P,J1,6,Pin_6*
G04 #@! TO.N,Y8*
X86365000Y-151295000D03*
G04 #@! TO.P,J1,7,Pin_7*
G04 #@! TO.N,X3*
X88905000Y-153835000D03*
G04 #@! TO.P,J1,8,Pin_8*
G04 #@! TO.N,Y7*
X86365000Y-153835000D03*
G04 #@! TO.P,J1,9,Pin_9*
G04 #@! TO.N,X4*
X88905000Y-156375000D03*
G04 #@! TO.P,J1,10,Pin_10*
G04 #@! TO.N,Y6*
X86365000Y-156375000D03*
G04 #@! TO.P,J1,11,Pin_11*
G04 #@! TO.N,X5*
X88905000Y-158915000D03*
G04 #@! TO.P,J1,12,Pin_12*
G04 #@! TO.N,Y5*
X86365000Y-158915000D03*
G04 #@! TO.P,J1,13,Pin_13*
G04 #@! TO.N,X6*
X88905000Y-161455000D03*
G04 #@! TO.P,J1,14,Pin_14*
G04 #@! TO.N,Y4*
X86365000Y-161455000D03*
G04 #@! TO.P,J1,15,Pin_15*
G04 #@! TO.N,X7*
X88905000Y-163995000D03*
G04 #@! TO.P,J1,16,Pin_16*
G04 #@! TO.N,Y3*
X86365000Y-163995000D03*
G04 #@! TO.P,J1,17,Pin_17*
G04 #@! TO.N,X9*
X88905000Y-166535000D03*
G04 #@! TO.P,J1,18,Pin_18*
G04 #@! TO.N,Y2*
X86365000Y-166535000D03*
G04 #@! TO.P,J1,19,Pin_19*
G04 #@! TO.N,unconnected-(J1-Pin_19-Pad19)*
X88905000Y-169075000D03*
G04 #@! TO.P,J1,20,Pin_20*
G04 #@! TO.N,Y1*
X86365000Y-169075000D03*
G04 #@! TD*
D14*
G04 #@! TO.P,JP2,1,1*
G04 #@! TO.N,Y10*
X113030000Y-120015000D03*
D15*
G04 #@! TO.P,JP2,2,2*
G04 #@! TO.N,Net-(J1-Pin_1)*
X113030000Y-122555000D03*
G04 #@! TD*
D14*
G04 #@! TO.P,JP3,1,1*
G04 #@! TO.N,X8*
X97790000Y-122555000D03*
D15*
G04 #@! TO.P,JP3,2,2*
G04 #@! TO.N,X9*
X97790000Y-125095000D03*
G04 #@! TD*
D14*
G04 #@! TO.P,JP5,1,1*
G04 #@! TO.N,Net-(SW902-A)*
X142875000Y-120010000D03*
D15*
G04 #@! TO.P,JP5,2,2*
G04 #@! TO.N,X6*
X142875000Y-122550000D03*
G04 #@! TD*
D14*
G04 #@! TO.P,J3,1,Pin_1*
G04 #@! TO.N,X9*
X82550000Y-140855000D03*
D15*
G04 #@! TO.P,J3,2,Pin_2*
G04 #@! TO.N,Y10*
X82550000Y-143395000D03*
G04 #@! TO.P,J3,3,Pin_3*
G04 #@! TO.N,X1*
X82550000Y-145935000D03*
G04 #@! TO.P,J3,4,Pin_4*
G04 #@! TO.N,X2*
X82550000Y-148475000D03*
G04 #@! TO.P,J3,5,Pin_5*
G04 #@! TO.N,X3*
X82550000Y-151015000D03*
G04 #@! TO.P,J3,6,Pin_6*
G04 #@! TO.N,X4*
X82550000Y-153555000D03*
G04 #@! TO.P,J3,7,Pin_7*
G04 #@! TO.N,X5*
X82550000Y-156095000D03*
G04 #@! TO.P,J3,8,Pin_8*
G04 #@! TO.N,X6*
X82550000Y-158635000D03*
G04 #@! TO.P,J3,9,Pin_9*
G04 #@! TO.N,X7*
X82550000Y-161175000D03*
G04 #@! TO.P,J3,10,Pin_10*
G04 #@! TO.N,X8*
X82550000Y-163715000D03*
G04 #@! TO.P,J3,11,Pin_11*
G04 #@! TO.N,Y9*
X82550000Y-166255000D03*
G04 #@! TO.P,J3,12,Pin_12*
G04 #@! TO.N,Y8*
X82550000Y-168795000D03*
G04 #@! TO.P,J3,13,Pin_13*
G04 #@! TO.N,Y7*
X82550000Y-171335000D03*
G04 #@! TO.P,J3,14,Pin_14*
G04 #@! TO.N,Y6*
X82550000Y-173875000D03*
G04 #@! TO.P,J3,15,Pin_15*
G04 #@! TO.N,Y5*
X82550000Y-176415000D03*
G04 #@! TO.P,J3,16,Pin_16*
G04 #@! TO.N,Y4*
X82550000Y-178955000D03*
G04 #@! TO.P,J3,17,Pin_17*
G04 #@! TO.N,Y3*
X82550000Y-181495000D03*
G04 #@! TO.P,J3,18,Pin_18*
G04 #@! TO.N,Y2*
X82550000Y-184035000D03*
G04 #@! TO.P,J3,19,Pin_19*
G04 #@! TO.N,Y1*
X82550000Y-186575000D03*
G04 #@! TD*
D14*
G04 #@! TO.P,JP4,1,1*
G04 #@! TO.N,Net-(SW901-A)*
X140335000Y-120010000D03*
D15*
G04 #@! TO.P,JP4,2,2*
G04 #@! TO.N,X5*
X140335000Y-122550000D03*
G04 #@! TD*
D14*
G04 #@! TO.P,JP6,1,1*
G04 #@! TO.N,Net-(D74-K)*
X137795000Y-120010000D03*
D15*
G04 #@! TO.P,JP6,2,2*
G04 #@! TO.N,Y10*
X137795000Y-122550000D03*
G04 #@! TD*
D16*
G04 #@! TO.N,Net-(D74-K)*
X155282900Y-227037900D03*
G04 #@! TO.N,Net-(SW902-A)*
X280339800Y-129133600D03*
G04 #@! TO.N,Y10*
X357606600Y-148691600D03*
X353822000Y-130479800D03*
G04 #@! TO.N,Y9*
X124409200Y-187960000D03*
X134188200Y-207010000D03*
X190728600Y-151612600D03*
X119176800Y-149878200D03*
X119227600Y-169341800D03*
G04 #@! TO.N,Y8*
X188468000Y-152337600D03*
X159334200Y-187960000D03*
X157099000Y-150342600D03*
X157149800Y-168910000D03*
X155524200Y-207010000D03*
G04 #@! TO.N,Y7*
X95656400Y-170154600D03*
X195453000Y-168910000D03*
X193624200Y-207010000D03*
X195453000Y-149860000D03*
X197078600Y-187960000D03*
X186131200Y-149834600D03*
G04 #@! TO.N,Y6*
X233527600Y-149860000D03*
X233527600Y-168910000D03*
X187629800Y-170967400D03*
X230530400Y-208203800D03*
X94564200Y-170967400D03*
X235635800Y-187960000D03*
X230581200Y-225196400D03*
G04 #@! TO.N,Y5*
X273659600Y-187960000D03*
X271907000Y-149860000D03*
X177495200Y-171754800D03*
X93548200Y-171754800D03*
X271907000Y-168910000D03*
X267208000Y-207365600D03*
G04 #@! TO.N,Y4*
X309499000Y-149860000D03*
X309549800Y-168910000D03*
X91694000Y-172923200D03*
X311861200Y-187960000D03*
X305384200Y-207010000D03*
X174879000Y-172923200D03*
G04 #@! TO.N,Y3*
X338709000Y-150622000D03*
X327101200Y-207010000D03*
X331368400Y-168986200D03*
X90308600Y-195580000D03*
X325755000Y-224866200D03*
X169697400Y-229698900D03*
X90244000Y-181432200D03*
X333883000Y-187985400D03*
G04 #@! TO.N,Y2*
X424078400Y-126390400D03*
X407644600Y-226034600D03*
X424078400Y-168910000D03*
X157759400Y-208965800D03*
X407695400Y-207010000D03*
X87540000Y-184023000D03*
X425399200Y-188976000D03*
X424205400Y-207010000D03*
G04 #@! TO.N,X9*
X356082600Y-132080000D03*
X169519600Y-132080000D03*
G04 #@! TO.N,X8*
X264744200Y-213995000D03*
X137668000Y-168960800D03*
X303657000Y-212200000D03*
G04 #@! TO.N,X7*
X162636200Y-191264300D03*
X91033600Y-186055000D03*
G04 #@! TO.N,X6*
X127762000Y-193751200D03*
X92583000Y-191109600D03*
G04 #@! TO.N,X5*
X102235000Y-173913800D03*
X176225200Y-174020000D03*
G04 #@! TO.N,X4*
X179451000Y-168478200D03*
G04 #@! TO.N,X3*
X184785000Y-154970000D03*
X97459800Y-153797000D03*
G04 #@! TO.N,X2*
X132689600Y-150876000D03*
X187325000Y-147955000D03*
G04 #@! TO.N,X1*
X189865000Y-133985000D03*
G04 #@! TO.N,Y1*
X444500000Y-127584200D03*
X425475400Y-108508800D03*
X444550800Y-188976000D03*
X444525400Y-169875200D03*
X444449200Y-225044000D03*
X444576200Y-208305400D03*
X153162000Y-211861400D03*
X86365000Y-186563000D03*
G04 #@! TD*
D17*
G04 #@! TO.N,X5*
X102235000Y-173913800D02*
X102235000Y-167005000D01*
G04 #@! TO.N,Net-(SW902-A)*
X304659200Y-190664000D02*
X304659200Y-217029200D01*
X290245800Y-176250600D02*
X304659200Y-190664000D01*
X290245800Y-152304366D02*
X290245800Y-176250600D01*
X304659200Y-217029200D02*
X311785000Y-224155000D01*
X281736800Y-143795366D02*
X290245800Y-152304366D01*
X281736800Y-130530600D02*
X281736800Y-143795366D01*
X280339800Y-129133600D02*
X281736800Y-130530600D01*
G04 #@! TO.N,Net-(D74-K)*
X138760200Y-138607800D02*
X139738100Y-139585700D01*
X138970000Y-121185000D02*
X138970000Y-136825850D01*
X138970000Y-136825850D02*
X138760200Y-137035650D01*
X138760200Y-137035650D02*
X138760200Y-138607800D01*
X137795000Y-120010000D02*
X138970000Y-121185000D01*
X140481400Y-140329000D02*
X139738100Y-139585700D01*
G04 #@! TO.N,Net-(SW901-A)*
X141510000Y-135795000D02*
X141706600Y-135991600D01*
X141510000Y-121185000D02*
X141510000Y-135795000D01*
X140335000Y-120010000D02*
X141510000Y-121185000D01*
X141706600Y-135991600D02*
X144418400Y-138703400D01*
G04 #@! TO.N,Net-(D74-K)*
X139192000Y-145145631D02*
X140481400Y-143856231D01*
X140481400Y-143856231D02*
X140481400Y-140329000D01*
X143078200Y-170916600D02*
X139192000Y-167030400D01*
X139192000Y-167030400D02*
X139192000Y-145145631D01*
X145364200Y-197545850D02*
X143078200Y-195259850D01*
X143078200Y-195259850D02*
X143078200Y-170916600D01*
X145217000Y-201033131D02*
X145364200Y-200885931D01*
X145217000Y-216972000D02*
X145217000Y-201033131D01*
X155282900Y-227037900D02*
X145217000Y-216972000D01*
X145364200Y-200885931D02*
X145364200Y-197545850D01*
G04 #@! TO.N,Net-(SW901-A)*
X149809200Y-196687550D02*
X149809200Y-214579200D01*
X145643600Y-192521950D02*
X149809200Y-196687550D01*
X145643600Y-170459400D02*
X145643600Y-192521950D01*
X141331600Y-166147400D02*
X145643600Y-170459400D01*
X141331600Y-159150400D02*
X141331600Y-166147400D01*
X144418400Y-156063600D02*
X141331600Y-159150400D01*
X149809200Y-214579200D02*
X159385000Y-224155000D01*
X144418400Y-138703400D02*
X144418400Y-156063600D01*
G04 #@! TO.N,X8*
X135890000Y-200660000D02*
X140335000Y-205105000D01*
X139655900Y-188486700D02*
X135890000Y-192252600D01*
X135890000Y-192252600D02*
X135890000Y-200660000D01*
X139655900Y-170948700D02*
X139655900Y-188486700D01*
X137668000Y-168960800D02*
X139655900Y-170948700D01*
G04 #@! TO.N,Net-(SW902-A)*
X308019100Y-220389100D02*
X311785000Y-224155000D01*
G04 #@! TO.N,Y10*
X357606600Y-148691600D02*
X357606600Y-146005416D01*
X357606600Y-146005416D02*
X353822000Y-142220816D01*
X110490000Y-120015000D02*
X105410000Y-125095000D01*
X113030000Y-120015000D02*
X110490000Y-120015000D01*
X353822000Y-142220816D02*
X353822000Y-130479800D01*
G04 #@! TO.N,Y9*
X119176800Y-149878200D02*
X119176800Y-169291000D01*
X126492000Y-190042800D02*
X124409200Y-187960000D01*
X126492000Y-199313800D02*
X126492000Y-190042800D01*
X193327500Y-141463684D02*
X193327500Y-136634700D01*
X119227600Y-182778400D02*
X119227600Y-169341800D01*
X190728600Y-144062584D02*
X193327500Y-141463684D01*
X119176800Y-169291000D02*
X119227600Y-169341800D01*
X134188200Y-207010000D02*
X126492000Y-199313800D01*
X191040000Y-134347200D02*
X191040000Y-121190000D01*
X190728600Y-151612600D02*
X190728600Y-144062584D01*
X191040000Y-121190000D02*
X189865000Y-120015000D01*
X193327500Y-136634700D02*
X191040000Y-134347200D01*
X124409200Y-187960000D02*
X119227600Y-182778400D01*
G04 #@! TO.N,Y8*
X155524200Y-207010000D02*
X155524200Y-191770000D01*
X155524200Y-191770000D02*
X159334200Y-187960000D01*
X157099000Y-150342600D02*
X157099000Y-168859200D01*
X159334200Y-187960000D02*
X159334200Y-171018200D01*
X84658200Y-166686800D02*
X84658200Y-153001800D01*
X157099000Y-168859200D02*
X157149800Y-168910000D01*
X82550000Y-168795000D02*
X84658200Y-166686800D01*
X187325000Y-120015000D02*
X188500000Y-121190000D01*
X157226000Y-168910000D02*
X157149800Y-168910000D01*
X188500000Y-152305600D02*
X188468000Y-152337600D01*
X159334200Y-171018200D02*
X157226000Y-168910000D01*
X188500000Y-121190000D02*
X188500000Y-152305600D01*
X84658200Y-153001800D02*
X86365000Y-151295000D01*
G04 #@! TO.N,Y7*
X95656400Y-161315400D02*
X89541000Y-155200000D01*
X195453000Y-149860000D02*
X195453000Y-168910000D01*
X95656400Y-170154600D02*
X95656400Y-161315400D01*
X193624200Y-191414400D02*
X197078600Y-187960000D01*
X184785000Y-120015000D02*
X186131200Y-121361200D01*
X197078600Y-170535600D02*
X195453000Y-168910000D01*
X193624200Y-207010000D02*
X193624200Y-191414400D01*
X186131200Y-121361200D02*
X186131200Y-149834600D01*
X87730000Y-155200000D02*
X86365000Y-153835000D01*
X197078600Y-187960000D02*
X197078600Y-170535600D01*
X89541000Y-155200000D02*
X87730000Y-155200000D01*
G04 #@! TO.N,Y6*
X184073800Y-123505501D02*
X183610000Y-123041701D01*
X188772800Y-162737800D02*
X188772800Y-160629600D01*
X230530400Y-193065400D02*
X235635800Y-187960000D01*
X187629800Y-163880800D02*
X188772800Y-162737800D01*
X94564200Y-170967400D02*
X94564200Y-162864800D01*
X94564200Y-162864800D02*
X89439400Y-157740000D01*
X87730000Y-157740000D02*
X86365000Y-156375000D01*
X183610000Y-123041701D02*
X183610000Y-121380000D01*
X230632000Y-225145600D02*
X230581200Y-225196400D01*
X183610000Y-121380000D02*
X182245000Y-120015000D01*
X187629800Y-170967400D02*
X187629800Y-163880800D01*
X184060000Y-155916800D02*
X184060000Y-154669695D01*
X89439400Y-157740000D02*
X87730000Y-157740000D01*
X230530400Y-208203800D02*
X230632000Y-208305400D01*
X235635800Y-171018200D02*
X233527600Y-168910000D01*
X233527600Y-149860000D02*
X233527600Y-168910000D01*
X188772800Y-160629600D02*
X184060000Y-155916800D01*
X184073800Y-154655895D02*
X184073800Y-123505501D01*
X230632000Y-208305400D02*
X230632000Y-225145600D01*
X235635800Y-187960000D02*
X235635800Y-171018200D01*
X230530400Y-208203800D02*
X230530400Y-193065400D01*
X184060000Y-154669695D02*
X184073800Y-154655895D01*
G04 #@! TO.N,Y5*
X182575200Y-124788804D02*
X180898800Y-123112404D01*
X93548200Y-164388800D02*
X89439400Y-160280000D01*
X180898800Y-123112404D02*
X180898800Y-121208800D01*
X273659600Y-170662600D02*
X271907000Y-168910000D01*
X93548200Y-171754800D02*
X93548200Y-164388800D01*
X177495200Y-151003000D02*
X182575200Y-145923000D01*
X267182600Y-207340200D02*
X267182600Y-194437000D01*
X89439400Y-160280000D02*
X87730000Y-160280000D01*
X267182600Y-194437000D02*
X273659600Y-187960000D01*
X177495200Y-171754800D02*
X177495200Y-151003000D01*
X182575200Y-145923000D02*
X182575200Y-124788804D01*
X271907000Y-149860000D02*
X271907000Y-168910000D01*
X273659600Y-187960000D02*
X273659600Y-170662600D01*
X267208000Y-207365600D02*
X267182600Y-207340200D01*
X180898800Y-121208800D02*
X179705000Y-120015000D01*
X87730000Y-160280000D02*
X86365000Y-158915000D01*
G04 #@! TO.N,Y4*
X173583600Y-145491200D02*
X175140500Y-147048100D01*
X89201701Y-162630000D02*
X87540000Y-162630000D01*
X309499000Y-168859200D02*
X309549800Y-168910000D01*
X177165000Y-120015000D02*
X178340000Y-121190000D01*
X87540000Y-162630000D02*
X86365000Y-161455000D01*
X178340000Y-133699000D02*
X175336200Y-136702800D01*
X311861200Y-171221400D02*
X309549800Y-168910000D01*
X305384200Y-194437000D02*
X311861200Y-187960000D01*
X305384200Y-207010000D02*
X305384200Y-194437000D01*
X90387450Y-163815750D02*
X89201701Y-162630000D01*
X175140500Y-147048100D02*
X175140500Y-172661700D01*
X175140500Y-172661700D02*
X174879000Y-172923200D01*
X91694000Y-172923200D02*
X91694000Y-165122300D01*
X311861200Y-187960000D02*
X311861200Y-171221400D01*
X175336200Y-140182600D02*
X173583600Y-141935200D01*
X309499000Y-149860000D02*
X309499000Y-168859200D01*
X175336200Y-136702800D02*
X175336200Y-140182600D01*
X178340000Y-121190000D02*
X178340000Y-133699000D01*
X173583600Y-141935200D02*
X173583600Y-145491200D01*
X91694000Y-165122300D02*
X90387450Y-163815750D01*
G04 #@! TO.N,Y3*
X175990000Y-130969000D02*
X166827200Y-140131800D01*
X333883000Y-171500800D02*
X331368400Y-168986200D01*
X168605200Y-163728400D02*
X168605200Y-164623366D01*
X87730000Y-165360000D02*
X86365000Y-163995000D01*
X331368400Y-157962600D02*
X338709000Y-150622000D01*
X333883000Y-187985400D02*
X333883000Y-171500800D01*
X166827200Y-157861000D02*
X169519600Y-160553400D01*
X90398600Y-166366899D02*
X89391701Y-165360000D01*
X165100000Y-168128566D02*
X165100000Y-188772800D01*
X327069100Y-206977900D02*
X327069100Y-194799300D01*
X89391701Y-165360000D02*
X87730000Y-165360000D01*
X325755000Y-224866200D02*
X325755000Y-208356200D01*
X90308600Y-167196600D02*
X90398600Y-167106600D01*
X327069100Y-194799300D02*
X333883000Y-187985400D01*
X90308600Y-195580000D02*
X90308600Y-167196600D01*
X174625000Y-120015000D02*
X175990000Y-121380000D01*
X168605200Y-164623366D02*
X165100000Y-168128566D01*
X166827200Y-140131800D02*
X166827200Y-157861000D01*
X327101200Y-207010000D02*
X327069100Y-206977900D01*
X325755000Y-208356200D02*
X327101200Y-207010000D01*
X169697400Y-193370200D02*
X169697400Y-229698900D01*
X169519600Y-160553400D02*
X169519600Y-162814000D01*
X169519600Y-162814000D02*
X168605200Y-163728400D01*
X165100000Y-188772800D02*
X169697400Y-193370200D01*
X90398600Y-167106600D02*
X90398600Y-166366899D01*
X175990000Y-121380000D02*
X175990000Y-130969000D01*
X331368400Y-168986200D02*
X331368400Y-157962600D01*
G04 #@! TO.N,Y2*
X425399200Y-170230800D02*
X424078400Y-168910000D01*
X425399200Y-188976000D02*
X425399200Y-170230800D01*
X170910000Y-129664295D02*
X163677600Y-136896695D01*
X163677600Y-136896695D02*
X163677600Y-152476200D01*
X424205400Y-190169800D02*
X425399200Y-188976000D01*
X424078400Y-168910000D02*
X424078400Y-126390400D01*
X163677600Y-152476200D02*
X159258000Y-156895800D01*
X159258000Y-156895800D02*
X159258000Y-167767000D01*
X159258000Y-167767000D02*
X160451800Y-168960800D01*
X407644600Y-226034600D02*
X407644600Y-207060800D01*
X407644600Y-207060800D02*
X407695400Y-207010000D01*
X424205400Y-207010000D02*
X424205400Y-190169800D01*
X160451800Y-168960800D02*
X160451800Y-198148069D01*
X160451800Y-198148069D02*
X158070900Y-200528969D01*
X170910000Y-121190000D02*
X170910000Y-129664295D01*
X87540000Y-167710000D02*
X87540000Y-184023000D01*
X172085000Y-120015000D02*
X170910000Y-121190000D01*
X86365000Y-166535000D02*
X87540000Y-167710000D01*
X157759400Y-200844284D02*
X157759400Y-208965800D01*
X158070900Y-200532784D02*
X157759400Y-200844284D01*
X158070900Y-200528969D02*
X158070900Y-200532784D01*
G04 #@! TO.N,X9*
X86851701Y-165170000D02*
X85878299Y-165170000D01*
X87540000Y-151781701D02*
X87540000Y-150805200D01*
X88905000Y-166535000D02*
X88216701Y-166535000D01*
X86068299Y-152470000D02*
X86851701Y-152470000D01*
X85190000Y-153348299D02*
X86068299Y-152470000D01*
X83743800Y-147795501D02*
X83743800Y-142048800D01*
X83743800Y-142048800D02*
X82550000Y-140855000D01*
X97790000Y-125095000D02*
X82550000Y-140335000D01*
X85878299Y-165170000D02*
X85190000Y-164481701D01*
X356082600Y-132080000D02*
X356082600Y-139865100D01*
X356082600Y-139865100D02*
X364172500Y-147955000D01*
X87540000Y-150805200D02*
X86664800Y-149930000D01*
X172085000Y-122555000D02*
X172085000Y-129514600D01*
X85878299Y-149930000D02*
X83743800Y-147795501D01*
X82550000Y-140335000D02*
X82550000Y-140855000D01*
X88963400Y-166535000D02*
X88976200Y-166547800D01*
X88216701Y-166535000D02*
X86851701Y-165170000D01*
X86664800Y-149930000D02*
X85878299Y-149930000D01*
X172085000Y-129514600D02*
X169519600Y-132080000D01*
X86851701Y-152470000D02*
X87540000Y-151781701D01*
X85190000Y-164481701D02*
X85190000Y-153348299D01*
G04 #@! TO.N,X8*
X82550000Y-163715000D02*
X81375000Y-162540000D01*
X105410000Y-120015000D02*
X100330000Y-120015000D01*
X100330000Y-120015000D02*
X97790000Y-122555000D01*
X81375000Y-162540000D02*
X81375000Y-138970000D01*
X264744200Y-213995000D02*
X264795000Y-213995000D01*
X81375000Y-138970000D02*
X97790000Y-122555000D01*
X264795000Y-213995000D02*
X273685000Y-205105000D01*
X299830000Y-212200000D02*
X292735000Y-205105000D01*
X303657000Y-212200000D02*
X299830000Y-212200000D01*
X97790000Y-123265000D02*
X97790000Y-122555000D01*
G04 #@! TO.N,X7*
X91033600Y-186055000D02*
X90969000Y-185990400D01*
X90969000Y-166059000D02*
X88905000Y-163995000D01*
X164752500Y-138912600D02*
X164752500Y-160519900D01*
X174625000Y-129040100D02*
X164752500Y-138912600D01*
X90969000Y-185990400D02*
X90969000Y-166059000D01*
X164752500Y-160519900D02*
X162636200Y-162636200D01*
X162636200Y-162636200D02*
X162636200Y-191264300D01*
X174625000Y-122555000D02*
X174625000Y-129040100D01*
G04 #@! TO.N,X6*
X173050200Y-158318200D02*
X172993400Y-158375000D01*
X127762000Y-193751200D02*
X127762000Y-189103000D01*
X172974000Y-158242000D02*
X173050200Y-158318200D01*
X177165000Y-122555000D02*
X177165000Y-132384800D01*
X92583000Y-191109600D02*
X92583000Y-165133000D01*
X172993400Y-158375000D02*
X172993400Y-167233600D01*
X169799000Y-139750800D02*
X169799000Y-148513800D01*
X172993400Y-167233600D02*
X170459400Y-169767600D01*
X177165000Y-132384800D02*
X169799000Y-139750800D01*
X92583000Y-165133000D02*
X88905000Y-161455000D01*
X170459400Y-178409600D02*
X168910000Y-179959000D01*
X127762000Y-189103000D02*
X130810000Y-186055000D01*
X168910000Y-179959000D02*
X168910000Y-186055000D01*
X169799000Y-148513800D02*
X172974000Y-151688800D01*
X172974000Y-151688800D02*
X172974000Y-158242000D01*
X170459400Y-169767600D02*
X170459400Y-178409600D01*
G04 #@! TO.N,X5*
X179705000Y-122555000D02*
X181178200Y-124028200D01*
X178581400Y-144780034D02*
X176225200Y-147136234D01*
X179273200Y-141909800D02*
X179273200Y-143529400D01*
X181178200Y-140004800D02*
X179273200Y-141909800D01*
X178581400Y-144221200D02*
X178581400Y-144780034D01*
X179273200Y-143529400D02*
X178581400Y-144221200D01*
X181178200Y-124028200D02*
X181178200Y-140004800D01*
X176225200Y-147136234D02*
X176225200Y-174020000D01*
G04 #@! TO.N,X4*
X179451000Y-168478200D02*
X179431600Y-168458800D01*
X183362600Y-147955000D02*
X183362600Y-123672600D01*
X183362600Y-123672600D02*
X182245000Y-122555000D01*
X179431600Y-168458800D02*
X179431600Y-151886000D01*
X179431600Y-151886000D02*
X183362600Y-147955000D01*
G04 #@! TO.N,X3*
X97472500Y-153784300D02*
X97472500Y-147955000D01*
X97459800Y-153797000D02*
X97472500Y-153784300D01*
X184785000Y-122555000D02*
X184785000Y-154970000D01*
G04 #@! TO.N,X2*
X132689600Y-150876000D02*
X132689600Y-150837900D01*
X132689600Y-150837900D02*
X135572500Y-147955000D01*
X187325000Y-122555000D02*
X187325000Y-147955000D01*
G04 #@! TO.N,X1*
X189865000Y-122555000D02*
X189865000Y-133985000D01*
G04 #@! TO.N,Y1*
X444550800Y-208280000D02*
X444550800Y-188976000D01*
X162483800Y-139065000D02*
X160248600Y-141300200D01*
X444550800Y-169900600D02*
X444525400Y-169875200D01*
X444449200Y-225044000D02*
X444449200Y-208432400D01*
X444525400Y-162791250D02*
X444500000Y-162765850D01*
X86365000Y-186563000D02*
X86365000Y-169075000D01*
X153162000Y-183997600D02*
X153162000Y-211861400D01*
X156362400Y-171805600D02*
X157505400Y-172948600D01*
X157505400Y-177393600D02*
X155651200Y-179247800D01*
X155651200Y-181508400D02*
X153162000Y-183997600D01*
X169545000Y-120015000D02*
X162483800Y-127076200D01*
X444500000Y-119903350D02*
X433105450Y-108508800D01*
X444576200Y-208305400D02*
X444550800Y-208280000D01*
X444525400Y-169875200D02*
X444525400Y-162791250D01*
X444550800Y-188976000D02*
X444550800Y-169900600D01*
X157505400Y-172948600D02*
X157505400Y-177393600D01*
X155651200Y-179247800D02*
X155651200Y-181508400D01*
X156362400Y-147472400D02*
X156362400Y-171805600D01*
X425475400Y-108508800D02*
X425348400Y-108635800D01*
X162483800Y-127076200D02*
X162483800Y-139065000D01*
X433105450Y-108508800D02*
X425475400Y-108508800D01*
X444449200Y-208432400D02*
X444576200Y-208305400D01*
X160248600Y-143586200D02*
X156362400Y-147472400D01*
X444500000Y-127584200D02*
X444500000Y-119903350D01*
X444500000Y-162765850D02*
X444500000Y-127584200D01*
X160248600Y-141300200D02*
X160248600Y-143586200D01*
G04 #@! TO.N,Net-(J1-Pin_2)*
X86365000Y-146215000D02*
X86365000Y-141600000D01*
X86365000Y-141600000D02*
X105410000Y-122555000D01*
G04 #@! TD*
M02*
